<svg xmlns="http://www.w3.org/2000/svg" viewBox="0 0 942.38 1125.08"><defs><style>.cls-1,.cls-3{fill:none;stroke-miterlimit:10;stroke-width:4px;}.cls-1{stroke:#f4f4f4;}.cls-2{fill:#fca311;}.cls-3{stroke:#f2f2f2;}.cls-4{font-size:34px;}.cls-19,.cls-4{fill:#222c35;font-family:Gilmer-Bold, Gilmer;font-weight:700;}.cls-13,.cls-19,.cls-26,.cls-4{letter-spacing:0.03em;}.cls-15,.cls-22,.cls-23,.cls-26,.cls-27,.cls-28,.cls-32,.cls-33,.cls-5{fill:#f2f2f2;}.cls-15,.cls-22,.cls-23,.cls-26,.cls-27,.cls-28,.cls-32,.cls-33,.cls-36,.cls-5{font-family:Gilmer-Heavy, Gilmer;font-weight:800;}.cls-6{letter-spacing:0.01em;}.cls-7{letter-spacing:0em;}.cls-15,.cls-8{letter-spacing:0.02em;}.cls-9{letter-spacing:0.02em;}.cls-10{letter-spacing:0.01em;}.cls-11{letter-spacing:0.01em;}.cls-12{letter-spacing:-0.05em;}.cls-14{letter-spacing:0em;}.cls-16,.cls-27{letter-spacing:0.01em;}.cls-17,.cls-23{letter-spacing:0.03em;}.cls-18,.cls-28{letter-spacing:0.01em;}.cls-20{letter-spacing:0.02em;}.cls-21{letter-spacing:0.01em;}.cls-22,.cls-29{letter-spacing:0.01em;}.cls-24{letter-spacing:0.01em;}.cls-25{letter-spacing:0.05em;}.cls-30,.cls-32{letter-spacing:0.01em;}.cls-31{letter-spacing:0.02em;}.cls-33{font-size:65px;letter-spacing:0.01em;}.cls-34{letter-spacing:0.01em;}.cls-35{letter-spacing:-0.07em;}.cls-36{font-size:38.87px;fill:#f4f4f4;letter-spacing:0.03em;}.cls-37{letter-spacing:-0.06em;}.cls-38{letter-spacing:0.02em;}.cls-39{letter-spacing:0.02em;}.cls-40{letter-spacing:0.03em;}</style></defs><g id="Layer_2" data-name="Layer 2"><g id="Mock_up" data-name="Mock up"><g id="Layout"><rect id="Square_Line" data-name="Square Line" class="cls-1" x="59.98" y="2" width="731.93" height="119.72"/><g id="Squares"><rect class="cls-2" x="61.17" y="194.1" width="820.04" height="85.08"/><rect class="cls-2" x="61.17" y="459.93" width="820.04" height="85.08"/><rect class="cls-2" x="61.17" y="573.71" width="820.04" height="85.08"/><rect class="cls-2" x="61.17" y="693.12" width="820.04" height="85.08"/><rect class="cls-2" x="61.17" y="310.66" width="820.04" height="115.6"/></g><g id="Lines"><polyline class="cls-3" points="61.17 735.66 2 735.66 2 1074.53 59.98 1074.53"/><polyline class="cls-1" points="880.85 236.64 940.02 236.64 940.02 59.67 791.82 59.67"/><polyline class="cls-3" points="61.17 236.64 2 236.64 2 368.46 61.17 368.46"/><polyline class="cls-3" points="881.21 505.29 940.38 505.29 940.38 368.46 881.21 368.46"/><polyline class="cls-3" points="881.21 735.66 940.38 735.66 940.38 616.24 881.21 616.24"/><polyline class="cls-3" points="61.17 502.46 2 502.46 2 616.24 61.17 616.24"/></g><rect id="Square" class="cls-2" x="59.86" y="1023.98" width="465.86" height="101.1"/></g><g id="Textos"><text class="cls-4" transform="translate(126.65 229.66)">A matricula é <tspan class="cls-5" x="245.21" y="0">100% on-line</tspan><tspan x="480.42" y="0" xml:space="preserve"> e </tspan><tspan class="cls-6" x="520.41" y="0">t</tspan><tspan x="534.61" y="0">odo o </tspan><tspan x="0" y="36">p</tspan><tspan class="cls-7" x="22.93" y="36">r</tspan><tspan x="36.09" y="36">oce</tspan><tspan class="cls-8" x="99.81" y="36">s</tspan><tspan class="cls-9" x="118.13" y="36">s</tspan><tspan x="136.58" y="36">o é au</tspan><tspan class="cls-6" x="243.31" y="36">t</tspan><tspan x="257.51" y="36">omati</tspan><tspan class="cls-10" x="359.83" y="36">z</tspan><tspan x="378.25" y="36">ad</tspan><tspan class="cls-11" x="424.11" y="36">o</tspan><tspan x="445.09" y="36">.</tspan><tspan class="cls-12"><tspan x="0" y="116">V</tspan><tspan class="cls-13" x="22.5" y="116">ocê ganha uma </tspan><tspan class="cls-14" x="304.73" y="116">f</tspan><tspan class="cls-13" x="318.67" y="116">ormação em Ge</tspan><tspan class="cls-8" x="597.54" y="116">s</tspan><tspan class="cls-6" x="615.85" y="116">t</tspan><tspan class="cls-13" x="630.06" y="116">ã</tspan><tspan class="cls-11" x="652.99" y="116">o</tspan><tspan class="cls-13" x="673.97" y="116">, </tspan></tspan><tspan x="0" y="151">Lide</tspan><tspan class="cls-7" x="74.69" y="151">r</tspan><tspan x="87.84" y="151">ança e Emp</tspan><tspan class="cls-7" x="294.34" y="151">r</tspan><tspan x="307.49" y="151">eendedorismo e um </tspan><tspan class="cls-15"><tspan x="0" y="186">E</tspan><tspan class="cls-13" x="22" y="186">-book </tspan><tspan class="cls-16" x="135.35" y="186">ex</tspan><tspan class="cls-17" x="174.95" y="186">c</tspan><tspan class="cls-13" x="195.54" y="186">lusi</tspan><tspan class="cls-18" x="257.64" y="186">v</tspan><tspan class="cls-13" x="278.2" y="186">o</tspan><tspan class="cls-19" x="299.89" y="186">.</tspan></tspan><tspan class="cls-20"><tspan x="0" y="266">A</tspan><tspan class="cls-13" x="25.08" y="266">ce</tspan><tspan class="cls-8" x="67.04" y="266">s</tspan><tspan class="cls-9" x="85.36" y="266">s</tspan><tspan class="cls-13" x="103.81" y="266">o à pla</tspan><tspan class="cls-21" x="223.03" y="266">t</tspan><tspan class="cls-13" x="237.23" y="266">a</tspan><tspan class="cls-14" x="260.17" y="266">f</tspan><tspan class="cls-13" x="274.1" y="266">orma de con</tspan><tspan class="cls-6" x="492.97" y="266">t</tspan><tspan class="cls-13" x="507.18" y="266">eúdos e o </tspan></tspan><tspan x="0" y="300">podca</tspan><tspan class="cls-8" x="111.28" y="300">s</tspan><tspan x="129.6" y="300">t ITH du</tspan><tspan class="cls-7" x="266.82" y="300">r</tspan><tspan x="279.98" y="300">an</tspan><tspan class="cls-6" x="324.97" y="300">t</tspan><tspan x="339.17" y="300">e </tspan><tspan class="cls-22" x="369.78" y="300">t</tspan><tspan class="cls-5" x="384.18" y="300">odo o cur</tspan><tspan class="cls-23" x="548.17" y="300">s</tspan><tspan class="cls-5" x="566.84" y="300">o</tspan><tspan x="588.53" y="300">.</tspan><tspan class="cls-24"><tspan x="0" y="380">P</tspan><tspan class="cls-13" x="22.67" y="380">a</tspan><tspan class="cls-25" x="45.6" y="380">r</tspan><tspan class="cls-13" x="60.39" y="380">ticipa da </tspan><tspan class="cls-26" x="226.57" y="380">co</tspan><tspan class="cls-23" x="269.02" y="380">m</tspan><tspan class="cls-26" x="301.65" y="380">unidade </tspan><tspan class="cls-27" x="455.94" y="380">ex</tspan><tspan class="cls-23" x="495.53" y="380">c</tspan><tspan class="cls-26" x="516.12" y="380">lusi</tspan><tspan class="cls-28" x="578.23" y="380">v</tspan><tspan class="cls-26" x="598.79" y="380">a</tspan><tspan class="cls-13" x="621.72" y="380" xml:space="preserve"> de </tspan></tspan><tspan x="0" y="415">alunos e </tspan><tspan class="cls-16" x="157.35" y="415">e</tspan><tspan class="cls-29" x="177.74" y="415">x</tspan><tspan x="196.64" y="415">-alunos ITH pa</tspan><tspan class="cls-7" x="454.6" y="415">r</tspan><tspan x="467.76" y="415">a n</tspan><tspan class="cls-30" x="522.12" y="415">e</tspan><tspan class="cls-31" x="542.84" y="415">t</tspan><tspan class="cls-18" x="557.62" y="415">w</tspan><tspan x="585.65" y="415">orking.</tspan><tspan x="0" y="495">Seu ce</tspan><tspan class="cls-25" x="118.36" y="495">r</tspan><tspan x="133.15" y="495">tificad</tspan><tspan class="cls-11" x="247.18" y="495">o</tspan><tspan x="268.15" y="495">, </tspan><tspan class="cls-27" x="287.82" y="495">r</tspan><tspan class="cls-5" x="301.59" y="495">econhecido pelo M</tspan><tspan class="cls-32" x="632.2" y="495">E</tspan><tspan class="cls-5" x="654.02" y="495">C</tspan><tspan x="681.33" y="495">, é </tspan><tspan x="0" y="530">ent</tspan><tspan class="cls-7" x="58.31" y="530">r</tspan><tspan x="71.47" y="530">egue após a con</tspan><tspan class="cls-17" x="360.66" y="530">c</tspan><tspan x="381.22" y="530">lu</tspan><tspan class="cls-9" x="413.19" y="530">s</tspan><tspan x="431.64" y="530">ã</tspan><tspan class="cls-11" x="454.58" y="530">o</tspan><tspan x="475.55" y="530">.</tspan></text><text class="cls-33" transform="translate(117.03 80.97)">C<tspan class="cls-34" x="50.57" y="0">OMO FUN</tspan><tspan x="365.91" y="0">C</tspan><tspan class="cls-34" x="416.48" y="0">ION</tspan><tspan class="cls-35" x="537.45" y="0">A</tspan><tspan class="cls-34" x="580.41" y="0">?</tspan></text><text class="cls-36" transform="translate(116.66 1087)">ME M<tspan class="cls-37" x="104.65" y="0">A</tspan><tspan class="cls-38" x="130.92" y="0">TRI</tspan><tspan class="cls-39" x="197.29" y="0">C</tspan><tspan class="cls-38" x="228.12" y="0">U</tspan><tspan class="cls-40" x="257.54" y="0">L</tspan><tspan class="cls-38" x="281.23" y="0">AR!</tspan></text></g></g></g></svg>