<svg id="Layer_1" data-name="Layer 1" xmlns="http://www.w3.org/2000/svg" viewBox="0 0 161.56 161.56"><defs><style>.cls-1{fill:#00377b;}.cls-2{fill:#fff;}</style></defs><title>Artboard 2</title><rect class="cls-1" width="161.56" height="161.56" rx="44.95"/><polygon class="cls-2" points="71.67 114.14 51.86 114.14 51.86 94.33 71.67 94.33 71.67 114.14 71.67 114.14"/><polygon class="cls-2" points="67.78 130.29 55.75 130.29 55.75 118.26 67.78 118.26 67.78 130.29 67.78 130.29"/><polygon class="cls-2" points="47.89 110.25 35.86 110.25 35.86 98.22 47.89 98.22 47.89 110.25 47.89 110.25"/><polygon class="cls-2" points="67.69 146.48 59.4 146.48 59.4 138.19 67.69 138.19 67.69 146.48 67.69 146.48"/><polygon class="cls-2" points="28.22 110.62 19.57 110.62 19.57 101.97 28.22 101.97 28.22 110.62 28.22 110.62"/><polygon class="cls-2" points="92.17 54.06 111.99 54.06 111.99 73.88 92.17 73.88 92.17 54.06 92.17 54.06"/><polygon class="cls-2" points="96.06 37.91 108.1 37.91 108.1 49.95 96.06 49.95 96.06 37.91 96.06 37.91"/><polygon class="cls-2" points="115.96 57.95 127.99 57.95 127.99 69.99 115.96 69.99 115.96 57.95 115.96 57.95"/><polygon class="cls-2" points="120.89 33.38 132.52 33.38 132.52 45.02 120.89 45.02 120.89 33.38 120.89 33.38"/><polygon class="cls-2" points="60.31 15.07 74.69 15.07 74.69 29.45 60.31 29.45 60.31 15.07 60.31 15.07"/><polygon class="cls-2" points="36.31 36.45 46.96 36.45 46.96 47.09 36.31 47.09 36.31 36.45 36.31 36.45"/><polygon class="cls-2" points="112.73 119.26 122.67 119.26 122.67 129.2 112.73 129.2 112.73 119.26 112.73 119.26"/><polygon class="cls-2" points="99.57 22.34 107.39 22.34 107.39 30.16 99.57 30.16 99.57 22.34 99.57 22.34"/><polygon class="cls-2" points="135.65 61.73 144.4 61.73 144.4 70.47 135.65 70.47 135.65 61.73 135.65 61.73"/><polygon class="cls-2" points="14.86 64.72 23.9 64.72 23.9 73.76 14.86 73.76 14.86 64.72 14.86 64.72"/><polygon class="cls-2" points="131.8 93.69 131.8 73.88 111.99 73.88 111.99 93.69 105.1 93.69 105.1 93.68 91.49 93.68 91.49 114.14 71.67 114.14 71.67 133.96 91.49 133.96 91.49 142.86 104.11 142.86 104.11 110.25 143.27 110.25 143.27 93.69 131.8 93.69 131.8 93.69"/><polygon class="cls-2" points="72.36 34.25 72.36 34.16 59.74 34.16 59.74 57.95 31.93 57.95 31.93 74.52 32.05 74.52 32.05 94.33 51.86 94.33 51.86 74.52 72.36 74.52 72.36 54.06 92.17 54.06 92.17 34.25 72.36 34.25 72.36 34.25"/></svg>