<?xml version="1.0" standalone="no"?>
<!DOCTYPE svg PUBLIC "-//W3C//DTD SVG 20010904//EN"
 "http://www.w3.org/TR/2001/REC-SVG-20010904/DTD/svg10.dtd">
<svg version="1.0" xmlns="http://www.w3.org/2000/svg"
 width="700.000000pt" height="700.000000pt" viewBox="0 0 700.000000 700.000000"
 preserveAspectRatio="xMidYMid meet">
<metadata>
Created by potrace 1.11, written by Peter Selinger 2001-2013
</metadata>
<g transform="translate(0.000000,700.000000) scale(0.100000,-0.100000)"
fill="#000000" stroke="none">
<path d="M1770 6993 c-78 -6 -271 -43 -363 -69 -303 -85 -603 -261 -831 -488
-254 -252 -432 -567 -516 -909 -62 -250 -61 -212 -58 -2087 4 -1876 0 -1745
65 -1995 180 -691 740 -1231 1443 -1394 202 -47 156 -46 1990 -46 1834 0 1788
-1 1990 46 287 66 570 205 796 389 369 303 609 721 691 1208 17 100 18 219 18
1857 0 1930 4 1798 -62 2050 -139 531 -510 989 -1000 1235 -184 91 -323 138
-543 182 l-115 23 -1730 1 c-952 0 -1750 -1 -1775 -3z m1465 -958 l0 -310
-310 0 -310 0 -3 300 c-1 165 0 306 3 313 3 10 70 12 312 10 l308 -3 0 -310z
m1415 -175 l0 -170 -167 2 -168 3 -3 168 -2 167 170 0 170 0 0 -170z m1090
-560 l0 -250 -250 0 -250 0 0 250 0 250 250 0 250 0 0 -250z m-1750 -210 l0
-430 430 0 430 0 0 -430 0 -430 430 0 430 0 0 -430 0 -430 250 0 250 0 0 -360
0 -360 -850 0 -850 0 0 -705 0 -705 -275 0 -275 0 0 195 0 195 -425 0 -425 0
0 425 0 425 425 0 425 0 0 445 0 445 445 0 445 0 0 430 0 430 -430 0 -430 0 0
430 0 430 -425 0 -425 0 -2 -442 -3 -443 -442 -3 -443 -2 0 -430 0 -430 430 0
430 0 -2 -427 -3 -428 -427 -3 -428 -2 0 430 0 430 -430 0 -430 0 0 248 c0
137 -3 492 -7 790 l-6 542 606 0 607 0 0 515 0 515 700 0 700 0 0 -430z
m-1960 100 l0 -230 -230 0 -230 0 0 230 0 230 230 0 230 0 0 -230z m2650 -90
l0 -260 -260 0 -260 0 0 260 0 260 260 0 260 0 0 -260z m870 -870 l0 -260
-265 0 -265 0 0 260 0 260 265 0 265 0 0 -260z m708 -92 l2 -188 -190 0 -190
0 0 190 0 190 188 -2 187 -3 3 -187z m-5223 -138 l0 -195 -195 0 -195 0 -3
185 c-1 101 0 190 3 197 3 11 46 13 197 11 l193 -3 0 -195z m1043 -1517 l-3
-258 -260 0 -260 0 -3 258 -2 257 265 0 265 0 -2 -257z m-858 -88 l0 -185
-185 0 -185 0 0 185 0 185 185 0 185 0 0 -185z m1715 -780 l0 -260 -257 -3
-258 -2 0 265 0 265 258 -2 257 -3 0 -260z m2383 3 l-3 -213 -215 0 -215 0 -3
213 -2 212 220 0 220 0 -2 -212z m-2388 -788 l0 -180 -177 2 -178 3 -3 178 -2
177 180 0 180 0 0 -180z"/>
</g>
</svg>
