<svg xmlns="http://www.w3.org/2000/svg" viewBox="0 0 1195.27 1212.52"><defs><style>.cls-1{opacity:0.1;}.cls-2{fill:#f4f4f4;}</style></defs><g id="Layer_2" data-name="Layer 2"><g id="Mock_up" data-name="Mock up"><g id="Icon_Logo" data-name="Icon Logo" class="cls-1"><rect class="cls-2" x="341.41" y="731.29" width="182.82" height="182.82"/><rect class="cls-2" x="377.3" y="952.11" width="111.04" height="111.04"/><rect class="cls-2" x="193.73" y="767.19" width="111.04" height="111.04"/><rect class="cls-2" x="410.94" y="1136" width="76.52" height="76.52"/><rect class="cls-2" x="43.44" y="801.79" width="79.83" height="79.83"/><rect class="cls-2" x="713.37" y="359.75" width="182.82" height="182.82"/><rect class="cls-2" x="749.26" y="210.72" width="111.04" height="111.04"/><rect class="cls-2" x="932.82" y="395.64" width="111.04" height="111.04"/><rect class="cls-2" x="978.31" y="168.9" width="107.38" height="107.37"/><rect class="cls-2" x="419.41" width="132.64" height="132.63"/><rect class="cls-2" x="197.96" y="197.19" width="98.21" height="98.21"/><rect class="cls-2" x="903.1" y="961.36" width="91.67" height="91.67"/><rect class="cls-2" x="781.63" y="66.99" width="72.15" height="72.15"/><rect class="cls-2" x="1114.58" y="430.49" width="80.68" height="80.69"/><rect class="cls-2" y="458.09" width="83.39" height="83.4"/><polygon class="cls-2" points="1079.01 725.4 1079.01 542.58 896.19 542.58 896.19 725.4 832.67 725.4 832.67 725.33 707.05 725.33 707.05 797.57 707.05 828.66 707.05 914.12 524.23 914.12 524.23 1096.94 707.05 1096.94 707.05 1179.09 823.5 1179.09 823.5 878.23 1184.88 878.23 1184.88 725.4 1079.01 725.4"/><polygon class="cls-2" points="530.54 176.93 530.54 176.14 414.09 176.14 414.09 395.64 157.53 395.64 157.53 548.47 158.59 548.47 158.59 731.29 341.41 731.29 341.41 548.47 404.92 548.47 450.45 548.47 530.54 548.47 530.54 476.3 530.54 445.14 530.54 359.75 713.37 359.75 713.37 176.93 530.54 176.93"/></g></g></g></svg>