<svg xmlns="http://www.w3.org/2000/svg" viewBox="0 0 1292.62 1311.28"><defs><style>.cls-1{opacity:0.1;}.cls-2{fill:#222c35;}</style></defs><g id="Layer_2" data-name="Layer 2"><g id="Cursos_Mais_Desejados" data-name="Cursos Mais Desejados"><g id="Icone_logo" data-name="Icone logo" class="cls-1"><rect class="cls-2" x="369.22" y="790.86" width="197.71" height="197.71"/><rect class="cls-2" x="408.03" y="1029.66" width="120.09" height="120.09"/><rect class="cls-2" x="209.51" y="829.67" width="120.09" height="120.08"/><rect class="cls-2" x="444.42" y="1228.52" width="82.76" height="82.76"/><rect class="cls-2" x="46.98" y="867.09" width="86.33" height="86.33"/><rect class="cls-2" x="771.47" y="389.05" width="197.71" height="197.71"/><rect class="cls-2" x="810.28" y="227.89" width="120.09" height="120.08"/><rect class="cls-2" x="1008.8" y="427.87" width="120.09" height="120.09"/><rect class="cls-2" x="1057.99" y="182.66" width="116.12" height="116.12"/><rect class="cls-2" x="453.57" width="143.44" height="143.44"/><rect class="cls-2" x="214.08" y="213.25" width="106.21" height="106.2"/><rect class="cls-2" x="976.66" y="1039.66" width="99.14" height="99.14"/><rect class="cls-2" x="845.29" y="72.45" width="78.03" height="78.03"/><rect class="cls-2" x="1205.36" y="465.56" width="87.26" height="87.26"/><rect class="cls-2" y="495.4" width="90.18" height="90.19"/><polygon class="cls-2" points="1166.9 784.48 1166.9 586.77 969.18 586.77 969.18 784.48 900.49 784.48 900.49 784.4 764.64 784.4 764.64 862.53 764.64 896.16 764.64 988.57 566.93 988.57 566.93 1186.29 764.64 1186.29 764.64 1275.12 890.58 1275.12 890.58 949.76 1281.39 949.76 1281.39 784.48 1166.9 784.48"/><polygon class="cls-2" points="573.75 191.34 573.75 190.49 447.82 190.49 447.82 427.87 170.36 427.87 170.36 593.14 171.5 593.14 171.5 790.86 369.22 790.86 369.22 593.14 437.9 593.14 487.14 593.14 573.75 593.14 573.75 515.1 573.75 481.39 573.75 389.05 771.47 389.05 771.47 191.34 573.75 191.34"/></g></g></g></svg>