<?xml version="1.0" encoding="UTF-8" standalone="no"?>
<!DOCTYPE svg PUBLIC "-//W3C//DTD SVG 1.1//EN" "http://www.w3.org/Graphics/SVG/1.1/DTD/svg11.dtd">
<svg width="100%" height="100%" viewBox="0 0 3073 834" version="1.1" xmlns="http://www.w3.org/2000/svg" xmlns:xlink="http://www.w3.org/1999/xlink" xml:space="preserve" xmlns:serif="http://www.serif.com/" style="fill-rule:evenodd;clip-rule:evenodd;stroke-linejoin:round;stroke-miterlimit:1.41421;">
    <g transform="matrix(1,0,0,1,-5463,-1386)">
        <g transform="matrix(6.12323e-17,-1,1,6.12323e-17,0,7015.75)">
            <g id="Eduq---logo-H" serif:id="Eduq - logo H" transform="matrix(9.7856e-17,1.59811,-1.59811,9.7856e-17,7377.7,-1353.91)">
                <g transform="matrix(1.68129,-1.87792e-32,-6.80036e-34,0.455568,-9447.25,-817.082)">
                    <rect x="8156.54" y="4195.62" width="1143.33" height="1143.33" style="fill:none;"/>
                </g>
                <g transform="matrix(1,0,0,1,474.955,-531.375)">
                    <g transform="matrix(1.02989,0,0,1.02989,4738.69,1487.33)">
                        <path d="M250.42,376.662L250.42,341.03L236.672,341.03L236.672,337.103L268.881,337.103L268.881,341.03L255.077,341.03L255.077,376.662L250.42,376.662Z" style="fill:rgb(88,89,91);fill-rule:nonzero;"/>
                        <path d="M274.436,376.662L274.436,337.103L299.463,337.103L299.463,340.918L278.982,340.918L278.982,354.666L298.341,354.666L298.341,358.482L278.982,358.482L278.982,372.847L299.463,372.847L299.463,376.662L274.436,376.662Z" style="fill:rgb(88,89,91);fill-rule:nonzero;"/>
                        <path d="M323.76,377.111C320.019,377.111 316.764,376.297 313.996,374.67C311.228,373.043 309.105,370.705 307.627,367.656C306.15,364.607 305.411,361.007 305.411,356.854C305.411,352.702 306.15,349.111 307.627,346.081C309.105,343.051 311.228,340.722 313.996,339.095C316.764,337.467 320.019,336.654 323.76,336.654C326.491,336.654 328.997,337.074 331.279,337.916C333.561,338.758 335.543,340.002 337.227,341.648L335.487,345.183C333.579,343.574 331.709,342.415 329.876,341.704C328.043,340.993 326.023,340.638 323.816,340.638C319.476,340.638 316.119,342.05 313.744,344.874C311.368,347.699 310.18,351.692 310.18,356.854C310.18,362.054 311.368,366.066 313.744,368.891C316.119,371.715 319.476,373.127 323.816,373.127C326.023,373.127 328.043,372.772 329.876,372.061C331.709,371.35 333.579,370.19 335.487,368.582L337.227,372.117C335.543,373.763 333.561,375.007 331.279,375.849C328.997,376.69 326.491,377.111 323.76,377.111Z" style="fill:rgb(88,89,91);fill-rule:nonzero;"/>
                        <path d="M372.241,337.103L376.562,337.103L376.562,376.662L373.027,376.662L349.179,344.846L349.179,376.662L344.858,376.662L344.858,337.103L348.393,337.103L372.241,368.919L372.241,337.103Z" style="fill:rgb(88,89,91);fill-rule:nonzero;"/>
                        <path d="M402.879,377.111C399.213,377.111 396.024,376.288 393.312,374.642C390.6,372.996 388.514,370.658 387.055,367.628C385.596,364.598 384.867,361.025 384.867,356.91C384.867,352.758 385.587,349.157 387.027,346.109C388.467,343.06 390.543,340.722 393.256,339.095C395.968,337.467 399.176,336.654 402.879,336.654C406.582,336.654 409.79,337.467 412.502,339.095C415.214,340.722 417.291,343.06 418.731,346.109C420.171,349.157 420.891,352.739 420.891,356.854C420.891,360.969 420.162,364.551 418.703,367.6C417.244,370.649 415.158,372.996 412.446,374.642C409.734,376.288 406.545,377.111 402.879,377.111ZM402.879,373.183C407.069,373.183 410.333,371.771 412.671,368.947C415.009,366.122 416.178,362.092 416.178,356.854C416.178,351.617 415.018,347.596 412.699,344.79C410.379,341.984 407.106,340.582 402.879,340.582C398.689,340.582 395.425,341.994 393.087,344.818C390.749,347.642 389.58,351.655 389.58,356.854C389.58,362.054 390.749,366.076 393.087,368.919C395.425,371.762 398.689,373.183 402.879,373.183Z" style="fill:rgb(88,89,91);fill-rule:nonzero;"/>
                        <path d="M429.196,376.662L429.196,337.103L433.797,337.103L433.797,372.734L453.605,372.734L453.605,376.662L429.196,376.662Z" style="fill:rgb(88,89,91);fill-rule:nonzero;"/>
                        <path d="M474.03,377.111C470.364,377.111 467.175,376.288 464.463,374.642C461.751,372.996 459.665,370.658 458.206,367.628C456.747,364.598 456.018,361.025 456.018,356.91C456.018,352.758 456.738,349.157 458.178,346.109C459.619,343.06 461.695,340.722 464.407,339.095C467.119,337.467 470.327,336.654 474.03,336.654C477.734,336.654 480.941,337.467 483.654,339.095C486.366,340.722 488.442,343.06 489.882,346.109C491.322,349.157 492.042,352.739 492.042,356.854C492.042,360.969 491.313,364.551 489.854,367.6C488.395,370.649 486.31,372.996 483.597,374.642C480.885,376.288 477.696,377.111 474.03,377.111ZM474.03,373.183C478.22,373.183 481.484,371.771 483.822,368.947C486.16,366.122 487.329,362.092 487.329,356.854C487.329,351.617 486.169,347.596 483.85,344.79C481.531,341.984 478.257,340.582 474.03,340.582C469.84,340.582 466.577,341.994 464.238,344.818C461.9,347.642 460.731,351.655 460.731,356.854C460.731,362.054 461.9,366.076 464.238,368.919C466.577,371.762 469.84,373.183 474.03,373.183Z" style="fill:rgb(88,89,91);fill-rule:nonzero;"/>
                        <path d="M531.658,356.069L531.658,374.362C530.087,375.185 528.039,375.849 525.514,376.354C522.989,376.859 520.436,377.111 517.854,377.111C513.927,377.111 510.541,376.307 507.698,374.698C504.855,373.09 502.676,370.77 501.161,367.74C499.646,364.71 498.888,361.081 498.888,356.854C498.888,352.665 499.636,349.055 501.133,346.025C502.629,342.994 504.78,340.675 507.586,339.067C510.391,337.458 513.702,336.654 517.518,336.654C520.286,336.654 522.83,337.074 525.149,337.916C527.468,338.758 529.451,340.002 531.097,341.648L529.358,345.183C527.45,343.537 525.57,342.358 523.718,341.648C521.867,340.937 519.8,340.582 517.518,340.582C513.066,340.582 509.643,341.984 507.249,344.79C504.855,347.596 503.658,351.617 503.658,356.854C503.658,362.204 504.874,366.272 507.305,369.059C509.737,371.846 513.291,373.239 517.967,373.239C521.371,373.239 524.532,372.734 527.45,371.724L527.45,359.66L517.63,359.66L517.63,356.069L531.658,356.069Z" style="fill:rgb(88,89,91);fill-rule:nonzero;"/>
                        <rect x="540.973" y="337.103" width="4.601" height="39.56" style="fill:rgb(88,89,91);fill-rule:nonzero;"/>
                        <path d="M585.583,376.662L581.206,366.506L560.556,366.506L556.18,376.662L551.466,376.662L568.861,337.103L572.845,337.103L590.24,376.662L585.583,376.662ZM562.184,362.69L579.579,362.69L570.881,342.433L562.184,362.69Z" style="fill:rgb(88,89,91);fill-rule:nonzero;"/>
                        <g transform="matrix(1,0,0,1,9.70979,0)">
                            <path d="M610.609,376.662L610.609,337.103L635.636,337.103L635.636,340.918L615.154,340.918L615.154,354.666L634.513,354.666L634.513,358.482L615.154,358.482L615.154,372.847L635.636,372.847L635.636,376.662L610.609,376.662Z" style="fill:rgb(88,89,91);fill-rule:nonzero;"/>
                        </g>
                        <g transform="matrix(1,0,0,1,9.70979,0)">
                            <path d="M676.879,337.103L680.638,337.103L680.638,376.662L676.43,376.662L676.486,346.025L663.636,370.378L660.381,370.378L647.475,346.249L647.531,376.662L643.267,376.662L643.267,337.103L647.083,337.103L662.065,365.776L676.879,337.103Z" style="fill:rgb(88,89,91);fill-rule:nonzero;"/>
                        </g>
                    </g>
                    <g transform="matrix(1.09431,0,0,1.09431,4720.65,1546.4)">
                        <path d="M270.061,357.281L270.061,374.497C268.583,375.272 266.655,375.896 264.279,376.372C261.902,376.847 259.499,377.085 257.07,377.085C253.373,377.085 250.187,376.328 247.512,374.814C244.836,373.3 242.785,371.117 241.359,368.265C239.933,365.414 239.22,361.999 239.22,358.02C239.22,354.077 239.925,350.68 241.333,347.828C242.741,344.976 244.765,342.794 247.406,341.28C250.046,339.766 253.162,339.009 256.753,339.009C259.359,339.009 261.753,339.405 263.935,340.197C266.118,340.989 267.984,342.16 269.533,343.709L267.896,347.036C266.101,345.487 264.331,344.378 262.589,343.709C260.846,343.04 258.901,342.706 256.753,342.706C252.564,342.706 249.342,344.026 247.089,346.666C244.836,349.307 243.709,353.091 243.709,358.02C243.709,363.055 244.853,366.884 247.142,369.506C249.43,372.129 252.775,373.441 257.176,373.441C260.379,373.441 263.354,372.966 266.101,372.015L266.101,360.661L256.859,360.661L256.859,357.281L270.061,357.281Z" style="fill:rgb(88,89,91);fill-rule:nonzero;"/>
                        <path d="M278.828,376.662L278.828,339.431L302.381,339.431L302.381,343.022L283.105,343.022L283.105,355.961L301.325,355.961L301.325,359.552L283.105,359.552L283.105,373.071L302.381,373.071L302.381,376.662L278.828,376.662Z" style="fill:rgb(88,89,91);fill-rule:nonzero;"/>
                        <path d="M320.864,377.085C315.055,377.085 310.408,375.518 306.922,372.385L308.612,369.058C310.443,370.607 312.318,371.716 314.236,372.385C316.155,373.054 318.382,373.388 320.917,373.388C323.909,373.388 326.215,372.807 327.835,371.645C329.454,370.483 330.264,368.846 330.264,366.734C330.264,365.502 329.877,364.498 329.102,363.724C328.328,362.949 327.307,362.333 326.039,361.875C324.772,361.418 323.065,360.943 320.917,360.45C318.03,359.781 315.662,359.077 313.814,358.337C311.966,357.598 310.469,356.542 309.325,355.169C308.181,353.796 307.609,352 307.609,349.782C307.609,347.67 308.163,345.795 309.272,344.158C310.381,342.521 311.966,341.253 314.025,340.356C316.085,339.458 318.47,339.009 321.181,339.009C323.751,339.009 326.154,339.414 328.389,340.224C330.625,341.033 332.517,342.195 334.067,343.709L332.429,347.036C330.669,345.522 328.882,344.422 327.069,343.735C325.256,343.049 323.293,342.706 321.181,342.706C318.294,342.706 316.032,343.313 314.395,344.528C312.758,345.742 311.939,347.441 311.939,349.624C311.939,351.49 312.661,352.898 314.104,353.848C315.548,354.799 317.731,355.609 320.653,356.278C323.857,357.052 326.374,357.765 328.205,358.416C330.035,359.068 331.558,360.045 332.773,361.347C333.987,362.65 334.595,364.393 334.595,366.576C334.595,368.688 334.04,370.536 332.931,372.121C331.822,373.705 330.229,374.928 328.152,375.791C326.075,376.653 323.645,377.085 320.864,377.085Z" style="fill:rgb(88,89,91);fill-rule:nonzero;"/>
                        <path d="M349.804,376.662L349.804,343.128L336.865,343.128L336.865,339.431L367.178,339.431L367.178,343.128L354.187,343.128L354.187,376.662L349.804,376.662Z" style="fill:rgb(88,89,91);fill-rule:nonzero;"/>
                        <path d="M396.487,376.662L392.368,367.104L372.934,367.104L368.815,376.662L364.379,376.662L380.75,339.431L384.5,339.431L400.871,376.662L396.487,376.662ZM374.466,363.513L390.837,363.513L382.651,344.448L374.466,363.513ZM374.149,335.154C374.149,333.253 374.58,331.765 375.443,330.691C376.305,329.618 377.441,329.081 378.849,329.081C379.588,329.081 380.293,329.23 380.961,329.53C381.63,329.829 382.405,330.26 383.285,330.823C384.024,331.281 384.614,331.616 385.054,331.827C385.494,332.038 385.926,332.144 386.348,332.144C387.123,332.144 387.721,331.862 388.144,331.299C388.566,330.735 388.777,330.049 388.777,329.239L391.154,329.239C391.154,331.14 390.722,332.628 389.86,333.702C388.997,334.775 387.862,335.312 386.454,335.312C385.714,335.312 385.01,335.163 384.341,334.863C383.672,334.564 382.898,334.133 382.018,333.57C381.278,333.112 380.689,332.777 380.249,332.566C379.808,332.355 379.377,332.249 378.955,332.249C378.18,332.249 377.582,332.531 377.159,333.094C376.737,333.658 376.525,334.344 376.525,335.154L374.149,335.154Z" style="fill:rgb(88,89,91);fill-rule:nonzero;"/>
                        <path d="M420.727,377.085C417.277,377.085 414.276,376.31 411.723,374.761C409.171,373.212 407.208,371.012 405.835,368.16C404.462,365.308 403.775,361.946 403.775,358.073C403.775,354.165 404.453,350.777 405.808,347.907C407.164,345.038 409.118,342.838 411.67,341.306C414.223,339.775 417.242,339.009 420.727,339.009C424.213,339.009 427.231,339.775 429.784,341.306C432.336,342.838 434.29,345.038 435.646,347.907C437.001,350.777 437.679,354.148 437.679,358.02C437.679,361.893 436.992,365.264 435.619,368.133C434.246,371.003 432.284,373.212 429.731,374.761C427.179,376.31 424.177,377.085 420.727,377.085ZM420.727,373.388C424.67,373.388 427.742,372.059 429.942,369.401C432.143,366.743 433.243,362.949 433.243,358.02C433.243,353.091 432.152,349.307 429.969,346.666C427.786,344.026 424.705,342.706 420.727,342.706C416.784,342.706 413.712,344.035 411.512,346.693C409.311,349.351 408.211,353.127 408.211,358.02C408.211,362.914 409.311,366.699 411.512,369.374C413.712,372.05 416.784,373.388 420.727,373.388Z" style="fill:rgb(88,89,91);fill-rule:nonzero;"/>
                        <g transform="matrix(1,0,0,1,9.13818,0)">
                            <path d="M487.584,376.662L483.465,367.104L464.031,367.104L459.912,376.662L455.476,376.662L471.847,339.431L475.596,339.431L491.967,376.662L487.584,376.662ZM465.562,363.513L481.933,363.513L473.748,344.448L465.562,363.513Z" style="fill:rgb(88,89,91);fill-rule:nonzero;"/>
                        </g>
                        <g transform="matrix(1,0,0,1,9.13818,0)">
                            <path d="M512.141,377.085C508.62,377.085 505.557,376.319 502.952,374.787C500.346,373.256 498.348,371.056 496.958,368.186C495.567,365.317 494.872,361.928 494.872,358.02C494.872,354.112 495.567,350.733 496.958,347.881C498.348,345.029 500.346,342.838 502.952,341.306C505.557,339.775 508.62,339.009 512.141,339.009C514.711,339.009 517.069,339.405 519.217,340.197C521.365,340.989 523.231,342.16 524.815,343.709L523.178,347.036C521.382,345.522 519.622,344.431 517.897,343.762C516.172,343.093 514.271,342.758 512.193,342.758C508.109,342.758 504.95,344.087 502.714,346.746C500.478,349.404 499.361,353.162 499.361,358.02C499.361,362.914 500.478,366.69 502.714,369.348C504.95,372.006 508.109,373.335 512.193,373.335C514.271,373.335 516.172,373.001 517.897,372.332C519.622,371.663 521.382,370.571 523.178,369.058L524.815,372.385C523.231,373.934 521.365,375.104 519.217,375.896C517.069,376.689 514.711,377.085 512.141,377.085Z" style="fill:rgb(88,89,91);fill-rule:nonzero;"/>
                        </g>
                        <g transform="matrix(1,0,0,1,9.13818,0)">
                            <path d="M559.564,376.662L555.444,367.104L536.01,367.104L531.891,376.662L527.455,376.662L543.826,339.431L547.576,339.431L563.947,376.662L559.564,376.662ZM537.542,363.513L553.913,363.513L545.727,344.448L537.542,363.513Z" style="fill:rgb(88,89,91);fill-rule:nonzero;"/>
                        </g>
                        <g transform="matrix(1,0,0,1,9.13818,0)">
                            <path d="M569.492,339.431L582.008,339.431C587.958,339.431 592.561,341.042 595.817,344.263C599.074,347.485 600.702,352.071 600.702,358.02C600.702,363.97 599.074,368.565 595.817,371.804C592.561,375.043 587.958,376.662 582.008,376.662L569.492,376.662L569.492,339.431ZM581.744,372.966C591.39,372.966 596.213,367.984 596.213,358.02C596.213,348.092 591.39,343.128 581.744,343.128L573.822,343.128L573.822,372.966L581.744,372.966Z" style="fill:rgb(88,89,91);fill-rule:nonzero;"/>
                        </g>
                        <g transform="matrix(1,0,0,1,9.13818,0)">
                            <path d="M608.518,376.662L608.518,339.431L632.071,339.431L632.071,343.022L612.796,343.022L612.796,355.961L631.015,355.961L631.015,359.552L612.796,359.552L612.796,373.071L632.071,373.071L632.071,376.662L608.518,376.662ZM617.179,336.263L613.324,336.263L619.608,328.236L622.46,328.236L628.744,336.263L624.889,336.263L621.034,330.823L617.179,336.263Z" style="fill:rgb(88,89,91);fill-rule:nonzero;"/>
                        </g>
                        <g transform="matrix(1,0,0,1,9.13818,0)">
                            <path d="M670.886,339.431L674.424,339.431L674.424,376.662L670.464,376.662L670.517,347.828L658.423,370.748L655.36,370.748L643.214,348.039L643.267,376.662L639.253,376.662L639.253,339.431L642.844,339.431L656.944,366.417L670.886,339.431Z" style="fill:rgb(88,89,91);fill-rule:nonzero;"/>
                        </g>
                        <g transform="matrix(1,0,0,1,9.13818,0)">
                            <rect x="683.666" y="339.431" width="4.33" height="37.231" style="fill:rgb(88,89,91);fill-rule:nonzero;"/>
                        </g>
                        <g transform="matrix(1,0,0,1,9.13818,0)">
                            <path d="M713.081,377.085C709.56,377.085 706.498,376.319 703.892,374.787C701.287,373.256 699.289,371.056 697.898,368.186C696.508,365.317 695.812,361.928 695.812,358.02C695.812,354.112 696.508,350.733 697.898,347.881C699.289,345.029 701.287,342.838 703.892,341.306C706.498,339.775 709.56,339.009 713.081,339.009C715.651,339.009 718.01,339.405 720.158,340.197C722.305,340.989 724.171,342.16 725.755,343.709L724.118,347.036C722.323,345.522 720.562,344.431 718.837,343.762C717.112,343.093 715.211,342.758 713.134,342.758C709.05,342.758 705.89,344.087 703.655,346.746C701.419,349.404 700.301,353.162 700.301,358.02C700.301,362.914 701.419,366.69 703.655,369.348C705.89,372.006 709.05,373.335 713.134,373.335C715.211,373.335 717.112,373.001 718.837,372.332C720.562,371.663 722.323,370.571 724.118,369.058L725.755,372.385C724.171,373.934 722.305,375.104 720.158,375.896C718.01,376.689 715.651,377.085 713.081,377.085Z" style="fill:rgb(88,89,91);fill-rule:nonzero;"/>
                        </g>
                        <g transform="matrix(1,0,0,1,9.13818,0)">
                            <path d="M760.504,376.662L756.385,367.104L736.951,367.104L732.832,376.662L728.396,376.662L744.767,339.431L748.516,339.431L764.887,376.662L760.504,376.662ZM738.483,363.513L754.854,363.513L746.668,344.448L738.483,363.513Z" style="fill:rgb(88,89,91);fill-rule:nonzero;"/>
                        </g>
                    </g>
                </g>
                <g transform="matrix(1,0,0,1,-1159.14,303.143)">
                    <g>
                        <g transform="matrix(3.92969,0,0,3.94911,5096.12,-2019.16)">
                            <path d="M273.376,759.119C278.073,759.163 282.711,761.047 286.076,764.294C290.515,768.577 292.564,775.161 291.369,781.194C289.743,789.404 281.929,795.965 273.376,796.046C271.153,796.053 268.911,795.367 267.533,793.706C266.575,792.551 266.044,791.061 266.039,789.565L266.039,759.118C266.039,759.118 270.93,759.111 273.376,759.119ZM271.344,764.394C271.344,772.779 271.344,781.165 271.344,789.55C271.344,790.204 271.875,790.769 272.515,790.775C274.639,790.781 276.753,790.479 278.66,789.617C282.525,787.87 285.425,784.171 286.195,780.011C287.273,774.192 284.037,767.823 278.367,765.424C276.197,764.506 273.811,764.394 271.344,764.394Z" style="fill:rgb(88,89,91);fill-rule:nonzero;"/>
                        </g>
                        <g transform="matrix(1,0,0,1,-2093.45,-2769.37)">
                            <path d="M8436.74,3748.05L8457.57,3748.05C8457.57,3748.05 8457.57,3811.74 8457.57,3843.55C8457.5,3865.25 8442.26,3885.72 8421.55,3891.88C8404.63,3896.91 8385.17,3892.26 8372.35,3880.04C8362.5,3870.65 8356.76,3857.28 8356.72,3843.55L8356.72,3748.05L8377.55,3748.05C8377.55,3748.05 8377.48,3818.82 8377.55,3843.76C8377.71,3863.04 8399.27,3879.88 8419.65,3870.38C8429.77,3865.66 8436.71,3854.87 8436.74,3843.52L8436.74,3748.05Z" style="fill:rgb(88,89,91);fill-rule:nonzero;"/>
                        </g>
                        <g transform="matrix(7.42686,0,0,5.94986,4053.84,-1949.68)">
                            <path d="M271.271,492.174C273.671,492.2 276.203,493.368 277.522,496.105C278.816,498.788 278.495,502.427 276.647,504.884C274.87,507.246 272.252,508.301 269.801,508.762C269.28,508.86 268.756,508.932 268.231,508.982C267.451,509.057 266.67,509.087 265.89,509.051C265.89,509.051 266.635,510.374 267.33,511.077C269.65,513.421 273.305,513.768 276.127,511.519L277.636,514.47C275.047,516.534 271.807,517.26 268.867,516.155C266.015,515.084 263.433,511.881 262.381,508.503C260.769,508.091 259.202,507.495 257.676,506.733L257.604,506.697L258.655,503.451C259.691,503.974 260.75,504.408 261.828,504.752C261.828,504.752 261.825,504.097 261.838,503.569C261.915,500.432 262.909,497.321 264.773,495.21C266.498,493.256 268.829,492.191 271.176,492.174C271.217,492.174 271.258,492.174 271.271,492.174ZM271.184,495.675C268.598,495.694 266.034,497.567 265.089,500.705C264.641,502.191 264.566,503.824 264.697,505.397L264.7,505.425C267.468,505.827 270.418,505.525 272.852,504.037C274.108,503.269 275.281,501.991 275.5,500.345C275.653,499.193 275.319,497.972 274.625,497.145C273.714,496.057 272.402,495.675 271.184,495.675Z" style="fill:rgb(88,89,91);fill-rule:nonzero;"/>
                        </g>
                    </g>
                    <g transform="matrix(1,0,0,1,-3771.16,-2768.59)">
                        <path d="M10272.6,3878.67C10260.4,3887.74 10245.4,3893.12 10229,3893.12C10188.8,3893.12 10156.1,3860.44 10156.1,3820.19C10156.1,3779.95 10188.8,3747.27 10229,3747.27C10269.3,3747.27 10302,3779.95 10302,3820.19C10302,3836.25 10296.8,3851.09 10288,3863.14C10299.1,3868.66 10311.2,3872.26 10325.2,3872.28L10325.2,3893.12C10310.5,3893.1 10295.8,3890.32 10282.6,3884.05C10279.2,3882.42 10275.9,3880.6 10272.6,3878.67ZM10252.9,3866.41C10243.1,3861.15 10231.8,3858.68 10220.9,3861.03C10215.7,3862.15 10210.6,3864.05 10206.2,3866.92C10213.1,3870.31 10220.8,3872.21 10229,3872.21C10237.6,3872.21 10245.8,3870.12 10252.9,3866.41ZM10269.9,3852.43C10276.9,3843.56 10281.1,3832.37 10281.1,3820.19C10281.1,3791.49 10257.8,3768.18 10229,3768.18C10200.3,3768.18 10177,3791.49 10177,3820.19C10177,3832.91 10181.6,3844.57 10189.2,3853.61C10193.3,3850.11 10196.2,3848.64 10199.4,3846.95C10208.8,3841.94 10219.5,3839.21 10230.2,3839.24C10244.4,3839.38 10257.6,3844.83 10269.9,3852.43Z" style="fill:rgb(88,89,91);"/>
                    </g>
                </g>
                <g transform="matrix(1,0,0,1,9.09495e-13,552.378)">
                    <g transform="matrix(1,0,0,1,-3773.57,-2768.59)">
                        <path d="M8248.12,3643.87L8227.28,3643.87L8227.28,3456.37C8261.01,3456.37 8326.07,3456.37 8326.07,3456.37C8326.07,3456.37 8326.55,3456.37 8326.8,3456.37C8344.88,3456.54 8362.28,3466.21 8372.94,3481.07C8383.09,3466.72 8399.89,3456.94 8418.02,3456.37C8418.06,3456.37 8423.2,3456.37 8423.22,3456.37L8518.95,3456.37L8518.95,3685.54L8498.12,3664.69L8498.12,3477.2C8471.13,3477.2 8446.55,3477.11 8419.57,3477.2C8401.24,3477.37 8384.27,3493.1 8383.56,3512.11C8383.54,3512.56 8383.54,3518.87 8383.54,3518.87L8362.69,3518.87L8362.7,3516.64C8362.7,3516.64 8362.7,3516.63 8362.7,3516.62C8362.67,3511.62 8362.4,3506.71 8360.86,3502.07C8356.14,3487.79 8341.63,3477.26 8326.42,3477.2L8248.12,3477.2L8248.12,3643.87Z" style="fill:rgb(0,179,240);fill-rule:nonzero;"/>
                    </g>
                    <g transform="matrix(1,0,0,1,-3771.16,-2768.59)">
                        <path d="M8189.64,3658.52C8205.41,3662.43 8221.48,3664.66 8238.28,3664.7C8276.95,3664.78 8316.33,3660.82 8350.88,3642.37C8351.82,3641.87 8353.16,3641.12 8353.16,3641.12C8335.47,3624.2 8323.18,3600.62 8328.66,3575.99C8333.08,3556.14 8347.82,3540.13 8369.95,3539.71C8370.35,3539.7 8370.75,3539.7 8371.15,3539.7C8384.42,3539.87 8397.51,3545.3 8404.97,3556.85C8416.12,3574.11 8416.26,3597.01 8407.15,3615.79C8402.53,3625.31 8395.95,3633.8 8388.29,3641.12C8421.5,3659.75 8461.28,3664.61 8500.12,3664.7L8500.12,3664.7L8516.55,3664.7L8516.55,3685.54L8500.12,3685.54C8455.23,3685.16 8410,3679.93 8371.44,3655.46L8370.72,3655.01C8331.27,3680.38 8280.81,3686.12 8233.25,3685.49C8216.37,3685.27 8199.45,3683.25 8183.23,3678.76L8189.64,3658.52ZM8370.63,3560.54C8365.13,3560.57 8359.69,3563.32 8356.06,3567.54C8344.23,3581.28 8348.04,3600.82 8357.9,3614.93C8358.92,3616.39 8360,3617.81 8361.14,3619.18C8364.04,3622.71 8367.27,3625.95 8370.72,3628.94C8371.04,3628.66 8371.36,3628.39 8371.68,3628.11C8386.59,3614.75 8397.61,3595.22 8391.21,3576.15C8388.43,3567.86 8382.54,3562.39 8373.38,3560.75C8372.47,3560.59 8371.56,3560.53 8370.63,3560.54Z" style="fill:rgb(0,179,240);fill-rule:nonzero;"/>
                    </g>
                </g>
            </g>
        </g>
    </g>
</svg>
