<?xml version="1.0" encoding="utf-8"?>
<!-- Generator: Adobe Illustrator 23.0.1, SVG Export Plug-In . SVG Version: 6.00 Build 0)  -->
<svg version="1.1" id="Layer_1" xmlns="http://www.w3.org/2000/svg" xmlns:xlink="http://www.w3.org/1999/xlink" x="0px" y="0px"
	 viewBox="0 0 754.57 248.08" style="enable-background:new 0 0 754.57 248.08;" xml:space="preserve">
<style type="text/css">
	.st0{fill:#003059;}
	.st1{fill:url(#SVGID_1_);}
</style>
<path class="st0" d="M312.17,130.08c12.93,0,21.87-8.96,21.87-23.78V40h29.21v66.29c0,30.14-19.79,49.19-51.24,49.19
	c-31.61,0-51.88-19.06-51.88-49.19V40h29.21v66.29C289.34,120.96,298.92,130.08,312.17,130.08"/>
<path class="st0" d="M466.52,98.64v55.54h-28.25v-47.23c0-9.94-5.75-16.13-14.68-16.13c-9.58,0.16-15.8,6.84-16.92,16.78v46.58
	h-28.41V66.07h28.41V80.4c6.06-10.1,15.96-15.47,28.57-15.47C454.07,64.93,466.52,77.96,466.52,98.64"/>
<path class="st0" d="M509.3,154.19h-28.25V66.07h28.25V154.19z M508.18,41.31c0,7.66-5.43,13.19-12.93,13.19
	c-7.5,0-12.93-5.54-12.93-13.19c0-7.82,5.43-13.36,12.93-13.36C502.76,27.95,508.18,33.49,508.18,41.31"/>
<path class="st0" d="M620.88,68.84c0,11.89-7.5,21.5-19.31,24.76c14.2,2.93,22.99,14.17,22.99,28.83c0,19.55-16.76,31.76-43.1,31.76
	h-55.23V40h53.15C604.75,40,620.88,51.24,620.88,68.84 M590.87,74.05c0-6.84-4.95-10.91-13.09-10.75h-22.35v22.15h22.35
	C585.92,85.45,590.87,81.21,590.87,74.05 M594.38,118.68c0-7.17-6.38-11.73-16.6-11.56h-22.35v23.94h22.35
	C587.99,131.06,594.38,126.5,594.38,118.68"/>
<polygon class="st0" points="719.36,40 719.2,63.79 664.93,63.79 664.93,89.2 715.05,89.2 715.05,112.98 664.93,112.98 
	664.93,154.19 635.71,154.19 635.71,40 "/>
<radialGradient id="SVGID_1_" cx="114.3939" cy="94.9954" r="123.9258" fx="53.0238" fy="79.804" gradientUnits="userSpaceOnUse">
	<stop  offset="0.1788" style="stop-color:#D4E65A"/>
	<stop  offset="0.2576" style="stop-color:#CDE45B"/>
	<stop  offset="0.3729" style="stop-color:#B9DF5D"/>
	<stop  offset="0.5" style="stop-color:#9CD861"/>
	<stop  offset="0.6273" style="stop-color:#84D164"/>
	<stop  offset="0.6844" style="stop-color:#77CE65"/>
	<stop  offset="0.8939" style="stop-color:#57BA80"/>
</radialGradient>
<path class="st1" d="M91.05,120.14c-8.48-8.48-8.48-22.28,0-30.77c4.11-4.11,9.57-6.37,15.38-6.37s11.27,2.26,15.38,6.37
	c8.48,8.48,8.48,22.28,0,30.77c-4.11,4.11-9.57,6.37-15.38,6.37S95.16,124.25,91.05,120.14 M81.49,79.82
	c-13.75,13.75-13.75,36.13,0,49.88c6.66,6.66,15.52,10.33,24.94,10.33c9.42,0,18.28-3.67,24.94-10.33
	c13.75-13.75,13.75-36.13,0-49.88c-6.66-6.66-15.52-10.33-24.94-10.33C97.01,69.49,88.15,73.15,81.49,79.82 M108.47,170.4
	c37-0.53,66.89-31.08,66.63-68.09c-0.08-11.43-3.06-22.7-8.63-32.61c-3.46-6.16-2.45-13.9,2.47-18.82
	c3.12-3.12,7.24-4.74,11.66-4.57c4.37,0.17,8.34,2.09,11.17,5.4c12.15,14.21,18.84,32.35,18.84,51.07
	c0,43.35-35.27,78.62-78.62,78.62c-14.18,0-27.5-3.77-38.99-10.37c-1.07-0.61-0.44-2.26,0.77-2.01c4.45,0.91,9.03,1.38,13.67,1.38
	C107.78,170.41,108.12,170.41,108.47,170.4 M159.38,41.33c-9.19,9.19-11.12,23.58-4.7,35c4.45,7.92,6.84,16.94,6.9,26.08
	c0.21,29.61-23.7,54.05-53.3,54.48c-14.63,0.21-28.39-5.32-38.78-15.57c-10.32-10.17-16.04-23.73-16.12-38.21
	c-0.02-3.69-2.81-6.93-6.49-7.07c-3.86-0.15-7.02,2.93-7.02,6.75v0.03c0.01,50.8,41.34,92.12,92.14,92.12
	c50.81,0,92.14-41.34,92.14-92.14c0-21.94-7.84-43.2-22.08-59.86c-5.23-6.12-12.86-9.81-20.92-10.12c-0.38-0.02-0.75-0.02-1.12-0.02
	C172.32,32.79,164.84,35.87,159.38,41.33"/>
<g>
	<path class="st0" d="M269.65,200.49h15.45v7.09h-15.45v11.81h-8.12v-32.97h25.49v7.14h-17.37V200.49z"/>
	<path class="st0" d="M330.07,219.39l-2.31-6h-13.88l-2.31,6h-8.71l13.78-32.97h8.32l13.78,32.97H330.07z M320.82,195.57
		l-4.18,10.83h8.42L320.82,195.57z"/>
	<path class="st0" d="M391.13,207.04c-1.53,8.27-8.17,13.09-16.63,13.09c-9.79,0-17.52-7.53-17.52-17.22
		c0-9.65,7.73-17.23,17.52-17.23c8.12,0,15.01,4.82,16.58,12.65l-7.97,1.87c-1.03-4.77-4.38-7.09-8.61-7.09
		c-5.22,0-9.4,4.19-9.4,9.8c0,5.61,4.18,9.84,9.4,9.84c4.18,0,7.53-2.36,8.66-7.28L391.13,207.04z"/>
	<path class="st0" d="M442.99,204.53c0,9.45-5.86,15.6-14.62,15.6c-8.96,0-14.96-6.15-14.96-15.6v-18.11h8.12v18.11
		c0,5.02,2.71,8.12,6.84,8.12c3.89,0,6.5-3.1,6.5-8.12v-18.11h8.12V204.53z"/>
	<path class="st0" d="M490.77,219.39h-24.36v-32.97h8.12v25.89h16.24V219.39z"/>
	<path class="st0" d="M526.15,186.42c10.88,0,18.06,6.69,18.06,16.49c0,9.79-7.18,16.49-18.06,16.49H513.1v-32.97H526.15z
		 M525.85,212.35c6.15,0,10.19-3.74,10.19-9.45c0-5.71-4.04-9.45-10.19-9.45h-4.63v18.9H525.85z"/>
	<path class="st0" d="M589.67,219.39l-2.31-6h-13.88l-2.31,6h-8.71l13.78-32.97h8.32l13.78,32.97H589.67z M580.42,195.57
		l-4.18,10.83h8.42L580.42,195.57z"/>
	<path class="st0" d="M632.03,186.42c10.88,0,18.06,6.69,18.06,16.49c0,9.79-7.18,16.49-18.06,16.49h-13.04v-32.97H632.03z
		 M631.74,212.35c6.15,0,10.19-3.74,10.19-9.45c0-5.71-4.04-9.45-10.19-9.45h-4.63v18.9H631.74z"/>
	<path class="st0" d="M698.16,219.39h-25.69v-32.97h25.54v6.99h-17.42v6.2h15.99v6.59h-15.99v6.2h17.57V219.39z"/>
</g>
</svg>
