<svg xmlns="http://www.w3.org/2000/svg" viewBox="0 0 1989 1341"><defs><style>.cls-1{fill:#fca311;}.cls-2{opacity:0.5;}.cls-3{fill:none;stroke:#f2f2f2;stroke-miterlimit:10;}</style></defs><g id="Layer_2" data-name="Layer 2"><g id="Animação"><g id="Background"><rect id="Background-2" data-name="Background" class="cls-1" width="1989" height="1341"/><g id="Hashura" class="cls-2"><polygon class="cls-3" points="842.5 80.5 842.5 29.5 554.5 29.5 554.5 82.5 649.5 82.5 649.5 177.5 744.5 177.5 744.5 133.14 744.5 117 744.5 79.5 809.5 79.5 809.5 80.5 842.5 80.5"/><polygon class="cls-3" points="1953.5 177.5 1953.5 29.5 1813.5 29.5 1813.5 82.5 1907.5 82.5 1907.5 177.5 1953.5 177.5"/><path class="cls-3" d="M1907.5,271.5v-94h-95v-95h-94v-53h-782v50h55v79h-187v156h-60v-43h-95v-94h-95v-95h-94v-53H34.5v148h53v95h-53v156h148v-62h94v62h782v-59h-1v-79h133v-114h60v1h95v95h-95v97h-98v59h287v-62h95v62h419v-157Zm-1785-151h37v37h-37Zm-16,75h57v57h-57Zm76,172h-95v-95h95Zm76-19h-57v-57h57Zm22-119h-56v-56h56Zm56,121h-42v-42h42Zm105-190h-41v-41h41Zm94-2h-57v-57h57Zm95,174h-40v-40h40Zm0-78h-57v-57h57Zm263-5h-47v-47h47Zm126,117h-43v-43h43Zm110-128h-51v-51h51Zm133-84h-69v-69h69Zm119-34h37v37h-37Zm-17,75h57v57h-57Zm76,172h-95v-95h95Zm76-19h-57v-57h57Zm22-119h-56v-56h56Zm57,121h-42v-42h42Zm105-190h-41v-41h41Zm93-2h-57v-57h57Zm95,174h-40v-40h40Zm0-78h-57v-57h57Z"/></g><g id="Hashura-2" data-name="Hashura" class="cls-2"><polygon class="cls-3" points="842.5 955.5 842.5 905.5 554.5 905.5 554.5 958.5 649.5 958.5 649.5 1053.5 744.5 1053.5 744.5 1008.69 744.5 992.38 744.5 954.5 809.5 954.5 809.5 955.5 842.5 955.5"/><polygon class="cls-3" points="1953.5 1053.5 1953.5 905.5 1813.5 905.5 1813.5 958.5 1907.5 958.5 1907.5 1053.5 1953.5 1053.5"/><path class="cls-3" d="M1907.5,1147.5v-94h-95v-95h-94v-53h-782v50h55v79h-187v156h-60v-43h-95v-94h-95v-95h-94v-53H34.5v147h53v95h-53v157h148v-62h94v62h782v-59h-1v-79h133v-114h155v95h-95v98h-98v59h287v-62h95v62h419v-157Zm-1785-151h37v37h-37Zm-16,74h57v57h-57Zm76,172h-95v-95h95Zm76-19h-57v-57h57Zm22-119h-56v-56h56Zm56,122h-42v-42h42Zm105-190h-41v-41h41Zm94-2h-57v-57h57Zm95,173h-40v-40h40Zm0-78h-57v-57h57Zm263-5h-47v-47h47Zm126,117h-43v-43h43Zm110-127h-51v-51h51Zm133-84h-69v-69h69Zm119-34h37v37h-37Zm-17,74h57v57h-57Zm76,172h-95v-95h95Zm76-19h-57v-57h57Zm22-119h-56v-56h56Zm57,122h-42v-42h42Zm105-190h-41v-41h41Zm93-2h-57v-57h57Zm95,173h-40v-40h40Zm0-78h-57v-57h57Z"/></g><g id="Hashura-3" data-name="Hashura" class="cls-2"><polygon class="cls-3" points="842.5 817.5 842.5 866.5 554.5 866.5 554.5 813.5 649.5 813.5 649.5 718.5 744.5 718.5 744.5 762.86 744.5 779 744.5 816.5 809.5 816.5 809.5 817.5 842.5 817.5"/><polygon class="cls-3" points="1953.5 718.5 1953.5 866.5 1813.5 866.5 1813.5 813.5 1907.5 813.5 1907.5 718.5 1953.5 718.5"/><path class="cls-3" d="M1953.5,624.5v-157h-419v62h-95v-62h-287v59h98v97h95v95h-95v1h-60v-114h-133v-79h1v-59h-782v62h-94v-62H34.5v156h53v95h-53v148h426v-53h95v-94h94v-95h95v-43h60v156h187v79h-55v50h782v-53h94v-95h95v-94Zm-1831,114h37v37h-37Zm-16-94h57v57h-57Zm76-20h-95v-95h95Zm76-19h-57v-57h57Zm22,118h-56v-56h56Zm56-136h-42v-42h42Zm105,189h-41v-41h41Zm94,18h-57v-57h57Zm95-190h-40v-40h40Zm0,95h-57v-57h57Zm263-5h-47v-47h47Zm126-121h-43v-43h43Zm110,135h-51v-51h51Zm133,102h-69v-69h69Zm119-72h37v37h-37Zm-17-94h57v57h-57Zm76-20h-95v-95h95Zm76-19h-57v-57h57Zm22,118h-56v-56h56Zm57-136h-42v-42h42Zm105,189h-41v-41h41Zm93,18h-57v-57h57Zm95-190h-40v-40h40Zm0,95h-57v-57h57Z"/></g></g></g></g></svg>