<svg xmlns="http://www.w3.org/2000/svg" viewBox="0 0 221.51 88.49"><defs><style>.cls-1,.cls-2{fill:#f5f5f5;}.cls-2{font-size:16px;font-family:STIXGeneral-Regular, STIXGeneral;}.cls-3{letter-spacing:0.02em;}.cls-4{letter-spacing:0.01em;}.cls-5{letter-spacing:0.01em;}</style></defs><g id="Layer_2" data-name="Layer 2"><g id="Header"><g id="Logo_ITH" data-name="Logo ITH"><rect class="cls-1" x="24.43" y="52.34" width="13.08" height="13.08"/><rect class="cls-1" x="27" y="68.14" width="7.95" height="7.95"/><rect class="cls-1" x="13.87" y="54.91" width="7.95" height="7.95"/><rect class="cls-1" x="29.41" y="81.3" width="5.48" height="5.48"/><rect class="cls-1" x="3.11" y="57.38" width="5.71" height="5.71"/><rect class="cls-1" x="51.06" y="25.75" width="13.08" height="13.08"/><rect class="cls-1" x="53.63" y="15.08" width="7.95" height="7.95"/><rect class="cls-1" x="66.76" y="28.32" width="7.95" height="7.95"/><rect class="cls-1" x="70.02" y="12.09" width="7.69" height="7.68"/><rect class="cls-1" x="30.02" width="9.49" height="9.49"/><rect class="cls-1" x="14.17" y="14.11" width="7.03" height="7.03"/><rect class="cls-1" x="64.64" y="68.81" width="6.56" height="6.56"/><rect class="cls-1" x="55.94" y="4.79" width="5.16" height="5.16"/><rect class="cls-1" x="79.77" y="30.81" width="5.77" height="5.78"/><rect class="cls-1" y="32.79" width="5.97" height="5.97"/><polygon class="cls-1" points="77.23 51.92 77.23 38.83 64.14 38.83 64.14 51.92 59.59 51.92 59.59 51.91 50.6 51.91 50.6 57.08 50.6 59.31 50.6 65.42 37.52 65.42 37.52 78.51 50.6 78.51 50.6 84.39 58.94 84.39 58.94 62.86 84.8 62.86 84.8 51.92 77.23 51.92"/><polygon class="cls-1" points="37.97 12.66 37.97 12.61 29.64 12.61 29.64 28.32 11.28 28.32 11.28 39.26 11.35 39.26 11.35 52.34 24.43 52.34 24.43 39.26 28.98 39.26 32.24 39.26 37.97 39.26 37.97 34.09 37.97 31.86 37.97 25.75 51.06 25.75 51.06 12.66 37.97 12.66"/><rect class="cls-1" x="102.52" y="65.55" width="118.35" height="1.08"/><path class="cls-1" d="M102.52,60.15V58.73c6.26-.22,7.22-1.11,7.22-6.92V19.11c0-5.89-.89-6.48-7.22-6.86V10.84h22.12v1.41c-6.26.3-7.3,1.2-7.3,6.86v32.7c0,5.58,1.19,6.7,7.3,6.92v1.42Z"/><path class="cls-1" d="M166.87,23.5C165.24,15.31,163.3,14,155.4,14H151V51.88c0,5.66,1,6.55,7.15,6.85v1.42H136.41V58.73c6.18-.37,7-1.19,7-7.74V14h-4.47c-7.89,0-9.9,1.34-11.39,9.53h-1.79l.52-12.66h41.86l.52,12.66Z"/><path class="cls-1" d="M200.09,60.15V58.73c5.81-.37,6.56-1.56,6.56-7.82V36.69H184.08v15c0,5.44,1,6.7,6.48,7l.07,1.42H169.85V58.73c5.81-.37,6.63-1.26,6.63-7.67V19.33c0-5.81-.89-6.63-6.63-7.08V10.84h20.86v1.41c-5.44.45-6.63,1.27-6.63,7.08V33.41h22.57V19.33c0-5.88-1-6.63-6.63-7.08V10.84h20.85v1.41c-5.51.45-6.62,1.34-6.62,7.08V51.88c0,5.29,1,6.41,6.62,6.85v1.42Z"/><text class="cls-2" transform="translate(102.52 81.41)"><tspan class="cls-3">EDU</tspan><tspan class="cls-4" x="34.08" y="0">C</tspan><tspan x="44.89" y="0">A</tspan><tspan class="cls-3" x="56.44" y="0">CIO</tspan><tspan class="cls-5" x="85.19" y="0">N</tspan><tspan class="cls-3" x="96.86" y="0">AL</tspan></text></g></g></g></svg>