<svg xmlns="http://www.w3.org/2000/svg" viewBox="0 0 305.96 120.2"><defs><style>.cls-1{fill:#222c35;}</style></defs><g id="Layer_2" data-name="Layer 2"><g id="Footer"><g id="Logo_ITH" data-name="Logo ITH"><path class="cls-1" d="M142,83.31v-2c8.66-.31,10-1.55,10-9.59V26.46c0-8.15-1.24-9-10-9.49V15h30.64v2c-8.67.42-10.11,1.65-10.11,9.49v45.3c0,7.73,1.65,9.28,10.11,9.59v2Z"/><path class="cls-1" d="M231.13,32.55c-2.27-11.35-4.95-13.2-15.88-13.2h-6.09V71.86c0,7.84,1.44,9.08,9.9,9.49v2H188.94v-2c8.56-.52,9.7-1.65,9.7-10.73V19.35h-6.19c-10.94,0-13.72,1.85-15.79,13.2h-2.47L174.91,15h58l.72,17.54Z"/><path class="cls-1" d="M277.15,83.31v-2c8-.52,9.08-2.17,9.08-10.83V50.81H255V71.65c0,7.53,1.34,9.29,9,9.7l.1,2H235.26v-2c8.05-.52,9.18-1.75,9.18-10.63V26.77c0-8-1.24-9.18-9.18-9.8V15h28.89v2c-7.53.62-9.18,1.76-9.18,9.8v19.5h31.26V26.77c0-8.15-1.35-9.18-9.19-9.8V15h28.89v2c-7.63.62-9.18,1.86-9.18,9.8V71.86c0,7.32,1.44,8.87,9.18,9.49v2Z"/><rect class="cls-1" x="33.84" y="72.49" width="18.12" height="18.12"/><rect class="cls-1" x="37.4" y="94.38" width="11.01" height="11.01"/><rect class="cls-1" x="19.21" y="76.05" width="11.01" height="11.01"/><rect class="cls-1" x="40.74" y="112.61" width="7.59" height="7.59"/><rect class="cls-1" x="4.31" y="79.48" width="7.91" height="7.91"/><rect class="cls-1" x="70.72" y="35.66" width="18.12" height="18.12"/><rect class="cls-1" x="74.28" y="20.89" width="11.01" height="11.01"/><rect class="cls-1" x="92.47" y="39.22" width="11.01" height="11.01"/><rect class="cls-1" x="96.98" y="16.74" width="10.64" height="10.64"/><rect class="cls-1" x="41.58" width="13.15" height="13.15"/><rect class="cls-1" x="19.62" y="19.55" width="9.74" height="9.74"/><rect class="cls-1" x="89.53" y="95.3" width="9.09" height="9.09"/><rect class="cls-1" x="77.48" y="6.64" width="7.15" height="7.15"/><rect class="cls-1" x="110.49" y="42.68" width="8" height="8"/><rect class="cls-1" y="45.41" width="8.27" height="8.27"/><polygon class="cls-1" points="106.97 71.91 106.97 53.79 88.84 53.79 88.84 71.91 82.55 71.91 82.55 71.9 70.09 71.9 70.09 79.06 70.09 82.15 70.09 90.62 51.97 90.62 51.97 108.74 70.09 108.74 70.09 116.89 81.64 116.89 81.64 87.06 117.46 87.06 117.46 71.91 106.97 71.91"/><polygon class="cls-1" points="52.59 17.54 52.59 17.46 41.05 17.46 41.05 39.22 15.62 39.22 15.62 54.37 15.72 54.37 15.72 72.5 33.84 72.5 33.84 54.37 40.14 54.37 44.65 54.37 52.59 54.37 52.59 47.22 52.59 44.13 52.59 35.66 70.72 35.66 70.72 17.54 52.59 17.54"/><path class="cls-1" d="M154.21,112.75h-12v-.42c1.71-.11,1.93-.4,1.93-2.1v-9.66c0-1.64-.26-2-1.93-2.06v-.43H154l.09,3.17h-.56c-.33-2-.84-2.32-3.41-2.32h-2.9c-.62,0-.78.08-.78.79v4.88h3.35c1.9,0,2.24-.38,2.5-2.13h.51v5.19h-.51c-.26-1.87-.6-2.15-2.5-2.15h-3.35v5.38c0,.93.6,1,2.24,1h.8c3.17,0,4.12-.57,5.11-2.92h.63Z"/><path class="cls-1" d="M162.43,98.08a10,10,0,0,1,6.65,2,6.55,6.55,0,0,1,2.19,5.25,6.72,6.72,0,0,1-3,6,10.46,10.46,0,0,1-5.59,1.42h-6.22v-.42c1.72-.11,2-.4,2-2.13v-9.63c0-1.75-.27-1.95-2-2.06v-.43Zm-1.77,12.81c0,.78.2,1,1.06,1,2.28,0,3.5-.26,4.83-1.15,1.55-1,2.3-2.79,2.3-5.3a6.14,6.14,0,0,0-2.1-5,6.69,6.69,0,0,0-4.92-1.53c-.84,0-1.17.2-1.17.93Z"/><path class="cls-1" d="M188.27,98.51c-1.87.17-2.09.7-2.09,2.81V107c0,2.15-.2,3.34-1.19,4.47a5.67,5.67,0,0,1-4.48,1.62,6.08,6.08,0,0,1-3.77-1c-1.21-.91-1.79-2.46-1.79-4.81v-6.86c0-1.49-.24-1.73-2-1.86v-.43h6.27v.43c-1.78.15-2,.42-2,2.08v6.91c0,1.73.09,2.73,1,3.59a4,4,0,0,0,2.84,1,4.44,4.44,0,0,0,3.37-1.31c.73-.89.82-1.77.82-3.57v-5.83c0-2.28-.29-2.76-2.09-2.87v-.43h5.15Z"/><path class="cls-1" d="M203.22,110.25a7,7,0,0,1-6,2.81,7.49,7.49,0,0,1-5.23-2,7.77,7.77,0,0,1-2.13-5.54,8,8,0,0,1,2-5.47,7.08,7.08,0,0,1,5.39-2.31,9.6,9.6,0,0,1,2.63.34,8.28,8.28,0,0,0,1.53.4,1,1,0,0,0,.93-.74h.45l.2,5h-.51a4.94,4.94,0,0,0-4.72-4.14c-3.35,0-5.32,2.7-5.32,6.54,0,2.43.55,4.16,1.59,5.29a5.39,5.39,0,0,0,4,1.6c2,0,3.21-.67,4.87-2.24Z"/><path class="cls-1" d="M214.19,112.75v-.42c.8,0,1,0,1.22-.2a.64.64,0,0,0,.31-.53,4.56,4.56,0,0,0-.42-1.55l-.91-2.08h-5.8l-1,2.52a3,3,0,0,0-.2.93c0,.69.49.91,1.55.91v.42h-4.41v-.42c1.29-.13,1.49-.6,2.79-3.7l4.57-10.81h.44l5.45,12.47c.62,1.44.93,1.91,2.08,2v.42ZM211.51,101l-2.55,6.1h5.12Z"/><path class="cls-1" d="M234.2,110.25a7,7,0,0,1-6,2.81,7.49,7.49,0,0,1-5.22-2,7.73,7.73,0,0,1-2.13-5.54,8,8,0,0,1,2-5.47,7.08,7.08,0,0,1,5.39-2.31,9.6,9.6,0,0,1,2.63.34,8.28,8.28,0,0,0,1.53.4,1,1,0,0,0,.93-.74h.45l.2,5h-.51a4.94,4.94,0,0,0-4.72-4.14c-3.35,0-5.32,2.7-5.32,6.54,0,2.43.55,4.16,1.59,5.29a5.39,5.39,0,0,0,3.95,1.6c2,0,3.21-.67,4.87-2.24Z"/><path class="cls-1" d="M235.91,112.75v-.42c1.86-.07,2.15-.33,2.15-2.06v-9.73c0-1.75-.26-1.92-2.15-2v-.43h6.58v.43c-1.86.08-2.17.35-2.17,2v9.73c0,1.66.36,2,2.17,2.06v.42Z"/><path class="cls-1" d="M251.44,113.06c-4.29,0-7.24-3.1-7.24-7.71s2.92-7.58,7.24-7.58,7.25,3.26,7.25,7.65C258.69,110,255.7,113.06,251.44,113.06Zm2.71-13.45a4.18,4.18,0,0,0-2.73-1,4.12,4.12,0,0,0-3.17,1.49,8.74,8.74,0,0,0-1.52,5.34c0,2.63.64,4.63,2,5.87a4.35,4.35,0,0,0,5.61-.07c1.21-1.17,1.83-3.26,1.83-5.92S255.41,100.68,254.15,99.61Z"/><path class="cls-1" d="M275.66,98.51c-.84.08-1.17.15-1.46.39s-.64.87-.64,2.62V113h-.4l-9.77-12.17v8.6c0,2.28.35,2.66,2.06,2.9v.42h-5.18v-.42c1.81-.2,2.15-.53,2.15-2.9V99.68c-.74-.91-1.07-1.17-2.15-1.17v-.43H264l8.55,10.71v-7.54c0-1.13-.08-1.79-.42-2.17s-.77-.46-1.75-.57v-.43h5.25Z"/><path class="cls-1" d="M286.17,112.75v-.42c.8,0,.95,0,1.22-.2a.66.66,0,0,0,.31-.53,4.81,4.81,0,0,0-.42-1.55l-.91-2.08h-5.81l-1,2.52a3,3,0,0,0-.19.93c0,.69.48.91,1.55.91v.42h-4.41v-.42c1.28-.13,1.48-.6,2.79-3.7l4.56-10.81h.45l5.45,12.47c.62,1.44.93,1.91,2.08,2v.42ZM283.49,101l-2.55,6.1h5.12Z"/><path class="cls-1" d="M304.89,112.75H293v-.42c1.64-.09,1.93-.44,1.93-2.13v-9.55c0-1.7-.2-2-1.93-2.14v-.43h6.27v.43c-1.81.11-2.08.39-2.08,2.1v10.28c0,.84.38,1,2,1h1.55c1.79,0,3-.4,3.74-1.35a8.3,8.3,0,0,0,.93-1.64H306Z"/><rect class="cls-1" x="142" y="90.8" width="163.93" height="1.5"/></g></g></g></svg>