<svg xmlns="http://www.w3.org/2000/svg" viewBox="0 0 604.25 343.85"><defs><style>.cls-1{fill:#fca311;}.cls-2{fill:#f2f2f2;}.cls-10,.cls-3,.cls-4,.cls-6,.cls-7,.cls-8{fill:none;stroke-miterlimit:10;}.cls-3,.cls-4{stroke:#222c35;stroke-width:2px;}.cls-4{stroke-dasharray:8.15 8.15;}.cls-5{fill:#222c35;}.cls-6,.cls-7,.cls-8{stroke:#000;stroke-width:0.75px;}.cls-7{stroke-dasharray:3.97 3.97;}.cls-8{stroke-dasharray:4.16 4.16;}.cls-9{fill:#fff;}.cls-10{stroke:#f2f2f2;stroke-width:3px;}</style></defs><g id="Layer_2" data-name="Layer 2"><g id="Valor"><g id="Layout"><g id="Seta"><path d="M542.65,233.06c-5.91-1.55-11.9-3-17.69-5-.4-.14-.85-.21-1-.63a4.78,4.78,0,0,1,.3-2l.89-4.58,1.84-9.4c.37-1.88-2.52-2.69-2.89-.79l-2.06,10.54c-.35,1.76-.78,3.53-1,5.31a3.58,3.58,0,0,0,1.34,3.62,13.54,13.54,0,0,0,4.11,1.51c1.68.49,3.35,1,5,1.45q5.16,1.47,10.33,2.83a1.51,1.51,0,0,0,.8-2.9Z"/><path d="M581.18,116.16a29,29,0,0,1,17.19,15.25c3.67,7.69,3.47,16.37.94,24.37-2.91,9.16-8.5,17.3-14.74,24.5a157.78,157.78,0,0,1-20.8,19.56c-8.62,6.89-17.71,13.16-26.79,19.42-1.58,1.09-.08,3.7,1.52,2.6,16.65-11.5,33.68-23.13,47.21-38.35,12-13.52,23.68-33,16.17-51.52A32.21,32.21,0,0,0,582,113.27c-1.84-.59-2.63,2.3-.8,2.89Z"/></g></g><g id="Textos"><path d="M226.75,24.05V5.71h2.89V24.05Z"/><path d="M244.54,5.71h2.86V24.05H245L234.85,10.77V24.05H232V5.71h2.39L244.54,19Z"/><path d="M257,24.39a8.72,8.72,0,0,1-5.27-1.6,7.89,7.89,0,0,1-3-3.94l2.69-.8a5.82,5.82,0,0,0,2.14,2.75,6,6,0,0,0,3.58,1.07,4.89,4.89,0,0,0,3-.86,2.47,2.47,0,0,0,1.17-2,2.07,2.07,0,0,0-.67-1.55,6.14,6.14,0,0,0-2.25-1.12l-4.61-1.47q-4.11-1.29-4.11-4.48a4.43,4.43,0,0,1,1.81-3.55A6.88,6.88,0,0,1,256,5.37a8.8,8.8,0,0,1,4.83,1.3,7.27,7.27,0,0,1,2.87,3.26l-2.65.79a5,5,0,0,0-2-2.06A6,6,0,0,0,256,7.88a4.17,4.17,0,0,0-2.51.72,2.11,2.11,0,0,0-1,1.72,1.67,1.67,0,0,0,.55,1.29,4.64,4.64,0,0,0,1.79.89l4.5,1.43A9.67,9.67,0,0,1,263,15.78a3.88,3.88,0,0,1,1.21,3,4.91,4.91,0,0,1-2,4A8,8,0,0,1,257,24.39Z"/><path d="M265.84,24.05V5.71h2.89V24.05Z"/><path d="M283,24.05l-4.47-6.81h-4.63v6.81h-2.84V5.71h8.72a5.72,5.72,0,0,1,4.39,1.75,5.78,5.78,0,0,1,1.64,4,5.71,5.71,0,0,1-1.13,3.43A5.46,5.46,0,0,1,281.57,17l4.73,7.05Zm-9.1-15.8v6.47h5.73a3.32,3.32,0,0,0,2.48-.94,3.1,3.1,0,0,0,.94-2.28,3.16,3.16,0,0,0-.92-2.29,3.23,3.23,0,0,0-2.43-1Z"/><path d="M301.17,24.05l-1.75-4.45h-8.73l-1.75,4.45h-3l7.27-18.34h3.63l7.27,18.34Zm-9.51-7h6.79L295.07,8.4Z"/><path d="M325.74,21.66a9.56,9.56,0,0,1-16.37-6.8,9.17,9.17,0,0,1,2.73-6.78,9.94,9.94,0,0,1,13.64,0,9.17,9.17,0,0,1,2.73,6.78A9.27,9.27,0,0,1,325.74,21.66Zm-11.64-1.9a6.8,6.8,0,0,0,9.65,0,7,7,0,0,0,1.87-4.93A6.81,6.81,0,0,0,323.74,10a6.86,6.86,0,0,0-9.64,0,6.81,6.81,0,0,0-1.88,4.86A7,7,0,0,0,314.1,19.76Z"/><path d="M344.06,24.39a9.34,9.34,0,0,1-9.55-9.53,9.2,9.2,0,0,1,2.72-6.78,10.07,10.07,0,0,1,12.43-1,8,8,0,0,1,3.1,4.06l-2.75.69a5.55,5.55,0,0,0-2.2-2.7A6.62,6.62,0,0,0,344,8a6.26,6.26,0,0,0-4.8,2,6.75,6.75,0,0,0-1.85,4.83,6.92,6.92,0,0,0,1.85,4.88,6.21,6.21,0,0,0,4.8,2,6.69,6.69,0,0,0,3.77-1A5.3,5.3,0,0,0,350,18l2.75.7a8,8,0,0,1-3.09,4A9.36,9.36,0,0,1,344.06,24.39Z"/><path d="M369.82,21.66a9.56,9.56,0,0,1-16.37-6.8,9.2,9.2,0,0,1,2.72-6.78,9.94,9.94,0,0,1,13.64,0,9.14,9.14,0,0,1,2.74,6.78A9.27,9.27,0,0,1,369.82,21.66Zm-11.65-1.9a6.81,6.81,0,0,0,9.66,0,7,7,0,0,0,1.86-4.93A6.8,6.8,0,0,0,367.82,10a6.87,6.87,0,0,0-9.65,0,6.8,6.8,0,0,0-1.87,4.86A7,7,0,0,0,358.17,19.76Zm3.37-16.14,2-3.62h3.07L364,3.62Z"/><path d="M381.55,5.71A8.5,8.5,0,0,1,388,8.26a9.22,9.22,0,0,1,2.43,6.62,9.27,9.27,0,0,1-2.41,6.6,8.47,8.47,0,0,1-6.49,2.57h-7.47V5.71Zm-.06,15.77A5.67,5.67,0,0,0,386,19.62a7,7,0,0,0,1.65-4.79A6.81,6.81,0,0,0,386,10.11a5.71,5.71,0,0,0-4.46-1.83h-4.58v13.2Z"/><path d="M392,24.05V5.71h2.89V24.05Z"/><path d="M415.3,14.1v1.45A8.4,8.4,0,0,1,412.74,22a9.31,9.31,0,0,1-6.62,2.4,9.45,9.45,0,0,1-6.93-2.73,9.23,9.23,0,0,1-2.77-6.81,9.12,9.12,0,0,1,2.75-6.75A9.31,9.31,0,0,1,406,5.37a9.72,9.72,0,0,1,5.47,1.54,8.15,8.15,0,0,1,3.23,4L412,11.6A5.73,5.73,0,0,0,409.74,9,6.81,6.81,0,0,0,406,8a6.39,6.39,0,0,0-4.85,2,6.78,6.78,0,0,0-1.88,4.82,6.83,6.83,0,0,0,1.91,4.89,6.66,6.66,0,0,0,5.08,2,6.32,6.32,0,0,0,4.28-1.43,5.44,5.44,0,0,0,1.85-3.79l-6.39,0V14.1Z"/><path d="M432.41,21.66A9.56,9.56,0,0,1,416,14.86a9.17,9.17,0,0,1,2.73-6.78,9.94,9.94,0,0,1,13.64,0,9.17,9.17,0,0,1,2.73,6.78A9.27,9.27,0,0,1,432.41,21.66Zm-11.64-1.9a6.81,6.81,0,0,0,9.66,0,7,7,0,0,0,1.86-4.93A6.81,6.81,0,0,0,430.41,10a6.86,6.86,0,0,0-9.64,0,6.81,6.81,0,0,0-1.88,4.86A7,7,0,0,0,420.77,19.76Z"/><path d="M449.46,5.71a8.5,8.5,0,0,1,6.47,2.55,9.22,9.22,0,0,1,2.43,6.62,9.27,9.27,0,0,1-2.41,6.6,8.47,8.47,0,0,1-6.49,2.57H442V5.71Zm-.06,15.77a5.67,5.67,0,0,0,4.46-1.86,7,7,0,0,0,1.65-4.79,6.81,6.81,0,0,0-1.65-4.72,5.71,5.71,0,0,0-4.46-1.83h-4.57v13.2Z"/><path d="M475.47,21.66a9.56,9.56,0,0,1-16.38-6.8,9.17,9.17,0,0,1,2.73-6.78,9.94,9.94,0,0,1,13.64,0,9.17,9.17,0,0,1,2.73,6.78A9.3,9.3,0,0,1,475.47,21.66Zm-11.65-1.9a6.81,6.81,0,0,0,9.66,0,7,7,0,0,0,1.86-4.93A6.84,6.84,0,0,0,473.47,10a6.87,6.87,0,0,0-9.65,0A6.8,6.8,0,0,0,462,14.83,7,7,0,0,0,463.82,19.76Z"/><path d="M492.3,24.39a8.72,8.72,0,0,1-5.27-1.6,7.89,7.89,0,0,1-3-3.94l2.69-.8a5.82,5.82,0,0,0,2.14,2.75,6,6,0,0,0,3.58,1.07,4.89,4.89,0,0,0,3-.86,2.47,2.47,0,0,0,1.17-2,2.07,2.07,0,0,0-.67-1.55,6.14,6.14,0,0,0-2.25-1.12l-4.6-1.47Q485,13.59,485,10.4a4.43,4.43,0,0,1,1.81-3.55,6.9,6.9,0,0,1,4.53-1.48,8.8,8.8,0,0,1,4.83,1.3A7.27,7.27,0,0,1,499,9.93l-2.65.79a5,5,0,0,0-2-2.06,6,6,0,0,0-3.08-.78,4.17,4.17,0,0,0-2.51.72,2.11,2.11,0,0,0-1,1.72,1.68,1.68,0,0,0,.56,1.29,4.52,4.52,0,0,0,1.78.89l4.5,1.43a9.67,9.67,0,0,1,3.59,1.85,3.88,3.88,0,0,1,1.21,3,4.91,4.91,0,0,1-2,4A8,8,0,0,1,492.3,24.39Z"/><path d="M514.35,8.28H503.94v5.21H513V16h-9.07v5.5h10.39v2.6H501.14V5.71h13.21Z"/><path d="M528.58,5.71h2.88V16.63a7.75,7.75,0,0,1-2.05,5.63,8.7,8.7,0,0,1-11.38,0,7.74,7.74,0,0,1-2-5.65V5.71h2.86V16.58a5.47,5.47,0,0,0,1.26,3.77,5.33,5.33,0,0,0,7.23,0,5.51,5.51,0,0,0,1.25-3.78Z"/><path d="M255.38,93.78q-13,0-21.59-8.49T225.2,64a28.67,28.67,0,0,1,8.57-21.17q8.58-8.53,21.37-8.53,11.37,0,18.77,5.8t9.27,13.38l-13.24,3.27A13.06,13.06,0,0,0,264.79,50a15.76,15.76,0,0,0-9.57-2.91,15,15,0,0,0-11.7,4.9,17.24,17.24,0,0,0-4.45,12,17.49,17.49,0,0,0,4.49,12,14.9,14.9,0,0,0,11.66,5,16.1,16.1,0,0,0,9.59-2.81,12.6,12.6,0,0,0,5.13-6.72l13.24,3.35q-1.87,7.5-9.23,13.22T255.38,93.78Z"/><path d="M326.76,35.44h13.72V68.86q0,11.28-6.68,18.1t-18.68,6.82Q303,93.78,296.38,87t-6.66-18.1V35.44h13.72V68.62a13.77,13.77,0,0,0,3,9.21q3,3.51,8.69,3.51t8.69-3.51a13.77,13.77,0,0,0,3-9.21Z"/><path d="M377.41,35.44a19,19,0,0,1,14.81,6.3,20.79,20.79,0,0,1-.08,28.64q-5.76,6.25-15.29,6.26H363.29v16h-13.4V35.44Zm-.88,29.07a7.65,7.65,0,0,0,5.9-2.51,8.39,8.39,0,0,0,2.32-5.86,8.73,8.73,0,0,0-2.2-5.88,6.93,6.93,0,0,0-5.46-2.54h-13.8V64.51Z"/><path d="M453.77,85.29q-8.61,8.49-21.67,8.49t-21.67-8.49q-8.62-8.49-8.62-21.24t8.62-21.23q8.61-8.49,21.67-8.49t21.67,8.49a28.61,28.61,0,0,1,8.62,21.23A28.62,28.62,0,0,1,453.77,85.29ZM420.1,76.38a17.19,17.19,0,0,0,24,0,17.34,17.34,0,0,0,4.57-12.33,17.39,17.39,0,0,0-4.57-12.34,17.14,17.14,0,0,0-24,0,17.39,17.39,0,0,0-4.57,12.34A17.34,17.34,0,0,0,420.1,76.38Z"/><path d="M517.74,35.44h12.92V92.63H517.1V59.13l-16.83,23-16.75-23v33.5H470V35.44h12.88l17.51,25.4Z"/><path d="M237.39,106.21a5.84,5.84,0,0,1,4.42,1.72,6.62,6.62,0,0,1,1.65,4.77v8.83H242v-8.68a5.54,5.54,0,0,0-1.24-3.85,4.48,4.48,0,0,0-3.51-1.37,5.39,5.39,0,0,0-4.17,1.75,6.5,6.5,0,0,0-1.6,4.56v7.59H230v-15h1.47v3.08a6.3,6.3,0,0,1,2.33-2.5A6.8,6.8,0,0,1,237.39,106.21Z"/><path d="M254.77,121.89a7.28,7.28,0,0,1-5.46-2.25,7.79,7.79,0,0,1-2.18-5.61,7.69,7.69,0,0,1,2.18-5.58,7.31,7.31,0,0,1,5.46-2.24,7.75,7.75,0,0,1,3.84.94,7.05,7.05,0,0,1,2.64,2.56v-3.14h1.47v15h-1.47v-3.18a6.58,6.58,0,0,1-2.62,2.61A7.87,7.87,0,0,1,254.77,121.89Zm.17-1.37a6.07,6.07,0,0,0,4.48-1.87,6.59,6.59,0,0,0,0-9.18,6.42,6.42,0,0,0-9,0,6.9,6.9,0,0,0,0,9.25A6.06,6.06,0,0,0,254.94,120.52Z"/><path d="M283,106.21a5.86,5.86,0,0,1,4.42,1.72A6.66,6.66,0,0,1,289,112.7v8.83h-1.47v-8.68A5.58,5.58,0,0,0,286.3,109a4.51,4.51,0,0,0-3.51-1.37,5.39,5.39,0,0,0-4.17,1.75,6.46,6.46,0,0,0-1.6,4.56v7.59h-1.48V99.47H277v10.18a6.3,6.3,0,0,1,2.33-2.5A6.75,6.75,0,0,1,283,106.21Z"/><path d="M300.58,121.89a7.69,7.69,0,0,1-7.89-7.86,7.55,7.55,0,0,1,2.25-5.58,7.68,7.68,0,0,1,5.64-2.24A7.65,7.65,0,0,1,308.4,114a7.68,7.68,0,0,1-2.24,5.61A7.55,7.55,0,0,1,300.58,121.89Zm0-1.4a6.12,6.12,0,0,0,4.51-1.83,6.7,6.7,0,0,0,0-9.2,6.07,6.07,0,0,0-4.51-1.86,6.17,6.17,0,0,0-4.56,1.86,6.43,6.43,0,0,0,4.56,11Z"/><path d="M313.71,109.36a4.87,4.87,0,0,1,2.13-2.42,5.43,5.43,0,0,1,3.46-.55v1.39a4.58,4.58,0,0,0-4.08,1.29c-1,1.05-1.51,2.79-1.51,5.2v7.26h-1.48v-15h1.48Z"/><path d="M328.05,121.89a7.28,7.28,0,0,1-5.47-2.25,7.78,7.78,0,0,1-2.17-5.61,7.68,7.68,0,0,1,2.17-5.58,7.31,7.31,0,0,1,5.47-2.24,7.73,7.73,0,0,1,3.83.94,7,7,0,0,1,2.64,2.56v-3.14H336v15h-1.48v-3.18a6.56,6.56,0,0,1-2.61,2.61A7.9,7.9,0,0,1,328.05,121.89Zm.16-1.37a6.09,6.09,0,0,0,4.49-1.87,6.62,6.62,0,0,0,0-9.18,6.09,6.09,0,0,0-4.49-1.87,6,6,0,0,0-4.54,1.84,6.91,6.91,0,0,0,0,9.25A6.06,6.06,0,0,0,328.21,120.52Z"/><path d="M361.93,99.47h1.48v22.06h-1.48v-3.18a6.56,6.56,0,0,1-2.61,2.61,7.85,7.85,0,0,1-3.86.93,7.28,7.28,0,0,1-5.47-2.25,7.78,7.78,0,0,1-2.17-5.61,7.68,7.68,0,0,1,2.17-5.58,7.31,7.31,0,0,1,5.47-2.24,7.73,7.73,0,0,1,3.83.94,6.91,6.91,0,0,1,2.64,2.56Zm-6.31,21a6.09,6.09,0,0,0,4.49-1.87,6.62,6.62,0,0,0,0-9.18,6.09,6.09,0,0,0-4.49-1.87,6,6,0,0,0-4.54,1.84,6.91,6.91,0,0,0,0,9.25A6.06,6.06,0,0,0,355.62,120.52Z"/><path d="M374.87,121.89a7.28,7.28,0,0,1-5.46-2.25,7.79,7.79,0,0,1-2.18-5.61,7.69,7.69,0,0,1,2.18-5.58,7.31,7.31,0,0,1,5.46-2.24,7.75,7.75,0,0,1,3.84.94,7.05,7.05,0,0,1,2.64,2.56v-3.14h1.47v15h-1.47v-3.18a6.58,6.58,0,0,1-2.62,2.61A7.87,7.87,0,0,1,374.87,121.89Zm.17-1.37a6.07,6.07,0,0,0,4.48-1.87,6.59,6.59,0,0,0,0-9.18,6.42,6.42,0,0,0-9,0,6.9,6.9,0,0,0,0,9.25A6,6,0,0,0,375,120.52Z"/><path d="M412.86,106.21a5.52,5.52,0,0,1,4.23,1.66,6.54,6.54,0,0,1,1.54,4.6v9.06h-1.48v-8.94a5.34,5.34,0,0,0-1.15-3.65,4.1,4.1,0,0,0-3.26-1.31,4.47,4.47,0,0,0-3.5,1.59,6,6,0,0,0-1.4,4.09v8.22h-1.47v-8.94a5.59,5.59,0,0,0-1.08-3.65,3.76,3.76,0,0,0-3.07-1.31,4.55,4.55,0,0,0-3.65,1.72,6.68,6.68,0,0,0-1.45,4.48v7.7h-1.48v-15h1.48v2.87a6.09,6.09,0,0,1,2.12-2.33,5.63,5.63,0,0,1,3.17-.9,4.84,4.84,0,0,1,4.95,3.32,5.57,5.57,0,0,1,2.07-2.4A6.16,6.16,0,0,1,412.86,106.21Z"/><path d="M429.94,121.89a7.28,7.28,0,0,1-5.46-2.25A7.79,7.79,0,0,1,422.3,114a7.69,7.69,0,0,1,2.18-5.58,7.31,7.31,0,0,1,5.46-2.24,7.75,7.75,0,0,1,3.84.94,7.05,7.05,0,0,1,2.64,2.56v-3.14h1.47v15h-1.47v-3.18A6.58,6.58,0,0,1,433.8,121,7.87,7.87,0,0,1,429.94,121.89Zm.17-1.37a6.07,6.07,0,0,0,4.48-1.87,6.59,6.59,0,0,0,0-9.18,6.42,6.42,0,0,0-9,0,6.9,6.9,0,0,0,0,9.25A6.06,6.06,0,0,0,430.11,120.52Z"/><path d="M451.23,108h-5.52v9.31c0,2,.92,3,2.75,3a5.38,5.38,0,0,0,2.33-.58l.44,1.39a7.54,7.54,0,0,1-2.92.63,3.79,3.79,0,0,1-3.05-1.19,4.82,4.82,0,0,1-1-3.28V108h-3.17v-1.38h3.17v-5.31h1.49v5.31h5.52Z"/><path d="M456.48,109.36a4.92,4.92,0,0,1,2.13-2.42,5.44,5.44,0,0,1,3.46-.55v1.39a4.55,4.55,0,0,0-4.07,1.29c-1,1.05-1.52,2.79-1.52,5.2v7.26H455v-15h1.47Z"/><path d="M465,104.15l2.44-4h1.82l-2.75,4Zm.25,17.38v-15h1.5v15Z"/><path d="M478.33,121.89a7.45,7.45,0,0,1-5.55-2.25,7.79,7.79,0,0,1-2.19-5.64,7.61,7.61,0,0,1,2.19-5.57,7.47,7.47,0,0,1,5.55-2.22,7.18,7.18,0,0,1,4.39,1.35,6.06,6.06,0,0,1,2.34,3l-1.39.42a4.7,4.7,0,0,0-1.93-2.37,6.29,6.29,0,0,0-7.91.88,6.82,6.82,0,0,0,0,9.11,5.87,5.87,0,0,0,4.51,1.89,6.1,6.1,0,0,0,3.41-1,4.54,4.54,0,0,0,1.93-2.33l1.39.37a5.89,5.89,0,0,1-2.33,3A7.24,7.24,0,0,1,478.33,121.89Z"/><path d="M500.83,106.57h1.47v15h-1.47v-3.09a6.37,6.37,0,0,1-2.32,2.51,6.7,6.7,0,0,1-3.61.94,5.82,5.82,0,0,1-4.42-1.72,6.64,6.64,0,0,1-1.65-4.78v-8.82h1.48v8.67a5.52,5.52,0,0,0,1.24,3.85,4.46,4.46,0,0,0,3.5,1.37,5.41,5.41,0,0,0,4.17-1.74,6.5,6.5,0,0,0,1.61-4.57Z"/><path d="M507.13,121.53V99.47h1.47v22.06Z"/><path d="M520.08,121.89a7.32,7.32,0,0,1-5.47-2.25,7.78,7.78,0,0,1-2.17-5.61,7.68,7.68,0,0,1,2.17-5.58,7.34,7.34,0,0,1,5.47-2.24,7.77,7.77,0,0,1,3.84.94,7.05,7.05,0,0,1,2.64,2.56v-3.14H528v15h-1.47v-3.18a6.64,6.64,0,0,1-2.62,2.61A7.87,7.87,0,0,1,520.08,121.89Zm.16-1.37a6.09,6.09,0,0,0,4.49-1.87,6.59,6.59,0,0,0,0-9.18,6.09,6.09,0,0,0-4.49-1.87,6,6,0,0,0-4.54,1.84,6.91,6.91,0,0,0,0,9.25A6.06,6.06,0,0,0,520.24,120.52Z"/></g><g id="Cupom"><rect class="cls-1" x="0.7" y="148.3" width="447.59" height="195.55"/><rect class="cls-2" y="148.3" width="175.48" height="195.55"/><line class="cls-3" x1="175.48" y1="148.3" x2="175.48" y2="152.3"/><line class="cls-4" x1="175.48" y1="160.45" x2="175.48" y2="335.78"/><line class="cls-3" x1="175.48" y1="339.85" x2="175.48" y2="343.85"/><path class="cls-5" d="M38.36,194.42h7.12V229.5H37.07V203.6L29.65,207l-2-7.05Z"/><path class="cls-5" d="M74.06,225.14a13.09,13.09,0,0,1-10.92,5.07,13.14,13.14,0,0,1-10.94-5.07q-4-5.05-4-13.18t4-13.17a13.15,13.15,0,0,1,10.94-5,13.1,13.1,0,0,1,10.92,5q4,5.06,4,13.17T74.06,225.14Zm-15.87-5.29a5.41,5.41,0,0,0,5,2.82,5.31,5.31,0,0,0,4.92-2.82,19.91,19.91,0,0,0,0-15.78,5.31,5.31,0,0,0-4.92-2.82,5.41,5.41,0,0,0-5,2.82A15.62,15.62,0,0,0,56.53,212Q56.53,217,58.19,219.85Z"/><path class="cls-5" d="M89.29,214.53a10.35,10.35,0,0,1-7.46-3,10.19,10.19,0,0,1,0-14.53,11,11,0,0,1,15,0,10.22,10.22,0,0,1,0,14.53A10.34,10.34,0,0,1,89.29,214.53Zm-3.24-7.07a4.4,4.4,0,0,0,3.24,1.3,4.5,4.5,0,0,0,3.23-7.64,4.4,4.4,0,0,0-3.23-1.27,4.46,4.46,0,0,0-3.24,1.27,4.57,4.57,0,0,0,0,6.34Zm3.29,22,22.75-35.08h6.21L95.6,229.5Zm29.06.39a10.32,10.32,0,0,1-7.46-2.95,9.67,9.67,0,0,1-3.06-7.26,9.78,9.78,0,0,1,3-7.27,11,11,0,0,1,15,0,10.2,10.2,0,0,1,0,14.53A10.29,10.29,0,0,1,118.4,229.89Zm-3.24-7a4.36,4.36,0,0,0,3.24,1.29,4.5,4.5,0,0,0,3.23-7.64,4.7,4.7,0,0,0-6.47,0,4.55,4.55,0,0,0,0,6.35Z"/><path class="cls-5" d="M224.29,173.8h11.59v57.11h-13.7V188.74l-12.06,5.53-3.27-11.47Z"/><path class="cls-5" d="M287.31,223.82q-6.45,8.24-17.78,8.24t-17.82-8.24q-6.5-8.25-6.49-21.46t6.49-21.45q6.5-8.22,17.82-8.22t17.78,8.22q6.45,8.22,6.45,21.45T287.31,223.82Zm-25.84-8.62a8.8,8.8,0,0,0,8.08,4.6,8.67,8.67,0,0,0,8-4.6q2.65-4.6,2.65-12.84t-2.65-12.85a8.67,8.67,0,0,0-8-4.6,8.8,8.8,0,0,0-8.08,4.6q-2.72,4.61-2.71,12.85T261.47,215.2Z"/><path class="cls-5" d="M317,206.54a16.83,16.83,0,0,1-12.15-4.82,16.6,16.6,0,0,1-.06-23.65,17.84,17.84,0,0,1,24.39,0,16.62,16.62,0,0,1,0,23.65A16.77,16.77,0,0,1,317,206.54ZM311.72,195a7.34,7.34,0,0,0,12.6-5.14,7,7,0,0,0-2.07-5.17,7.7,7.7,0,0,0-10.53,0,7.4,7.4,0,0,0,0,10.31Zm5.36,35.88,37-57.11h10.11l-37,57.11Zm47.3.63a16.82,16.82,0,0,1-12.14-4.79,16.61,16.61,0,0,1-.06-23.66,17.89,17.89,0,0,1,24.39,0,16.66,16.66,0,0,1,0,23.66A16.81,16.81,0,0,1,364.38,231.54Zm-5.27-11.46a7.13,7.13,0,0,0,5.27,2.11,7,7,0,0,0,5.26-2.13A7.37,7.37,0,1,0,357,214.94,7,7,0,0,0,359.11,220.08Z"/><polyline class="cls-6" points="159.6 260.51 159.6 262.51 157.6 262.51"/><line class="cls-7" x1="153.63" y1="262.51" x2="20.57" y2="262.51"/><polyline class="cls-6" points="18.58 262.51 16.58 262.51 16.58 260.51"/><line class="cls-8" x1="16.58" y1="256.35" x2="16.58" y2="183.52"/><polyline class="cls-6" points="16.58 181.44 16.58 179.44 18.58 179.44"/><line class="cls-7" x1="22.55" y1="179.44" x2="155.61" y2="179.44"/><polyline class="cls-6" points="157.6 179.44 159.6 179.44 159.6 181.44"/><line class="cls-8" x1="159.6" y1="185.6" x2="159.6" y2="258.43"/><path class="cls-5" d="M36.21,310.83a13.37,13.37,0,0,1-9.8-3.85,13.85,13.85,0,0,1,0-19.25,13.18,13.18,0,0,1,9.69-3.88,13.37,13.37,0,0,1,8.52,2.64,11.1,11.1,0,0,1,4.2,6.07l-6,1.48A5.92,5.92,0,0,0,40.48,291a7.14,7.14,0,0,0-4.34-1.32,6.82,6.82,0,0,0-5.31,2.22,7.79,7.79,0,0,0-2,5.45,7.91,7.91,0,0,0,2,5.46A6.75,6.75,0,0,0,36.14,305a7.33,7.33,0,0,0,4.35-1.27,5.8,5.8,0,0,0,2.33-3l6,1.52a10.94,10.94,0,0,1-4.19,6A13.3,13.3,0,0,1,36.21,310.83Z"/><path class="cls-5" d="M66.75,284.36H73v15.16a11.25,11.25,0,0,1-3,8.22q-3,3.09-8.48,3.09c-3.65,0-6.49-1-8.5-3.09a11.24,11.24,0,0,1-3-8.22V284.36h6.22v15.05a6.23,6.23,0,0,0,1.35,4.18,4.88,4.88,0,0,0,3.94,1.6,4.9,4.9,0,0,0,4-1.6,6.28,6.28,0,0,0,1.35-4.18Z"/><path class="cls-5" d="M87.87,284.36a8.62,8.62,0,0,1,6.72,2.86,9.41,9.41,0,0,1,2.58,6.48,9.3,9.3,0,0,1-2.62,6.51,9,9,0,0,1-6.93,2.84H81.46v7.26H75.39V284.36Zm-.4,13.19a3.48,3.48,0,0,0,2.68-1.14,3.81,3.81,0,0,0,1-2.66,3.94,3.94,0,0,0-1-2.67,3.16,3.16,0,0,0-2.48-1.15H81.46v7.62Z"/><path class="cls-5" d="M120.66,307A14.47,14.47,0,0,1,101,307a13.83,13.83,0,0,1,0-19.27,14.45,14.45,0,0,1,19.66,0,13.83,13.83,0,0,1,0,19.27Zm-15.28-4.05a7.8,7.8,0,0,0,10.9,0,8.6,8.6,0,0,0,0-11.19,7.8,7.8,0,0,0-10.9,0,8.6,8.6,0,0,0,0,11.19Z"/><path class="cls-5" d="M147.83,284.36h5.86v25.95h-6.15v-15.2l-7.63,10.42-7.6-10.42v15.2h-6.15V284.36H132l7.94,11.53Z"/><path class="cls-5" d="M195.12,295.53a4,4,0,0,1,3.1,1.29,4.24,4.24,0,0,1,1.16,2.94,4.19,4.19,0,0,1-1.18,2.94A4.07,4.07,0,0,1,195,304h-3.69v4.17h-2V295.53Zm-.14,6.69a2.42,2.42,0,0,0,1.83-.73,2.53,2.53,0,0,0,0-3.45,2.25,2.25,0,0,0-1.73-.74h-3.75v4.92Z"/><path class="cls-5" d="M207.93,307a5,5,0,0,1-6.89,0,4.77,4.77,0,0,1,3.44-8.17,4.74,4.74,0,0,1,3.45,1.35,4.93,4.93,0,0,1,0,6.82Zm-5.58-1.23a3,3,0,0,0,4.27,0,3,3,0,0,0,.84-2.17,3,3,0,0,0-.84-2.19,3.05,3.05,0,0,0-4.27,0,3,3,0,0,0-.84,2.19A3,3,0,0,0,202.35,305.79Z"/><path class="cls-5" d="M215.8,298.85a3.35,3.35,0,0,1,2.67,1.06,4.28,4.28,0,0,1,.93,2.92v5.32h-1.87v-5a2.84,2.84,0,0,0-.57-1.89,2.07,2.07,0,0,0-1.67-.68,2.4,2.4,0,0,0-1.9.83,3.23,3.23,0,0,0-.71,2.2v4.51h-1.89v-9.07h1.89v1.35A3.6,3.6,0,0,1,215.8,298.85Z"/><path class="cls-5" d="M226.46,306.31l.47,1.55a5.26,5.26,0,0,1-2,.43,2.68,2.68,0,0,1-2.13-.82,3.36,3.36,0,0,1-.7-2.26v-4.46h-1.65v-1.67h1.65v-3H224v3h2.89v1.67H224v4.46c0,.92.44,1.39,1.31,1.39A2.7,2.7,0,0,0,226.46,306.31Z"/><path class="cls-5" d="M234.89,299.08h1.88v9.07h-1.88v-1.38a3.56,3.56,0,0,1-3.13,1.61,3.37,3.37,0,0,1-2.66-1.06,4.24,4.24,0,0,1-.95-2.92v-5.32H230v5a2.84,2.84,0,0,0,.57,1.89,2.07,2.07,0,0,0,1.67.68,2.39,2.39,0,0,0,1.89-.83,3.24,3.24,0,0,0,.72-2.2Z"/><path class="cls-5" d="M242.79,308.38a4.24,4.24,0,0,1-3.22-1.36,5.14,5.14,0,0,1,0-6.81,4.24,4.24,0,0,1,3.22-1.36,3.74,3.74,0,0,1,3.26,1.61v-1.38h1.87v9.07h-1.87v-1.38A3.74,3.74,0,0,1,242.79,308.38Zm.3-1.69a2.91,2.91,0,0,0,2.13-.88,3.2,3.2,0,0,0,0-4.39,2.87,2.87,0,0,0-2.13-.88,2.8,2.8,0,0,0-2.12.87,3,3,0,0,0-.83,2.19,3,3,0,0,0,.83,2.21A2.8,2.8,0,0,0,243.09,306.69Z"/><path class="cls-5" d="M250,308.15V295h1.89v13.16Z"/><path class="cls-5" d="M255.78,297.27a1.25,1.25,0,0,1-1.69,0,1.17,1.17,0,0,1,0-1.65,1.22,1.22,0,0,1,1.69,0,1.17,1.17,0,0,1,0,1.65ZM254,308.15v-9.07h1.87v9.07Z"/><path class="cls-5" d="M265.19,295h1.87v13.16h-1.87v-1.38a3.77,3.77,0,0,1-3.27,1.61A4.25,4.25,0,0,1,258.7,307a5.14,5.14,0,0,1,0-6.81,4.25,4.25,0,0,1,3.22-1.36,3.75,3.75,0,0,1,3.27,1.61Zm-3,11.7a2.87,2.87,0,0,0,2.12-.88,3.2,3.2,0,0,0,0-4.39,3,3,0,0,0-4.25,0,3,3,0,0,0-.83,2.19,3.09,3.09,0,0,0,.83,2.21A2.84,2.84,0,0,0,262.23,306.69Z"/><path class="cls-5" d="M273.07,308.38a4.24,4.24,0,0,1-3.22-1.36,5.14,5.14,0,0,1,0-6.81,4.24,4.24,0,0,1,3.22-1.36,3.72,3.72,0,0,1,3.26,1.61v-1.38h1.88v9.07h-1.88v-1.38A3.72,3.72,0,0,1,273.07,308.38Zm.31-1.69a2.9,2.9,0,0,0,2.12-.88,3.2,3.2,0,0,0,0-4.39,2.86,2.86,0,0,0-2.12-.88,2.82,2.82,0,0,0-2.13.87,3,3,0,0,0-.83,2.19,3.09,3.09,0,0,0,.83,2.21A2.83,2.83,0,0,0,273.38,306.69Z"/><path class="cls-5" d="M287.48,295h1.88v13.16h-1.88v-1.38a3.75,3.75,0,0,1-3.26,1.61A4.24,4.24,0,0,1,281,307a5.14,5.14,0,0,1,0-6.81,4.24,4.24,0,0,1,3.22-1.36,3.73,3.73,0,0,1,3.26,1.61Zm-3,11.7a2.91,2.91,0,0,0,2.13-.88,3.2,3.2,0,0,0,0-4.39,2.87,2.87,0,0,0-2.13-.88,2.8,2.8,0,0,0-2.12.87,3,3,0,0,0-.83,2.19,3,3,0,0,0,.83,2.21A2.8,2.8,0,0,0,284.52,306.69Z"/><path class="cls-5" d="M295.69,308.38a4.75,4.75,0,0,1-3.49-1.31,4.64,4.64,0,0,1-1.34-3.45,4.74,4.74,0,0,1,1.3-3.41,4.41,4.41,0,0,1,3.36-1.36,4.46,4.46,0,0,1,3.39,1.3,4.61,4.61,0,0,1,1.23,3.29,5.38,5.38,0,0,1-.06.76h-7.37a2.69,2.69,0,0,0,.88,1.85,3.1,3.1,0,0,0,2.13.71,2.61,2.61,0,0,0,2.58-1.46l1.73.51a4.53,4.53,0,0,1-1.6,1.82A4.82,4.82,0,0,1,295.69,308.38Zm-3-5.44,5.58,0a2.63,2.63,0,0,0-.82-1.76,2.73,2.73,0,0,0-2-.69,2.7,2.7,0,0,0-1.93.72A2.76,2.76,0,0,0,292.71,302.94Z"/><path class="cls-5" d="M313,295h1.88v13.16H313v-1.38a3.74,3.74,0,0,1-3.26,1.61,4.24,4.24,0,0,1-3.22-1.36,5.14,5.14,0,0,1,0-6.81,4.24,4.24,0,0,1,3.22-1.36,3.72,3.72,0,0,1,3.26,1.61ZM310,306.69a2.9,2.9,0,0,0,2.12-.88,3.2,3.2,0,0,0,0-4.39,2.86,2.86,0,0,0-2.12-.88,2.8,2.8,0,0,0-2.13.87,3,3,0,0,0-.83,2.19,3.09,3.09,0,0,0,.83,2.21A2.81,2.81,0,0,0,310,306.69Z"/><path class="cls-5" d="M321.16,308.38a4.77,4.77,0,0,1-3.49-1.31,4.64,4.64,0,0,1-1.34-3.45,4.74,4.74,0,0,1,1.3-3.41,4.41,4.41,0,0,1,3.36-1.36,4.46,4.46,0,0,1,3.39,1.3,4.61,4.61,0,0,1,1.23,3.29,5.38,5.38,0,0,1-.06.76h-7.36a2.61,2.61,0,0,0,.88,1.85,3.06,3.06,0,0,0,2.13.71,2.6,2.6,0,0,0,2.57-1.46l1.73.51a4.45,4.45,0,0,1-1.6,1.82A4.82,4.82,0,0,1,321.16,308.38Zm-3-5.44,5.57,0a2.63,2.63,0,0,0-.82-1.76,2.73,2.73,0,0,0-1.95-.69,2.73,2.73,0,0,0-2.8,2.47Z"/><path class="cls-5" d="M336.35,298.85a4.28,4.28,0,0,1,3.22,1.35,5.12,5.12,0,0,1,0,6.82,4.25,4.25,0,0,1-3.22,1.36,3.72,3.72,0,0,1-3.25-1.61v5.16h-1.89V299.08h1.89v1.38A3.72,3.72,0,0,1,336.35,298.85Zm-.31,7.84a2.8,2.8,0,0,0,2.12-.88,3.32,3.32,0,0,0,0-4.4,2.8,2.8,0,0,0-2.13-.87,2.87,2.87,0,0,0-2.13.88,3.23,3.23,0,0,0,0,4.39A2.87,2.87,0,0,0,336,306.69Z"/><path class="cls-5" d="M346.31,308.38a4.24,4.24,0,0,1-3.22-1.36,5.14,5.14,0,0,1,0-6.81,4.24,4.24,0,0,1,3.22-1.36,3.74,3.74,0,0,1,3.26,1.61v-1.38h1.87v9.07h-1.87v-1.38A3.74,3.74,0,0,1,346.31,308.38Zm.3-1.69a2.91,2.91,0,0,0,2.13-.88,3.2,3.2,0,0,0,0-4.39,2.87,2.87,0,0,0-2.13-.88,2.8,2.8,0,0,0-2.12.87,3,3,0,0,0-.83,2.19,3,3,0,0,0,.83,2.21A2.8,2.8,0,0,0,346.61,306.69Z"/><path class="cls-5" d="M360.66,299.08h1.89v8.74a4.14,4.14,0,0,1-1.27,3.13,5.14,5.14,0,0,1-7.65-1.15l1.66-.61a2.89,2.89,0,0,0,2.7,1.39,2.49,2.49,0,0,0,1.95-.77,2.85,2.85,0,0,0,.72-2v-1.33a3.75,3.75,0,0,1-3.19,1.53,4.34,4.34,0,0,1-3.24-1.31,4.91,4.91,0,0,1,0-6.6,4.4,4.4,0,0,1,3.25-1.28,3.76,3.76,0,0,1,3.19,1.51Zm-2.9,7.26a2.91,2.91,0,0,0,2.11-.82,2.79,2.79,0,0,0,.85-2.08,2.73,2.73,0,0,0-.85-2.06,3.15,3.15,0,0,0-4.23,0,3,3,0,0,0,0,4.15A2.87,2.87,0,0,0,357.76,306.34Z"/><path class="cls-5" d="M368.57,308.38a4.24,4.24,0,0,1-3.22-1.36,5.14,5.14,0,0,1,0-6.81,4.24,4.24,0,0,1,3.22-1.36,3.73,3.73,0,0,1,3.26,1.61v-1.38h1.87v9.07h-1.87v-1.38A3.73,3.73,0,0,1,368.57,308.38Zm.3-1.69a2.91,2.91,0,0,0,2.13-.88,3.2,3.2,0,0,0,0-4.39,2.87,2.87,0,0,0-2.13-.88,2.8,2.8,0,0,0-2.12.87,3,3,0,0,0-.83,2.19,3,3,0,0,0,.83,2.21A2.8,2.8,0,0,0,368.87,306.69Z"/><path class="cls-5" d="M386.47,298.85a3.38,3.38,0,0,1,2.59,1,4,4,0,0,1,1,2.85v5.42h-1.89v-5.06a2.88,2.88,0,0,0-.51-1.82,1.81,1.81,0,0,0-1.53-.66,2,2,0,0,0-1.65.76,3.13,3.13,0,0,0-.62,2v4.75H382v-5.06a2.94,2.94,0,0,0-.5-1.82,1.71,1.71,0,0,0-1.46-.66,2.07,2.07,0,0,0-1.71.8,3.36,3.36,0,0,0-.62,2.16v4.58h-1.9v-9.07h1.9v1.26a3.25,3.25,0,0,1,2.85-1.49,2.88,2.88,0,0,1,2.79,1.54A3.53,3.53,0,0,1,386.47,298.85Z"/><path class="cls-5" d="M396.27,308.38a4.77,4.77,0,0,1-3.49-1.31,4.64,4.64,0,0,1-1.34-3.45,4.74,4.74,0,0,1,1.3-3.41,4.95,4.95,0,0,1,6.75-.06,4.62,4.62,0,0,1,1.24,3.29,4.29,4.29,0,0,1-.07.76H393.3a2.65,2.65,0,0,0,.88,1.85,3.1,3.1,0,0,0,2.13.71,2.61,2.61,0,0,0,2.58-1.46l1.72.51a4.45,4.45,0,0,1-1.6,1.82A4.8,4.8,0,0,1,396.27,308.38Zm-3-5.44,5.57,0a2.59,2.59,0,0,0-.82-1.76,2.84,2.84,0,0,0-4.75,1.78Z"/><path class="cls-5" d="M407.23,298.85a3.34,3.34,0,0,1,2.66,1.06,4.24,4.24,0,0,1,.94,2.92v5.32H409v-5a2.9,2.9,0,0,0-.56-1.89,2.07,2.07,0,0,0-1.67-.68,2.38,2.38,0,0,0-1.9.83,3.24,3.24,0,0,0-.72,2.2v4.51h-1.89v-9.07h1.89v1.35A3.63,3.63,0,0,1,407.23,298.85Z"/><path class="cls-5" d="M417.89,306.31l.47,1.55a5.3,5.3,0,0,1-2,.43,2.68,2.68,0,0,1-2.13-.82,3.36,3.36,0,0,1-.7-2.26v-4.46h-1.66v-1.67h1.66v-3h1.87v3h2.89v1.67H415.4v4.46c0,.92.43,1.39,1.3,1.39A2.74,2.74,0,0,0,417.89,306.31Z"/><path class="cls-5" d="M427,307a4.81,4.81,0,0,1-8.25-3.41,4.61,4.61,0,0,1,1.37-3.4,5,5,0,0,1,6.88,0,4.9,4.9,0,0,1,0,6.82Zm-5.58-1.23a3,3,0,0,0,4.28,0,3,3,0,0,0,.84-2.17,3,3,0,0,0-.84-2.19,3.07,3.07,0,0,0-4.28,0,3.06,3.06,0,0,0-.83,2.19A3,3,0,0,0,421.37,305.79Z"/><path class="cls-5" d="M233.07,316.87a3.34,3.34,0,0,1,2.66,1.06,4.3,4.3,0,0,1,.93,2.92v5.32h-1.87v-5a2.86,2.86,0,0,0-.57-1.89,2.05,2.05,0,0,0-1.67-.67,2.39,2.39,0,0,0-1.9.82,3.29,3.29,0,0,0-.71,2.2v4.51h-1.89V317.1h1.89v1.35A3.63,3.63,0,0,1,233.07,316.87Z"/><path class="cls-5" d="M246.34,325a5,5,0,0,1-6.88,0,4.92,4.92,0,0,1,0-6.81,5,5,0,0,1,6.88,0,4.89,4.89,0,0,1,0,6.81Zm-5.58-1.23a3,3,0,0,0,4.28,0,3,3,0,0,0,.84-2.16,3.07,3.07,0,0,0-.84-2.2,3.07,3.07,0,0,0-4.28,0,3.1,3.1,0,0,0-.83,2.2A3,3,0,0,0,240.76,323.81Z"/><path class="cls-5" d="M258.45,316.87a4.25,4.25,0,0,1,3.22,1.36,5.11,5.11,0,0,1,0,6.81,4.26,4.26,0,0,1-3.22,1.37,3.75,3.75,0,0,1-3.25-1.61v1.37h-1.89V313h1.89v5.47A3.72,3.72,0,0,1,258.45,316.87Zm-.31,7.84a2.81,2.81,0,0,0,2.13-.88,3.09,3.09,0,0,0,.83-2.21,3,3,0,0,0-.83-2.19,2.8,2.8,0,0,0-2.13-.86,2.86,2.86,0,0,0-2.12.87,3,3,0,0,0-.87,2.19,3,3,0,0,0,.87,2.21A2.86,2.86,0,0,0,258.14,324.71Z"/><path class="cls-5" d="M272.16,325a5,5,0,0,1-6.89,0,4.77,4.77,0,0,1,3.44-8.17,4.7,4.7,0,0,1,3.45,1.36,4.92,4.92,0,0,1,0,6.81Zm-5.58-1.23a3,3,0,0,0,4.27,0,3,3,0,0,0,.84-2.16,3.07,3.07,0,0,0-.84-2.2,3.05,3.05,0,0,0-4.27,0,3.07,3.07,0,0,0-.84,2.2A3,3,0,0,0,266.58,323.81Z"/><path class="cls-5" d="M275,326.17V313h1.89v13.16Z"/><path class="cls-5" d="M283.25,326.41a4.78,4.78,0,0,1-3.49-1.32,4.62,4.62,0,0,1-1.34-3.44,4.75,4.75,0,0,1,1.3-3.42,4.41,4.41,0,0,1,3.36-1.36,4.46,4.46,0,0,1,3.39,1.3,4.63,4.63,0,0,1,1.23,3.29,5.38,5.38,0,0,1-.06.76h-7.36a2.57,2.57,0,0,0,.88,1.85,3.06,3.06,0,0,0,2.13.71,2.6,2.6,0,0,0,2.57-1.46l1.73.51a4.39,4.39,0,0,1-1.6,1.82A4.82,4.82,0,0,1,283.25,326.41Zm-3-5.45,5.57,0a2.63,2.63,0,0,0-.82-1.76,2.73,2.73,0,0,0-1.95-.68,2.71,2.71,0,0,0-2.8,2.46Z"/><path class="cls-5" d="M294,324.33l.47,1.55a5.12,5.12,0,0,1-2,.43,2.65,2.65,0,0,1-2.13-.82,3.34,3.34,0,0,1-.7-2.26v-4.45H288V317.1h1.66v-3h1.87v3h2.89v1.68h-2.89v4.45c0,.93.44,1.39,1.3,1.39A2.74,2.74,0,0,0,294,324.33Z"/><path class="cls-5" d="M303.06,325a5,5,0,0,1-6.88,0,4.84,4.84,0,0,1,6.88-6.81,4.89,4.89,0,0,1,0,6.81Zm-5.58-1.23a3,3,0,0,0,4.28,0,3,3,0,0,0,.84-2.16,3.07,3.07,0,0,0-.84-2.2,3.07,3.07,0,0,0-4.28,0,3.1,3.1,0,0,0-.83,2.2A3,3,0,0,0,297.48,323.81Z"/><path class="cls-5" d="M317.73,325a5,5,0,0,1-6.89,0,4.94,4.94,0,0,1,0-6.81,5,5,0,0,1,6.89,0,4.92,4.92,0,0,1,0,6.81Zm-5.58-1.23a3,3,0,0,0,4.27,0,3,3,0,0,0,.84-2.16,3.07,3.07,0,0,0-.84-2.2,3.05,3.05,0,0,0-4.27,0,3.06,3.06,0,0,0-.83,2.2A3,3,0,0,0,312.15,323.81Z"/><path class="cls-5" d="M327.24,317.1h1.88v9.07h-1.88V324.8a3.62,3.62,0,0,1-3.13,1.61,3.36,3.36,0,0,1-2.66-1.07,4.24,4.24,0,0,1-.95-2.92V317.1h1.89v5A2.83,2.83,0,0,0,323,324a2.06,2.06,0,0,0,1.67.68,2.39,2.39,0,0,0,1.89-.83,3.22,3.22,0,0,0,.72-2.2Z"/><path class="cls-5" d="M339.5,326.41a4.57,4.57,0,0,1-3.41-1.38,4.66,4.66,0,0,1-1.35-3.41,4.61,4.61,0,0,1,1.34-3.39,4.54,4.54,0,0,1,3.39-1.36,4.63,4.63,0,0,1,2.86.87,3.7,3.7,0,0,1,1.45,2l-1.75.5a2.23,2.23,0,0,0-.9-1.17,2.94,2.94,0,0,0-3.74.38,3.29,3.29,0,0,0,0,4.35,2.74,2.74,0,0,0,2.11.91,2.82,2.82,0,0,0,1.63-.48,2.08,2.08,0,0,0,.9-1.14l1.75.48a3.62,3.62,0,0,1-1.44,2A4.55,4.55,0,0,1,339.5,326.41Z"/><path class="cls-5" d="M349.22,326.41A4.25,4.25,0,0,1,346,325a5.14,5.14,0,0,1,0-6.81,4.24,4.24,0,0,1,3.22-1.36,3.72,3.72,0,0,1,3.26,1.61V317.1h1.88v9.07h-1.88V324.8A3.74,3.74,0,0,1,349.22,326.41Zm.31-1.7a2.85,2.85,0,0,0,2.12-.88,3.2,3.2,0,0,0,0-4.39,2.87,2.87,0,0,0-2.12-.87,2.81,2.81,0,0,0-2.13.86,3,3,0,0,0-.83,2.19,3.09,3.09,0,0,0,.83,2.21A2.79,2.79,0,0,0,349.53,324.71Z"/><path class="cls-5" d="M358.31,318.55a2.69,2.69,0,0,1,1.22-1.27,3,3,0,0,1,1.88-.28v1.76a2.57,2.57,0,0,0-2.3.58,3.83,3.83,0,0,0-.8,2.74v4.09h-1.89V317.1h1.89Z"/><path class="cls-5" d="M368.07,324.33l.47,1.55a5.12,5.12,0,0,1-2,.43,2.65,2.65,0,0,1-2.13-.82,3.34,3.34,0,0,1-.7-2.26v-4.45h-1.66V317.1h1.66v-3h1.87v3h2.89v1.68h-2.89v4.45c0,.93.44,1.39,1.31,1.39A2.73,2.73,0,0,0,368.07,324.33Z"/><path class="cls-5" d="M373.39,326.41a4.25,4.25,0,0,1-3.22-1.37,5.14,5.14,0,0,1,0-6.81,4.24,4.24,0,0,1,3.22-1.36,3.72,3.72,0,0,1,3.26,1.61V317.1h1.88v9.07h-1.88V324.8A3.74,3.74,0,0,1,373.39,326.41Zm.31-1.7a2.86,2.86,0,0,0,2.12-.88,3.2,3.2,0,0,0,0-4.39,2.89,2.89,0,0,0-2.12-.87,2.8,2.8,0,0,0-2.13.86,3,3,0,0,0-.83,2.19,3.09,3.09,0,0,0,.83,2.21A2.78,2.78,0,0,0,373.7,324.71Zm1.34-8.94a2.63,2.63,0,0,1-1.33-.5,2.64,2.64,0,0,0-1-.51c-.3,0-.45.32-.45.94h-1.32q0-2.34,1.62-2.34a2.57,2.57,0,0,1,1.32.49,2.63,2.63,0,0,0,1,.5c.3,0,.45-.31.45-.94h1.3C376.63,315,376.1,315.77,375,315.77Z"/><path class="cls-5" d="M388.28,325a5,5,0,0,1-6.88,0,4.84,4.84,0,0,1,6.88-6.81,4.89,4.89,0,0,1,0,6.81Zm-5.58-1.23a3,3,0,0,0,4.28,0,3,3,0,0,0,.84-2.16,3.07,3.07,0,0,0-.84-2.2,3.07,3.07,0,0,0-4.28,0,3.1,3.1,0,0,0-.83,2.2A3,3,0,0,0,382.7,323.81Z"/><path class="cls-5" d="M224,250.9a9.35,9.35,0,0,1,7.14,2.85,11.56,11.56,0,0,1,0,14.8,9.3,9.3,0,0,1-7.14,2.88h-8.91V250.9Zm-.08,16.89a5.33,5.33,0,0,0,4.24-1.86,7.12,7.12,0,0,0,1.61-4.85,6.88,6.88,0,0,0-1.61-4.76,5.4,5.4,0,0,0-4.24-1.82h-4.84v13.29Z"/><path class="cls-5" d="M251.89,254.53h-11.2v4.7h9.69v3.52h-9.69v5h11.17v3.64H236.75V250.9h15.14Z"/><path class="cls-5" d="M262.88,271.84a10,10,0,0,1-6-1.8,9.37,9.37,0,0,1-3.44-4.43l3.85-1.16a5.77,5.77,0,0,0,2.19,2.77,6.28,6.28,0,0,0,3.67,1.07,4.75,4.75,0,0,0,2.82-.77,2.21,2.21,0,0,0,1.09-1.81,1.91,1.91,0,0,0-.62-1.41,5.51,5.51,0,0,0-2.09-1.05l-5.24-1.65a7.78,7.78,0,0,1-3.41-2,4.44,4.44,0,0,1-1.23-3.23,5.13,5.13,0,0,1,2.09-4.16,8,8,0,0,1,5.27-1.72,10.12,10.12,0,0,1,5.57,1.51,7.84,7.84,0,0,1,3.26,3.75l-3.73,1.09a4.85,4.85,0,0,0-2-2,6,6,0,0,0-3.06-.77,4.06,4.06,0,0,0-2.38.64,1.87,1.87,0,0,0-.93,1.57c0,.9.66,1.55,2,1.94l5.1,1.64a11,11,0,0,1,4.1,2.07,4.49,4.49,0,0,1,1.41,3.56A5.62,5.62,0,0,1,268.8,270,9.13,9.13,0,0,1,262.88,271.84Z"/><path class="cls-5" d="M283.59,271.84a10.48,10.48,0,0,1-10.77-10.71,10.42,10.42,0,0,1,10.69-10.63,10.51,10.51,0,0,1,6.52,2,9.13,9.13,0,0,1,3.43,4.68l-3.94,1a5.3,5.3,0,0,0-2.14-2.73,6.65,6.65,0,0,0-3.84-1.1,6.23,6.23,0,0,0-4.8,2,6.9,6.9,0,0,0-1.83,4.84,7,7,0,0,0,1.85,4.91,6.14,6.14,0,0,0,4.78,2,6.65,6.65,0,0,0,3.84-1.1,5.22,5.22,0,0,0,2.14-2.71l3.9,1a8.78,8.78,0,0,1-3.39,4.65A10.5,10.5,0,0,1,283.59,271.84Z"/><path class="cls-5" d="M313.87,268.77a10.78,10.78,0,0,1-18.48-7.64,10.28,10.28,0,0,1,3.08-7.59,11.27,11.27,0,0,1,15.4,0,11,11,0,0,1,0,15.23Zm-12.55-2.65a6.88,6.88,0,0,0,9.7,0,7,7,0,0,0,1.87-5,6.93,6.93,0,0,0-1.87-4.92,6.91,6.91,0,0,0-9.7,0,6.93,6.93,0,0,0-1.86,4.92A7,7,0,0,0,301.32,266.12Z"/><path class="cls-5" d="M333.52,250.9h4v20.53h-3.31l-10.32-13.35v13.35h-4V250.9h3.32l10.31,13.31Z"/><path class="cls-5" d="M357.68,250.9v3.63h-6.89v16.9h-4v-16.9h-6.89V250.9Z"/><path class="cls-5" d="M376.19,268.77a10.78,10.78,0,0,1-18.48-7.64,10.25,10.25,0,0,1,3.08-7.59,11.27,11.27,0,0,1,15.4,0,11,11,0,0,1,0,15.23Zm-12.55-2.65a6.88,6.88,0,0,0,9.7,0,7,7,0,0,0,1.86-5,6.93,6.93,0,0,0-1.86-4.92,6.91,6.91,0,0,0-9.7,0,6.89,6.89,0,0,0-1.87,4.92A7,7,0,0,0,363.64,266.12Z"/><path class="cls-5" d="M386.45,250.9h3.44v20.53h-4.08v-16l-4.61,2.13-1-3.42Z"/><path class="cls-5" d="M408,268.86a8,8,0,0,1-12.47,0,14.32,14.32,0,0,1,0-15.41,8.06,8.06,0,0,1,12.47,0,14.37,14.37,0,0,1,0,15.41Zm-9.57-2.56a3.69,3.69,0,0,0,3.34,1.88,3.65,3.65,0,0,0,3.33-1.88,12.21,12.21,0,0,0,0-10.26,3.65,3.65,0,0,0-3.33-1.88,3.69,3.69,0,0,0-3.34,1.88,12,12,0,0,0,0,10.26Z"/><path class="cls-9" d="M408.68,211.66a11.22,11.22,0,0,1-7.95,19.25,10.71,10.71,0,0,1-7.91-3.2,11.74,11.74,0,0,1,0-16.05,11.45,11.45,0,0,1,15.86,0Zm-2.76,13.08a7.18,7.18,0,0,0,0-10.11,7.33,7.33,0,0,0-5.19-1.94,7.23,7.23,0,0,0-5.13,1.94,7.18,7.18,0,0,0,0,10.11,7.23,7.23,0,0,0,5.13,1.94A7.33,7.33,0,0,0,405.92,224.74Z"/><path class="cls-9" d="M393.88,189.84v11.37h5.32v-9.8H403v9.8h8.49v4.19H390.06V189.84Z"/><path class="cls-9" d="M393.88,171.83v11.36h5.32V173.4H403v9.79h8.49v4.19H390.06V171.83Z"/><path class="cls-1" d="M144.92,218.13a6.72,6.72,0,0,1-4.76,11.51,6.36,6.36,0,0,1-4.72-1.92,7,7,0,0,1,0-9.59,6.39,6.39,0,0,1,4.72-1.91A6.47,6.47,0,0,1,144.92,218.13ZM143.27,226a4.31,4.31,0,0,0,0-6,4.39,4.39,0,0,0-3.11-1.16,4.3,4.3,0,0,0-3.06,1.16,4.31,4.31,0,0,0,0,6,4.3,4.3,0,0,0,3.06,1.16A4.39,4.39,0,0,0,143.27,226Z"/><path class="cls-1" d="M136.07,205.08v6.8h3.18V206h2.25v5.86h5.07v2.5H133.79v-9.3Z"/><path class="cls-1" d="M136.07,194.31v6.8h3.18v-5.86h2.25v5.86h5.07v2.5H133.79v-9.3Z"/><path class="cls-5" d="M34.69,239.11A5.64,5.64,0,0,1,39,240.83a7,7,0,0,1,0,9,5.59,5.59,0,0,1-4.32,1.75h-5.4V239.11Zm0,10.23a3.24,3.24,0,0,0,2.57-1.13,4.33,4.33,0,0,0,1-2.94,4.21,4.21,0,0,0-1-2.88,3.28,3.28,0,0,0-2.57-1.1H31.71v8.05Z"/><path class="cls-5" d="M51.58,241.31H44.81v2.84h5.86v2.13H44.81v3.06h6.76v2.2H42.42V239.11h9.16Z"/><path class="cls-5" d="M58.24,251.79a6.15,6.15,0,0,1-3.66-1.09A5.67,5.67,0,0,1,52.5,248l2.33-.7A3.53,3.53,0,0,0,56.15,249a3.85,3.85,0,0,0,2.23.65,2.85,2.85,0,0,0,1.7-.47,1.31,1.31,0,0,0,.66-1.09,1.11,1.11,0,0,0-.37-.85,3.18,3.18,0,0,0-1.26-.64l-3.18-1a4.7,4.7,0,0,1-2.06-1.21,2.61,2.61,0,0,1-.74-1.95,3.07,3.07,0,0,1,1.26-2.52,4.84,4.84,0,0,1,3.19-1,6.14,6.14,0,0,1,3.37.91,4.79,4.79,0,0,1,2,2.28l-2.27.65a3,3,0,0,0-1.21-1.23A3.68,3.68,0,0,0,57.6,241a2.51,2.51,0,0,0-1.45.39,1.12,1.12,0,0,0-.55,1c0,.54.39.93,1.18,1.17l3.09,1a6.59,6.59,0,0,1,2.48,1.24,2.75,2.75,0,0,1,.85,2.16,3.39,3.39,0,0,1-1.38,2.74A5.48,5.48,0,0,1,58.24,251.79Z"/><path class="cls-5" d="M70.78,251.79a6.34,6.34,0,0,1-4.67-1.86,6.45,6.45,0,0,1,4.62-11.06,6.4,6.4,0,0,1,3.94,1.19,5.53,5.53,0,0,1,2.08,2.84l-2.38.58a3.19,3.19,0,0,0-1.3-1.65,4,4,0,0,0-2.33-.68,3.78,3.78,0,0,0-2.9,1.21,4.16,4.16,0,0,0-1.11,2.93,4.24,4.24,0,0,0,1.12,3,3.72,3.72,0,0,0,2.89,1.23,4.06,4.06,0,0,0,2.33-.66,3.21,3.21,0,0,0,1.3-1.64l2.35.6a5.2,5.2,0,0,1-2,2.81A6.34,6.34,0,0,1,70.78,251.79Z"/><path class="cls-5" d="M89.11,249.93a6.53,6.53,0,0,1-11.19-4.62,6.21,6.21,0,0,1,1.86-4.6,6.83,6.83,0,0,1,9.33,0,6.67,6.67,0,0,1,0,9.22Zm-7.6-1.6a4.19,4.19,0,0,0,5.87,0,4.29,4.29,0,0,0,1.13-3,4.23,4.23,0,0,0-1.13-3,4.19,4.19,0,0,0-5.87,0,4.19,4.19,0,0,0-1.13,3A4.24,4.24,0,0,0,81.51,248.33Z"/><path class="cls-5" d="M101,239.11h2.43v12.43h-2l-6.25-8.08v8.08H92.75V239.11h2l6.24,8.06Z"/><path class="cls-5" d="M115.62,239.11v2.2h-4.16v10.23H109V241.31h-4.17v-2.2Z"/><path class="cls-5" d="M126.83,249.93a6.53,6.53,0,0,1-11.19-4.62,6.21,6.21,0,0,1,1.86-4.6,6.83,6.83,0,0,1,9.33,0,6.67,6.67,0,0,1,0,9.22Zm-7.6-1.6a4.19,4.19,0,0,0,5.87,0,4.24,4.24,0,0,0,1.13-3,4.19,4.19,0,0,0-1.13-3,4.19,4.19,0,0,0-5.87,0,4.23,4.23,0,0,0-1.13,3A4.29,4.29,0,0,0,119.23,248.33Z"/><path class="cls-5" d="M133,239.11h2.08v12.43h-2.47v-9.71l-2.79,1.29-.58-2.07Z"/><path class="cls-5" d="M146.05,250a4.85,4.85,0,0,1-7.54,0,8.63,8.63,0,0,1,0-9.33,4.87,4.87,0,0,1,7.54,0,8.68,8.68,0,0,1,0,9.33Zm-5.79-1.56a2.36,2.36,0,0,0,4,0,7.43,7.43,0,0,0,0-6.21,2.37,2.37,0,0,0-4,0,7.33,7.33,0,0,0,0,6.21Z"/><rect class="cls-10" x="202.26" y="243.75" width="220.67" height="34.96"/></g></g></g></svg>