<svg xmlns="http://www.w3.org/2000/svg" viewBox="0 0 448.29 195.55"><defs><style>.cls-1{fill:#fca311;}.cls-2{fill:#f2f2f2;}.cls-10,.cls-3,.cls-4,.cls-6,.cls-7,.cls-8{fill:none;stroke-miterlimit:10;}.cls-3,.cls-4{stroke:#222c35;stroke-width:2px;}.cls-4{stroke-dasharray:8.15 8.15;}.cls-5{fill:#222c35;}.cls-6,.cls-7,.cls-8{stroke:#000;stroke-width:0.75px;}.cls-7{stroke-dasharray:3.97 3.97;}.cls-8{stroke-dasharray:4.16 4.16;}.cls-9{fill:#fff;}.cls-10{stroke:#f2f2f2;stroke-width:3px;}</style></defs><g id="Layer_2" data-name="Layer 2"><g id="Valor"><g id="Cupom"><rect class="cls-1" x="0.7" width="447.59" height="195.55"/><rect class="cls-2" width="175.48" height="195.55"/><line class="cls-3" x1="175.48" x2="175.48" y2="4"/><line class="cls-4" x1="175.48" y1="12.15" x2="175.48" y2="187.48"/><line class="cls-3" x1="175.48" y1="191.55" x2="175.48" y2="195.55"/><path class="cls-5" d="M38.36,46.12h7.12V81.2H37.07V55.29l-7.42,3.4-2-7Z"/><path class="cls-5" d="M74.06,76.84a13.09,13.09,0,0,1-10.92,5.07A13.14,13.14,0,0,1,52.2,76.84q-4-5.06-4-13.18t4-13.17a13.15,13.15,0,0,1,10.94-5.05,13.1,13.1,0,0,1,10.92,5.05q4,5.06,4,13.17T74.06,76.84ZM58.19,71.55a5.41,5.41,0,0,0,5,2.82,5.31,5.31,0,0,0,4.92-2.82,15.83,15.83,0,0,0,1.63-7.89,15.86,15.86,0,0,0-1.63-7.89A5.31,5.31,0,0,0,63.16,53a5.41,5.41,0,0,0-5,2.82,15.62,15.62,0,0,0-1.66,7.89Q56.53,68.73,58.19,71.55Z"/><path class="cls-5" d="M89.29,66.23a10.35,10.35,0,0,1-7.46-3,10.19,10.19,0,0,1,0-14.53,11,11,0,0,1,15,0,10.22,10.22,0,0,1,0,14.53A10.34,10.34,0,0,1,89.29,66.23Zm-3.24-7.07a4.4,4.4,0,0,0,3.24,1.3,4.5,4.5,0,0,0,3.23-7.64,4.4,4.4,0,0,0-3.23-1.27,4.46,4.46,0,0,0-3.24,1.27,4.57,4.57,0,0,0,0,6.34Zm3.29,22,22.75-35.08h6.21L95.6,81.2Zm29.06.39a10.32,10.32,0,0,1-7.46-3,9.67,9.67,0,0,1-3.06-7.26,9.78,9.78,0,0,1,3-7.27,11,11,0,0,1,15,0,10.2,10.2,0,0,1,0,14.53A10.29,10.29,0,0,1,118.4,81.59Zm-3.24-7a4.54,4.54,0,1,0-1.29-3.15A4.29,4.29,0,0,0,115.16,74.54Z"/><path class="cls-5" d="M224.29,25.5h11.59V82.61h-13.7V40.44L210.12,46,206.85,34.5Z"/><path class="cls-5" d="M287.31,75.52q-6.45,8.24-17.78,8.24t-17.82-8.24q-6.5-8.25-6.49-21.46t6.49-21.45q6.5-8.22,17.82-8.22t17.78,8.22q6.45,8.22,6.45,21.45T287.31,75.52ZM261.47,66.9a8.8,8.8,0,0,0,8.08,4.6,8.67,8.67,0,0,0,8-4.6q2.65-4.61,2.65-12.84t-2.65-12.85a8.67,8.67,0,0,0-8-4.6,8.8,8.8,0,0,0-8.08,4.6q-2.72,4.6-2.71,12.85T261.47,66.9Z"/><path class="cls-5" d="M317,58.24a16.83,16.83,0,0,1-12.15-4.82,15.82,15.82,0,0,1-5-11.83,15.9,15.9,0,0,1,4.92-11.82,17.84,17.84,0,0,1,24.39,0,15.88,15.88,0,0,1,4.94,11.82,15.9,15.9,0,0,1-4.94,11.83A16.77,16.77,0,0,1,317,58.24Zm-5.28-11.51a7.34,7.34,0,0,0,12.6-5.14,7,7,0,0,0-2.07-5.17,7.7,7.7,0,0,0-10.53,0,7.4,7.4,0,0,0,0,10.31Zm5.36,35.88,37-57.11h10.11l-37,57.11Zm47.3.63a16.82,16.82,0,0,1-12.14-4.79,16.61,16.61,0,0,1-.06-23.66,17.89,17.89,0,0,1,24.39,0,15.84,15.84,0,0,1,4.93,11.83,15.86,15.86,0,0,1-4.93,11.83A16.81,16.81,0,0,1,364.38,83.24Zm-5.27-11.46a7.13,7.13,0,0,0,5.27,2.11,7,7,0,0,0,5.26-2.13A7.37,7.37,0,1,0,357,66.64,7,7,0,0,0,359.11,71.78Z"/><polyline class="cls-6" points="159.6 112.22 159.6 114.22 157.6 114.22"/><line class="cls-7" x1="153.63" y1="114.21" x2="20.57" y2="114.21"/><polyline class="cls-6" points="18.58 114.22 16.58 114.22 16.58 112.22"/><line class="cls-8" x1="16.58" y1="108.05" x2="16.58" y2="35.22"/><polyline class="cls-6" points="16.58 33.14 16.58 31.14 18.58 31.14"/><line class="cls-7" x1="22.55" y1="31.14" x2="155.61" y2="31.14"/><polyline class="cls-6" points="157.6 31.14 159.6 31.14 159.6 33.14"/><line class="cls-8" x1="159.6" y1="37.3" x2="159.6" y2="110.13"/><path class="cls-5" d="M36.21,162.53a13.37,13.37,0,0,1-9.8-3.85,13.51,13.51,0,0,1,9.69-23.13,13.37,13.37,0,0,1,8.52,2.64,11.1,11.1,0,0,1,4.2,6.07l-6,1.48a5.92,5.92,0,0,0-2.34-3.09,7.14,7.14,0,0,0-4.34-1.32,6.82,6.82,0,0,0-5.31,2.22,7.79,7.79,0,0,0-2,5.45,7.91,7.91,0,0,0,2,5.46,6.75,6.75,0,0,0,5.29,2.28,7.26,7.26,0,0,0,4.35-1.28,5.74,5.74,0,0,0,2.33-3l6,1.52a10.94,10.94,0,0,1-4.19,6A13.3,13.3,0,0,1,36.21,162.53Z"/><path class="cls-5" d="M66.75,136.06H73v15.16a11.25,11.25,0,0,1-3,8.22q-3,3.09-8.48,3.09c-3.65,0-6.49-1-8.5-3.09a11.24,11.24,0,0,1-3-8.22V136.06h6.22v15.05a6.23,6.23,0,0,0,1.35,4.18,4.88,4.88,0,0,0,3.94,1.6,4.9,4.9,0,0,0,4-1.6,6.28,6.28,0,0,0,1.35-4.18Z"/><path class="cls-5" d="M87.87,136.06a8.62,8.62,0,0,1,6.72,2.86,9.41,9.41,0,0,1,0,13,9,9,0,0,1-6.93,2.84H81.46V162H75.39V136.06Zm-.4,13.19a3.48,3.48,0,0,0,2.68-1.14,3.81,3.81,0,0,0,1-2.66,3.94,3.94,0,0,0-1-2.67,3.16,3.16,0,0,0-2.48-1.15H81.46v7.62Z"/><path class="cls-5" d="M120.66,158.68a14.47,14.47,0,0,1-19.66,0,13.83,13.83,0,0,1,0-19.27,14.45,14.45,0,0,1,19.66,0,13.83,13.83,0,0,1,0,19.27Zm-15.28-4.05a7.8,7.8,0,0,0,10.9,0,8.6,8.6,0,0,0,0-11.19,7.8,7.8,0,0,0-10.9,0,8.6,8.6,0,0,0,0,11.19Z"/><path class="cls-5" d="M147.83,136.06h5.86V162h-6.15V146.81l-7.63,10.42-7.6-10.42V162h-6.15V136.06H132l7.94,11.53Z"/><path class="cls-5" d="M195.12,147.23a4,4,0,0,1,3.1,1.29,4.24,4.24,0,0,1,1.16,2.94,4.19,4.19,0,0,1-1.18,2.94,4.07,4.07,0,0,1-3.18,1.28h-3.69v4.17h-2V147.23Zm-.14,6.69a2.42,2.42,0,0,0,1.83-.73,2.53,2.53,0,0,0,0-3.45,2.25,2.25,0,0,0-1.73-.74h-3.75v4.92Z"/><path class="cls-5" d="M207.93,158.72a5,5,0,0,1-6.89,0,4.77,4.77,0,0,1,3.44-8.17,4.74,4.74,0,0,1,3.45,1.35,4.93,4.93,0,0,1,0,6.82Zm-5.58-1.23a3,3,0,0,0,4.27,0,3,3,0,0,0,.84-2.17,3,3,0,0,0-.84-2.19,3.05,3.05,0,0,0-4.27,0,3,3,0,0,0-.84,2.19A3,3,0,0,0,202.35,157.49Z"/><path class="cls-5" d="M215.8,150.55a3.35,3.35,0,0,1,2.67,1.06,4.28,4.28,0,0,1,.93,2.92v5.32h-1.87v-5A2.83,2.83,0,0,0,217,153a2.07,2.07,0,0,0-1.67-.68,2.4,2.4,0,0,0-1.9.83,3.23,3.23,0,0,0-.71,2.2v4.51h-1.89v-9.07h1.89v1.35A3.6,3.6,0,0,1,215.8,150.55Z"/><path class="cls-5" d="M226.46,158l.47,1.55a5.26,5.26,0,0,1-2,.43,2.68,2.68,0,0,1-2.13-.82,3.36,3.36,0,0,1-.7-2.26v-4.46h-1.65v-1.67h1.65v-3H224v3h2.89v1.67H224v4.46c0,.92.44,1.39,1.31,1.39A2.7,2.7,0,0,0,226.46,158Z"/><path class="cls-5" d="M234.89,150.78h1.88v9.07h-1.88v-1.38a3.56,3.56,0,0,1-3.13,1.61A3.37,3.37,0,0,1,229.1,159a4.24,4.24,0,0,1-.95-2.92v-5.32H230v5a2.84,2.84,0,0,0,.57,1.89,2.07,2.07,0,0,0,1.67.68,2.39,2.39,0,0,0,1.89-.83,3.24,3.24,0,0,0,.72-2.2Z"/><path class="cls-5" d="M242.79,160.08a4.24,4.24,0,0,1-3.22-1.36,5.14,5.14,0,0,1,0-6.81,4.24,4.24,0,0,1,3.22-1.36,3.74,3.74,0,0,1,3.26,1.61v-1.38h1.87v9.07h-1.87v-1.38A3.74,3.74,0,0,1,242.79,160.08Zm.3-1.69a2.91,2.91,0,0,0,2.13-.88,3.22,3.22,0,0,0,0-4.4,2.9,2.9,0,0,0-2.13-.87,2.8,2.8,0,0,0-2.12.87,3,3,0,0,0-.83,2.19,3,3,0,0,0,.83,2.21A2.8,2.8,0,0,0,243.09,158.39Z"/><path class="cls-5" d="M250,159.85V146.69h1.89v13.16Z"/><path class="cls-5" d="M255.78,149a1.25,1.25,0,0,1-1.69,0,1.17,1.17,0,0,1,0-1.65,1.22,1.22,0,0,1,1.69,0,1.17,1.17,0,0,1,0,1.65ZM254,159.85v-9.07h1.87v9.07Z"/><path class="cls-5" d="M265.19,146.69h1.87v13.16h-1.87v-1.38a3.77,3.77,0,0,1-3.27,1.61,4.25,4.25,0,0,1-3.22-1.36,5.14,5.14,0,0,1,0-6.81,4.25,4.25,0,0,1,3.22-1.36,3.75,3.75,0,0,1,3.27,1.61Zm-3,11.7a2.87,2.87,0,0,0,2.12-.88,3.22,3.22,0,0,0,0-4.4,3,3,0,0,0-4.25,0,3,3,0,0,0-.83,2.19,3.09,3.09,0,0,0,.83,2.21A2.84,2.84,0,0,0,262.23,158.39Z"/><path class="cls-5" d="M273.07,160.08a4.24,4.24,0,0,1-3.22-1.36,5.14,5.14,0,0,1,0-6.81,4.24,4.24,0,0,1,3.22-1.36,3.72,3.72,0,0,1,3.26,1.61v-1.38h1.88v9.07h-1.88v-1.38A3.72,3.72,0,0,1,273.07,160.08Zm.31-1.69a2.9,2.9,0,0,0,2.12-.88,3.22,3.22,0,0,0,0-4.4,2.89,2.89,0,0,0-2.12-.87,2.82,2.82,0,0,0-2.13.87,3,3,0,0,0-.83,2.19,3.09,3.09,0,0,0,.83,2.21A2.83,2.83,0,0,0,273.38,158.39Z"/><path class="cls-5" d="M287.48,146.69h1.88v13.16h-1.88v-1.38a3.75,3.75,0,0,1-3.26,1.61,4.24,4.24,0,0,1-3.22-1.36,5.14,5.14,0,0,1,0-6.81,4.24,4.24,0,0,1,3.22-1.36,3.73,3.73,0,0,1,3.26,1.61Zm-3,11.7a2.91,2.91,0,0,0,2.13-.88,3.22,3.22,0,0,0,0-4.4,2.9,2.9,0,0,0-2.13-.87,2.8,2.8,0,0,0-2.12.87,3,3,0,0,0-.83,2.19,3,3,0,0,0,.83,2.21A2.8,2.8,0,0,0,284.52,158.39Z"/><path class="cls-5" d="M295.69,160.08a4.75,4.75,0,0,1-3.49-1.31,4.64,4.64,0,0,1-1.34-3.45,4.74,4.74,0,0,1,1.3-3.41,4.41,4.41,0,0,1,3.36-1.36,4.46,4.46,0,0,1,3.39,1.3,4.61,4.61,0,0,1,1.23,3.29,5.38,5.38,0,0,1-.06.76h-7.37a2.69,2.69,0,0,0,.88,1.85,3.1,3.1,0,0,0,2.13.71A2.61,2.61,0,0,0,298.3,157l1.73.51a4.53,4.53,0,0,1-1.6,1.82A4.82,4.82,0,0,1,295.69,160.08Zm-3-5.44,5.58,0a2.68,2.68,0,0,0-.82-1.77,2.77,2.77,0,0,0-2-.68,2.7,2.7,0,0,0-1.93.72A2.76,2.76,0,0,0,292.71,154.64Z"/><path class="cls-5" d="M313,146.69h1.88v13.16H313v-1.38a3.74,3.74,0,0,1-3.26,1.61,4.24,4.24,0,0,1-3.22-1.36,5.14,5.14,0,0,1,0-6.81,4.24,4.24,0,0,1,3.22-1.36,3.72,3.72,0,0,1,3.26,1.61ZM310,158.39a2.9,2.9,0,0,0,2.12-.88,3.22,3.22,0,0,0,0-4.4,2.89,2.89,0,0,0-2.12-.87,2.8,2.8,0,0,0-2.13.87,3,3,0,0,0-.83,2.19,3.09,3.09,0,0,0,.83,2.21A2.81,2.81,0,0,0,310,158.39Z"/><path class="cls-5" d="M321.16,160.08a4.77,4.77,0,0,1-3.49-1.31,4.64,4.64,0,0,1-1.34-3.45,4.74,4.74,0,0,1,1.3-3.41,4.41,4.41,0,0,1,3.36-1.36,4.46,4.46,0,0,1,3.39,1.3,4.61,4.61,0,0,1,1.23,3.29,5.38,5.38,0,0,1-.06.76h-7.36a2.61,2.61,0,0,0,.88,1.85,3.06,3.06,0,0,0,2.13.71,2.6,2.6,0,0,0,2.57-1.46l1.73.51a4.45,4.45,0,0,1-1.6,1.82A4.82,4.82,0,0,1,321.16,160.08Zm-3-5.44,5.57,0a2.68,2.68,0,0,0-.82-1.77,2.77,2.77,0,0,0-1.95-.68,2.73,2.73,0,0,0-2.8,2.47Z"/><path class="cls-5" d="M336.35,150.55a4.28,4.28,0,0,1,3.22,1.35,5.12,5.12,0,0,1,0,6.82,4.25,4.25,0,0,1-3.22,1.36,3.72,3.72,0,0,1-3.25-1.61v5.16h-1.89V150.78h1.89v1.38A3.72,3.72,0,0,1,336.35,150.55Zm-.31,7.84a2.8,2.8,0,0,0,2.12-.88,3.32,3.32,0,0,0,0-4.4,2.8,2.8,0,0,0-2.13-.87,2.9,2.9,0,0,0-2.13.87,3,3,0,0,0-.86,2.2,3,3,0,0,0,.86,2.2A2.87,2.87,0,0,0,336,158.39Z"/><path class="cls-5" d="M346.31,160.08a4.24,4.24,0,0,1-3.22-1.36,5.14,5.14,0,0,1,0-6.81,4.24,4.24,0,0,1,3.22-1.36,3.74,3.74,0,0,1,3.26,1.61v-1.38h1.87v9.07h-1.87v-1.38A3.74,3.74,0,0,1,346.31,160.08Zm.3-1.69a2.91,2.91,0,0,0,2.13-.88,3.22,3.22,0,0,0,0-4.4,2.9,2.9,0,0,0-2.13-.87,2.8,2.8,0,0,0-2.12.87,3,3,0,0,0-.83,2.19,3,3,0,0,0,.83,2.21A2.8,2.8,0,0,0,346.61,158.39Z"/><path class="cls-5" d="M360.66,150.78h1.89v8.74a4.14,4.14,0,0,1-1.27,3.13,5.14,5.14,0,0,1-7.65-1.15l1.66-.61a2.86,2.86,0,0,0,2.7,1.38,2.49,2.49,0,0,0,1.95-.76,2.85,2.85,0,0,0,.72-2v-1.33a3.75,3.75,0,0,1-3.19,1.53,4.34,4.34,0,0,1-3.24-1.31,4.91,4.91,0,0,1,0-6.6,4.36,4.36,0,0,1,3.25-1.28,3.76,3.76,0,0,1,3.19,1.51Zm-2.9,7.26a2.91,2.91,0,0,0,2.11-.82,2.79,2.79,0,0,0,.85-2.08,2.73,2.73,0,0,0-.85-2.06,3.15,3.15,0,0,0-4.23,0,3,3,0,0,0,0,4.15A2.87,2.87,0,0,0,357.76,158Z"/><path class="cls-5" d="M368.57,160.08a4.24,4.24,0,0,1-3.22-1.36,5.14,5.14,0,0,1,0-6.81,4.24,4.24,0,0,1,3.22-1.36,3.73,3.73,0,0,1,3.26,1.61v-1.38h1.87v9.07h-1.87v-1.38A3.73,3.73,0,0,1,368.57,160.08Zm.3-1.69a2.91,2.91,0,0,0,2.13-.88,3.22,3.22,0,0,0,0-4.4,2.9,2.9,0,0,0-2.13-.87,2.8,2.8,0,0,0-2.12.87,3,3,0,0,0-.83,2.19,3,3,0,0,0,.83,2.21A2.8,2.8,0,0,0,368.87,158.39Z"/><path class="cls-5" d="M386.47,150.55a3.41,3.41,0,0,1,2.59,1,4,4,0,0,1,1,2.86v5.42h-1.89v-5.06a2.88,2.88,0,0,0-.51-1.82,1.81,1.81,0,0,0-1.53-.66,2,2,0,0,0-1.65.76,3.13,3.13,0,0,0-.62,2v4.75H382v-5.06a2.94,2.94,0,0,0-.5-1.82,1.71,1.71,0,0,0-1.46-.66,2.07,2.07,0,0,0-1.71.8,3.36,3.36,0,0,0-.62,2.16v4.58h-1.9v-9.07h1.9V152a3.25,3.25,0,0,1,2.85-1.49,2.88,2.88,0,0,1,2.79,1.54A3.53,3.53,0,0,1,386.47,150.55Z"/><path class="cls-5" d="M396.27,160.08a4.77,4.77,0,0,1-3.49-1.31,4.64,4.64,0,0,1-1.34-3.45,4.74,4.74,0,0,1,1.3-3.41,4.95,4.95,0,0,1,6.75-.06,4.62,4.62,0,0,1,1.24,3.29,4.29,4.29,0,0,1-.07.76H393.3a2.65,2.65,0,0,0,.88,1.85,3.1,3.1,0,0,0,2.13.71,2.61,2.61,0,0,0,2.58-1.46l1.72.51a4.45,4.45,0,0,1-1.6,1.82A4.8,4.8,0,0,1,396.27,160.08Zm-3-5.44,5.57,0a2.63,2.63,0,0,0-.82-1.77,3,3,0,0,0-3.88,0A2.7,2.7,0,0,0,393.3,154.64Z"/><path class="cls-5" d="M407.23,150.55a3.34,3.34,0,0,1,2.66,1.06,4.24,4.24,0,0,1,.94,2.92v5.32H409v-5a2.89,2.89,0,0,0-.56-1.88,2.07,2.07,0,0,0-1.67-.68,2.38,2.38,0,0,0-1.9.83,3.24,3.24,0,0,0-.72,2.2v4.51h-1.89v-9.07h1.89v1.35A3.63,3.63,0,0,1,407.23,150.55Z"/><path class="cls-5" d="M417.89,158l.47,1.55a5.3,5.3,0,0,1-2,.43,2.68,2.68,0,0,1-2.13-.82,3.36,3.36,0,0,1-.7-2.26v-4.46h-1.66v-1.67h1.66v-3h1.87v3h2.89v1.67H415.4v4.46c0,.92.43,1.39,1.3,1.39A2.74,2.74,0,0,0,417.89,158Z"/><path class="cls-5" d="M427,158.72a4.81,4.81,0,0,1-8.25-3.41,4.61,4.61,0,0,1,1.37-3.4,5,5,0,0,1,6.88,0,4.9,4.9,0,0,1,0,6.82Zm-5.58-1.23a3,3,0,0,0,4.28,0,3,3,0,0,0,.84-2.17,3,3,0,0,0-.84-2.19,3.07,3.07,0,0,0-4.28,0,3.06,3.06,0,0,0-.83,2.19A3,3,0,0,0,421.37,157.49Z"/><path class="cls-5" d="M233.07,168.57a3.34,3.34,0,0,1,2.66,1.06,4.3,4.3,0,0,1,.93,2.92v5.32h-1.87v-5a2.86,2.86,0,0,0-.57-1.89,2.05,2.05,0,0,0-1.67-.67,2.39,2.39,0,0,0-1.9.82,3.29,3.29,0,0,0-.71,2.2v4.51h-1.89V168.8h1.89v1.35A3.63,3.63,0,0,1,233.07,168.57Z"/><path class="cls-5" d="M246.34,176.74a5,5,0,0,1-6.88,0,4.92,4.92,0,0,1,0-6.81,5,5,0,0,1,6.88,0,4.89,4.89,0,0,1,0,6.81Zm-5.58-1.23a3,3,0,0,0,4.28,0,3,3,0,0,0,.84-2.16,3,3,0,0,0-.84-2.2,3.07,3.07,0,0,0-4.28,0,3.08,3.08,0,0,0-.83,2.2A3,3,0,0,0,240.76,175.51Z"/><path class="cls-5" d="M258.45,168.57a4.25,4.25,0,0,1,3.22,1.36,5.11,5.11,0,0,1,0,6.81,4.26,4.26,0,0,1-3.22,1.37,3.75,3.75,0,0,1-3.25-1.61v1.37h-1.89V164.71h1.89v5.47A3.72,3.72,0,0,1,258.45,168.57Zm-.31,7.84a2.81,2.81,0,0,0,2.13-.88,3.09,3.09,0,0,0,.83-2.21,3,3,0,0,0-.83-2.19,2.8,2.8,0,0,0-2.13-.86,2.86,2.86,0,0,0-2.12.87,3,3,0,0,0-.87,2.19,3,3,0,0,0,.87,2.21A2.86,2.86,0,0,0,258.14,176.41Z"/><path class="cls-5" d="M272.16,176.74a5,5,0,0,1-6.89,0,4.77,4.77,0,0,1,3.44-8.17,4.7,4.7,0,0,1,3.45,1.36,4.92,4.92,0,0,1,0,6.81Zm-5.58-1.23a3,3,0,0,0,4.27,0,3,3,0,0,0,.84-2.16,3,3,0,0,0-.84-2.2,3.05,3.05,0,0,0-4.27,0,3,3,0,0,0-.84,2.2A3,3,0,0,0,266.58,175.51Z"/><path class="cls-5" d="M275,177.87V164.71h1.89v13.16Z"/><path class="cls-5" d="M283.25,178.11a4.78,4.78,0,0,1-3.49-1.32,4.62,4.62,0,0,1-1.34-3.44,4.75,4.75,0,0,1,1.3-3.42,4.41,4.41,0,0,1,3.36-1.36,4.46,4.46,0,0,1,3.39,1.3,4.63,4.63,0,0,1,1.23,3.29,5.38,5.38,0,0,1-.06.76h-7.36a2.57,2.57,0,0,0,.88,1.85,3.06,3.06,0,0,0,2.13.71,2.6,2.6,0,0,0,2.57-1.46l1.73.51a4.45,4.45,0,0,1-1.6,1.82A4.82,4.82,0,0,1,283.25,178.11Zm-3-5.45,5.57,0a2.63,2.63,0,0,0-.82-1.76,2.73,2.73,0,0,0-1.95-.69,2.73,2.73,0,0,0-2.8,2.47Z"/><path class="cls-5" d="M294,176l.47,1.55a5.12,5.12,0,0,1-2,.43,2.65,2.65,0,0,1-2.13-.82,3.34,3.34,0,0,1-.7-2.26v-4.45H288V168.8h1.66v-3h1.87v3h2.89v1.68h-2.89v4.45c0,.93.44,1.39,1.3,1.39A2.74,2.74,0,0,0,294,176Z"/><path class="cls-5" d="M303.06,176.74a4.81,4.81,0,0,1-8.25-3.41,4.61,4.61,0,0,1,1.37-3.4,5,5,0,0,1,6.88,0,4.89,4.89,0,0,1,0,6.81Zm-5.58-1.23a3,3,0,0,0,4.28,0,3,3,0,0,0,.84-2.16,3,3,0,0,0-.84-2.2,3.07,3.07,0,0,0-4.28,0,3.08,3.08,0,0,0-.83,2.2A3,3,0,0,0,297.48,175.51Z"/><path class="cls-5" d="M317.73,176.74a4.81,4.81,0,0,1-8.25-3.41,4.61,4.61,0,0,1,1.36-3.4,5,5,0,0,1,6.89,0,4.92,4.92,0,0,1,0,6.81Zm-5.58-1.23a3,3,0,0,0,4.27,0,3,3,0,0,0,.84-2.16,3,3,0,0,0-.84-2.2,3.05,3.05,0,0,0-4.27,0,3,3,0,0,0-.83,2.2A3,3,0,0,0,312.15,175.51Z"/><path class="cls-5" d="M327.24,168.8h1.88v9.07h-1.88V176.5a3.62,3.62,0,0,1-3.13,1.61,3.36,3.36,0,0,1-2.66-1.07,4.24,4.24,0,0,1-.95-2.92V168.8h1.89v5a2.83,2.83,0,0,0,.57,1.88,2.06,2.06,0,0,0,1.67.68,2.39,2.39,0,0,0,1.89-.83,3.22,3.22,0,0,0,.72-2.2Z"/><path class="cls-5" d="M339.5,178.11a4.57,4.57,0,0,1-3.41-1.38,4.66,4.66,0,0,1-1.35-3.41,4.61,4.61,0,0,1,1.34-3.39,4.54,4.54,0,0,1,3.39-1.36,4.63,4.63,0,0,1,2.86.87,3.7,3.7,0,0,1,1.45,2l-1.75.5a2.23,2.23,0,0,0-.9-1.17,2.94,2.94,0,0,0-3.74.38,3.29,3.29,0,0,0,0,4.35,2.74,2.74,0,0,0,2.11.91,2.82,2.82,0,0,0,1.63-.48,2.08,2.08,0,0,0,.9-1.14l1.75.48a3.62,3.62,0,0,1-1.44,2A4.55,4.55,0,0,1,339.5,178.11Z"/><path class="cls-5" d="M349.22,178.11a4.25,4.25,0,0,1-3.22-1.37,5.14,5.14,0,0,1,0-6.81,4.24,4.24,0,0,1,3.22-1.36,3.72,3.72,0,0,1,3.26,1.61V168.8h1.88v9.07h-1.88V176.5A3.74,3.74,0,0,1,349.22,178.11Zm.31-1.7a2.85,2.85,0,0,0,2.12-.88,3.2,3.2,0,0,0,0-4.39,2.87,2.87,0,0,0-2.12-.87,2.81,2.81,0,0,0-2.13.86,3,3,0,0,0-.83,2.19,3.09,3.09,0,0,0,.83,2.21A2.79,2.79,0,0,0,349.53,176.41Z"/><path class="cls-5" d="M358.31,170.25a2.69,2.69,0,0,1,1.22-1.27,3,3,0,0,1,1.88-.28v1.76a2.57,2.57,0,0,0-2.3.58,3.83,3.83,0,0,0-.8,2.74v4.09h-1.89V168.8h1.89Z"/><path class="cls-5" d="M368.07,176l.47,1.55a5.12,5.12,0,0,1-2,.43,2.65,2.65,0,0,1-2.13-.82,3.34,3.34,0,0,1-.7-2.26v-4.45h-1.66V168.8h1.66v-3h1.87v3h2.89v1.68h-2.89v4.45c0,.93.44,1.39,1.31,1.39A2.73,2.73,0,0,0,368.07,176Z"/><path class="cls-5" d="M373.39,178.11a4.25,4.25,0,0,1-3.22-1.37,5.14,5.14,0,0,1,0-6.81,4.24,4.24,0,0,1,3.22-1.36,3.72,3.72,0,0,1,3.26,1.61V168.8h1.88v9.07h-1.88V176.5A3.74,3.74,0,0,1,373.39,178.11Zm.31-1.7a2.86,2.86,0,0,0,2.12-.88,3.2,3.2,0,0,0,0-4.39,2.89,2.89,0,0,0-2.12-.87,2.8,2.8,0,0,0-2.13.86,3,3,0,0,0-.83,2.19,3.09,3.09,0,0,0,.83,2.21A2.78,2.78,0,0,0,373.7,176.41Zm1.34-8.94a2.63,2.63,0,0,1-1.33-.5,2.64,2.64,0,0,0-1-.51c-.3,0-.45.31-.45.94h-1.32q0-2.34,1.62-2.34a2.57,2.57,0,0,1,1.32.49,2.79,2.79,0,0,0,1,.5c.3,0,.45-.31.45-.94h1.3C376.63,166.68,376.1,167.47,375,167.47Z"/><path class="cls-5" d="M388.28,176.74a4.81,4.81,0,0,1-8.25-3.41,4.61,4.61,0,0,1,1.37-3.4,5,5,0,0,1,6.88,0,4.89,4.89,0,0,1,0,6.81Zm-5.58-1.23a3,3,0,0,0,4.28,0,3,3,0,0,0,.84-2.16,3,3,0,0,0-.84-2.2,3.07,3.07,0,0,0-4.28,0,3.08,3.08,0,0,0-.83,2.2A3,3,0,0,0,382.7,175.51Z"/><path class="cls-5" d="M224,102.6a9.35,9.35,0,0,1,7.14,2.85,11.56,11.56,0,0,1,0,14.8,9.3,9.3,0,0,1-7.14,2.88h-8.91V102.6Zm-.08,16.89a5.33,5.33,0,0,0,4.24-1.86,7.13,7.13,0,0,0,1.61-4.86,6.87,6.87,0,0,0-1.61-4.75,5.4,5.4,0,0,0-4.24-1.82h-4.84v13.29Z"/><path class="cls-5" d="M251.89,106.23h-11.2v4.7h9.69v3.52h-9.69v5h11.17v3.64H236.75V102.6h15.14Z"/><path class="cls-5" d="M262.88,123.54a10,10,0,0,1-6-1.8,9.37,9.37,0,0,1-3.44-4.43l3.85-1.16a5.77,5.77,0,0,0,2.19,2.77,6.28,6.28,0,0,0,3.67,1.07,4.82,4.82,0,0,0,2.82-.77,2.21,2.21,0,0,0,1.09-1.81,1.91,1.91,0,0,0-.62-1.41,5.51,5.51,0,0,0-2.09-1l-5.24-1.65a7.78,7.78,0,0,1-3.41-2,4.46,4.46,0,0,1-1.23-3.23,5.13,5.13,0,0,1,2.09-4.16,8,8,0,0,1,5.27-1.72,10.12,10.12,0,0,1,5.57,1.51,7.84,7.84,0,0,1,3.26,3.75l-3.73,1.09a4.85,4.85,0,0,0-2-2,6,6,0,0,0-3.06-.77,4.06,4.06,0,0,0-2.38.64,1.87,1.87,0,0,0-.93,1.57c0,.9.66,1.55,2,1.94l5.1,1.64a10.88,10.88,0,0,1,4.1,2.07,4.49,4.49,0,0,1,1.41,3.56,5.62,5.62,0,0,1-2.28,4.53A9.13,9.13,0,0,1,262.88,123.54Z"/><path class="cls-5" d="M283.59,123.54a10.48,10.48,0,0,1-10.77-10.71,10.42,10.42,0,0,1,10.69-10.63,10.51,10.51,0,0,1,6.52,2,9.13,9.13,0,0,1,3.43,4.68l-3.94,1a5.3,5.3,0,0,0-2.14-2.73,6.58,6.58,0,0,0-3.84-1.11,6.24,6.24,0,0,0-4.8,2,6.9,6.9,0,0,0-1.83,4.84,7,7,0,0,0,1.85,4.91,6.14,6.14,0,0,0,4.78,2,6.65,6.65,0,0,0,3.84-1.1,5.22,5.22,0,0,0,2.14-2.71l3.9,1a8.78,8.78,0,0,1-3.39,4.65A10.5,10.5,0,0,1,283.59,123.54Z"/><path class="cls-5" d="M313.87,120.47a10.78,10.78,0,0,1-18.48-7.64,10.28,10.28,0,0,1,3.08-7.59,11.27,11.27,0,0,1,15.4,0,11,11,0,0,1,0,15.23Zm-12.55-2.65a6.88,6.88,0,0,0,9.7,0,7,7,0,0,0,1.87-5,6.93,6.93,0,0,0-1.87-4.92,6.91,6.91,0,0,0-9.7,0,6.93,6.93,0,0,0-1.86,4.92A7,7,0,0,0,301.32,117.82Z"/><path class="cls-5" d="M333.52,102.6h4v20.53h-3.31l-10.32-13.35v13.35h-4V102.6h3.32l10.31,13.31Z"/><path class="cls-5" d="M357.68,102.6v3.63h-6.89v16.9h-4v-16.9h-6.89V102.6Z"/><path class="cls-5" d="M376.19,120.47a10.78,10.78,0,0,1-18.48-7.64,10.25,10.25,0,0,1,3.08-7.59,11.27,11.27,0,0,1,15.4,0,11,11,0,0,1,0,15.23Zm-12.55-2.65a6.88,6.88,0,0,0,9.7,0,7,7,0,0,0,1.86-5,6.93,6.93,0,0,0-1.86-4.92,6.91,6.91,0,0,0-9.7,0,6.89,6.89,0,0,0-1.87,4.92A7,7,0,0,0,363.64,117.82Z"/><path class="cls-5" d="M386.45,102.6h3.44v20.53h-4.08v-16l-4.61,2.13-1-3.42Z"/><path class="cls-5" d="M408,120.56a8,8,0,0,1-12.47,0,14.32,14.32,0,0,1,0-15.41,8.06,8.06,0,0,1,12.47,0,14.37,14.37,0,0,1,0,15.41ZM398.38,118a3.69,3.69,0,0,0,3.34,1.88,3.65,3.65,0,0,0,3.33-1.88,12.21,12.21,0,0,0,0-10.26,3.65,3.65,0,0,0-3.33-1.88,3.69,3.69,0,0,0-3.34,1.88,12,12,0,0,0,0,10.26Z"/><path class="cls-9" d="M408.68,63.36a11.68,11.68,0,0,1,0,16,11.44,11.44,0,0,1-15.87,0,11.74,11.74,0,0,1,0-16,11.45,11.45,0,0,1,15.86,0Zm-2.76,13.08a7.18,7.18,0,0,0,0-10.11,7.33,7.33,0,0,0-5.19-1.94,7.23,7.23,0,0,0-5.13,1.94,7.18,7.18,0,0,0,0,10.11,7.23,7.23,0,0,0,5.13,1.94A7.33,7.33,0,0,0,405.92,76.44Z"/><path class="cls-9" d="M393.88,41.54V52.91h5.32v-9.8H403v9.8h8.49V57.1H390.06V41.54Z"/><path class="cls-9" d="M393.88,23.53V34.89h5.32V25.1H403v9.79h8.49v4.19H390.06V23.53Z"/><path class="cls-1" d="M144.92,69.83a6.72,6.72,0,0,1-4.76,11.51,6.36,6.36,0,0,1-4.72-1.92,7,7,0,0,1,0-9.59,6.39,6.39,0,0,1,4.72-1.91A6.47,6.47,0,0,1,144.92,69.83Zm-1.65,7.82a4.31,4.31,0,0,0,0-6.05,4.39,4.39,0,0,0-3.11-1.16,4.3,4.3,0,0,0-3.06,1.16,4.31,4.31,0,0,0,0,6.05,4.3,4.3,0,0,0,3.06,1.16A4.39,4.39,0,0,0,143.27,77.65Z"/><path class="cls-1" d="M136.07,56.78v6.8h3.18V57.72h2.25v5.86h5.07v2.5H133.79v-9.3Z"/><path class="cls-1" d="M136.07,46v6.8h3.18V47h2.25v5.86h5.07v2.5H133.79V46Z"/><path class="cls-5" d="M34.69,90.81A5.64,5.64,0,0,1,39,92.53a7,7,0,0,1,0,9,5.59,5.59,0,0,1-4.32,1.75h-5.4V90.81Zm0,10.22a3.24,3.24,0,0,0,2.57-1.12,4.33,4.33,0,0,0,1-2.94,4.21,4.21,0,0,0-1-2.88A3.28,3.28,0,0,0,34.64,93H31.71v8Z"/><path class="cls-5" d="M51.58,93H44.81v2.84h5.86V98H44.81v3h6.76v2.21H42.42V90.81h9.16Z"/><path class="cls-5" d="M58.24,103.49a6.15,6.15,0,0,1-3.66-1.09,5.72,5.72,0,0,1-2.08-2.68l2.33-.7a3.53,3.53,0,0,0,1.32,1.67,3.85,3.85,0,0,0,2.23.65,2.85,2.85,0,0,0,1.7-.47,1.31,1.31,0,0,0,.66-1.09,1.15,1.15,0,0,0-.37-.86,3.32,3.32,0,0,0-1.26-.63l-3.18-1a4.7,4.7,0,0,1-2.06-1.21,2.61,2.61,0,0,1-.74-2,3.07,3.07,0,0,1,1.26-2.52,4.84,4.84,0,0,1,3.19-1,6.14,6.14,0,0,1,3.37.91,4.79,4.79,0,0,1,2,2.28l-2.27.65a3,3,0,0,0-1.21-1.23,3.68,3.68,0,0,0-1.85-.46,2.51,2.51,0,0,0-1.45.39,1.12,1.12,0,0,0-.55,1c0,.54.39.93,1.18,1.17l3.09,1a6.59,6.59,0,0,1,2.48,1.24,2.75,2.75,0,0,1,.85,2.16,3.39,3.39,0,0,1-1.38,2.74A5.48,5.48,0,0,1,58.24,103.49Z"/><path class="cls-5" d="M70.78,103.49a6.34,6.34,0,0,1-4.67-1.86,6.45,6.45,0,0,1,4.62-11.06,6.4,6.4,0,0,1,3.94,1.19,5.53,5.53,0,0,1,2.08,2.84l-2.38.58a3.19,3.19,0,0,0-1.3-1.65,4,4,0,0,0-2.33-.68,3.78,3.78,0,0,0-2.9,1.21A4.16,4.16,0,0,0,66.73,97a4.24,4.24,0,0,0,1.12,3,3.72,3.72,0,0,0,2.89,1.23,4.06,4.06,0,0,0,2.33-.66,3.21,3.21,0,0,0,1.3-1.64l2.35.6a5.2,5.2,0,0,1-2,2.81A6.34,6.34,0,0,1,70.78,103.49Z"/><path class="cls-5" d="M89.11,101.63A6.53,6.53,0,0,1,77.92,97a6.21,6.21,0,0,1,1.86-4.6,6.83,6.83,0,0,1,9.33,0,6.67,6.67,0,0,1,0,9.22Zm-7.6-1.6a4.19,4.19,0,0,0,5.87,0,4.29,4.29,0,0,0,1.13-3,4.23,4.23,0,0,0-1.13-3,4.19,4.19,0,0,0-5.87,0,4.19,4.19,0,0,0-1.13,3A4.24,4.24,0,0,0,81.51,100Z"/><path class="cls-5" d="M101,90.81h2.43v12.43h-2l-6.25-8.08v8.08H92.75V90.81h2L101,98.87Z"/><path class="cls-5" d="M115.62,90.81V93h-4.16v10.23H109V93h-4.17v-2.2Z"/><path class="cls-5" d="M126.83,101.63A6.53,6.53,0,0,1,115.64,97a6.21,6.21,0,0,1,1.86-4.6,6.83,6.83,0,0,1,9.33,0,6.67,6.67,0,0,1,0,9.22Zm-7.6-1.6a4.19,4.19,0,0,0,5.87,0,4.24,4.24,0,0,0,1.13-3,4.19,4.19,0,0,0-1.13-3,4.19,4.19,0,0,0-5.87,0,4.23,4.23,0,0,0-1.13,3A4.29,4.29,0,0,0,119.23,100Z"/><path class="cls-5" d="M133,90.81h2.08v12.43h-2.47V93.53l-2.79,1.29-.58-2.07Z"/><path class="cls-5" d="M146.05,101.68a4.83,4.83,0,0,1-7.54,0,8.61,8.61,0,0,1,0-9.32,4.87,4.87,0,0,1,7.54,0,8.66,8.66,0,0,1,0,9.32Zm-5.79-1.55a2.36,2.36,0,0,0,4,0,7.43,7.43,0,0,0,0-6.21,2.36,2.36,0,0,0-4,0,7.33,7.33,0,0,0,0,6.21Z"/><rect class="cls-10" x="202.26" y="95.45" width="220.67" height="34.96"/></g></g></g></svg>