<svg xmlns="http://www.w3.org/2000/svg" viewBox="0 0 2619.89 3472.08"><defs><style>.cls-1{opacity:0.2;}.cls-2{fill:none;stroke:#222c35;stroke-miterlimit:10;}.cls-3{opacity:0.05;}.cls-4{fill:#222c35;}</style></defs><g id="Layer_2" data-name="Layer 2"><g id="Background"><g id="Logo_Line" data-name="Logo Line" class="cls-1"><rect class="cls-2" x="494.58" y="2775.17" width="264.58" height="264.58"/><rect class="cls-2" x="546.51" y="3094.72" width="160.7" height="160.7"/><rect class="cls-2" x="280.87" y="2827.11" width="160.7" height="160.69"/><rect class="cls-2" x="595.21" y="3360.84" width="110.74" height="110.74"/><rect class="cls-2" x="63.36" y="2877.19" width="115.52" height="115.52"/><rect class="cls-2" x="1032.86" y="2237.48" width="264.58" height="264.58"/><rect class="cls-2" x="1084.8" y="2021.81" width="160.7" height="160.69"/><rect class="cls-2" x="1350.45" y="2289.42" width="160.7" height="160.7"/><rect class="cls-2" x="1416.28" y="1961.29" width="155.39" height="155.39"/><rect class="cls-2" x="607.46" y="1716.86" width="191.95" height="191.94"/><rect class="cls-2" x="286.98" y="2002.23" width="142.12" height="142.12"/><rect class="cls-2" x="1307.44" y="3108.11" width="132.67" height="132.66"/><rect class="cls-2" x="1131.65" y="1813.81" width="104.41" height="104.41"/><rect class="cls-2" x="1613.49" y="2339.86" width="116.76" height="116.77"/><rect class="cls-2" x="0.5" y="2379.79" width="120.68" height="120.69"/><polygon class="cls-2" points="1562.01 2766.63 1562.01 2502.06 1297.44 2502.06 1297.44 2766.63 1205.52 2766.63 1205.52 2766.53 1023.73 2766.53 1023.73 2871.08 1023.73 2916.08 1023.73 3039.74 759.15 3039.74 759.15 3304.32 1023.73 3304.32 1023.73 3423.2 1192.25 3423.2 1192.25 2987.8 1715.22 2987.8 1715.22 2766.63 1562.01 2766.63"/><polygon class="cls-2" points="768.28 1972.91 768.28 1971.77 599.76 1971.77 599.76 2289.42 228.47 2289.42 228.47 2510.59 230 2510.59 230 2775.17 494.58 2775.17 494.58 2510.59 586.49 2510.59 652.38 2510.59 768.28 2510.59 768.28 2406.15 768.28 2361.05 768.28 2237.48 1032.86 2237.48 1032.86 1972.91 768.28 1972.91"/></g></g><g id="Nossa_História" data-name="Nossa História"><g id="Logo_Opacity" data-name="Logo Opacity" class="cls-3"><rect class="cls-4" x="1342.61" y="1093.94" width="273.48" height="273.48"/><rect class="cls-4" x="1396.3" y="1424.26" width="166.11" height="166.11"/><rect class="cls-4" x="1121.7" y="1147.63" width="166.11" height="166.1"/><rect class="cls-4" x="1446.63" y="1699.34" width="114.47" height="114.47"/><rect class="cls-4" x="896.88" y="1199.4" width="119.41" height="119.41"/><rect class="cls-4" x="1899.02" y="538.15" width="273.48" height="273.48"/><rect class="cls-4" x="1952.71" y="315.22" width="166.11" height="166.1"/><rect class="cls-4" x="2227.3" y="591.84" width="166.11" height="166.11"/><rect class="cls-4" x="2295.35" y="252.66" width="160.62" height="160.62"/><rect class="cls-4" x="1459.29" width="198.41" height="198.41"/><rect class="cls-4" x="1128.02" y="294.98" width="146.91" height="146.91"/><rect class="cls-4" x="2182.85" y="1438.1" width="137.13" height="137.13"/><rect class="cls-4" x="2001.14" y="100.21" width="107.93" height="107.93"/><rect class="cls-4" x="2499.2" y="643.98" width="120.7" height="120.71"/><rect class="cls-4" x="831.9" y="685.25" width="124.75" height="124.76"/><polygon class="cls-4" points="2445.99 1085.12 2445.99 811.64 2172.5 811.64 2172.5 1085.12 2077.49 1085.12 2077.49 1085.02 1889.58 1085.02 1889.58 1193.08 1889.58 1239.6 1889.58 1367.43 1616.09 1367.43 1616.09 1640.91 1889.58 1640.91 1889.58 1763.8 2063.78 1763.8 2063.78 1313.74 2604.36 1313.74 2604.36 1085.12 2445.99 1085.12"/><polygon class="cls-4" points="1625.54 264.67 1625.54 263.49 1451.34 263.49 1451.34 591.84 1067.55 591.84 1067.55 820.46 1069.13 820.46 1069.13 1093.94 1342.61 1093.94 1342.61 820.46 1437.62 820.46 1505.73 820.46 1625.54 820.46 1625.54 712.5 1625.54 665.88 1625.54 538.15 1899.02 538.15 1899.02 264.67 1625.54 264.67"/></g></g></g></svg>