<svg xmlns="http://www.w3.org/2000/svg" viewBox="0 0 828.29 373.03"><defs><style>.cls-1{fill:#f4f4f4;}.cls-2{fill:#f2f2f2;}.cls-3{fill:#fca311;}</style></defs><g id="Layer_2" data-name="Layer 2"><g id="Quem_Somos" data-name="Quem Somos"><g id="Textos"><path class="cls-1" d="M28,152.56a11.94,11.94,0,0,1-7.24-2.2,10.88,10.88,0,0,1-4.1-5.41l3.69-1.11a8,8,0,0,0,2.94,3.78,8.21,8.21,0,0,0,4.92,1.48,6.77,6.77,0,0,0,4.12-1.19,3.39,3.39,0,0,0,1.61-2.73,2.82,2.82,0,0,0-.92-2.13,8.45,8.45,0,0,0-3.09-1.55l-6.33-2q-5.66-1.75-5.66-6.15a6.12,6.12,0,0,1,2.49-4.88,9.56,9.56,0,0,1,6.23-2,12.05,12.05,0,0,1,6.64,1.79,10,10,0,0,1,3.94,4.47l-3.63,1.09a6.91,6.91,0,0,0-2.72-2.83,8.21,8.21,0,0,0-4.23-1.07,5.67,5.67,0,0,0-3.44,1,2.87,2.87,0,0,0-1.36,2.37,2.31,2.31,0,0,0,.77,1.77,6.4,6.4,0,0,0,2.45,1.21l6.19,2a13.38,13.38,0,0,1,4.93,2.54,5.35,5.35,0,0,1,1.66,4.19,6.73,6.73,0,0,1-2.75,5.44A11,11,0,0,1,28,152.56Z"/><path class="cls-1" d="M57.32,149.84a9.39,9.39,0,0,1-6.88,2.72,9.39,9.39,0,0,1-6.88-2.72,9.85,9.85,0,0,1,0-13.61,9.35,9.35,0,0,1,6.88-2.72,9.38,9.38,0,0,1,6.88,2.71,9.83,9.83,0,0,1,0,13.62Zm-11.15-2.46a6.08,6.08,0,0,0,8.54,0,6.48,6.48,0,0,0,0-8.71,6.11,6.11,0,0,0-8.54,0,6.51,6.51,0,0,0,0,8.71Z"/><path class="cls-1" d="M85.32,133.51a6.72,6.72,0,0,1,5.16,2.05,8,8,0,0,1,1.92,5.7v10.83H88.63V142a5.77,5.77,0,0,0-1-3.64,3.63,3.63,0,0,0-3-1.3,4,4,0,0,0-3.31,1.51A6.3,6.3,0,0,0,80,142.61v9.48H76.29V142a5.9,5.9,0,0,0-1-3.64,3.44,3.44,0,0,0-2.92-1.3A4.11,4.11,0,0,0,69,138.62,6.78,6.78,0,0,0,67.71,143v9.14H63.93V134h3.78v2.51a6.53,6.53,0,0,1,5.69-3A5.75,5.75,0,0,1,79,136.6,7.11,7.11,0,0,1,85.32,133.51Z"/><path class="cls-1" d="M112.64,149.84a10.06,10.06,0,0,1-13.76,0,9.53,9.53,0,0,1,6.87-16.33,9.4,9.4,0,0,1,6.89,2.71,9.83,9.83,0,0,1,0,13.62Zm-11.15-2.46a6.08,6.08,0,0,0,8.54,0,6.48,6.48,0,0,0,0-8.71,6.11,6.11,0,0,0-8.54,0,6.51,6.51,0,0,0,0,8.71Z"/><path class="cls-1" d="M126.14,152.56a9.46,9.46,0,0,1-5.46-1.61,7.37,7.37,0,0,1-3.09-3.91l3.43-1a4.81,4.81,0,0,0,1.93,2.44,5.64,5.64,0,0,0,3.29,1,4.82,4.82,0,0,0,2.74-.71,2.08,2.08,0,0,0,1-1.73,1.67,1.67,0,0,0-.54-1.31,4.78,4.78,0,0,0-1.8-.86l-4.87-1.44q-4.32-1.29-4.32-4.64a4.55,4.55,0,0,1,2-3.71,7.84,7.84,0,0,1,4.91-1.54,9.37,9.37,0,0,1,4.93,1.26,6.87,6.87,0,0,1,2.91,3.31l-3.34,1a4.6,4.6,0,0,0-1.74-1.8,5.19,5.19,0,0,0-2.8-.73,3.73,3.73,0,0,0-2.28.67,1.89,1.89,0,0,0-.9,1.53c0,.79.65,1.4,2,1.81l4.82,1.39a9,9,0,0,1,3.49,1.75,4,4,0,0,1,1.27,3.19,4.94,4.94,0,0,1-2.14,4.07A8.8,8.8,0,0,1,126.14,152.56Z"/><path class="cls-1" d="M157.14,133.51a8.56,8.56,0,0,1,6.45,2.71,10.25,10.25,0,0,1,0,13.62,8.56,8.56,0,0,1-6.45,2.72,7.44,7.44,0,0,1-6.48-3.22v10.31h-3.78V134h3.78v2.74A7.45,7.45,0,0,1,157.14,133.51Zm-.61,15.66a5.57,5.57,0,0,0,4.24-1.75,6.16,6.16,0,0,0,1.67-4.41,6.1,6.1,0,0,0-1.66-4.39,5.62,5.62,0,0,0-4.25-1.72,5.77,5.77,0,0,0-4.25,1.74,6.45,6.45,0,0,0,0,8.79A5.77,5.77,0,0,0,156.53,149.17Z"/><path class="cls-1" d="M178.59,152.56a9.51,9.51,0,0,1-7-2.63,9.18,9.18,0,0,1-2.68-6.88,9.5,9.5,0,0,1,2.59-6.82,9.86,9.86,0,0,1,13.48-.11,9.16,9.16,0,0,1,2.47,6.56,10.52,10.52,0,0,1-.12,1.51H172.65a5.27,5.27,0,0,0,1.76,3.71,6.14,6.14,0,0,0,4.25,1.41c2.5,0,4.21-1,5.15-2.92l3.45,1a8.91,8.91,0,0,1-3.2,3.64A9.51,9.51,0,0,1,178.59,152.56Zm-5.94-10.88,11.13,0a5.24,5.24,0,0,0-1.64-3.53,5.69,5.69,0,0,0-9.49,3.56Z"/><path class="cls-1" d="M198.24,152.56a9.51,9.51,0,0,1-5.46-1.61A7.4,7.4,0,0,1,189.7,147l3.43-1a4.84,4.84,0,0,0,1.92,2.44,5.68,5.68,0,0,0,3.3,1,4.81,4.81,0,0,0,2.73-.71,2.07,2.07,0,0,0,1-1.73,1.64,1.64,0,0,0-.55-1.31,4.72,4.72,0,0,0-1.79-.86l-4.87-1.44q-4.32-1.29-4.32-4.64a4.55,4.55,0,0,1,2-3.71,7.81,7.81,0,0,1,4.9-1.54,9.34,9.34,0,0,1,4.93,1.26,6.87,6.87,0,0,1,2.91,3.31l-3.34,1a4.57,4.57,0,0,0-1.73-1.8,5.22,5.22,0,0,0-2.8-.73,3.69,3.69,0,0,0-2.28.67,1.9,1.9,0,0,0-.91,1.53c0,.79.66,1.4,2,1.81l4.81,1.39a9,9,0,0,1,3.5,1.75,4,4,0,0,1,1.27,3.19,5,5,0,0,1-2.15,4.07A8.78,8.78,0,0,1,198.24,152.56Z"/><path class="cls-1" d="M216.42,152.56A9.51,9.51,0,0,1,211,151a7.35,7.35,0,0,1-3.08-3.91l3.42-1a4.81,4.81,0,0,0,1.93,2.44,5.64,5.64,0,0,0,3.29,1,4.82,4.82,0,0,0,2.74-.71,2.08,2.08,0,0,0,1-1.73,1.67,1.67,0,0,0-.54-1.31,4.78,4.78,0,0,0-1.8-.86l-4.86-1.44q-4.33-1.29-4.33-4.64a4.58,4.58,0,0,1,2-3.71,7.86,7.86,0,0,1,4.91-1.54,9.34,9.34,0,0,1,4.93,1.26,6.87,6.87,0,0,1,2.91,3.31l-3.34,1a4.64,4.64,0,0,0-1.73-1.8,5.25,5.25,0,0,0-2.81-.73,3.68,3.68,0,0,0-2.27.67,1.87,1.87,0,0,0-.91,1.53c0,.79.65,1.4,2,1.81l4.82,1.39a9.1,9.1,0,0,1,3.5,1.75,4,4,0,0,1,1.26,3.19,4.94,4.94,0,0,1-2.14,4.07A8.8,8.8,0,0,1,216.42,152.56Z"/><path class="cls-1" d="M243.15,149.84a10,10,0,0,1-13.75,0,9.53,9.53,0,0,1,6.87-16.33,9.36,9.36,0,0,1,6.88,2.71,9.81,9.81,0,0,1,0,13.62ZM232,147.38a6.07,6.07,0,0,0,8.53,0,6.48,6.48,0,0,0,0-8.71,6.1,6.1,0,0,0-8.53,0,6.51,6.51,0,0,0,0,8.71Z"/><path class="cls-1" d="M257.66,152.56a8.51,8.51,0,0,1-6.43-2.72,10.29,10.29,0,0,1,0-13.61,8.47,8.47,0,0,1,6.43-2.72,7.5,7.5,0,0,1,6.52,3.21V134h3.74v18.11h-3.74v-2.75A7.48,7.48,0,0,1,257.66,152.56Zm.61-3.39a5.74,5.74,0,0,0,4.25-1.75,6.43,6.43,0,0,0,0-8.78,5.77,5.77,0,0,0-4.25-1.74,5.61,5.61,0,0,0-4.24,1.72,6.05,6.05,0,0,0-1.66,4.39,6.15,6.15,0,0,0,1.66,4.41A5.57,5.57,0,0,0,258.27,149.17Z"/><path class="cls-1" d="M279.82,152.56a9.51,9.51,0,0,1-5.46-1.61,7.4,7.4,0,0,1-3.08-3.91l3.43-1a4.84,4.84,0,0,0,1.92,2.44,5.68,5.68,0,0,0,3.3,1,4.81,4.81,0,0,0,2.73-.71,2.07,2.07,0,0,0,1-1.73,1.64,1.64,0,0,0-.55-1.31,4.72,4.72,0,0,0-1.79-.86l-4.87-1.44q-4.32-1.29-4.32-4.64a4.55,4.55,0,0,1,2-3.71,7.81,7.81,0,0,1,4.9-1.54,9.34,9.34,0,0,1,4.93,1.26,6.87,6.87,0,0,1,2.91,3.31l-3.34,1a4.57,4.57,0,0,0-1.73-1.8,5.22,5.22,0,0,0-2.8-.73,3.69,3.69,0,0,0-2.28.67,1.9,1.9,0,0,0-.91,1.53c0,.79.66,1.4,2,1.81l4.81,1.39a9,9,0,0,1,3.5,1.75,4,4,0,0,1,1.27,3.19,5,5,0,0,1-2.15,4.07A8.78,8.78,0,0,1,279.82,152.56Z"/><path class="cls-1" d="M315,134h3.74v25.67H315V149.34a7.53,7.53,0,0,1-6.52,3.22,8.51,8.51,0,0,1-6.43-2.72,10.29,10.29,0,0,1,0-13.61,8.47,8.47,0,0,1,6.43-2.72,7.5,7.5,0,0,1,6.52,3.21Zm-5.91,15.19a5.74,5.74,0,0,0,4.25-1.75,6.43,6.43,0,0,0,0-8.78,5.77,5.77,0,0,0-4.25-1.74,5.61,5.61,0,0,0-4.24,1.72,6.05,6.05,0,0,0-1.66,4.39,6.15,6.15,0,0,0,1.66,4.41A5.57,5.57,0,0,0,309.07,149.17Z"/><path class="cls-1" d="M337,134h3.75v18.11H337v-2.75a7.16,7.16,0,0,1-6.26,3.22,6.73,6.73,0,0,1-5.31-2.13,8.45,8.45,0,0,1-1.89-5.83V134h3.78v9.93a5.65,5.65,0,0,0,1.13,3.76A4.09,4.09,0,0,0,331.8,149a4.78,4.78,0,0,0,3.78-1.65A6.48,6.48,0,0,0,337,143Z"/><path class="cls-1" d="M354.34,152.56a9.49,9.49,0,0,1-7-2.63,9.18,9.18,0,0,1-2.68-6.88,9.5,9.5,0,0,1,2.59-6.82,9.86,9.86,0,0,1,13.48-.11,9.16,9.16,0,0,1,2.47,6.56,10.52,10.52,0,0,1-.12,1.51H348.39a5.3,5.3,0,0,0,1.76,3.71,6.19,6.19,0,0,0,4.26,1.41q3.73,0,5.15-2.92l3.44,1a8.77,8.77,0,0,1-3.2,3.64A9.5,9.5,0,0,1,354.34,152.56Zm-5.95-10.88,11.13,0a5.23,5.23,0,0,0-1.63-3.53,5.69,5.69,0,0,0-9.5,3.56Z"/><path class="cls-1" d="M386.36,148.41l.93,3.1a10.37,10.37,0,0,1-4,.86,5.31,5.31,0,0,1-4.25-1.64,6.68,6.68,0,0,1-1.41-4.51v-8.9h-3.3V134h3.3v-6h3.75v6h5.76v3.34h-5.76v8.9c0,1.85.87,2.77,2.6,2.77A5.31,5.31,0,0,0,386.36,148.41Z"/><path class="cls-1" d="M394.77,136.86a5.59,5.59,0,0,1,2.43-2.54,6.14,6.14,0,0,1,3.77-.55v3.52a5.1,5.1,0,0,0-4.6,1.16q-1.61,1.62-1.6,5.46v8.18H391V134h3.78Z"/><path class="cls-1" d="M411.11,152.56a8.5,8.5,0,0,1-6.42-2.72,10.26,10.26,0,0,1,0-13.61,8.46,8.46,0,0,1,6.42-2.72,7.49,7.49,0,0,1,6.52,3.21V134h3.75v18.11h-3.75v-2.75A7.47,7.47,0,0,1,411.11,152.56Zm.62-3.39a5.72,5.72,0,0,0,4.24-1.75,6.41,6.41,0,0,0,0-8.78,5.75,5.75,0,0,0-4.24-1.74,5.65,5.65,0,0,0-4.25,1.72,6.1,6.1,0,0,0-1.66,4.39,6.19,6.19,0,0,0,1.66,4.41A5.6,5.6,0,0,0,411.73,149.17Z"/><path class="cls-1" d="M436.65,133.51a8.56,8.56,0,0,1,6.45,2.71,10.25,10.25,0,0,1,0,13.62,8.56,8.56,0,0,1-6.45,2.72,7.44,7.44,0,0,1-6.48-3.22v2.75h-3.78V125.81h3.78v10.91A7.45,7.45,0,0,1,436.65,133.51ZM436,149.17a5.57,5.57,0,0,0,4.24-1.75A6.16,6.16,0,0,0,442,143a6.1,6.1,0,0,0-1.66-4.39A5.62,5.62,0,0,0,436,136.9a5.77,5.77,0,0,0-4.25,1.74,6.45,6.45,0,0,0,0,8.79A5.77,5.77,0,0,0,436,149.17Z"/><path class="cls-1" d="M457.45,152.56a8.51,8.51,0,0,1-6.43-2.72,10.29,10.29,0,0,1,0-13.61,8.47,8.47,0,0,1,6.43-2.72,7.49,7.49,0,0,1,6.52,3.21V134h3.74v18.11H464v-2.75A7.47,7.47,0,0,1,457.45,152.56Zm.61-3.39a5.73,5.73,0,0,0,4.25-1.75,6.43,6.43,0,0,0,0-8.78,5.76,5.76,0,0,0-4.25-1.74,5.63,5.63,0,0,0-4.24,1.72,6.05,6.05,0,0,0-1.66,4.39,6.15,6.15,0,0,0,1.66,4.41A5.58,5.58,0,0,0,458.06,149.17Z"/><path class="cls-1" d="M472.72,152.09V125.81h3.78v26.28Z"/><path class="cls-1" d="M491.55,133.51a6.74,6.74,0,0,1,5.33,2.12,8.58,8.58,0,0,1,1.86,5.84v10.62H495v-9.94a5.69,5.69,0,0,0-1.14-3.76,4.09,4.09,0,0,0-3.33-1.35,4.77,4.77,0,0,0-3.8,1.65,6.55,6.55,0,0,0-1.42,4.4v9h-3.78V125.81h3.78v10.86A7.23,7.23,0,0,1,491.55,133.51Z"/><path class="cls-1" d="M511.48,152.56a8.5,8.5,0,0,1-6.42-2.72,10.26,10.26,0,0,1,0-13.61,8.46,8.46,0,0,1,6.42-2.72,7.52,7.52,0,0,1,6.53,3.21V134h3.74v18.11H518v-2.75A7.5,7.5,0,0,1,511.48,152.56Zm.62-3.39a5.7,5.7,0,0,0,4.24-1.75,6.41,6.41,0,0,0,0-8.78,5.73,5.73,0,0,0-4.24-1.74,5.65,5.65,0,0,0-4.25,1.72,6.1,6.1,0,0,0-1.66,4.39,6.19,6.19,0,0,0,1.66,4.41A5.6,5.6,0,0,0,512.1,149.17Z"/><path class="cls-1" d="M548.15,133.51a6.72,6.72,0,0,1,5.16,2.05,8,8,0,0,1,1.93,5.7v10.83h-3.78V142a5.77,5.77,0,0,0-1-3.64,3.63,3.63,0,0,0-3-1.3,4,4,0,0,0-3.32,1.51,6.3,6.3,0,0,0-1.22,4.06v9.48h-3.74V142a5.84,5.84,0,0,0-1-3.64,3.43,3.43,0,0,0-2.92-1.3,4.12,4.12,0,0,0-3.41,1.58,6.84,6.84,0,0,0-1.25,4.33v9.14h-3.78V134h3.78v2.51a6.53,6.53,0,0,1,5.69-3,5.77,5.77,0,0,1,5.58,3.09A7.08,7.08,0,0,1,548.15,133.51Z"/><path class="cls-1" d="M21.69,173.56a2.47,2.47,0,0,1-3.38,0,2.33,2.33,0,0,1,0-3.29,2.44,2.44,0,0,1,3.38,0,2.33,2.33,0,0,1,0,3.29Zm-3.61,21.73V177.18h3.75v18.11Z"/><path class="cls-1" d="M37,176.71a6.74,6.74,0,0,1,5.33,2.12,8.58,8.58,0,0,1,1.86,5.84v10.62H40.43v-9.94a5.69,5.69,0,0,0-1.14-3.76A4.09,4.09,0,0,0,36,180.24a4.77,4.77,0,0,0-3.8,1.65,6.5,6.5,0,0,0-1.42,4.4v9H27V177.18h3.78v2.69A7.23,7.23,0,0,1,37,176.71Z"/><path class="cls-1" d="M57.42,195.76a9.16,9.16,0,0,1-6.8-2.74,9.93,9.93,0,0,1,0-13.6,9.13,9.13,0,0,1,6.78-2.71,9.17,9.17,0,0,1,5.71,1.75,7.28,7.28,0,0,1,2.9,4l-3.49,1a4.5,4.5,0,0,0-1.81-2.34,5.41,5.41,0,0,0-3.26-1,5.47,5.47,0,0,0-4.21,1.77,6.61,6.61,0,0,0,0,8.68,5.4,5.4,0,0,0,4.2,1.82,5.69,5.69,0,0,0,3.27-1,4.19,4.19,0,0,0,1.8-2.29l3.49,1A7.25,7.25,0,0,1,63.11,194,9.19,9.19,0,0,1,57.42,195.76Z"/><path class="cls-1" d="M77.74,195.76A8.5,8.5,0,0,1,71.32,193a10.26,10.26,0,0,1,0-13.61,8.46,8.46,0,0,1,6.42-2.72,7.52,7.52,0,0,1,6.53,3.21v-2.74H88v18.11H84.27v-2.75A7.5,7.5,0,0,1,77.74,195.76Zm.62-3.39a5.7,5.7,0,0,0,4.24-1.75,6.41,6.41,0,0,0,0-8.78,5.73,5.73,0,0,0-4.24-1.74,5.65,5.65,0,0,0-4.25,1.72,6.1,6.1,0,0,0-1.66,4.39,6.19,6.19,0,0,0,1.66,4.41A5.6,5.6,0,0,0,78.36,192.37Z"/><path class="cls-1" d="M103,176.71a6.74,6.74,0,0,1,5.33,2.12,8.58,8.58,0,0,1,1.86,5.84v10.62h-3.75v-9.94a5.68,5.68,0,0,0-1.13-3.76,4.11,4.11,0,0,0-3.33-1.35,4.77,4.77,0,0,0-3.8,1.65,6.5,6.5,0,0,0-1.42,4.4v9H93V177.18H96.8v2.69A7.23,7.23,0,0,1,103,176.71Z"/><path class="cls-1" d="M122,195.76a9.43,9.43,0,0,1-5.46-1.61,7.4,7.4,0,0,1-3.08-3.91l3.43-1a4.84,4.84,0,0,0,1.92,2.44,5.65,5.65,0,0,0,3.3,1,4.81,4.81,0,0,0,2.73-.71,2.07,2.07,0,0,0,1-1.73,1.68,1.68,0,0,0-.55-1.31,4.72,4.72,0,0,0-1.79-.86l-4.87-1.44c-2.88-.86-4.33-2.41-4.33-4.64a4.57,4.57,0,0,1,2-3.71,7.81,7.81,0,0,1,4.9-1.54,9.34,9.34,0,0,1,4.93,1.26,6.87,6.87,0,0,1,2.91,3.31l-3.34,1a4.57,4.57,0,0,0-1.73-1.8,5.23,5.23,0,0,0-2.81-.73,3.68,3.68,0,0,0-2.27.67,1.87,1.87,0,0,0-.91,1.53c0,.79.65,1.4,2,1.81l4.82,1.39a9,9,0,0,1,3.5,1.75,4,4,0,0,1,1.26,3.19,4.94,4.94,0,0,1-2.14,4.07A8.8,8.8,0,0,1,122,195.76Z"/><path class="cls-1" d="M141.22,195.76a8.51,8.51,0,0,1-6.43-2.72,10.29,10.29,0,0,1,0-13.61,8.47,8.47,0,0,1,6.43-2.72,7.5,7.5,0,0,1,6.52,3.21v-2.74h3.74v18.11h-3.74v-2.75A7.48,7.48,0,0,1,141.22,195.76Zm.61-3.39a5.74,5.74,0,0,0,4.25-1.75,6.43,6.43,0,0,0,0-8.78,5.77,5.77,0,0,0-4.25-1.74,5.63,5.63,0,0,0-4.24,1.72,6.05,6.05,0,0,0-1.66,4.39,6.15,6.15,0,0,0,1.66,4.41A5.58,5.58,0,0,0,141.83,192.37Z"/><path class="cls-1" d="M169.54,177.18h4.09L166,195.29h-4.2l-7.68-18.11h4.11l5.64,14Z"/><path class="cls-1" d="M184.29,195.76a9.49,9.49,0,0,1-7-2.63,9.19,9.19,0,0,1-2.69-6.88,9.51,9.51,0,0,1,2.6-6.82,9.86,9.86,0,0,1,13.48-.11,9.16,9.16,0,0,1,2.47,6.56,10.52,10.52,0,0,1-.12,1.51H178.34a5.3,5.3,0,0,0,1.76,3.71,6.17,6.17,0,0,0,4.26,1.41q3.73,0,5.15-2.92l3.44,1a8.77,8.77,0,0,1-3.2,3.64A9.5,9.5,0,0,1,184.29,195.76Zm-5.95-10.88,11.13,0a5.23,5.23,0,0,0-1.63-3.53,6.09,6.09,0,0,0-7.76.07A5.41,5.41,0,0,0,178.34,184.88Z"/><path class="cls-1" d="M197.05,195.29V169h3.78v26.28Z"/><path class="cls-1" d="M227.25,176.71a6.75,6.75,0,0,1,5.16,2,8,8,0,0,1,1.92,5.7v10.83h-3.78V185.18a5.77,5.77,0,0,0-1-3.64,3.61,3.61,0,0,0-3-1.3,4,4,0,0,0-3.31,1.51,6.24,6.24,0,0,0-1.22,4.06v9.48h-3.75V185.18a5.9,5.9,0,0,0-1-3.64,3.45,3.45,0,0,0-2.93-1.3,4.12,4.12,0,0,0-3.41,1.58,6.84,6.84,0,0,0-1.25,4.33v9.14h-3.78V177.18h3.78v2.51a6.54,6.54,0,0,1,5.7-3,5.77,5.77,0,0,1,5.57,3.09A7.1,7.1,0,0,1,227.25,176.71Z"/><path class="cls-1" d="M247.72,195.76a9.52,9.52,0,0,1-7-2.63,9.22,9.22,0,0,1-2.68-6.88,9.51,9.51,0,0,1,2.6-6.82,9.86,9.86,0,0,1,13.48-.11,9.16,9.16,0,0,1,2.47,6.56,10.52,10.52,0,0,1-.12,1.51H241.78a5.3,5.3,0,0,0,1.76,3.71,6.16,6.16,0,0,0,4.25,1.41q3.75,0,5.16-2.92l3.44,1a8.77,8.77,0,0,1-3.2,3.64A9.51,9.51,0,0,1,247.72,195.76Zm-5.94-10.88,11.13,0a5.23,5.23,0,0,0-1.63-3.53,6.09,6.09,0,0,0-7.76.07A5.41,5.41,0,0,0,241.78,184.88Z"/><path class="cls-1" d="M270.51,176.71a6.72,6.72,0,0,1,5.32,2.12,8.59,8.59,0,0,1,1.87,5.84v10.62H274v-9.94a5.74,5.74,0,0,0-1.13-3.76,4.11,4.11,0,0,0-3.33-1.35,4.76,4.76,0,0,0-3.8,1.65,6.5,6.5,0,0,0-1.42,4.4v9h-3.78V177.18h3.78v2.69A7.23,7.23,0,0,1,270.51,176.71Z"/><path class="cls-1" d="M292.71,191.61l.93,3.1a10.37,10.37,0,0,1-4,.86,5.32,5.32,0,0,1-4.26-1.64,6.72,6.72,0,0,1-1.4-4.51v-8.9h-3.31v-3.34H284v-6.05h3.74v6.05h5.77v3.34h-5.77v8.9c0,1.85.87,2.77,2.6,2.77A5.38,5.38,0,0,0,292.71,191.61Z"/><path class="cls-1" d="M304.87,195.76a9.51,9.51,0,0,1-7-2.63,9.18,9.18,0,0,1-2.68-6.88,9.5,9.5,0,0,1,2.59-6.82,9.87,9.87,0,0,1,13.49-.11,9.2,9.2,0,0,1,2.47,6.56,10.63,10.63,0,0,1-.13,1.51H298.93a5.27,5.27,0,0,0,1.76,3.71,6.14,6.14,0,0,0,4.25,1.41c2.5,0,4.21-1,5.15-2.92l3.45,1a8.84,8.84,0,0,1-3.2,3.64A9.51,9.51,0,0,1,304.87,195.76Zm-5.94-10.88,11.13,0a5.24,5.24,0,0,0-1.64-3.53,5.69,5.69,0,0,0-9.49,3.56Z"/><path class="cls-1" d="M337,176.71a8.56,8.56,0,0,1,6.45,2.71,10.25,10.25,0,0,1,0,13.62,8.56,8.56,0,0,1-6.45,2.72,7.44,7.44,0,0,1-6.48-3.22v10.31h-3.78V177.18h3.78v2.74A7.45,7.45,0,0,1,337,176.71Zm-.61,15.66a5.57,5.57,0,0,0,4.24-1.75,6.15,6.15,0,0,0,1.66-4.41,6.09,6.09,0,0,0-1.65-4.39,5.62,5.62,0,0,0-4.25-1.72,5.77,5.77,0,0,0-4.25,1.74,6.45,6.45,0,0,0,0,8.79A5.77,5.77,0,0,0,336.39,192.37Z"/><path class="cls-1" d="M357.8,195.76a8.51,8.51,0,0,1-6.43-2.72,10.29,10.29,0,0,1,0-13.61,8.47,8.47,0,0,1,6.43-2.72,7.5,7.5,0,0,1,6.52,3.21v-2.74h3.74v18.11h-3.74v-2.75A7.48,7.48,0,0,1,357.8,195.76Zm.61-3.39a5.74,5.74,0,0,0,4.25-1.75,6.43,6.43,0,0,0,0-8.78,5.77,5.77,0,0,0-4.25-1.74,5.63,5.63,0,0,0-4.24,1.72,6.05,6.05,0,0,0-1.66,4.39,6.15,6.15,0,0,0,1.66,4.41A5.58,5.58,0,0,0,358.41,192.37Z"/><path class="cls-1" d="M376.85,180.06a5.61,5.61,0,0,1,2.44-2.54,6.14,6.14,0,0,1,3.77-.55v3.52a5.09,5.09,0,0,0-4.6,1.16q-1.6,1.62-1.61,5.46v8.18h-3.78V177.18h3.78Z"/><path class="cls-1" d="M393.2,195.76a8.47,8.47,0,0,1-6.42-2.72,10.26,10.26,0,0,1,0-13.61,8.43,8.43,0,0,1,6.42-2.72,7.49,7.49,0,0,1,6.52,3.21v-2.74h3.75v18.11h-3.75v-2.75A7.47,7.47,0,0,1,393.2,195.76Zm.62-3.39a5.72,5.72,0,0,0,4.24-1.75,6.43,6.43,0,0,0,0-8.78,5.75,5.75,0,0,0-4.24-1.74,5.64,5.64,0,0,0-4.25,1.72,6.05,6.05,0,0,0-1.66,4.39,6.15,6.15,0,0,0,1.66,4.41A5.59,5.59,0,0,0,393.82,192.37Z"/><path class="cls-1" d="M432,177.18h3.74v25.67H432V192.54a7.55,7.55,0,0,1-6.53,3.22,8.5,8.5,0,0,1-6.42-2.72,10.26,10.26,0,0,1,0-13.61,8.46,8.46,0,0,1,6.42-2.72,7.52,7.52,0,0,1,6.53,3.21Zm-5.91,15.19a5.7,5.7,0,0,0,4.24-1.75,6.41,6.41,0,0,0,0-8.78,5.73,5.73,0,0,0-4.24-1.74,5.65,5.65,0,0,0-4.25,1.72,6.1,6.1,0,0,0-1.66,4.39,6.19,6.19,0,0,0,1.66,4.41A5.6,5.6,0,0,0,426.09,192.37Z"/><path class="cls-1" d="M454,177.18h3.74v18.11H454v-2.75a7.17,7.17,0,0,1-6.26,3.22,6.75,6.75,0,0,1-5.32-2.13,8.45,8.45,0,0,1-1.89-5.83V177.18h3.78v9.93a5.65,5.65,0,0,0,1.14,3.76,4.06,4.06,0,0,0,3.33,1.36,4.78,4.78,0,0,0,3.78-1.65,6.48,6.48,0,0,0,1.44-4.4Z"/><path class="cls-1" d="M471.35,195.76a9.51,9.51,0,0,1-7-2.63,9.22,9.22,0,0,1-2.68-6.88,9.51,9.51,0,0,1,2.6-6.82,9.86,9.86,0,0,1,13.48-.11,9.2,9.2,0,0,1,2.47,6.56,10.52,10.52,0,0,1-.12,1.51H465.41a5.3,5.3,0,0,0,1.76,3.71,6.14,6.14,0,0,0,4.25,1.41q3.75,0,5.15-2.92l3.45,1a8.77,8.77,0,0,1-3.2,3.64A9.51,9.51,0,0,1,471.35,195.76Zm-5.94-10.88,11.13,0a5.2,5.2,0,0,0-1.64-3.53,5.69,5.69,0,0,0-9.49,3.56Z"/><path class="cls-1" d="M500.11,195.76a9.43,9.43,0,0,1-5.46-1.61,7.4,7.4,0,0,1-3.08-3.91l3.43-1a4.84,4.84,0,0,0,1.92,2.44,5.65,5.65,0,0,0,3.3,1,4.81,4.81,0,0,0,2.73-.71,2.07,2.07,0,0,0,1.05-1.73,1.68,1.68,0,0,0-.55-1.31,4.72,4.72,0,0,0-1.79-.86l-4.87-1.44c-2.88-.86-4.33-2.41-4.33-4.64a4.57,4.57,0,0,1,2-3.71,7.81,7.81,0,0,1,4.9-1.54,9.34,9.34,0,0,1,4.93,1.26,6.87,6.87,0,0,1,2.91,3.31l-3.34,1a4.57,4.57,0,0,0-1.73-1.8,5.22,5.22,0,0,0-2.8-.73,3.69,3.69,0,0,0-2.28.67,1.9,1.9,0,0,0-.91,1.53c0,.79.65,1.4,2,1.81l4.81,1.39a9,9,0,0,1,3.5,1.75,4,4,0,0,1,1.27,3.19,5,5,0,0,1-2.15,4.07A8.8,8.8,0,0,1,500.11,195.76Z"/><path class="cls-1" d="M520,195.76a9.51,9.51,0,0,1-7-2.63,9.18,9.18,0,0,1-2.68-6.88,9.5,9.5,0,0,1,2.59-6.82,9.86,9.86,0,0,1,13.48-.11,9.16,9.16,0,0,1,2.47,6.56,10.52,10.52,0,0,1-.12,1.51H514.07a5.27,5.27,0,0,0,1.76,3.71,6.14,6.14,0,0,0,4.25,1.41c2.5,0,4.21-1,5.15-2.92l3.45,1a8.91,8.91,0,0,1-3.2,3.64A9.51,9.51,0,0,1,520,195.76Zm-5.94-10.88,11.13,0a5.24,5.24,0,0,0-1.64-3.53,5.69,5.69,0,0,0-9.49,3.56Z"/><path class="cls-1" d="M546.06,177.18h3.74v18.11h-3.74v-2.75a7.16,7.16,0,0,1-6.26,3.22,6.73,6.73,0,0,1-5.31-2.13,8.45,8.45,0,0,1-1.89-5.83V177.18h3.78v9.93a5.65,5.65,0,0,0,1.13,3.76,4.08,4.08,0,0,0,3.33,1.36,4.78,4.78,0,0,0,3.78-1.65,6.48,6.48,0,0,0,1.44-4.4Z"/><path class="cls-1" d="M570.83,195.76a9.43,9.43,0,0,1-5.46-1.61,7.35,7.35,0,0,1-3.08-3.91l3.42-1a4.81,4.81,0,0,0,1.93,2.44,5.64,5.64,0,0,0,3.29,1,4.82,4.82,0,0,0,2.74-.71,2.08,2.08,0,0,0,1-1.73,1.67,1.67,0,0,0-.54-1.31,4.8,4.8,0,0,0-1.79-.86l-4.87-1.44q-4.34-1.29-4.33-4.64a4.58,4.58,0,0,1,2-3.71,7.86,7.86,0,0,1,4.91-1.54A9.34,9.34,0,0,1,575,178a6.87,6.87,0,0,1,2.91,3.31l-3.34,1a4.64,4.64,0,0,0-1.73-1.8,5.25,5.25,0,0,0-2.81-.73,3.68,3.68,0,0,0-2.27.67,1.87,1.87,0,0,0-.91,1.53c0,.79.65,1.4,2,1.81l4.82,1.39a9.1,9.1,0,0,1,3.5,1.75,4,4,0,0,1,1.26,3.19,4.94,4.94,0,0,1-2.14,4.07A8.8,8.8,0,0,1,570.83,195.76Z"/><path class="cls-1" d="M597.56,193a10,10,0,0,1-13.75,0,9.53,9.53,0,0,1,6.87-16.33,9.36,9.36,0,0,1,6.88,2.71,9.81,9.81,0,0,1,0,13.62Zm-11.14-2.46a6.07,6.07,0,0,0,8.53,0,6.48,6.48,0,0,0,0-8.71,6.1,6.1,0,0,0-8.53,0,6.51,6.51,0,0,0,0,8.71Z"/><path class="cls-1" d="M614.19,176.71a6.73,6.73,0,0,1,5.33,2.12,8.58,8.58,0,0,1,1.86,5.84v10.62h-3.74v-9.94a5.69,5.69,0,0,0-1.14-3.76,4.09,4.09,0,0,0-3.33-1.35,4.75,4.75,0,0,0-3.79,1.65,6.51,6.51,0,0,0-1.43,4.4v9h-3.78V177.18H608v2.69A7.23,7.23,0,0,1,614.19,176.71Z"/><path class="cls-1" d="M636.25,176.71a6.73,6.73,0,0,1,5.33,2.12,8.58,8.58,0,0,1,1.86,5.84v10.62H639.7v-9.94a5.74,5.74,0,0,0-1.13-3.76,4.12,4.12,0,0,0-3.34-1.35,4.75,4.75,0,0,0-3.79,1.65,6.51,6.51,0,0,0-1.43,4.4v9h-3.78V169H630v10.86A7.23,7.23,0,0,1,636.25,176.71Z"/><path class="cls-1" d="M663.68,193a10.06,10.06,0,0,1-13.76,0,9.53,9.53,0,0,1,6.87-16.33,9.4,9.4,0,0,1,6.89,2.71,9.83,9.83,0,0,1,0,13.62Zm-11.15-2.46a6.08,6.08,0,0,0,8.54,0,6.51,6.51,0,0,0,0-8.71,6.11,6.11,0,0,0-8.54,0,6.51,6.51,0,0,0,0,8.71Z"/><path class="cls-1" d="M686.28,195.76a9.43,9.43,0,0,1-5.46-1.61,7.4,7.4,0,0,1-3.08-3.91l3.43-1a4.84,4.84,0,0,0,1.92,2.44,5.65,5.65,0,0,0,3.3,1,4.81,4.81,0,0,0,2.73-.71,2.07,2.07,0,0,0,1-1.73,1.68,1.68,0,0,0-.55-1.31,4.72,4.72,0,0,0-1.79-.86L683,186.6c-2.88-.86-4.33-2.41-4.33-4.64a4.57,4.57,0,0,1,2-3.71,7.81,7.81,0,0,1,4.9-1.54,9.34,9.34,0,0,1,4.93,1.26,6.87,6.87,0,0,1,2.91,3.31l-3.34,1a4.57,4.57,0,0,0-1.73-1.8,5.22,5.22,0,0,0-2.8-.73,3.69,3.69,0,0,0-2.28.67,1.9,1.9,0,0,0-.91,1.53c0,.79.65,1.4,1.95,1.81l4.82,1.39a9,9,0,0,1,3.5,1.75,4,4,0,0,1,1.27,3.19,5,5,0,0,1-2.15,4.07A8.8,8.8,0,0,1,686.28,195.76Z"/><path class="cls-1" d="M706.18,195.76a9.51,9.51,0,0,1-7-2.63,9.18,9.18,0,0,1-2.68-6.88,9.5,9.5,0,0,1,2.59-6.82,9.86,9.86,0,0,1,13.48-.11,9.16,9.16,0,0,1,2.47,6.56,10.52,10.52,0,0,1-.12,1.51H700.24A5.27,5.27,0,0,0,702,191.1a6.14,6.14,0,0,0,4.25,1.41c2.5,0,4.21-1,5.15-2.92l3.45,1a8.91,8.91,0,0,1-3.2,3.64A9.51,9.51,0,0,1,706.18,195.76Zm-5.94-10.88,11.13,0a5.24,5.24,0,0,0-1.64-3.53,5.69,5.69,0,0,0-9.49,3.56Z"/><path class="cls-1" d="M719,196.69V177.18h3.74v19.27a8,8,0,0,1-1.43,5.07,5.28,5.28,0,0,1-4.39,1.8,7.72,7.72,0,0,1-3.18-.72l.88-3a3.09,3.09,0,0,0,1.83.52C718.13,200.11,719,199,719,196.69Zm3.6-23.13a2.32,2.32,0,0,1-1.69.67,2.28,2.28,0,0,1-1.68-.67,2.31,2.31,0,0,1,0-3.29,2.28,2.28,0,0,1,1.68-.68,2.32,2.32,0,0,1,1.69.68,2.31,2.31,0,0,1,0,3.29Z"/><path class="cls-1" d="M735.75,195.76a8.51,8.51,0,0,1-6.43-2.72,10.29,10.29,0,0,1,0-13.61,8.47,8.47,0,0,1,6.43-2.72,7.5,7.5,0,0,1,6.52,3.21v-2.74H746v18.11h-3.74v-2.75A7.48,7.48,0,0,1,735.75,195.76Zm.61-3.39a5.74,5.74,0,0,0,4.25-1.75,6.43,6.43,0,0,0,0-8.78,5.77,5.77,0,0,0-4.25-1.74,5.61,5.61,0,0,0-4.24,1.72,6.05,6.05,0,0,0-1.66,4.39,6.15,6.15,0,0,0,1.66,4.41A5.57,5.57,0,0,0,736.36,192.37Z"/><path class="cls-1" d="M28.28,219.91a8.53,8.53,0,0,1,6.44,2.71,10.25,10.25,0,0,1,0,13.62A8.54,8.54,0,0,1,28.28,239a7.45,7.45,0,0,1-6.49-3.22v10.31H18V220.38h3.78v2.74A7.47,7.47,0,0,1,28.28,219.91Zm-.62,15.66a5.59,5.59,0,0,0,4.25-1.75,6.15,6.15,0,0,0,1.66-4.41A6.09,6.09,0,0,0,31.92,225a5.63,5.63,0,0,0-4.26-1.72A5.75,5.75,0,0,0,23.42,225a6.45,6.45,0,0,0,0,8.79A5.75,5.75,0,0,0,27.66,235.57Z"/><path class="cls-1" d="M49.07,239a8.5,8.5,0,0,1-6.42-2.72,10.26,10.26,0,0,1,0-13.61,8.46,8.46,0,0,1,6.42-2.72,7.52,7.52,0,0,1,6.53,3.21v-2.74h3.74v18.11H55.6v-2.75A7.5,7.5,0,0,1,49.07,239Zm.62-3.39a5.7,5.7,0,0,0,4.24-1.75,6.41,6.41,0,0,0,0-8.78,5.73,5.73,0,0,0-4.24-1.74A5.65,5.65,0,0,0,45.44,225a6.1,6.1,0,0,0-1.66,4.39,6.19,6.19,0,0,0,1.66,4.41A5.6,5.6,0,0,0,49.69,235.57Z"/><path class="cls-1" d="M68.13,223.26a5.59,5.59,0,0,1,2.43-2.54,6.16,6.16,0,0,1,3.77-.55v3.52a5.07,5.07,0,0,0-4.59,1.16q-1.6,1.62-1.61,5.46v8.18H64.35V220.38h3.78Z"/><path class="cls-1" d="M88.54,234.81l.93,3.1a10.37,10.37,0,0,1-4,.86,5.32,5.32,0,0,1-4.26-1.64,6.72,6.72,0,0,1-1.4-4.51v-8.9H76.51v-3.34h3.31v-6h3.74v6h5.77v3.34H83.56v8.9c0,1.85.87,2.77,2.6,2.77A5.38,5.38,0,0,0,88.54,234.81Z"/><path class="cls-1" d="M100.7,239a9.51,9.51,0,0,1-7-2.63,9.18,9.18,0,0,1-2.68-6.88,9.54,9.54,0,0,1,2.59-6.82,9.87,9.87,0,0,1,13.49-.11,9.2,9.2,0,0,1,2.47,6.56,10.63,10.63,0,0,1-.13,1.51H94.76a5.27,5.27,0,0,0,1.76,3.71,6.14,6.14,0,0,0,4.25,1.41c2.5,0,4.21-1,5.15-2.92l3.45,1a8.84,8.84,0,0,1-3.2,3.64A9.51,9.51,0,0,1,100.7,239Zm-5.94-10.88,11.13,0a5.24,5.24,0,0,0-1.64-3.53,5.69,5.69,0,0,0-9.49,3.56Z"/><path class="cls-1" d="M137,212.21h3.75v26.28H137v-2.75a7.52,7.52,0,0,1-6.52,3.22,8.47,8.47,0,0,1-6.42-2.72,10.26,10.26,0,0,1,0-13.61,8.43,8.43,0,0,1,6.42-2.72,7.49,7.49,0,0,1,6.52,3.21Zm-5.9,23.36a5.72,5.72,0,0,0,4.24-1.75,6.43,6.43,0,0,0,0-8.78,5.75,5.75,0,0,0-4.24-1.74,5.64,5.64,0,0,0-4.25,1.72,6.05,6.05,0,0,0-1.66,4.39,6.15,6.15,0,0,0,1.66,4.41A5.59,5.59,0,0,0,131.08,235.57Z"/><path class="cls-1" d="M153.63,239a8.51,8.51,0,0,1-6.43-2.72,10.29,10.29,0,0,1,0-13.61,8.47,8.47,0,0,1,6.43-2.72,7.5,7.5,0,0,1,6.52,3.21v-2.74h3.74v18.11h-3.74v-2.75A7.48,7.48,0,0,1,153.63,239Zm.61-3.39a5.74,5.74,0,0,0,4.25-1.75,6.43,6.43,0,0,0,0-8.78,5.77,5.77,0,0,0-4.25-1.74A5.63,5.63,0,0,0,150,225a6.05,6.05,0,0,0-1.66,4.39,6.15,6.15,0,0,0,1.66,4.41A5.58,5.58,0,0,0,154.24,235.57Z"/><path class="cls-1" d="M188,219.91a6.74,6.74,0,0,1,5.33,2.12,8.58,8.58,0,0,1,1.86,5.84v10.62h-3.75v-9.93a5.69,5.69,0,0,0-1.13-3.77,4.11,4.11,0,0,0-3.33-1.35,4.77,4.77,0,0,0-3.8,1.65,6.5,6.5,0,0,0-1.42,4.4v9H178V220.38h3.78v2.69A7.23,7.23,0,0,1,188,219.91Z"/><path class="cls-1" d="M215.45,236.24a10,10,0,0,1-13.75,0,9.53,9.53,0,0,1,6.87-16.33,9.38,9.38,0,0,1,6.88,2.71,9.83,9.83,0,0,1,0,13.62Zm-11.14-2.46a6.07,6.07,0,0,0,8.53,0,6.48,6.48,0,0,0,0-8.71,6.1,6.1,0,0,0-8.53,0,6.51,6.51,0,0,0,0,8.71Z"/><path class="cls-1" d="M229,239a9.43,9.43,0,0,1-5.46-1.61,7.4,7.4,0,0,1-3.08-3.91l3.43-1a4.84,4.84,0,0,0,1.92,2.44,5.65,5.65,0,0,0,3.3,1,4.81,4.81,0,0,0,2.73-.71,2.07,2.07,0,0,0,1.05-1.73,1.68,1.68,0,0,0-.55-1.31,4.72,4.72,0,0,0-1.79-.86l-4.87-1.44c-2.88-.86-4.33-2.41-4.33-4.64a4.57,4.57,0,0,1,2-3.71,7.81,7.81,0,0,1,4.9-1.54,9.34,9.34,0,0,1,4.93,1.26,6.87,6.87,0,0,1,2.91,3.31l-3.34,1a4.57,4.57,0,0,0-1.73-1.8,5.22,5.22,0,0,0-2.8-.73,3.69,3.69,0,0,0-2.28.67,1.9,1.9,0,0,0-.91,1.53c0,.79.65,1.4,2,1.81l4.82,1.39a9,9,0,0,1,3.5,1.75,4,4,0,0,1,1.26,3.19,4.93,4.93,0,0,1-2.14,4.07A8.8,8.8,0,0,1,229,239Z"/><path class="cls-1" d="M247.13,239a9.41,9.41,0,0,1-5.46-1.61,7.37,7.37,0,0,1-3.09-3.91l3.43-1a4.81,4.81,0,0,0,1.93,2.44,5.64,5.64,0,0,0,3.29,1,4.82,4.82,0,0,0,2.74-.71,2.08,2.08,0,0,0,1-1.73,1.67,1.67,0,0,0-.54-1.31,4.78,4.78,0,0,0-1.8-.86l-4.87-1.44q-4.32-1.29-4.32-4.64a4.55,4.55,0,0,1,2-3.71,7.84,7.84,0,0,1,4.91-1.54,9.37,9.37,0,0,1,4.93,1.26,6.87,6.87,0,0,1,2.91,3.31l-3.34,1a4.6,4.6,0,0,0-1.74-1.8,5.19,5.19,0,0,0-2.8-.73,3.73,3.73,0,0,0-2.28.67,1.89,1.89,0,0,0-.9,1.53c0,.79.65,1.4,1.95,1.81l4.82,1.39a9.1,9.1,0,0,1,3.5,1.75,4,4,0,0,1,1.26,3.19,4.93,4.93,0,0,1-2.14,4.07A8.8,8.8,0,0,1,247.13,239Z"/><path class="cls-1" d="M266.38,239a8.51,8.51,0,0,1-6.43-2.72,10.29,10.29,0,0,1,0-13.61,8.47,8.47,0,0,1,6.43-2.72,7.51,7.51,0,0,1,6.52,3.21v-2.74h3.74v18.11H272.9v-2.75A7.5,7.5,0,0,1,266.38,239Zm.61-3.39a5.74,5.74,0,0,0,4.25-1.75,6.43,6.43,0,0,0,0-8.78A5.77,5.77,0,0,0,267,223.3a5.61,5.61,0,0,0-4.24,1.72,6.06,6.06,0,0,0-1.67,4.39,6.16,6.16,0,0,0,1.67,4.41A5.57,5.57,0,0,0,267,235.57Z"/><path class="cls-1" d="M312.15,219.91a6.75,6.75,0,0,1,5.16,2.05,8,8,0,0,1,1.92,5.7v10.83h-3.78V228.38a5.77,5.77,0,0,0-1-3.64,3.61,3.61,0,0,0-3-1.3,4,4,0,0,0-3.31,1.51,6.24,6.24,0,0,0-1.22,4.06v9.48h-3.75V228.38a5.9,5.9,0,0,0-1-3.64,3.45,3.45,0,0,0-2.93-1.3,4.13,4.13,0,0,0-3.41,1.58,6.84,6.84,0,0,0-1.24,4.33v9.14h-3.78V220.38h3.78v2.52a6.51,6.51,0,0,1,5.69-3A5.76,5.76,0,0,1,305.8,223,7.1,7.1,0,0,1,312.15,219.91Z"/><path class="cls-1" d="M327.76,216.76a2.47,2.47,0,0,1-3.38,0,2.33,2.33,0,0,1,0-3.29,2.44,2.44,0,0,1,3.38,0,2.33,2.33,0,0,1,0,3.29Zm-3.61,21.73V220.38h3.75v18.11Z"/><path class="cls-1" d="M339.92,239a9.43,9.43,0,0,1-5.46-1.61,7.4,7.4,0,0,1-3.08-3.91l3.43-1a4.84,4.84,0,0,0,1.92,2.44,5.65,5.65,0,0,0,3.3,1,4.81,4.81,0,0,0,2.73-.71,2.07,2.07,0,0,0,1.05-1.73,1.64,1.64,0,0,0-.55-1.31,4.72,4.72,0,0,0-1.79-.86l-4.87-1.44q-4.32-1.29-4.32-4.64a4.55,4.55,0,0,1,2-3.71,7.81,7.81,0,0,1,4.9-1.54,9.34,9.34,0,0,1,4.93,1.26,6.87,6.87,0,0,1,2.91,3.31l-3.34,1a4.57,4.57,0,0,0-1.73-1.8,5.22,5.22,0,0,0-2.8-.73,3.69,3.69,0,0,0-2.28.67,1.9,1.9,0,0,0-.91,1.53c0,.79.65,1.4,2,1.81l4.81,1.39a9,9,0,0,1,3.5,1.75,4,4,0,0,1,1.27,3.19,4.94,4.94,0,0,1-2.15,4.07A8.78,8.78,0,0,1,339.92,239Z"/><path class="cls-1" d="M358.1,239a9.43,9.43,0,0,1-5.46-1.61,7.42,7.42,0,0,1-3.09-3.91l3.43-1a4.81,4.81,0,0,0,1.93,2.44,5.64,5.64,0,0,0,3.29,1,4.82,4.82,0,0,0,2.74-.71,2.08,2.08,0,0,0,1-1.73,1.67,1.67,0,0,0-.54-1.31,4.78,4.78,0,0,0-1.8-.86l-4.86-1.44q-4.33-1.29-4.33-4.64a4.58,4.58,0,0,1,2-3.71,7.86,7.86,0,0,1,4.91-1.54,9.34,9.34,0,0,1,4.93,1.26,6.87,6.87,0,0,1,2.91,3.31l-3.34,1a4.64,4.64,0,0,0-1.73-1.8,5.25,5.25,0,0,0-2.81-.73,3.68,3.68,0,0,0-2.27.67,1.87,1.87,0,0,0-.91,1.53c0,.79.65,1.4,1.95,1.81l4.82,1.39a9.1,9.1,0,0,1,3.5,1.75,4,4,0,0,1,1.26,3.19,4.93,4.93,0,0,1-2.14,4.07A8.8,8.8,0,0,1,358.1,239Z"/><path class="cls-1" d="M377.35,239a8.51,8.51,0,0,1-6.43-2.72,10.29,10.29,0,0,1,0-13.61,8.47,8.47,0,0,1,6.43-2.72,7.5,7.5,0,0,1,6.52,3.21v-2.74h3.74v18.11h-3.74v-2.75A7.48,7.48,0,0,1,377.35,239Zm.61-3.39a5.74,5.74,0,0,0,4.25-1.75,6.43,6.43,0,0,0,0-8.78A5.77,5.77,0,0,0,378,223.3a5.61,5.61,0,0,0-4.24,1.72,6.06,6.06,0,0,0-1.67,4.39,6.16,6.16,0,0,0,1.67,4.41A5.57,5.57,0,0,0,378,235.57Zm2.69-17.86a5.11,5.11,0,0,1-2.65-1,5.41,5.41,0,0,0-2.06-1q-.9,0-.9,1.86h-2.63q0-4.68,3.21-4.68a5.14,5.14,0,0,1,2.66,1,5.41,5.41,0,0,0,2.05,1c.6,0,.9-.63.9-1.88h2.6Q383.82,217.71,380.65,217.71Z"/><path class="cls-1" d="M408,236.24a10,10,0,0,1-13.75,0,9.53,9.53,0,0,1,6.87-16.33,9.38,9.38,0,0,1,6.88,2.71,9.83,9.83,0,0,1,0,13.62Zm-11.14-2.46a6.07,6.07,0,0,0,8.53,0,6.48,6.48,0,0,0,0-8.71,6.1,6.1,0,0,0-8.53,0,6.51,6.51,0,0,0,0,8.71Z"/><path class="cls-1" d="M413,243.43l1.6-9.34h4.06l-2.6,9.34Z"/><path class="cls-1" d="M440.61,239a9.51,9.51,0,0,1-7-2.63,9.18,9.18,0,0,1-2.68-6.88,9.5,9.5,0,0,1,2.59-6.82,9.86,9.86,0,0,1,13.48-.11,9.16,9.16,0,0,1,2.47,6.56,10.52,10.52,0,0,1-.12,1.51H434.67a5.27,5.27,0,0,0,1.76,3.71,6.14,6.14,0,0,0,4.25,1.41c2.5,0,4.21-1,5.15-2.92l3.45,1a8.91,8.91,0,0,1-3.2,3.64A9.51,9.51,0,0,1,440.61,239Zm-5.94-10.88,11.12,0a5.19,5.19,0,0,0-1.63-3.53,5.69,5.69,0,0,0-9.49,3.56Z"/><path class="cls-1" d="M461.77,239a9.16,9.16,0,0,1-6.8-2.74,9.93,9.93,0,0,1,0-13.6,10,10,0,0,1,12.49-1,7.28,7.28,0,0,1,2.9,4l-3.49,1A4.5,4.5,0,0,0,465,224.3a5.41,5.41,0,0,0-3.26-1,5.47,5.47,0,0,0-4.21,1.77,6.61,6.61,0,0,0,0,8.68,5.4,5.4,0,0,0,4.2,1.82,5.69,5.69,0,0,0,3.27-.95,4.15,4.15,0,0,0,1.8-2.29l3.49,1a7.25,7.25,0,0,1-2.87,3.93A9.19,9.19,0,0,1,461.77,239Z"/><path class="cls-1" d="M489.58,236.24a10,10,0,0,1-13.75,0,9.53,9.53,0,0,1,6.87-16.33,9.38,9.38,0,0,1,6.88,2.71,9.83,9.83,0,0,1,0,13.62Zm-11.14-2.46a6.07,6.07,0,0,0,8.53,0,6.48,6.48,0,0,0,0-8.71,6.1,6.1,0,0,0-8.53,0,6.51,6.51,0,0,0,0,8.71Z"/><path class="cls-1" d="M506.21,219.91a6.74,6.74,0,0,1,5.33,2.12,8.58,8.58,0,0,1,1.86,5.84v10.62h-3.74v-9.93a5.7,5.7,0,0,0-1.14-3.77,4.09,4.09,0,0,0-3.33-1.35,4.77,4.77,0,0,0-3.8,1.65,6.55,6.55,0,0,0-1.42,4.4v9h-3.78V220.38H500v2.69A7.23,7.23,0,0,1,506.21,219.91Z"/><path class="cls-1" d="M533.63,236.24a10,10,0,0,1-13.75,0,9.53,9.53,0,0,1,6.87-16.33,9.38,9.38,0,0,1,6.88,2.71,9.81,9.81,0,0,1,0,13.62Zm-11.14-2.46a6.07,6.07,0,0,0,8.53,0,6.48,6.48,0,0,0,0-8.71,6.1,6.1,0,0,0-8.53,0,6.51,6.51,0,0,0,0,8.71Z"/><path class="cls-1" d="M561.63,219.91a6.72,6.72,0,0,1,5.16,2.05,8,8,0,0,1,1.93,5.7v10.83h-3.78V228.38a5.77,5.77,0,0,0-1-3.64,3.61,3.61,0,0,0-3-1.3,4,4,0,0,0-3.31,1.51,6.24,6.24,0,0,0-1.23,4.06v9.48H552.6V228.38a5.9,5.9,0,0,0-1-3.64,3.46,3.46,0,0,0-2.93-1.3,4.12,4.12,0,0,0-3.41,1.58,6.84,6.84,0,0,0-1.25,4.33v9.14h-3.78V220.38H544v2.52a6.53,6.53,0,0,1,5.7-3,5.77,5.77,0,0,1,5.57,3.09A7.09,7.09,0,0,1,561.63,219.91Z"/><path class="cls-1" d="M577.24,216.76a2.45,2.45,0,0,1-3.37,0,2.31,2.31,0,0,1,0-3.29,2.43,2.43,0,0,1,3.37,0,2.31,2.31,0,0,1,0,3.29Zm-3.6,21.73V220.38h3.74v18.11Z"/><path class="cls-1" d="M586.6,235.29h10.75v3.2h-15.8v-2.41L592,223.58H581.76v-3.2H597v2.48Z"/><path class="cls-1" d="M608.52,239a8.51,8.51,0,0,1-6.43-2.72,10.29,10.29,0,0,1,0-13.61,8.47,8.47,0,0,1,6.43-2.72,7.5,7.5,0,0,1,6.52,3.21v-2.74h3.74v18.11H615v-2.75A7.48,7.48,0,0,1,608.52,239Zm.61-3.39a5.74,5.74,0,0,0,4.25-1.75,6.43,6.43,0,0,0,0-8.78,5.77,5.77,0,0,0-4.25-1.74,5.61,5.61,0,0,0-4.24,1.72,6.06,6.06,0,0,0-1.67,4.39,6.16,6.16,0,0,0,1.67,4.41A5.57,5.57,0,0,0,609.13,235.57Z"/><path class="cls-1" d="M633.81,219.91a6.74,6.74,0,0,1,5.33,2.12,8.58,8.58,0,0,1,1.86,5.84v10.62h-3.74v-9.93a5.7,5.7,0,0,0-1.14-3.77,4.09,4.09,0,0,0-3.33-1.35,4.77,4.77,0,0,0-3.8,1.65,6.5,6.5,0,0,0-1.42,4.4v9h-3.78V220.38h3.78v2.69A7.23,7.23,0,0,1,633.81,219.91Z"/><path class="cls-1" d="M660.27,212.21H664v26.28h-3.74v-2.75a7.55,7.55,0,0,1-6.53,3.22,8.5,8.5,0,0,1-6.42-2.72,10.26,10.26,0,0,1,0-13.61,8.46,8.46,0,0,1,6.42-2.72,7.52,7.52,0,0,1,6.53,3.21Zm-5.91,23.36a5.7,5.7,0,0,0,4.24-1.75,6.41,6.41,0,0,0,0-8.78,5.73,5.73,0,0,0-4.24-1.74,5.65,5.65,0,0,0-4.25,1.72,6.1,6.1,0,0,0-1.66,4.39,6.19,6.19,0,0,0,1.66,4.41A5.6,5.6,0,0,0,654.36,235.57Z"/><path class="cls-1" d="M684.4,236.24a10,10,0,0,1-13.75,0,9.53,9.53,0,0,1,6.87-16.33,9.38,9.38,0,0,1,6.88,2.71,9.83,9.83,0,0,1,0,13.62Zm-11.14-2.46a6.07,6.07,0,0,0,8.53,0,6.48,6.48,0,0,0,0-8.71,6.1,6.1,0,0,0-8.53,0,6.51,6.51,0,0,0,0,8.71Z"/><path class="cls-1" d="M710.28,234.81l.93,3.1a10.37,10.37,0,0,1-4,.86,5.32,5.32,0,0,1-4.26-1.64,6.72,6.72,0,0,1-1.4-4.51v-8.9h-3.31v-3.34h3.31v-6h3.74v6h5.77v3.34H705.3v8.9c0,1.85.87,2.77,2.6,2.77A5.38,5.38,0,0,0,710.28,234.81Z"/><path class="cls-1" d="M722.44,239a9.51,9.51,0,0,1-7-2.63,9.18,9.18,0,0,1-2.68-6.88,9.5,9.5,0,0,1,2.59-6.82,9.86,9.86,0,0,1,13.48-.11,9.16,9.16,0,0,1,2.47,6.56,10.52,10.52,0,0,1-.12,1.51H716.5a5.27,5.27,0,0,0,1.76,3.71,6.14,6.14,0,0,0,4.25,1.41c2.5,0,4.21-1,5.15-2.92l3.45,1a8.91,8.91,0,0,1-3.2,3.64A9.51,9.51,0,0,1,722.44,239Zm-5.94-10.88,11.13,0a5.24,5.24,0,0,0-1.64-3.53,5.69,5.69,0,0,0-9.49,3.56Z"/><path class="cls-1" d="M756.59,219.91a6.72,6.72,0,0,1,5.16,2.05,8,8,0,0,1,1.93,5.7v10.83H759.9V228.38a5.77,5.77,0,0,0-1-3.64,3.61,3.61,0,0,0-3-1.3,4,4,0,0,0-3.32,1.51A6.3,6.3,0,0,0,751.3,229v9.48h-3.74V228.38a5.9,5.9,0,0,0-1-3.64,3.46,3.46,0,0,0-2.93-1.3,4.12,4.12,0,0,0-3.41,1.58,6.84,6.84,0,0,0-1.25,4.33v9.14H735.2V220.38H739v2.52a6.53,6.53,0,0,1,5.7-3,5.77,5.77,0,0,1,5.57,3.09A7.08,7.08,0,0,1,756.59,219.91Z"/><path class="cls-1" d="M778.79,219.91a8.56,8.56,0,0,1,6.45,2.71,10.25,10.25,0,0,1,0,13.62,8.56,8.56,0,0,1-6.45,2.72,7.44,7.44,0,0,1-6.48-3.22v10.31h-3.78V220.38h3.78v2.74A7.45,7.45,0,0,1,778.79,219.91Zm-.61,15.66a5.57,5.57,0,0,0,4.24-1.75,6.16,6.16,0,0,0,1.67-4.41,6.05,6.05,0,0,0-1.66-4.39,5.62,5.62,0,0,0-4.25-1.72,5.77,5.77,0,0,0-4.25,1.74,6.45,6.45,0,0,0,0,8.79A5.77,5.77,0,0,0,778.18,235.57Z"/><path class="cls-1" d="M807.08,236.24a10.06,10.06,0,0,1-13.76,0,9.85,9.85,0,0,1,0-13.61,10.07,10.07,0,0,1,13.76,0,9.83,9.83,0,0,1,0,13.62Zm-11.15-2.46a6.08,6.08,0,0,0,8.54,0,6.48,6.48,0,0,0,0-8.71,6.11,6.11,0,0,0-8.54,0,6.51,6.51,0,0,0,0,8.71Z"/><path class="cls-1" d="M26.56,282.16a9.53,9.53,0,0,1-7-2.63,9.18,9.18,0,0,1-2.68-6.88,9.5,9.5,0,0,1,2.59-6.82,8.85,8.85,0,0,1,6.72-2.72A8.87,8.87,0,0,1,33,265.72a9.16,9.16,0,0,1,2.47,6.56,10.52,10.52,0,0,1-.12,1.51H20.62a5.27,5.27,0,0,0,1.75,3.71,6.19,6.19,0,0,0,4.26,1.41q3.74,0,5.15-2.92l3.44,1a8.77,8.77,0,0,1-3.2,3.64A9.48,9.48,0,0,1,26.56,282.16Zm-5.94-10.88,11.12,0a5.19,5.19,0,0,0-1.63-3.52,5.47,5.47,0,0,0-3.89-1.36,5.45,5.45,0,0,0-5.6,4.92Z"/><path class="cls-1" d="M57,282.16a9.53,9.53,0,0,1-7-2.63,9.18,9.18,0,0,1-2.68-6.88,9.5,9.5,0,0,1,2.59-6.82,8.85,8.85,0,0,1,6.72-2.72,8.85,8.85,0,0,1,6.76,2.61,9.16,9.16,0,0,1,2.47,6.56,10.52,10.52,0,0,1-.12,1.51H51a5.27,5.27,0,0,0,1.75,3.71A6.19,6.19,0,0,0,57,278.91q3.74,0,5.15-2.92l3.44,1a8.77,8.77,0,0,1-3.2,3.64A9.48,9.48,0,0,1,57,282.16ZM51,271.28l11.12,0a5.19,5.19,0,0,0-1.63-3.52,6.08,6.08,0,0,0-7.75.07A5.41,5.41,0,0,0,51,271.28Z"/><path class="cls-1" d="M79.75,263.11a6.67,6.67,0,0,1,5.32,2.12,8.54,8.54,0,0,1,1.87,5.84v10.62H83.19v-9.94A5.68,5.68,0,0,0,82.06,268a4.11,4.11,0,0,0-3.33-1.35,4.77,4.77,0,0,0-3.8,1.65,6.5,6.5,0,0,0-1.42,4.4v9H69.73V263.58h3.78v2.69A7.23,7.23,0,0,1,79.75,263.11Z"/><path class="cls-1" d="M100.19,282.16a9.14,9.14,0,0,1-6.8-2.74,9.93,9.93,0,0,1,0-13.6,9.13,9.13,0,0,1,6.78-2.71,9.25,9.25,0,0,1,5.71,1.74,7.33,7.33,0,0,1,2.9,4l-3.5,1a4.53,4.53,0,0,0-1.8-2.34,5.86,5.86,0,0,0-7.47.77A6.61,6.61,0,0,0,96,277a5.4,5.4,0,0,0,4.2,1.82,5.74,5.74,0,0,0,3.27-.95,4.12,4.12,0,0,0,1.79-2.29l3.5,1a7.28,7.28,0,0,1-2.87,3.93A9.21,9.21,0,0,1,100.19,282.16Z"/><path class="cls-1" d="M125.91,263.58h3.74v18.11h-3.74v-2.75a7.17,7.17,0,0,1-6.26,3.22,6.75,6.75,0,0,1-5.32-2.13,8.45,8.45,0,0,1-1.89-5.83V263.58h3.78v9.93a5.65,5.65,0,0,0,1.14,3.76,4.06,4.06,0,0,0,3.33,1.36,4.78,4.78,0,0,0,3.78-1.65,6.48,6.48,0,0,0,1.44-4.4Z"/><path class="cls-1" d="M138.46,266.46a5.59,5.59,0,0,1,2.43-2.54,6.08,6.08,0,0,1,3.77-.55v3.52a5.07,5.07,0,0,0-4.59,1.16q-1.6,1.62-1.61,5.46v8.18h-3.78V263.58h3.78Z"/><path class="cls-1" d="M158.87,278l.93,3.1a10.37,10.37,0,0,1-4,.86,5.32,5.32,0,0,1-4.26-1.64,6.74,6.74,0,0,1-1.4-4.52v-8.89h-3.31v-3.34h3.31v-6.05h3.74v6.05h5.77v3.34h-5.77v8.89c0,1.86.87,2.78,2.6,2.78A5.38,5.38,0,0,0,158.87,278Z"/><path class="cls-1" d="M170.38,282.16a8.47,8.47,0,0,1-6.42-2.72,10.26,10.26,0,0,1,0-13.61,8.43,8.43,0,0,1,6.42-2.72,7.49,7.49,0,0,1,6.52,3.21v-2.74h3.75v18.11H176.9v-2.75A7.47,7.47,0,0,1,170.38,282.16Zm.62-3.39a5.72,5.72,0,0,0,4.24-1.75,6.43,6.43,0,0,0,0-8.78A5.75,5.75,0,0,0,171,266.5a5.64,5.64,0,0,0-4.25,1.72,6.05,6.05,0,0,0-1.66,4.39,6.15,6.15,0,0,0,1.66,4.41A5.59,5.59,0,0,0,171,278.77Z"/><path class="cls-1" d="M195.68,263.11a6.69,6.69,0,0,1,5.32,2.12,8.59,8.59,0,0,1,1.87,5.84v10.62h-3.75v-9.94A5.74,5.74,0,0,0,198,268a4.11,4.11,0,0,0-3.33-1.35,4.76,4.76,0,0,0-3.8,1.65,6.5,6.5,0,0,0-1.42,4.4v9h-3.78V263.58h3.78v2.69A7.23,7.23,0,0,1,195.68,263.11Z"/><path class="cls-1" d="M222.13,255.41h3.75v26.28h-3.75v-2.75a7.52,7.52,0,0,1-6.52,3.22,8.51,8.51,0,0,1-6.43-2.72,10.29,10.29,0,0,1,0-13.61,8.47,8.47,0,0,1,6.43-2.72,7.49,7.49,0,0,1,6.52,3.21Zm-5.91,23.36a5.73,5.73,0,0,0,4.25-1.75,6.43,6.43,0,0,0,0-8.78,5.76,5.76,0,0,0-4.25-1.74,5.63,5.63,0,0,0-4.24,1.72,6.05,6.05,0,0,0-1.66,4.39A6.15,6.15,0,0,0,212,277,5.58,5.58,0,0,0,216.22,278.77Z"/><path class="cls-1" d="M246.27,279.44a10.06,10.06,0,0,1-13.76,0,9.53,9.53,0,0,1,6.87-16.33,9.4,9.4,0,0,1,6.89,2.71,9.83,9.83,0,0,1,0,13.62ZM235.12,277a6.08,6.08,0,0,0,8.54,0,6.51,6.51,0,0,0,0-8.71,6.11,6.11,0,0,0-8.54,0,6.51,6.51,0,0,0,0,8.71Z"/><path class="cls-1" d="M277.36,279.44a10,10,0,0,1-13.75,0,9.53,9.53,0,0,1,6.87-16.33,9.38,9.38,0,0,1,6.88,2.71,9.83,9.83,0,0,1,0,13.62ZM266.22,277a6.07,6.07,0,0,0,8.53,0,6.48,6.48,0,0,0,0-8.71,6.1,6.1,0,0,0-8.53,0,6.51,6.51,0,0,0,0,8.71Z"/><path class="cls-1" d="M301.48,282.16a9.14,9.14,0,0,1-6.8-2.74,9.93,9.93,0,0,1,0-13.6,9.13,9.13,0,0,1,6.78-2.71,9.25,9.25,0,0,1,5.71,1.74,7.38,7.38,0,0,1,2.9,4l-3.5,1a4.53,4.53,0,0,0-1.8-2.34,5.86,5.86,0,0,0-7.47.77,6.19,6.19,0,0,0-1.63,4.35,6.27,6.27,0,0,0,1.64,4.33,5.4,5.4,0,0,0,4.2,1.82,5.74,5.74,0,0,0,3.27-.95,4.17,4.17,0,0,0,1.79-2.29l3.5,1a7.38,7.38,0,0,1-2.87,3.93A9.21,9.21,0,0,1,301.48,282.16Z"/><path class="cls-1" d="M321.8,282.16a8.51,8.51,0,0,1-6.43-2.72,10.29,10.29,0,0,1,0-13.61,8.47,8.47,0,0,1,6.43-2.72,7.5,7.5,0,0,1,6.52,3.21v-2.74h3.74v18.11h-3.74v-2.75A7.48,7.48,0,0,1,321.8,282.16Zm.61-3.39a5.74,5.74,0,0,0,4.25-1.75,6.43,6.43,0,0,0,0-8.78,5.77,5.77,0,0,0-4.25-1.74,5.63,5.63,0,0,0-4.24,1.72,6.05,6.05,0,0,0-1.66,4.39,6.15,6.15,0,0,0,1.66,4.41A5.58,5.58,0,0,0,322.41,278.77Z"/><path class="cls-1" d="M358.47,263.11a6.75,6.75,0,0,1,5.16,2.05,8,8,0,0,1,1.92,5.7v10.83h-3.78V271.58a5.77,5.77,0,0,0-1-3.64,3.61,3.61,0,0,0-3-1.3,4,4,0,0,0-3.31,1.51,6.24,6.24,0,0,0-1.22,4.06v9.48h-3.75V271.58a5.9,5.9,0,0,0-1-3.64,3.45,3.45,0,0,0-2.93-1.3,4.12,4.12,0,0,0-3.41,1.58,6.84,6.84,0,0,0-1.25,4.33v9.14h-3.78V263.58h3.78v2.51a6.54,6.54,0,0,1,5.7-3,5.76,5.76,0,0,1,5.57,3.09A7.1,7.1,0,0,1,358.47,263.11Z"/><path class="cls-1" d="M374.08,260a2.47,2.47,0,0,1-3.38,0,2.33,2.33,0,0,1,0-3.29,2.44,2.44,0,0,1,3.38,0,2.33,2.33,0,0,1,0,3.29Zm-3.61,21.73V263.58h3.75v18.11Z"/><path class="cls-1" d="M389.37,263.11a6.71,6.71,0,0,1,5.33,2.12,8.58,8.58,0,0,1,1.86,5.84v10.62h-3.75v-9.94a5.68,5.68,0,0,0-1.13-3.76,4.11,4.11,0,0,0-3.33-1.35,4.77,4.77,0,0,0-3.8,1.65,6.5,6.5,0,0,0-1.42,4.4v9h-3.78V263.58h3.78v2.69A7.23,7.23,0,0,1,389.37,263.11Z"/><path class="cls-1" d="M411.43,263.11a6.71,6.71,0,0,1,5.33,2.12,8.58,8.58,0,0,1,1.86,5.84v10.62h-3.74v-9.94a5.69,5.69,0,0,0-1.14-3.76,4.09,4.09,0,0,0-3.33-1.35,4.77,4.77,0,0,0-3.8,1.65,6.5,6.5,0,0,0-1.42,4.4v9h-3.78V255.41h3.78v10.86A7.23,7.23,0,0,1,411.43,263.11Z"/><path class="cls-1" d="M438.85,279.44a10,10,0,0,1-13.75,0A9.53,9.53,0,0,1,432,263.11a9.38,9.38,0,0,1,6.88,2.71,9.83,9.83,0,0,1,0,13.62ZM427.71,277a6.07,6.07,0,0,0,8.53,0,6.48,6.48,0,0,0,0-8.71,6.1,6.1,0,0,0-8.53,0,6.51,6.51,0,0,0,0,8.71Z"/><path class="cls-1" d="M464.83,263.11a8.52,8.52,0,0,1,6.44,2.71,10.22,10.22,0,0,1,0,13.62,8.53,8.53,0,0,1-6.44,2.72,7.44,7.44,0,0,1-6.48-3.22v10.3h-3.78V263.58h3.78v2.74A7.45,7.45,0,0,1,464.83,263.11Zm-.61,15.66a5.58,5.58,0,0,0,4.24-1.75,6.15,6.15,0,0,0,1.66-4.41,6.09,6.09,0,0,0-1.65-4.39,5.62,5.62,0,0,0-4.25-1.72,5.77,5.77,0,0,0-4.25,1.74,6.45,6.45,0,0,0,0,8.79A5.77,5.77,0,0,0,464.22,278.77Z"/><path class="cls-1" d="M485.63,282.16a8.51,8.51,0,0,1-6.43-2.72,10.29,10.29,0,0,1,0-13.61,8.47,8.47,0,0,1,6.43-2.72,7.5,7.5,0,0,1,6.52,3.21v-2.74h3.74v18.11h-3.74v-2.75A7.48,7.48,0,0,1,485.63,282.16Zm.61-3.39a5.74,5.74,0,0,0,4.25-1.75,6.43,6.43,0,0,0,0-8.78,5.77,5.77,0,0,0-4.25-1.74,5.61,5.61,0,0,0-4.24,1.72,6.05,6.05,0,0,0-1.66,4.39A6.15,6.15,0,0,0,482,277,5.57,5.57,0,0,0,486.24,278.77Z"/><path class="cls-1" d="M504.68,266.46a5.56,5.56,0,0,1,2.44-2.54,6.07,6.07,0,0,1,3.77-.55v3.52a5.08,5.08,0,0,0-4.6,1.16q-1.6,1.62-1.61,5.46v8.18H500.9V263.58h3.78Z"/><path class="cls-1" d="M521,282.16a8.51,8.51,0,0,1-6.43-2.72,10.29,10.29,0,0,1,0-13.61,8.47,8.47,0,0,1,6.43-2.72,7.49,7.49,0,0,1,6.52,3.21v-2.74h3.74v18.11h-3.74v-2.75A7.47,7.47,0,0,1,521,282.16Zm.61-3.39a5.73,5.73,0,0,0,4.25-1.75,6.43,6.43,0,0,0,0-8.78,5.76,5.76,0,0,0-4.25-1.74,5.63,5.63,0,0,0-4.24,1.72,6.05,6.05,0,0,0-1.66,4.39A6.15,6.15,0,0,0,517.4,277,5.58,5.58,0,0,0,521.64,278.77Z"/><path class="cls-1" d="M560.79,279.44a10,10,0,0,1-13.75,0,9.53,9.53,0,0,1,6.87-16.33,9.38,9.38,0,0,1,6.88,2.71,9.83,9.83,0,0,1,0,13.62ZM549.65,277a6.07,6.07,0,0,0,8.53,0,6.48,6.48,0,0,0,0-8.71,6.1,6.1,0,0,0-8.53,0,6.51,6.51,0,0,0,0,8.71Z"/><path class="cls-1" d="M583.4,282.16a9.46,9.46,0,0,1-5.46-1.61,7.37,7.37,0,0,1-3.09-3.91l3.43-1a4.81,4.81,0,0,0,1.93,2.44,5.64,5.64,0,0,0,3.29,1,4.82,4.82,0,0,0,2.74-.71,2.08,2.08,0,0,0,1-1.73,1.67,1.67,0,0,0-.54-1.31,4.78,4.78,0,0,0-1.8-.86L580.07,273q-4.32-1.29-4.32-4.64a4.55,4.55,0,0,1,2-3.71,7.84,7.84,0,0,1,4.91-1.54,9.37,9.37,0,0,1,4.93,1.26,6.92,6.92,0,0,1,2.91,3.31l-3.34,1a4.6,4.6,0,0,0-1.74-1.8,5.19,5.19,0,0,0-2.8-.73,3.73,3.73,0,0,0-2.28.67,1.89,1.89,0,0,0-.9,1.53c0,.79.65,1.4,1.95,1.81l4.82,1.39a9.19,9.19,0,0,1,3.49,1.74,4,4,0,0,1,1.27,3.2,4.91,4.91,0,0,1-2.14,4.06A8.74,8.74,0,0,1,583.4,282.16Z"/><path class="cls-1" d="M607.85,263.58h3.74v18.11h-3.74v-2.75a7.17,7.17,0,0,1-6.26,3.22,6.74,6.74,0,0,1-5.32-2.13,8.45,8.45,0,0,1-1.89-5.83V263.58h3.78v9.93a5.65,5.65,0,0,0,1.14,3.76,4.06,4.06,0,0,0,3.33,1.36,4.78,4.78,0,0,0,3.78-1.65,6.48,6.48,0,0,0,1.44-4.4Z"/><path class="cls-1" d="M625,282.16a9.14,9.14,0,0,1-6.8-2.74,9.93,9.93,0,0,1,0-13.6,9.13,9.13,0,0,1,6.78-2.71,9.25,9.25,0,0,1,5.71,1.74,7.33,7.33,0,0,1,2.9,4l-3.5,1a4.53,4.53,0,0,0-1.8-2.34,5.86,5.86,0,0,0-7.47.77,6.61,6.61,0,0,0,0,8.68,5.4,5.4,0,0,0,4.2,1.82,5.74,5.74,0,0,0,3.27-.95,4.12,4.12,0,0,0,1.79-2.29l3.5,1a7.28,7.28,0,0,1-2.87,3.93A9.21,9.21,0,0,1,625,282.16Z"/><path class="cls-1" d="M646,282.16a9.55,9.55,0,0,1-7-2.63,9.22,9.22,0,0,1-2.68-6.88,9.54,9.54,0,0,1,2.59-6.82,9.87,9.87,0,0,1,13.49-.11,9.2,9.2,0,0,1,2.47,6.56,9.34,9.34,0,0,1-.13,1.51H640.05a5.28,5.28,0,0,0,1.76,3.71,6.14,6.14,0,0,0,4.25,1.41q3.75,0,5.15-2.92l3.45,1a8.84,8.84,0,0,1-3.2,3.64A9.51,9.51,0,0,1,646,282.16Zm-5.94-10.88,11.13,0a5.2,5.2,0,0,0-1.64-3.52,5.69,5.69,0,0,0-9.49,3.56Z"/><path class="cls-1" d="M665.64,282.16a9.45,9.45,0,0,1-5.45-1.61,7.37,7.37,0,0,1-3.09-3.91l3.43-1a4.84,4.84,0,0,0,1.92,2.44,5.7,5.7,0,0,0,3.3,1,4.77,4.77,0,0,0,2.73-.71,2.07,2.07,0,0,0,1-1.73,1.64,1.64,0,0,0-.55-1.31,4.72,4.72,0,0,0-1.79-.86L662.32,273q-4.32-1.29-4.32-4.64a4.55,4.55,0,0,1,2-3.71,7.83,7.83,0,0,1,4.9-1.54,9.32,9.32,0,0,1,4.93,1.26,6.87,6.87,0,0,1,2.91,3.31l-3.34,1a4.57,4.57,0,0,0-1.73-1.8,5.19,5.19,0,0,0-2.8-.73,3.71,3.71,0,0,0-2.28.67,1.89,1.89,0,0,0-.9,1.53c0,.79.65,1.4,1.95,1.81l4.81,1.39a9.17,9.17,0,0,1,3.5,1.74,4,4,0,0,1,1.27,3.2,4.92,4.92,0,0,1-2.15,4.06A8.72,8.72,0,0,1,665.64,282.16Z"/><path class="cls-1" d="M683.82,282.16a9.51,9.51,0,0,1-5.46-1.61,7.4,7.4,0,0,1-3.08-3.91l3.43-1a4.79,4.79,0,0,0,1.92,2.44,5.65,5.65,0,0,0,3.3,1,4.81,4.81,0,0,0,2.73-.71,2.07,2.07,0,0,0,1.05-1.73,1.68,1.68,0,0,0-.55-1.31,4.72,4.72,0,0,0-1.79-.86L680.5,273c-2.88-.86-4.33-2.41-4.33-4.64a4.57,4.57,0,0,1,2-3.71,7.81,7.81,0,0,1,4.9-1.54,9.34,9.34,0,0,1,4.93,1.26,6.87,6.87,0,0,1,2.91,3.31l-3.34,1a4.57,4.57,0,0,0-1.73-1.8,5.23,5.23,0,0,0-2.81-.73,3.68,3.68,0,0,0-2.27.67,1.87,1.87,0,0,0-.91,1.53c0,.79.65,1.4,2,1.81l4.82,1.39a9.24,9.24,0,0,1,3.5,1.74,4,4,0,0,1,1.26,3.2,4.91,4.91,0,0,1-2.14,4.06A8.74,8.74,0,0,1,683.82,282.16Z"/><path class="cls-1" d="M710.56,279.44a10.06,10.06,0,0,1-13.76,0,9.53,9.53,0,0,1,6.87-16.33,9.4,9.4,0,0,1,6.89,2.71,9.83,9.83,0,0,1,0,13.62ZM699.41,277a6.08,6.08,0,0,0,8.54,0,6.48,6.48,0,0,0,0-8.71,6.11,6.11,0,0,0-8.54,0,6.51,6.51,0,0,0,0,8.71Z"/><path class="cls-1" d="M28.28,306.31A8.53,8.53,0,0,1,34.72,309a10.25,10.25,0,0,1,0,13.62,8.54,8.54,0,0,1-6.44,2.72,7.45,7.45,0,0,1-6.49-3.22v10.3H18V306.78h3.78v2.74A7.47,7.47,0,0,1,28.28,306.31ZM27.66,322a5.59,5.59,0,0,0,4.25-1.75,6.15,6.15,0,0,0,1.66-4.41,6.09,6.09,0,0,0-1.65-4.39,5.63,5.63,0,0,0-4.26-1.72,5.75,5.75,0,0,0-4.24,1.74,6.45,6.45,0,0,0,0,8.79A5.75,5.75,0,0,0,27.66,322Z"/><path class="cls-1" d="M45,309.66a5.56,5.56,0,0,1,2.44-2.54,6.13,6.13,0,0,1,3.77-.55v3.52a5.08,5.08,0,0,0-4.6,1.16Q45,312.87,45,316.71v8.18H41.18V306.78H45Z"/><path class="cls-1" d="M68.8,322.64a10.06,10.06,0,0,1-13.76,0,9.53,9.53,0,0,1,6.88-16.33A9.39,9.39,0,0,1,68.8,309a9.83,9.83,0,0,1,0,13.62Zm-11.15-2.46a6.08,6.08,0,0,0,8.54,0,6.48,6.48,0,0,0,0-8.71,6.11,6.11,0,0,0-8.54,0,6.51,6.51,0,0,0,0,8.71Z"/><path class="cls-1" d="M92,306.78v18.11H88.29V310.12H80.56v14.77H76.78V310.12H73.17v-3.34h3.61v-2a6.58,6.58,0,0,1,1.75-4.88,7,7,0,0,1,5.12-1.75,10.29,10.29,0,0,1,6,1.78L88.77,303A8.44,8.44,0,0,0,84,301.42a3.49,3.49,0,0,0-2.56.9,3.37,3.37,0,0,0-.9,2.51v1.95Z"/><path class="cls-1" d="M103.57,325.36a9.46,9.46,0,0,1-5.46-1.61A7.37,7.37,0,0,1,95,319.84l3.43-1a4.81,4.81,0,0,0,1.93,2.44,5.64,5.64,0,0,0,3.29,1,4.82,4.82,0,0,0,2.74-.71,2.08,2.08,0,0,0,1-1.73,1.67,1.67,0,0,0-.54-1.31,4.78,4.78,0,0,0-1.8-.86l-4.87-1.44q-4.32-1.29-4.32-4.64a4.55,4.55,0,0,1,2-3.71,7.84,7.84,0,0,1,4.91-1.54,9.37,9.37,0,0,1,4.93,1.26,6.92,6.92,0,0,1,2.91,3.31l-3.34,1a4.6,4.6,0,0,0-1.74-1.8,5.19,5.19,0,0,0-2.8-.73,3.73,3.73,0,0,0-2.28.67,1.89,1.89,0,0,0-.9,1.53c0,.79.65,1.4,2,1.81l4.82,1.39a9.05,9.05,0,0,1,3.49,1.75,4,4,0,0,1,1.27,3.19,4.91,4.91,0,0,1-2.14,4.06A8.74,8.74,0,0,1,103.57,325.36Z"/><path class="cls-1" d="M121.74,325.36a9.51,9.51,0,0,1-5.46-1.61,7.4,7.4,0,0,1-3.08-3.91l3.43-1a4.84,4.84,0,0,0,1.92,2.44,5.68,5.68,0,0,0,3.3,1,4.81,4.81,0,0,0,2.73-.71,2.07,2.07,0,0,0,1-1.73,1.64,1.64,0,0,0-.55-1.31,4.72,4.72,0,0,0-1.79-.86l-4.87-1.44q-4.32-1.29-4.32-4.64a4.55,4.55,0,0,1,2-3.71,7.81,7.81,0,0,1,4.9-1.54,9.34,9.34,0,0,1,4.93,1.26,6.87,6.87,0,0,1,2.91,3.31l-3.34,1a4.57,4.57,0,0,0-1.73-1.8,5.22,5.22,0,0,0-2.8-.73,3.69,3.69,0,0,0-2.28.67,1.9,1.9,0,0,0-.91,1.53c0,.79.66,1.4,2,1.81l4.81,1.39a9,9,0,0,1,3.5,1.75,4,4,0,0,1,1.27,3.19,4.92,4.92,0,0,1-2.15,4.06A8.72,8.72,0,0,1,121.74,325.36Z"/><path class="cls-1" d="M137.05,303.16a2.45,2.45,0,0,1-3.37,0,2.31,2.31,0,0,1,0-3.29,2.43,2.43,0,0,1,3.37,0,2.31,2.31,0,0,1,0,3.29Zm-3.6,21.73V306.78h3.74v18.11Z"/><path class="cls-1" d="M157.71,322.64a10.06,10.06,0,0,1-13.76,0,9.53,9.53,0,0,1,6.88-16.33,9.39,9.39,0,0,1,6.88,2.71,9.83,9.83,0,0,1,0,13.62Zm-11.15-2.46a6.08,6.08,0,0,0,8.54,0,6.48,6.48,0,0,0,0-8.71,6.11,6.11,0,0,0-8.54,0,6.51,6.51,0,0,0,0,8.71Z"/><path class="cls-1" d="M174.34,306.31a6.72,6.72,0,0,1,5.32,2.12,8.59,8.59,0,0,1,1.87,5.84v10.62h-3.75V315a5.74,5.74,0,0,0-1.13-3.76,4.11,4.11,0,0,0-3.33-1.35,4.76,4.76,0,0,0-3.8,1.65,6.5,6.5,0,0,0-1.42,4.4v9h-3.78V306.78h3.78v2.69A7.23,7.23,0,0,1,174.34,306.31Z"/><path class="cls-1" d="M194.27,325.36a8.51,8.51,0,0,1-6.43-2.72,10.29,10.29,0,0,1,0-13.61,8.47,8.47,0,0,1,6.43-2.72,7.49,7.49,0,0,1,6.52,3.21v-2.74h3.75v18.11h-3.75v-2.75A7.47,7.47,0,0,1,194.27,325.36Zm.61-3.39a5.73,5.73,0,0,0,4.25-1.75,6.43,6.43,0,0,0,0-8.78,5.76,5.76,0,0,0-4.25-1.74,5.63,5.63,0,0,0-4.24,1.72,6.05,6.05,0,0,0-1.66,4.39,6.15,6.15,0,0,0,1.66,4.41A5.58,5.58,0,0,0,194.88,322Z"/><path class="cls-1" d="M209.54,324.89V298.61h3.78v26.28Z"/><path class="cls-1" d="M221.88,324.43a2.58,2.58,0,0,1-3.53,0,2.34,2.34,0,0,1-.72-1.74,2.3,2.3,0,0,1,.72-1.71,2.58,2.58,0,0,1,3.53,0,2.28,2.28,0,0,1,.73,1.71A2.31,2.31,0,0,1,221.88,324.43Z"/><path class="cls-1" d="M255.72,299.68v3.53h-8.86v21.68h-3.92V303.21h-8.89v-3.53Z"/><path class="cls-1" d="M259.84,309.66a5.59,5.59,0,0,1,2.43-2.54,6.14,6.14,0,0,1,3.77-.55v3.52a5.1,5.1,0,0,0-4.6,1.16q-1.6,1.62-1.6,5.46v8.18h-3.78V306.78h3.78Z"/><path class="cls-1" d="M276.18,325.36a8.5,8.5,0,0,1-6.42-2.72,10.26,10.26,0,0,1,0-13.61,8.46,8.46,0,0,1,6.42-2.72,7.52,7.52,0,0,1,6.53,3.21v-2.74h3.74v18.11h-3.74v-2.75A7.5,7.5,0,0,1,276.18,325.36Zm.62-3.39a5.72,5.72,0,0,0,4.24-1.75,6.41,6.41,0,0,0,0-8.78,5.75,5.75,0,0,0-4.24-1.74,5.65,5.65,0,0,0-4.25,1.72,6.1,6.1,0,0,0-1.66,4.39,6.19,6.19,0,0,0,1.66,4.41A5.6,5.6,0,0,0,276.8,322Z"/><path class="cls-1" d="M301.48,306.31a6.71,6.71,0,0,1,5.32,2.12,8.54,8.54,0,0,1,1.87,5.84v10.62h-3.75V315a5.68,5.68,0,0,0-1.13-3.76,4.11,4.11,0,0,0-3.33-1.35,4.77,4.77,0,0,0-3.8,1.65,6.5,6.5,0,0,0-1.42,4.4v9h-3.78V306.78h3.78v2.69A7.23,7.23,0,0,1,301.48,306.31Z"/><path class="cls-1" d="M320.41,325.36a9.51,9.51,0,0,1-5.46-1.61,7.4,7.4,0,0,1-3.08-3.91l3.42-1a4.86,4.86,0,0,0,1.93,2.44,5.65,5.65,0,0,0,3.3,1,4.81,4.81,0,0,0,2.73-.71,2.06,2.06,0,0,0,1-1.73,1.67,1.67,0,0,0-.54-1.31,4.72,4.72,0,0,0-1.79-.86l-4.87-1.44c-2.88-.86-4.33-2.41-4.33-4.64a4.57,4.57,0,0,1,2-3.71,7.81,7.81,0,0,1,4.9-1.54,9.34,9.34,0,0,1,4.93,1.26,6.87,6.87,0,0,1,2.91,3.31l-3.34,1a4.57,4.57,0,0,0-1.73-1.8,5.23,5.23,0,0,0-2.81-.73,3.68,3.68,0,0,0-2.27.67,1.87,1.87,0,0,0-.91,1.53c0,.79.65,1.4,1.95,1.81l4.82,1.39a9.1,9.1,0,0,1,3.5,1.75,4,4,0,0,1,1.26,3.19,4.91,4.91,0,0,1-2.14,4.06A8.74,8.74,0,0,1,320.41,325.36Z"/><path class="cls-1" d="M337.2,304.83v1.95h6v3.34h-6v14.77h-3.78V310.12h-3.61v-3.34h3.61v-2a7.12,7.12,0,0,1,1.54-4.88,5.74,5.74,0,0,1,4.5-1.75,8.9,8.9,0,0,1,3.85.76l-.89,3.06a5.68,5.68,0,0,0-2.48-.53C338.11,301.41,337.2,302.54,337.2,304.83Z"/><path class="cls-1" d="M360.12,322.64a10.06,10.06,0,0,1-13.76,0,9.85,9.85,0,0,1,0-13.61,10.07,10.07,0,0,1,13.76,0,9.83,9.83,0,0,1,0,13.62ZM349,320.18a6.08,6.08,0,0,0,8.54,0,6.48,6.48,0,0,0,0-8.71,6.11,6.11,0,0,0-8.54,0,6.51,6.51,0,0,0,0,8.71Z"/><path class="cls-1" d="M370.51,309.66a5.59,5.59,0,0,1,2.43-2.54,6.14,6.14,0,0,1,3.77-.55v3.52a5.07,5.07,0,0,0-4.59,1.16c-1.08,1.08-1.61,2.9-1.61,5.46v8.18h-3.78V306.78h3.78Z"/><path class="cls-1" d="M401.43,306.31a6.75,6.75,0,0,1,5.16,2.05,8,8,0,0,1,1.92,5.7v10.83h-3.78V314.78a5.77,5.77,0,0,0-1-3.64,3.61,3.61,0,0,0-3-1.3,4,4,0,0,0-3.31,1.51,6.24,6.24,0,0,0-1.22,4.06v9.48h-3.75V314.78a5.9,5.9,0,0,0-1-3.64,3.45,3.45,0,0,0-2.93-1.3,4.12,4.12,0,0,0-3.41,1.58,6.84,6.84,0,0,0-1.25,4.33v9.14H380V306.78h3.77v2.51a6.55,6.55,0,0,1,5.7-3,5.76,5.76,0,0,1,5.57,3.09A7.1,7.1,0,0,1,401.43,306.31Z"/><path class="cls-1" d="M421.26,325.36a8.51,8.51,0,0,1-6.43-2.72,10.29,10.29,0,0,1,0-13.61,8.47,8.47,0,0,1,6.43-2.72,7.5,7.5,0,0,1,6.52,3.21v-2.74h3.74v18.11h-3.74v-2.75A7.48,7.48,0,0,1,421.26,325.36Zm.61-3.39a5.74,5.74,0,0,0,4.25-1.75,6.43,6.43,0,0,0,0-8.78,5.77,5.77,0,0,0-4.25-1.74,5.61,5.61,0,0,0-4.24,1.72,6.06,6.06,0,0,0-1.67,4.39,6.16,6.16,0,0,0,1.67,4.41A5.57,5.57,0,0,0,421.87,322Z"/><path class="cls-1" d="M444.93,322a5.69,5.69,0,0,0,3.27-1,4.19,4.19,0,0,0,1.8-2.29l3.49,1a7.09,7.09,0,0,1-2.36,3.53,8.68,8.68,0,0,1-4.61,2l-.51,1.7a3.26,3.26,0,0,1,2.11.92,2.6,2.6,0,0,1,.8,1.88,2.75,2.75,0,0,1-1.13,2.33,4.72,4.72,0,0,1-2.91.85,6.05,6.05,0,0,1-3.73-1.2l.5-1.75a4.33,4.33,0,0,0,3,.84c1-.11,1.53-.52,1.53-1.25,0-.57-.38-1-1.12-1.2a4.14,4.14,0,0,0-2.29-.05l1-3a9.12,9.12,0,0,1-6-3.08A10,10,0,0,1,438.1,309a10,10,0,0,1,12.49-1,7.28,7.28,0,0,1,2.9,4L450,313a4.5,4.5,0,0,0-1.81-2.34,5.41,5.41,0,0,0-3.26-1,5.47,5.47,0,0,0-4.21,1.77,6.59,6.59,0,0,0,0,8.68A5.41,5.41,0,0,0,444.93,322Z"/><path class="cls-1" d="M465.25,325.36a8.5,8.5,0,0,1-6.42-2.72,10.26,10.26,0,0,1,0-13.61,8.46,8.46,0,0,1,6.42-2.72,7.52,7.52,0,0,1,6.53,3.21v-2.74h3.74v18.11h-3.74v-2.75A7.5,7.5,0,0,1,465.25,325.36Zm.62-3.39a5.72,5.72,0,0,0,4.24-1.75,6.41,6.41,0,0,0,0-8.78,5.75,5.75,0,0,0-4.24-1.74,5.65,5.65,0,0,0-4.25,1.72,6.1,6.1,0,0,0-1.66,4.39,6.19,6.19,0,0,0,1.66,4.41A5.6,5.6,0,0,0,465.87,322Zm2.69-17.86a5.26,5.26,0,0,1-2.66-1,5.42,5.42,0,0,0-2-1c-.6,0-.9.63-.9,1.87h-2.64c0-3.12,1.08-4.68,3.22-4.68a5.17,5.17,0,0,1,2.66,1,5.41,5.41,0,0,0,2.05,1c.6,0,.9-.63.9-1.88h2.6Q471.73,304.11,468.56,304.11Z"/><path class="cls-1" d="M495.91,322.64a10,10,0,0,1-13.75,0A9.53,9.53,0,0,1,489,306.31a9.38,9.38,0,0,1,6.88,2.71,9.83,9.83,0,0,1,0,13.62Zm-11.14-2.46a6.07,6.07,0,0,0,8.53,0,6.48,6.48,0,0,0,0-8.71,6.1,6.1,0,0,0-8.53,0,6.51,6.51,0,0,0,0,8.71Z"/><path class="cls-1" d="M526,298.61h3.74v26.28H526v-2.75a7.53,7.53,0,0,1-6.52,3.22,8.51,8.51,0,0,1-6.43-2.72,10.29,10.29,0,0,1,0-13.61,8.47,8.47,0,0,1,6.43-2.72,7.5,7.5,0,0,1,6.52,3.21ZM520.13,322a5.74,5.74,0,0,0,4.25-1.75,6.43,6.43,0,0,0,0-8.78,5.77,5.77,0,0,0-4.25-1.74,5.63,5.63,0,0,0-4.24,1.72,6.05,6.05,0,0,0-1.66,4.39,6.15,6.15,0,0,0,1.66,4.41A5.58,5.58,0,0,0,520.13,322Z"/><path class="cls-1" d="M543.34,325.36a9.53,9.53,0,0,1-7-2.63,9.18,9.18,0,0,1-2.68-6.88,9.5,9.5,0,0,1,2.59-6.82,9.86,9.86,0,0,1,13.48-.11,9.16,9.16,0,0,1,2.47,6.56,10.52,10.52,0,0,1-.12,1.51H537.39a5.3,5.3,0,0,0,1.76,3.71,6.19,6.19,0,0,0,4.26,1.41q3.74,0,5.15-2.92l3.44,1a8.77,8.77,0,0,1-3.2,3.64A9.5,9.5,0,0,1,543.34,325.36Zm-6-10.88,11.13,0a5.23,5.23,0,0,0-1.63-3.52,5.69,5.69,0,0,0-9.5,3.56Z"/><path class="cls-1" d="M578.42,306.78h4.1l-7.67,18.11h-4.2L563,306.78h4.11l5.65,14Z"/><path class="cls-1" d="M589,303.16a2.45,2.45,0,0,1-3.37,0,2.31,2.31,0,0,1,0-3.29,2.43,2.43,0,0,1,3.37,0,2.31,2.31,0,0,1,0,3.29Zm-3.6,21.73V306.78h3.74v18.11Z"/><path class="cls-1" d="M608.64,298.61h3.74v26.28h-3.74v-2.75a7.53,7.53,0,0,1-6.52,3.22,8.51,8.51,0,0,1-6.43-2.72,10.29,10.29,0,0,1,0-13.61,8.47,8.47,0,0,1,6.43-2.72,7.5,7.5,0,0,1,6.52,3.21ZM602.73,322a5.74,5.74,0,0,0,4.25-1.75,6.43,6.43,0,0,0,0-8.78,5.77,5.77,0,0,0-4.25-1.74,5.61,5.61,0,0,0-4.24,1.72,6.05,6.05,0,0,0-1.66,4.39,6.15,6.15,0,0,0,1.66,4.41A5.57,5.57,0,0,0,602.73,322Z"/><path class="cls-1" d="M625.29,325.36a8.51,8.51,0,0,1-6.43-2.72,10.29,10.29,0,0,1,0-13.61,8.47,8.47,0,0,1,6.43-2.72,7.51,7.51,0,0,1,6.52,3.21v-2.74h3.74v18.11h-3.74v-2.75A7.5,7.5,0,0,1,625.29,325.36Zm.61-3.39a5.74,5.74,0,0,0,4.25-1.75,6.43,6.43,0,0,0,0-8.78,5.77,5.77,0,0,0-4.25-1.74,5.61,5.61,0,0,0-4.24,1.72,6.06,6.06,0,0,0-1.67,4.39,6.16,6.16,0,0,0,1.67,4.41A5.57,5.57,0,0,0,625.9,322Z"/><path class="cls-1" d="M647.45,325.36a9.51,9.51,0,0,1-5.46-1.61,7.4,7.4,0,0,1-3.08-3.91l3.43-1a4.84,4.84,0,0,0,1.92,2.44,5.65,5.65,0,0,0,3.3,1,4.81,4.81,0,0,0,2.73-.71,2.07,2.07,0,0,0,1.05-1.73,1.68,1.68,0,0,0-.55-1.31,4.72,4.72,0,0,0-1.79-.86l-4.87-1.44c-2.88-.86-4.33-2.41-4.33-4.64a4.57,4.57,0,0,1,2-3.71,7.81,7.81,0,0,1,4.9-1.54,9.34,9.34,0,0,1,4.93,1.26,6.87,6.87,0,0,1,2.91,3.31l-3.34,1a4.57,4.57,0,0,0-1.73-1.8,5.22,5.22,0,0,0-2.8-.73,3.69,3.69,0,0,0-2.28.67,1.9,1.9,0,0,0-.91,1.53c0,.79.65,1.4,2,1.81l4.82,1.39a9,9,0,0,1,3.5,1.75,4,4,0,0,1,1.26,3.19,4.91,4.91,0,0,1-2.14,4.06A8.74,8.74,0,0,1,647.45,325.36Z"/><path class="cls-1" d="M676.74,325.36a9.53,9.53,0,0,1-7-2.63,9.18,9.18,0,0,1-2.68-6.88,9.5,9.5,0,0,1,2.59-6.82,9.86,9.86,0,0,1,13.48-.11,9.16,9.16,0,0,1,2.47,6.56,10.52,10.52,0,0,1-.12,1.51H670.79a5.3,5.3,0,0,0,1.76,3.71,6.19,6.19,0,0,0,4.26,1.41q3.74,0,5.15-2.92l3.44,1a8.77,8.77,0,0,1-3.2,3.64A9.5,9.5,0,0,1,676.74,325.36Zm-6-10.88,11.13,0a5.23,5.23,0,0,0-1.63-3.52,5.47,5.47,0,0,0-3.89-1.36,5.47,5.47,0,0,0-5.61,4.92Zm3.68-10.55,2.79-5h4.22l-3.67,5Z"/><path class="cls-1" d="M714,322.64a10,10,0,0,1-13.75,0,9.53,9.53,0,0,1,6.87-16.33A9.36,9.36,0,0,1,714,309a9.81,9.81,0,0,1,0,13.62Zm-11.14-2.46a6.07,6.07,0,0,0,8.53,0,6.48,6.48,0,0,0,0-8.71,6.1,6.1,0,0,0-8.53,0,6.51,6.51,0,0,0,0,8.71Z"/><path class="cls-1" d="M739.72,306.31a6.71,6.71,0,0,1,5.32,2.12,8.54,8.54,0,0,1,1.87,5.84v10.62h-3.75V315a5.68,5.68,0,0,0-1.13-3.76,4.11,4.11,0,0,0-3.33-1.35,4.77,4.77,0,0,0-3.8,1.65,6.5,6.5,0,0,0-1.42,4.4v9H729.7V306.78h3.78v2.69A7.23,7.23,0,0,1,739.72,306.31Z"/><path class="cls-1" d="M767.14,322.64a10,10,0,0,1-13.75,0,9.53,9.53,0,0,1,6.87-16.33,9.38,9.38,0,0,1,6.88,2.71,9.83,9.83,0,0,1,0,13.62ZM756,320.18a6.07,6.07,0,0,0,8.53,0,6.48,6.48,0,0,0,0-8.71,6.1,6.1,0,0,0-8.53,0,6.51,6.51,0,0,0,0,8.71Z"/><path class="cls-1" d="M780.64,325.36a9.51,9.51,0,0,1-5.46-1.61,7.4,7.4,0,0,1-3.08-3.91l3.43-1a4.84,4.84,0,0,0,1.92,2.44,5.65,5.65,0,0,0,3.3,1,4.81,4.81,0,0,0,2.73-.71,2.07,2.07,0,0,0,1-1.73,1.68,1.68,0,0,0-.55-1.31,4.72,4.72,0,0,0-1.79-.86l-4.87-1.44c-2.88-.86-4.33-2.41-4.33-4.64a4.57,4.57,0,0,1,2-3.71,7.81,7.81,0,0,1,4.9-1.54,9.34,9.34,0,0,1,4.93,1.26,6.87,6.87,0,0,1,2.91,3.31l-3.34,1a4.57,4.57,0,0,0-1.73-1.8,5.23,5.23,0,0,0-2.81-.73,3.68,3.68,0,0,0-2.27.67,1.87,1.87,0,0,0-.91,1.53c0,.79.65,1.4,1.95,1.81l4.82,1.39a9,9,0,0,1,3.5,1.75,4,4,0,0,1,1.26,3.19,4.91,4.91,0,0,1-2.14,4.06A8.74,8.74,0,0,1,780.64,325.36Z"/><path class="cls-1" d="M798.82,325.36a9.46,9.46,0,0,1-5.46-1.61,7.37,7.37,0,0,1-3.09-3.91l3.43-1a4.81,4.81,0,0,0,1.93,2.44,5.64,5.64,0,0,0,3.29,1,4.82,4.82,0,0,0,2.74-.71,2.08,2.08,0,0,0,1-1.73,1.67,1.67,0,0,0-.54-1.31,4.78,4.78,0,0,0-1.8-.86l-4.87-1.44q-4.32-1.29-4.32-4.64a4.55,4.55,0,0,1,2-3.71,7.84,7.84,0,0,1,4.91-1.54,9.37,9.37,0,0,1,4.93,1.26,6.92,6.92,0,0,1,2.91,3.31l-3.34,1a4.6,4.6,0,0,0-1.74-1.8,5.19,5.19,0,0,0-2.8-.73,3.73,3.73,0,0,0-2.28.67,1.89,1.89,0,0,0-.9,1.53c0,.79.65,1.4,2,1.81l4.82,1.39a9.05,9.05,0,0,1,3.49,1.75,4,4,0,0,1,1.27,3.19,4.91,4.91,0,0,1-2.14,4.06A8.74,8.74,0,0,1,798.82,325.36Z"/><path class="cls-1" d="M825.55,322.64a10,10,0,0,1-13.75,0,9.53,9.53,0,0,1,6.87-16.33,9.38,9.38,0,0,1,6.88,2.71,9.83,9.83,0,0,1,0,13.62Zm-11.14-2.46a6.07,6.07,0,0,0,8.53,0,6.48,6.48,0,0,0,0-8.71,6.1,6.1,0,0,0-8.53,0,6.51,6.51,0,0,0,0,8.71Z"/><path class="cls-1" d="M39.41,349.51a6.75,6.75,0,0,1,5.16,2.05,8,8,0,0,1,1.92,5.7v10.83H42.71V358a5.77,5.77,0,0,0-1-3.64,3.61,3.61,0,0,0-3-1.3,4,4,0,0,0-3.31,1.51,6.24,6.24,0,0,0-1.22,4.06v9.48H30.37V358a5.9,5.9,0,0,0-1-3.64,3.45,3.45,0,0,0-2.93-1.3A4.12,4.12,0,0,0,23,354.62,6.84,6.84,0,0,0,21.79,359v9.14H18V350h3.78v2.51a6.54,6.54,0,0,1,5.7-3,5.76,5.76,0,0,1,5.57,3.09A7.1,7.1,0,0,1,39.41,349.51Z"/><path class="cls-1" d="M59.23,368.56a8.5,8.5,0,0,1-6.42-2.72,10.26,10.26,0,0,1,0-13.61,8.46,8.46,0,0,1,6.42-2.72,7.52,7.52,0,0,1,6.53,3.21V350H69.5v18.11H65.76v-2.75A7.5,7.5,0,0,1,59.23,368.56Zm.62-3.39a5.7,5.7,0,0,0,4.24-1.75,6.41,6.41,0,0,0,0-8.78,5.73,5.73,0,0,0-4.24-1.74,5.65,5.65,0,0,0-4.25,1.72A6.1,6.1,0,0,0,53.94,359a6.19,6.19,0,0,0,1.66,4.41A5.6,5.6,0,0,0,59.85,365.17Z"/><path class="cls-1" d="M78.18,346.36a2.45,2.45,0,0,1-3.37,0,2.31,2.31,0,0,1,0-3.29,2.43,2.43,0,0,1,3.37,0,2.31,2.31,0,0,1,0,3.29Zm-3.6,21.73V350h3.74v18.11Z"/><path class="cls-1" d="M98.84,365.84a10.06,10.06,0,0,1-13.76,0,9.85,9.85,0,0,1,0-13.61,10.07,10.07,0,0,1,13.76,0,9.83,9.83,0,0,1,0,13.62Zm-11.15-2.46a6.08,6.08,0,0,0,8.54,0,6.48,6.48,0,0,0,0-8.71,6.11,6.11,0,0,0-8.54,0,6.51,6.51,0,0,0,0,8.71Z"/><path class="cls-1" d="M109.23,352.86a5.59,5.59,0,0,1,2.43-2.54,6.14,6.14,0,0,1,3.77-.55v3.52a5.1,5.1,0,0,0-4.6,1.16q-1.6,1.62-1.6,5.46v8.18h-3.78V350h3.78Z"/><path class="cls-1" d="M141.08,350h4.09l-7.66,18.11h-4.2L125.63,350h4.11l5.64,14Z"/><path class="cls-1" d="M155.18,368.56a8.51,8.51,0,0,1-6.43-2.72,10.29,10.29,0,0,1,0-13.61,8.47,8.47,0,0,1,6.43-2.72,7.5,7.5,0,0,1,6.52,3.21V350h3.74v18.11H161.7v-2.75A7.48,7.48,0,0,1,155.18,368.56Zm.61-3.39a5.74,5.74,0,0,0,4.25-1.75,6.43,6.43,0,0,0,0-8.78,5.77,5.77,0,0,0-4.25-1.74,5.61,5.61,0,0,0-4.24,1.72,6.06,6.06,0,0,0-1.67,4.39,6.16,6.16,0,0,0,1.67,4.41A5.57,5.57,0,0,0,155.79,365.17Z"/><path class="cls-1" d="M170.45,368.09V341.81h3.78v26.28Z"/><path class="cls-1" d="M194.64,365.84a10.06,10.06,0,0,1-13.76,0,9.85,9.85,0,0,1,0-13.61,10.07,10.07,0,0,1,13.76,0,9.83,9.83,0,0,1,0,13.62Zm-11.15-2.46a6.08,6.08,0,0,0,8.54,0,6.48,6.48,0,0,0,0-8.71,6.11,6.11,0,0,0-8.54,0,6.51,6.51,0,0,0,0,8.71Z"/><path class="cls-1" d="M205,352.86a5.59,5.59,0,0,1,2.43-2.54,6.14,6.14,0,0,1,3.77-.55v3.52a5.07,5.07,0,0,0-4.59,1.16c-1.08,1.08-1.61,2.9-1.61,5.46v8.18h-3.78V350H205Z"/><path class="cls-1" d="M232.2,368.56a9.51,9.51,0,0,1-7-2.63,9.22,9.22,0,0,1-2.68-6.88,9.51,9.51,0,0,1,2.6-6.82,9.86,9.86,0,0,1,13.48-.11,9.2,9.2,0,0,1,2.47,6.56,9.34,9.34,0,0,1-.13,1.51H226.26A5.27,5.27,0,0,0,228,363.9a6.14,6.14,0,0,0,4.25,1.41q3.75,0,5.15-2.92l3.45,1a8.84,8.84,0,0,1-3.2,3.64A9.51,9.51,0,0,1,232.2,368.56Zm-5.94-10.88,11.13,0a5.2,5.2,0,0,0-1.64-3.53,5.69,5.69,0,0,0-9.49,3.56Z"/><path class="cls-1" d="M257.74,346.36a2.45,2.45,0,0,1-3.37,0,2.31,2.31,0,0,1,0-3.29,2.43,2.43,0,0,1,3.37,0,2.31,2.31,0,0,1,0,3.29Zm-3.6,21.73V350h3.74v18.11Z"/><path class="cls-1" d="M269.91,368.56a9.51,9.51,0,0,1-5.46-1.61,7.35,7.35,0,0,1-3.08-3.91l3.42-1a4.81,4.81,0,0,0,1.93,2.44,5.64,5.64,0,0,0,3.29,1,4.82,4.82,0,0,0,2.74-.71,2.08,2.08,0,0,0,1-1.73,1.67,1.67,0,0,0-.54-1.31,4.8,4.8,0,0,0-1.79-.86l-4.87-1.44q-4.33-1.29-4.33-4.64a4.58,4.58,0,0,1,2-3.71,7.86,7.86,0,0,1,4.91-1.54,9.34,9.34,0,0,1,4.93,1.26,6.87,6.87,0,0,1,2.91,3.31l-3.34,1a4.64,4.64,0,0,0-1.73-1.8,5.23,5.23,0,0,0-2.81-.73,3.68,3.68,0,0,0-2.27.67,1.87,1.87,0,0,0-.91,1.53c0,.79.65,1.4,1.95,1.81l4.82,1.39a9.1,9.1,0,0,1,3.5,1.75,4,4,0,0,1,1.26,3.19,4.94,4.94,0,0,1-2.14,4.07A8.8,8.8,0,0,1,269.91,368.56Z"/><path class="cls-1" d="M291.35,364.41l.94,3.1a10.45,10.45,0,0,1-4,.86,5.31,5.31,0,0,1-4.25-1.64,6.68,6.68,0,0,1-1.41-4.51v-8.9h-3.3V350h3.3v-6.05h3.75V350h5.76v3.34h-5.76v8.9c0,1.85.87,2.77,2.6,2.77A5.31,5.31,0,0,0,291.35,364.41Z"/><path class="cls-1" d="M310.36,365.84a10.06,10.06,0,0,1-13.76,0,9.53,9.53,0,0,1,6.87-16.33,9.4,9.4,0,0,1,6.89,2.71,9.83,9.83,0,0,1,0,13.62Zm-11.15-2.46a6.08,6.08,0,0,0,8.54,0,6.51,6.51,0,0,0,0-8.71,6.11,6.11,0,0,0-8.54,0,6.51,6.51,0,0,0,0,8.71Z"/><path class="cls-1" d="M315.35,373l1.6-9.34H321l-2.6,9.34Z"/><path class="cls-1" d="M343,368.56a9.51,9.51,0,0,1-7-2.63,9.22,9.22,0,0,1-2.68-6.88,9.51,9.51,0,0,1,2.6-6.82,9.86,9.86,0,0,1,13.48-.11,9.2,9.2,0,0,1,2.47,6.56,9.34,9.34,0,0,1-.13,1.51H337a5.27,5.27,0,0,0,1.76,3.71,6.14,6.14,0,0,0,4.25,1.41q3.75,0,5.15-2.92l3.45,1a8.84,8.84,0,0,1-3.2,3.64A9.51,9.51,0,0,1,343,368.56ZM337,357.68l11.13,0a5.2,5.2,0,0,0-1.64-3.53,5.69,5.69,0,0,0-9.49,3.56Zm3.68-10.55,2.79-5h4.22l-3.67,5Z"/><path class="cls-1" d="M368.5,346.36a2.45,2.45,0,0,1-3.37,0,2.31,2.31,0,0,1,0-3.29,2.43,2.43,0,0,1,3.37,0,2.31,2.31,0,0,1,0,3.29Zm-3.6,21.73V350h3.74v18.11Z"/><path class="cls-1" d="M395.17,349.51a6.72,6.72,0,0,1,5.16,2.05,8,8,0,0,1,1.92,5.7v10.83h-3.78V358a5.84,5.84,0,0,0-1-3.64,3.63,3.63,0,0,0-3-1.3,4,4,0,0,0-3.31,1.51,6.3,6.3,0,0,0-1.22,4.06v9.48h-3.75V358a5.9,5.9,0,0,0-1-3.64,3.45,3.45,0,0,0-2.93-1.3,4.13,4.13,0,0,0-3.41,1.58,6.84,6.84,0,0,0-1.24,4.33v9.14h-3.78V350h3.78v2.51a6.53,6.53,0,0,1,5.69-3,5.75,5.75,0,0,1,5.57,3.09A7.11,7.11,0,0,1,395.17,349.51Z"/><path class="cls-1" d="M415.65,368.56a9.51,9.51,0,0,1-7-2.63,9.18,9.18,0,0,1-2.68-6.88,9.5,9.5,0,0,1,2.59-6.82,9.86,9.86,0,0,1,13.48-.11,9.16,9.16,0,0,1,2.47,6.56,10.52,10.52,0,0,1-.12,1.51H409.71a5.26,5.26,0,0,0,1.75,3.71,6.19,6.19,0,0,0,4.26,1.41q3.73,0,5.15-2.92l3.44,1a8.81,8.81,0,0,1-3.19,3.64A9.53,9.53,0,0,1,415.65,368.56Zm-5.94-10.88,11.12,0a5.19,5.19,0,0,0-1.63-3.53,5.69,5.69,0,0,0-9.49,3.56Z"/><path class="cls-1" d="M438.43,349.51a6.74,6.74,0,0,1,5.33,2.12,8.58,8.58,0,0,1,1.86,5.84v10.62h-3.74v-9.94a5.69,5.69,0,0,0-1.14-3.76,4.09,4.09,0,0,0-3.33-1.35,4.77,4.77,0,0,0-3.8,1.65,6.5,6.5,0,0,0-1.42,4.4v9h-3.78V350h3.78v2.69A7.23,7.23,0,0,1,438.43,349.51Z"/><path class="cls-1" d="M457.36,368.56A9.51,9.51,0,0,1,451.9,367a7.4,7.4,0,0,1-3.08-3.91l3.43-1a4.84,4.84,0,0,0,1.92,2.44,5.65,5.65,0,0,0,3.3,1,4.81,4.81,0,0,0,2.73-.71,2.07,2.07,0,0,0,1.05-1.73,1.68,1.68,0,0,0-.55-1.31,4.72,4.72,0,0,0-1.79-.86L454,359.4c-2.88-.86-4.33-2.41-4.33-4.64a4.57,4.57,0,0,1,2-3.71,7.81,7.81,0,0,1,4.9-1.54,9.34,9.34,0,0,1,4.93,1.26,6.87,6.87,0,0,1,2.91,3.31l-3.34,1a4.57,4.57,0,0,0-1.73-1.8,5.22,5.22,0,0,0-2.8-.73,3.69,3.69,0,0,0-2.28.67,1.9,1.9,0,0,0-.91,1.53c0,.79.65,1.4,2,1.81l4.81,1.39a9,9,0,0,1,3.5,1.75,4,4,0,0,1,1.27,3.19,5,5,0,0,1-2.15,4.07A8.8,8.8,0,0,1,457.36,368.56Z"/><path class="cls-1" d="M481.81,350h3.75v18.11h-3.75v-2.75a7.16,7.16,0,0,1-6.26,3.22,6.73,6.73,0,0,1-5.31-2.13,8.45,8.45,0,0,1-1.89-5.83V350h3.78v9.93a5.65,5.65,0,0,0,1.13,3.76,4.09,4.09,0,0,0,3.33,1.36,4.78,4.78,0,0,0,3.78-1.65,6.48,6.48,0,0,0,1.44-4.4Z"/><path class="cls-1" d="M494.36,352.86a5.61,5.61,0,0,1,2.44-2.54,6.14,6.14,0,0,1,3.77-.55v3.52a5.09,5.09,0,0,0-4.6,1.16q-1.61,1.62-1.61,5.46v8.18h-3.78V350h3.78Z"/><path class="cls-1" d="M510.71,368.56a8.47,8.47,0,0,1-6.42-2.72,10.26,10.26,0,0,1,0-13.61,8.43,8.43,0,0,1,6.42-2.72,7.49,7.49,0,0,1,6.52,3.21V350H521v18.11h-3.75v-2.75A7.47,7.47,0,0,1,510.71,368.56Zm.62-3.39a5.72,5.72,0,0,0,4.24-1.75,6.43,6.43,0,0,0,0-8.78,5.75,5.75,0,0,0-4.24-1.74,5.64,5.64,0,0,0-4.25,1.72,6.05,6.05,0,0,0-1.66,4.39,6.15,6.15,0,0,0,1.66,4.41A5.59,5.59,0,0,0,511.33,365.17Zm-1.88-18,2.81-5h4.22l-3.68,5Z"/><path class="cls-1" d="M539,350h4.1l-7.67,18.11h-4.2L523.58,350h4.11l5.64,14Z"/><path class="cls-1" d="M553.78,368.56a9.49,9.49,0,0,1-7-2.63,9.18,9.18,0,0,1-2.68-6.88,9.5,9.5,0,0,1,2.59-6.82,9.86,9.86,0,0,1,13.48-.11,9.16,9.16,0,0,1,2.47,6.56,10.52,10.52,0,0,1-.12,1.51H547.84a5.26,5.26,0,0,0,1.75,3.71,6.19,6.19,0,0,0,4.26,1.41q3.74,0,5.15-2.92l3.44,1a8.77,8.77,0,0,1-3.2,3.64A9.48,9.48,0,0,1,553.78,368.56Zm-5.94-10.88,11.12,0a5.19,5.19,0,0,0-1.63-3.53,5.69,5.69,0,0,0-9.49,3.56Z"/><path class="cls-1" d="M566.54,368.09V341.81h3.78v26.28Z"/><path class="cls-1" d="M577.58,368.33a2.42,2.42,0,0,1-1.76-.7,2.34,2.34,0,0,1-.72-1.74,2.3,2.3,0,0,1,.72-1.71,2.52,2.52,0,0,1,3.49,0,2.28,2.28,0,0,1,.73,1.71,2.31,2.31,0,0,1-.73,1.74A2.4,2.4,0,0,1,577.58,368.33Zm-1.51-7.8-.53-17.65h4.17l-.58,17.65Z"/><path class="cls-2" d="M51.34,32.06a17.63,17.63,0,0,1-4.61,12.16l4.47,5.4H44.33l-1.7-1.95a17.91,17.91,0,0,1-9.5,2.66A18.06,18.06,0,0,1,14.94,32.06a17.46,17.46,0,0,1,5.3-12.89,17.66,17.66,0,0,1,12.89-5.24A17.69,17.69,0,0,1,46,19.17,17.43,17.43,0,0,1,51.34,32.06ZM33.13,44a12,12,0,0,0,5.3-1.15l-8-9.15h7.69l4.45,5.44a12.48,12.48,0,0,0,2.05-7.11,11.8,11.8,0,0,0-3.2-8.49,11,11,0,0,0-8.3-3.35,11,11,0,0,0-8.3,3.35,11.8,11.8,0,0,0-3.2,8.49,12,12,0,0,0,3.2,8.59A10.92,10.92,0,0,0,33.13,44Z"/><path class="cls-2" d="M79.61,14.61h6.91V35.26q0,6.81-4,10.94T71.36,50.33q-7.2,0-11.17-4.1t-4-11V14.61h7V35.17a9.4,9.4,0,0,0,2.13,6.43,7.59,7.59,0,0,0,6,2.43,7.71,7.71,0,0,0,6.13-2.43,9.39,9.39,0,0,0,2.12-6.43Z"/><path class="cls-2" d="M118.5,20.81H99.41v8h16.53v6H99.41v8.6h19v6.2H92.7v-35h25.8Z"/><path class="cls-2" d="M153.44,14.61H160v35h-6.86v-23L142,42,130.86,26.57v23H124v-35h6.54L142,31.16Z"/><path class="cls-2" d="M193.07,50.33a17.11,17.11,0,0,1-10.31-3.08,15.92,15.92,0,0,1-5.86-7.54l6.57-2a9.84,9.84,0,0,0,3.72,4.72,10.68,10.68,0,0,0,6.27,1.82,8.19,8.19,0,0,0,4.81-1.3,3.76,3.76,0,0,0,1.85-3.09,3.24,3.24,0,0,0-1.05-2.41,9.19,9.19,0,0,0-3.56-1.79l-8.94-2.81a13.24,13.24,0,0,1-5.81-3.41,7.52,7.52,0,0,1-2.1-5.5,8.73,8.73,0,0,1,3.55-7.09,13.76,13.76,0,0,1,9-2.94,17.33,17.33,0,0,1,9.5,2.57,13.46,13.46,0,0,1,5.56,6.41l-6.37,1.86a8.28,8.28,0,0,0-3.42-3.47A10.33,10.33,0,0,0,191.26,20a7,7,0,0,0-4.07,1.1,3.2,3.2,0,0,0-1.57,2.68q0,2.29,3.34,3.3l8.7,2.81a18.89,18.89,0,0,1,7,3.51,7.71,7.71,0,0,1,2.4,6.08,9.56,9.56,0,0,1-3.89,7.73A15.6,15.6,0,0,1,193.07,50.33Z"/><path class="cls-2" d="M241.53,45.09a18.38,18.38,0,0,1-31.52-13,17.46,17.46,0,0,1,5.25-12.93,19.19,19.19,0,0,1,26.27,0,17.51,17.51,0,0,1,5.22,12.93A17.71,17.71,0,0,1,241.53,45.09Zm-21.41-4.52a11.75,11.75,0,0,0,16.55,0,12,12,0,0,0,3.17-8.51,11.84,11.84,0,0,0-3.17-8.39,11.77,11.77,0,0,0-16.55,0,11.8,11.8,0,0,0-3.18,8.39A12,12,0,0,0,220.12,40.57Z"/><path class="cls-2" d="M281.22,14.61h6.57v35h-6.86v-23L269.77,42,258.64,26.57v23h-6.86v-35h6.54l11.45,16.55Z"/><path class="cls-2" d="M324.34,45.09a18.38,18.38,0,0,1-31.52-13,17.46,17.46,0,0,1,5.25-12.93,19.19,19.19,0,0,1,26.27,0,17.51,17.51,0,0,1,5.22,12.93A17.71,17.71,0,0,1,324.34,45.09Zm-21.41-4.52a11.75,11.75,0,0,0,16.55,0,12,12,0,0,0,3.18-8.51,11.8,11.8,0,0,0-3.18-8.39,11.77,11.77,0,0,0-16.55,0,11.8,11.8,0,0,0-3.18,8.39A12,12,0,0,0,302.93,40.57Z"/><path class="cls-2" d="M347.9,50.33a17.08,17.08,0,0,1-10.3-3.08,15.8,15.8,0,0,1-5.86-7.54l6.56-2A9.92,9.92,0,0,0,342,42.45a10.65,10.65,0,0,0,6.26,1.82A8.19,8.19,0,0,0,353.1,43,3.74,3.74,0,0,0,355,39.88a3.28,3.28,0,0,0-1-2.41,9.17,9.17,0,0,0-3.57-1.79l-8.93-2.81a13.28,13.28,0,0,1-5.82-3.41A7.47,7.47,0,0,1,333.5,24a8.7,8.7,0,0,1,3.55-7.09,13.75,13.75,0,0,1,9-2.94,17.3,17.3,0,0,1,9.5,2.57,13.48,13.48,0,0,1,5.57,6.41l-6.37,1.86a8.39,8.39,0,0,0-3.42-3.47A10.4,10.4,0,0,0,346.09,20a7,7,0,0,0-4.06,1.1,3.21,3.21,0,0,0-1.58,2.68q0,2.29,3.35,3.3l8.69,2.81a18.81,18.81,0,0,1,7,3.51,7.68,7.68,0,0,1,2.41,6.08,9.57,9.57,0,0,1-3.9,7.73A15.58,15.58,0,0,1,347.9,50.33Z"/></g><g id="Lines"><path class="cls-3" d="M378.5,62H0V0H378.5ZM3,59H375.5V3H3Z"/></g></g></g></svg>