<svg xmlns="http://www.w3.org/2000/svg" viewBox="0 0 776.76 479.07"><defs><style>.cls-1{fill:#fca311;}.cls-2{fill:#f2f2f2;}.cls-3{fill:none;stroke:#fca311;stroke-linecap:square;stroke-miterlimit:10;stroke-width:3px;}</style></defs><g id="Layer_2" data-name="Layer 2"><g id="Quem_Somos" data-name="Quem Somos"><g id="Icons"><path class="cls-1" d="M690.1,292.23a13,13,0,1,0,13,13A13,13,0,0,0,690.1,292.23Zm-1,9.13a3,3,0,0,0-3,2.95h-4.3a7.33,7.33,0,0,1,7.25-7.25Z"/><path class="cls-1" d="M729.46,302.52c-4.38-5.46-20-23.26-39.36-23.26s-35,17.8-39.36,23.26a4.31,4.31,0,0,0,0,5.37c4.38,5.45,20,23.25,39.36,23.25s35-17.8,39.36-23.25A4.31,4.31,0,0,0,729.46,302.52ZM690.1,324a18.79,18.79,0,1,1,18.79-18.79A18.78,18.78,0,0,1,690.1,324Z"/><path class="cls-1" d="M109,74s0,0,0,0L97.12,62.12V54.69a2.06,2.06,0,0,0-.61-1.46L84.09,40.67a2.07,2.07,0,0,0-3.54,1.46v6.21H74.2a2.07,2.07,0,0,0-1.46,3.54L85.3,64.44a2.08,2.08,0,0,0,1.47.61h7.42L106,76.86s0,0,0,0A2.06,2.06,0,0,0,109,74Z"/><path class="cls-1" d="M107.47,40.06a35.18,35.18,0,0,0-14.82,3.45L99,49.87a26.6,26.6,0,0,1,8.46-1.39A27,27,0,1,1,81.94,66.93l-6.35-6.35A35,35,0,0,0,72.13,75.4a35.35,35.35,0,1,0,35.34-35.34Z"/><path class="cls-1" d="M107.47,56.76a18.34,18.34,0,0,0-6.21,1.15V60.4l4.79,4.79a9.62,9.62,0,0,1,1.42-.14A10.35,10.35,0,1,1,97.12,75.4,11,11,0,0,1,97.26,74l-4.78-4.79H90a18.59,18.59,0,1,0,17.49-12.43Z"/></g><g id="Textos"><path class="cls-2" d="M96.44,146v3.24H88.31v19.87H84.72V149.22H76.57V146Z"/><path class="cls-2" d="M100.21,155.14a5,5,0,0,1,2.23-2.33,5.59,5.59,0,0,1,3.45-.51v3.22a4.67,4.67,0,0,0-4.21,1.07c-1,1-1.47,2.65-1.47,5v7.49H96.74v-16.6h3.47Z"/><path class="cls-2" d="M115.19,169.52A7.8,7.8,0,0,1,109.3,167a9.42,9.42,0,0,1,0-12.47,7.77,7.77,0,0,1,5.89-2.5,6.87,6.87,0,0,1,6,2.95v-2.52h3.43v16.6h-3.43v-2.51A6.88,6.88,0,0,1,115.19,169.52Zm.57-3.11a5.27,5.27,0,0,0,3.89-1.6,5.92,5.92,0,0,0,0-8.05,5.3,5.3,0,0,0-3.89-1.59,5.17,5.17,0,0,0-3.9,1.58,5.56,5.56,0,0,0-1.52,4,5.66,5.66,0,0,0,1.52,4A5.15,5.15,0,0,0,115.76,166.41Z"/><path class="cls-2" d="M138.38,152.06a6.14,6.14,0,0,1,4.88,1.95,7.83,7.83,0,0,1,1.71,5.35v9.73h-3.43V160a5.21,5.21,0,0,0-1-3.45,3.74,3.74,0,0,0-3.05-1.24,4.33,4.33,0,0,0-3.48,1.51,5.91,5.91,0,0,0-1.31,4v8.25H129.2v-16.6h3.46V155A6.61,6.61,0,0,1,138.38,152.06Z"/><path class="cls-2" d="M155.73,169.52a8.68,8.68,0,0,1-5-1.47,6.76,6.76,0,0,1-2.83-3.59l3.14-.91a4.42,4.42,0,0,0,1.77,2.24,5.21,5.21,0,0,0,3,.88,4.37,4.37,0,0,0,2.5-.65,1.89,1.89,0,0,0,1-1.59,1.51,1.51,0,0,0-.5-1.2,4.55,4.55,0,0,0-1.64-.78l-4.46-1.32c-2.65-.8-4-2.21-4-4.25a4.16,4.16,0,0,1,1.86-3.4,7.13,7.13,0,0,1,4.49-1.42,8.47,8.47,0,0,1,4.52,1.16,6.29,6.29,0,0,1,2.67,3l-3.06.9a4.18,4.18,0,0,0-1.59-1.65,4.78,4.78,0,0,0-2.57-.67,3.43,3.43,0,0,0-2.09.61,1.76,1.76,0,0,0-.83,1.4c0,.73.6,1.29,1.79,1.66l4.42,1.28a8.33,8.33,0,0,1,3.2,1.6,3.64,3.64,0,0,1,1.16,2.92,4.5,4.5,0,0,1-2,3.73A8,8,0,0,1,155.73,169.52Z"/><path class="cls-2" d="M171.12,150.7v1.79h5.48v3.06h-5.48v13.54h-3.46V155.55h-3.31v-3.06h3.31v-1.85a6.55,6.55,0,0,1,1.41-4.47,5.23,5.23,0,0,1,4.13-1.61,8.32,8.32,0,0,1,3.53.7l-.82,2.8a5.31,5.31,0,0,0-2.28-.48C172,147.57,171.12,148.61,171.12,150.7Z"/><path class="cls-2" d="M192.13,167a9.23,9.23,0,0,1-12.61,0,8.74,8.74,0,0,1,6.3-15,8.59,8.59,0,0,1,6.31,2.49,9,9,0,0,1,0,12.48Zm-10.21-2.25a5.58,5.58,0,0,0,7.82,0,5.53,5.53,0,0,0,1.54-4,5.6,5.6,0,0,0-1.54-4,5.6,5.6,0,0,0-7.82,0,5.6,5.6,0,0,0-1.54,4A5.53,5.53,0,0,0,181.92,164.78Z"/><path class="cls-2" d="M201.66,155.14a5,5,0,0,1,2.23-2.33,5.59,5.59,0,0,1,3.45-.51v3.22a4.67,4.67,0,0,0-4.21,1.07c-1,1-1.47,2.65-1.47,5v7.49h-3.47v-16.6h3.47Z"/><path class="cls-2" d="M230,152.06a6.21,6.21,0,0,1,4.73,1.88,7.38,7.38,0,0,1,1.76,5.22v9.93H233v-9.27a5.24,5.24,0,0,0-.94-3.33,3.3,3.3,0,0,0-2.79-1.19,3.69,3.69,0,0,0-3,1.38,5.75,5.75,0,0,0-1.12,3.72v8.69h-3.43v-9.27a5.42,5.42,0,0,0-.91-3.33,3.17,3.17,0,0,0-2.69-1.19,3.74,3.74,0,0,0-3.12,1.45,6.16,6.16,0,0,0-1.15,4v8.38h-3.46v-16.6h3.46v2.31a6,6,0,0,1,5.22-2.74,5.28,5.28,0,0,1,5.11,2.83A6.5,6.5,0,0,1,230,152.06Z"/><path class="cls-2" d="M248.17,169.52a7.8,7.8,0,0,1-5.89-2.49,9.42,9.42,0,0,1,0-12.47,7.77,7.77,0,0,1,5.89-2.5,6.85,6.85,0,0,1,6,2.95v-2.52h3.43v16.6h-3.43v-2.51A6.87,6.87,0,0,1,248.17,169.52Zm.57-3.11a5.27,5.27,0,0,0,3.89-1.6,5.89,5.89,0,0,0,0-8.05,5.3,5.3,0,0,0-3.89-1.59,5.13,5.13,0,0,0-3.89,1.58,5.53,5.53,0,0,0-1.53,4,5.63,5.63,0,0,0,1.53,4A5.11,5.11,0,0,0,248.74,166.41Z"/><path class="cls-2" d="M265.64,155.14a5.09,5.09,0,0,1,2.23-2.33,5.63,5.63,0,0,1,3.46-.51v3.22a4.66,4.66,0,0,0-4.21,1.07c-1,1-1.48,2.65-1.48,5v7.49h-3.46v-16.6h3.46Z"/><path class="cls-2" d="M290,169.52a7.77,7.77,0,0,1-5.89-2.49,9.42,9.42,0,0,1,0-12.47,7.74,7.74,0,0,1,5.89-2.5,6.84,6.84,0,0,1,6,2.95v-2.52h3.44v16.6h-3.44v-2.51A6.85,6.85,0,0,1,290,169.52Zm.56-3.11a5.25,5.25,0,0,0,3.89-1.6,5.89,5.89,0,0,0,0-8.05,5.28,5.28,0,0,0-3.89-1.59,5.13,5.13,0,0,0-3.89,1.58,5.52,5.52,0,0,0-1.52,4,5.62,5.62,0,0,0,1.52,4A5.11,5.11,0,0,0,290.52,166.41Z"/><path class="cls-2" d="M324.42,152.49h3.76l-7,16.6H317.3l-7-16.6H314l5.17,12.85Z"/><path class="cls-2" d="M334.07,149.17a2.1,2.1,0,0,1-1.54.62,2.14,2.14,0,0,1-1.55-.62,2.11,2.11,0,0,1,0-3,2.11,2.11,0,0,1,1.55-.63,2.07,2.07,0,0,1,1.54.63,2.11,2.11,0,0,1,0,3Zm-3.3,19.92v-16.6h3.43v16.6Z"/><path class="cls-2" d="M352.12,145h3.43v24.09h-3.43v-2.51a6.93,6.93,0,0,1-6,2.94,7.8,7.8,0,0,1-5.89-2.49,9.42,9.42,0,0,1,0-12.47,7.77,7.77,0,0,1,5.89-2.5,6.87,6.87,0,0,1,6,2.95Zm-5.41,21.41a5.27,5.27,0,0,0,3.89-1.6,5.89,5.89,0,0,0,0-8.05,5.3,5.3,0,0,0-3.89-1.59,5.13,5.13,0,0,0-3.89,1.58,5.53,5.53,0,0,0-1.53,4,5.63,5.63,0,0,0,1.53,4A5.11,5.11,0,0,0,346.71,166.41Z"/><path class="cls-2" d="M367.38,169.52a7.78,7.78,0,0,1-5.89-2.49,9.42,9.42,0,0,1,0-12.47,7.75,7.75,0,0,1,5.89-2.5,6.87,6.87,0,0,1,6,2.95v-2.52h3.43v16.6h-3.43v-2.51A6.88,6.88,0,0,1,367.38,169.52Zm.56-3.11a5.27,5.27,0,0,0,3.9-1.6,5.92,5.92,0,0,0,0-8.05,5.3,5.3,0,0,0-3.9-1.59,5.15,5.15,0,0,0-3.89,1.58,5.56,5.56,0,0,0-1.52,4,5.66,5.66,0,0,0,1.52,4A5.13,5.13,0,0,0,367.94,166.41Z"/><path class="cls-2" d="M402.94,145h3.43v24.09h-3.43v-2.51a6.92,6.92,0,0,1-6,2.94,7.8,7.8,0,0,1-5.89-2.49,9.42,9.42,0,0,1,0-12.47,7.77,7.77,0,0,1,5.89-2.5,6.85,6.85,0,0,1,6,2.95Zm-5.41,21.41a5.27,5.27,0,0,0,3.89-1.6,5.89,5.89,0,0,0,0-8.05,5.3,5.3,0,0,0-3.89-1.59,5.13,5.13,0,0,0-3.89,1.58,5.53,5.53,0,0,0-1.53,4,5.63,5.63,0,0,0,1.53,4A5.11,5.11,0,0,0,397.53,166.41Z"/><path class="cls-2" d="M418.8,169.52a8.76,8.76,0,0,1-6.39-2.4,8.44,8.44,0,0,1-2.46-6.31,8.67,8.67,0,0,1,2.38-6.25,9,9,0,0,1,12.36-.11,8.41,8.41,0,0,1,2.26,6,10.32,10.32,0,0,1-.11,1.39H413.35a4.86,4.86,0,0,0,1.61,3.39,5.66,5.66,0,0,0,3.9,1.29,4.76,4.76,0,0,0,4.72-2.67l3.16.93a8.08,8.08,0,0,1-2.93,3.34A8.78,8.78,0,0,1,418.8,169.52Zm-5.45-10,10.2,0a4.8,4.8,0,0,0-1.5-3.23,5.22,5.22,0,0,0-8.7,3.26Z"/><path class="cls-2" d="M448.25,152.06a7.85,7.85,0,0,1,5.91,2.49,9.4,9.4,0,0,1,0,12.48,7.85,7.85,0,0,1-5.91,2.49,6.84,6.84,0,0,1-5.94-2.94V176h-3.47V152.49h3.47V155A6.82,6.82,0,0,1,448.25,152.06Zm-.56,14.35a5.13,5.13,0,0,0,3.89-1.6,5.66,5.66,0,0,0,1.52-4,5.56,5.56,0,0,0-1.51-4,5.14,5.14,0,0,0-3.9-1.58,5.28,5.28,0,0,0-3.89,1.59,5.9,5.9,0,0,0,0,8.06A5.28,5.28,0,0,0,447.69,166.41Z"/><path class="cls-2" d="M467.91,169.52a8.76,8.76,0,0,1-6.39-2.4,8.44,8.44,0,0,1-2.46-6.31,8.71,8.71,0,0,1,2.38-6.25,9,9,0,0,1,12.36-.11,8.41,8.41,0,0,1,2.26,6,8.91,8.91,0,0,1-.11,1.39H462.47a4.78,4.78,0,0,0,1.61,3.39,5.62,5.62,0,0,0,3.89,1.29,4.78,4.78,0,0,0,4.73-2.67l3.15.93a8,8,0,0,1-2.93,3.34A8.74,8.74,0,0,1,467.91,169.52Zm-5.44-10,10.19,0a4.74,4.74,0,0,0-1.49-3.23,5.58,5.58,0,0,0-7.11.06A4.93,4.93,0,0,0,462.47,159.55Z"/><path class="cls-2" d="M485.93,169.52a8.71,8.71,0,0,1-5-1.47,6.81,6.81,0,0,1-2.83-3.59l3.15-.91a4.45,4.45,0,0,0,1.76,2.24,5.23,5.23,0,0,0,3,.88,4.43,4.43,0,0,0,2.51-.65,1.89,1.89,0,0,0,1-1.59,1.55,1.55,0,0,0-.5-1.2,4.61,4.61,0,0,0-1.65-.78l-4.46-1.32c-2.64-.8-4-2.21-4-4.25a4.15,4.15,0,0,1,1.85-3.4,7.13,7.13,0,0,1,4.49-1.42,8.45,8.45,0,0,1,4.52,1.16,6.19,6.19,0,0,1,2.67,3l-3.06.9a4,4,0,0,0-1.59-1.65,4.76,4.76,0,0,0-2.57-.67,3.38,3.38,0,0,0-2.08.61,1.73,1.73,0,0,0-.83,1.4c0,.73.59,1.29,1.78,1.66l4.42,1.28a8.46,8.46,0,0,1,3.21,1.6,3.67,3.67,0,0,1,1.16,2.92,4.51,4.51,0,0,1-2,3.73A8,8,0,0,1,485.93,169.52Z"/><path class="cls-2" d="M502.59,169.52a8.73,8.73,0,0,1-5-1.47,6.79,6.79,0,0,1-2.82-3.59l3.14-.91a4.45,4.45,0,0,0,1.76,2.24,5.23,5.23,0,0,0,3,.88,4.43,4.43,0,0,0,2.51-.65,1.89,1.89,0,0,0,1-1.59,1.55,1.55,0,0,0-.5-1.2,4.63,4.63,0,0,0-1.64-.78l-4.47-1.32c-2.64-.8-4-2.21-4-4.25a4.15,4.15,0,0,1,1.85-3.4,7.16,7.16,0,0,1,4.5-1.42,8.49,8.49,0,0,1,4.52,1.16,6.22,6.22,0,0,1,2.66,3l-3.06.9a4,4,0,0,0-1.59-1.65,4.76,4.76,0,0,0-2.57-.67,3.4,3.4,0,0,0-2.08.61,1.73,1.73,0,0,0-.83,1.4c0,.73.59,1.29,1.79,1.66l4.41,1.28a8.38,8.38,0,0,1,3.21,1.6,3.67,3.67,0,0,1,1.16,2.92,4.51,4.51,0,0,1-2,3.73A8,8,0,0,1,502.59,169.52Z"/><path class="cls-2" d="M527.09,167A8.81,8.81,0,0,1,512,160.77a8.41,8.41,0,0,1,2.51-6.21,9.2,9.2,0,0,1,12.6,0,9,9,0,0,1,0,12.48Zm-10.21-2.25a5.58,5.58,0,0,0,7.82,0,5.49,5.49,0,0,0,1.54-4,5.56,5.56,0,0,0-1.54-4,5.6,5.6,0,0,0-7.82,0,5.6,5.6,0,0,0-1.53,4A5.53,5.53,0,0,0,516.88,164.78Z"/><path class="cls-2" d="M540.39,169.52A7.78,7.78,0,0,1,534.5,167a9.42,9.42,0,0,1,0-12.47,7.75,7.75,0,0,1,5.89-2.5,6.87,6.87,0,0,1,6,2.95v-2.52h3.43v16.6h-3.43v-2.51A6.88,6.88,0,0,1,540.39,169.52Zm.56-3.11a5.24,5.24,0,0,0,3.89-1.6,5.89,5.89,0,0,0,0-8.05,5.26,5.26,0,0,0-3.89-1.59,5.15,5.15,0,0,0-3.89,1.58,5.56,5.56,0,0,0-1.52,4,5.66,5.66,0,0,0,1.52,4A5.13,5.13,0,0,0,541,166.41Z"/><path class="cls-2" d="M560.71,169.52a8.73,8.73,0,0,1-5-1.47,6.79,6.79,0,0,1-2.82-3.59l3.14-.91a4.45,4.45,0,0,0,1.76,2.24,5.23,5.23,0,0,0,3,.88,4.41,4.41,0,0,0,2.51-.65,1.89,1.89,0,0,0,1-1.59,1.55,1.55,0,0,0-.5-1.2,4.55,4.55,0,0,0-1.64-.78l-4.47-1.32c-2.64-.8-4-2.21-4-4.25a4.17,4.17,0,0,1,1.85-3.4,7.18,7.18,0,0,1,4.5-1.42,8.49,8.49,0,0,1,4.52,1.16,6.22,6.22,0,0,1,2.66,3l-3.06.9a4.09,4.09,0,0,0-1.58-1.65,4.82,4.82,0,0,0-2.58-.67,3.4,3.4,0,0,0-2.08.61,1.76,1.76,0,0,0-.83,1.4c0,.73.59,1.29,1.79,1.66l4.41,1.28a8.31,8.31,0,0,1,3.21,1.6,3.67,3.67,0,0,1,1.16,2.92,4.51,4.51,0,0,1-2,3.73A8,8,0,0,1,560.71,169.52Z"/><path class="cls-2" d="M587,169.52a7.77,7.77,0,0,1-5.89-2.49,9.42,9.42,0,0,1,0-12.47,7.74,7.74,0,0,1,5.89-2.5,6.84,6.84,0,0,1,6,2.95v-2.52h3.44v16.6h-3.44v-2.51A6.85,6.85,0,0,1,587,169.52Zm.56-3.11a5.25,5.25,0,0,0,3.89-1.6,5.89,5.89,0,0,0,0-8.05,5.28,5.28,0,0,0-3.89-1.59,5.13,5.13,0,0,0-3.89,1.58,5.52,5.52,0,0,0-1.52,4,5.62,5.62,0,0,0,1.52,4A5.11,5.11,0,0,0,587.52,166.41Z"/><path class="cls-2" d="M610.27,165.72l.86,2.84a9.59,9.59,0,0,1-3.66.79,4.86,4.86,0,0,1-3.9-1.5,6.15,6.15,0,0,1-1.29-4.14v-8.16h-3v-3.06h3V147h3.43v5.54H611v3.06h-5.29v8.16c0,1.69.8,2.54,2.39,2.54A4.85,4.85,0,0,0,610.27,165.72Z"/><path class="cls-2" d="M618,155.14a5.06,5.06,0,0,1,2.24-2.33,5.59,5.59,0,0,1,3.45-.51v3.22a4.67,4.67,0,0,0-4.21,1.07c-1,1-1.48,2.65-1.48,5v7.49h-3.46v-16.6H618Z"/><path class="cls-2" d="M633,169.52a7.78,7.78,0,0,1-5.89-2.49,9.42,9.42,0,0,1,0-12.47,7.75,7.75,0,0,1,5.89-2.5,6.87,6.87,0,0,1,6,2.95v-2.52h3.43v16.6h-3.43v-2.51A6.88,6.88,0,0,1,633,169.52Zm.56-3.11a5.24,5.24,0,0,0,3.89-1.6,5.89,5.89,0,0,0,0-8.05,5.26,5.26,0,0,0-3.89-1.59,5.15,5.15,0,0,0-3.89,1.58,5.56,5.56,0,0,0-1.52,4,5.66,5.66,0,0,0,1.52,4A5.13,5.13,0,0,0,633.52,166.41Z"/><path class="cls-2" d="M658.92,152.49h3.75l-7,16.6H651.8l-7-16.6h3.77l5.18,12.85Z"/><path class="cls-2" d="M672.44,169.52a8.75,8.75,0,0,1-6.39-2.4,8.44,8.44,0,0,1-2.46-6.31,8.67,8.67,0,0,1,2.38-6.25,9,9,0,0,1,12.36-.11,8.41,8.41,0,0,1,2.26,6,10.32,10.32,0,0,1-.11,1.39H667a4.82,4.82,0,0,0,1.61,3.39,5.66,5.66,0,0,0,3.9,1.29,4.76,4.76,0,0,0,4.72-2.67l3.16.93a8.08,8.08,0,0,1-2.93,3.34A8.78,8.78,0,0,1,672.44,169.52Zm-5.45-10,10.2,0a4.8,4.8,0,0,0-1.5-3.23,5.22,5.22,0,0,0-8.7,3.26Zm3.37-9.67,2.56-4.56h3.87l-3.37,4.56Z"/><path class="cls-2" d="M690.45,169.52a8.68,8.68,0,0,1-5-1.47,6.76,6.76,0,0,1-2.83-3.59l3.14-.91a4.42,4.42,0,0,0,1.77,2.24,5.21,5.21,0,0,0,3,.88,4.4,4.4,0,0,0,2.5-.65,1.89,1.89,0,0,0,1-1.59,1.55,1.55,0,0,0-.5-1.2,4.55,4.55,0,0,0-1.64-.78l-4.46-1.32c-2.65-.8-4-2.21-4-4.25a4.16,4.16,0,0,1,1.86-3.4,7.13,7.13,0,0,1,4.49-1.42,8.47,8.47,0,0,1,4.52,1.16,6.29,6.29,0,0,1,2.67,3l-3.06.9a4.18,4.18,0,0,0-1.59-1.65,4.78,4.78,0,0,0-2.57-.67,3.41,3.41,0,0,0-2.09.61,1.76,1.76,0,0,0-.83,1.4c0,.73.6,1.29,1.79,1.66l4.42,1.28a8.33,8.33,0,0,1,3.2,1.6,3.64,3.64,0,0,1,1.16,2.92,4.5,4.5,0,0,1-2,3.73A8,8,0,0,1,690.45,169.52Z"/><path class="cls-2" d="M91.59,184.6H95v24.09H91.59v-2.51a6.93,6.93,0,0,1-6,2.94,7.78,7.78,0,0,1-5.89-2.49,9.43,9.43,0,0,1,0-12.48,7.78,7.78,0,0,1,5.89-2.49,6.87,6.87,0,0,1,6,3ZM86.17,206a5.24,5.24,0,0,0,3.89-1.6,5.89,5.89,0,0,0,0-8,5.26,5.26,0,0,0-3.89-1.59,5.15,5.15,0,0,0-3.89,1.58,5.52,5.52,0,0,0-1.52,4,5.62,5.62,0,0,0,1.52,4A5.13,5.13,0,0,0,86.17,206Z"/><path class="cls-2" d="M107.44,209.12a8.76,8.76,0,0,1-6.39-2.4,8.44,8.44,0,0,1-2.46-6.31,8.75,8.75,0,0,1,2.38-6.26,9,9,0,0,1,12.36-.1,8.41,8.41,0,0,1,2.26,6,8.7,8.7,0,0,1-.11,1.38H102a4.81,4.81,0,0,0,1.61,3.4,5.63,5.63,0,0,0,3.9,1.29,4.77,4.77,0,0,0,4.72-2.67l3.15.93a8.07,8.07,0,0,1-2.93,3.34A8.74,8.74,0,0,1,107.44,209.12Zm-5.44-10,10.19,0a4.74,4.74,0,0,0-1.49-3.23,5.58,5.58,0,0,0-7.11.06A4.93,4.93,0,0,0,102,199.15Z"/><path class="cls-2" d="M139.67,192.09h3.43v16.6h-3.43v-2.51a6.6,6.6,0,0,1-5.74,2.94,6.17,6.17,0,0,1-4.87-2,7.74,7.74,0,0,1-1.74-5.35v-9.73h3.47v9.11a5.2,5.2,0,0,0,1,3.44,3.75,3.75,0,0,0,3,1.25,4.39,4.39,0,0,0,3.47-1.52,5.91,5.91,0,0,0,1.32-4Z"/><path class="cls-2" d="M167.32,191.66a6.19,6.19,0,0,1,4.73,1.88,7.38,7.38,0,0,1,1.76,5.22v9.93h-3.46v-9.27a5.24,5.24,0,0,0-.94-3.33,3.3,3.3,0,0,0-2.78-1.19,3.71,3.71,0,0,0-3,1.38,5.75,5.75,0,0,0-1.12,3.72v8.69H159v-9.27a5.42,5.42,0,0,0-.91-3.33,3.17,3.17,0,0,0-2.69-1.19,3.74,3.74,0,0,0-3.12,1.45,6.16,6.16,0,0,0-1.15,4v8.38h-3.46v-16.6h3.46v2.31a6,6,0,0,1,5.22-2.74,5.28,5.28,0,0,1,5.11,2.83A6.5,6.5,0,0,1,167.32,191.66Z"/><path class="cls-2" d="M185.49,209.12a7.8,7.8,0,0,1-5.89-2.49,9.43,9.43,0,0,1,0-12.48,7.8,7.8,0,0,1,5.89-2.49,6.85,6.85,0,0,1,6,3v-2.52h3.43v16.6h-3.43v-2.51A6.87,6.87,0,0,1,185.49,209.12Zm.57-3.11a5.27,5.27,0,0,0,3.89-1.6,5.89,5.89,0,0,0,0-8,5.3,5.3,0,0,0-3.89-1.59,5.13,5.13,0,0,0-3.89,1.58,5.53,5.53,0,0,0-1.53,4,5.63,5.63,0,0,0,1.53,4A5.11,5.11,0,0,0,186.06,206Z"/><path class="cls-2" d="M215.67,209.12a8.72,8.72,0,0,1-6.38-2.4,8.44,8.44,0,0,1-2.46-6.31,8.71,8.71,0,0,1,2.38-6.26,9,9,0,0,1,12.35-.1,8.42,8.42,0,0,1,2.27,6,10.06,10.06,0,0,1-.11,1.38H210.23a4.85,4.85,0,0,0,1.61,3.4,5.66,5.66,0,0,0,3.9,1.29,4.76,4.76,0,0,0,4.72-2.67l3.16.93a8.14,8.14,0,0,1-2.93,3.34A8.79,8.79,0,0,1,215.67,209.12Zm-5.44-10,10.2,0a4.8,4.8,0,0,0-1.5-3.23,5.21,5.21,0,0,0-8.7,3.26Z"/><path class="cls-2" d="M240.59,184.6H244v24.09h-3.43v-2.51a6.93,6.93,0,0,1-6,2.94,7.78,7.78,0,0,1-5.89-2.49,9.43,9.43,0,0,1,0-12.48,7.78,7.78,0,0,1,5.89-2.49,6.87,6.87,0,0,1,6,3ZM235.17,206a5.24,5.24,0,0,0,3.89-1.6,5.89,5.89,0,0,0,0-8,5.26,5.26,0,0,0-3.89-1.59,5.15,5.15,0,0,0-3.89,1.58,5.52,5.52,0,0,0-1.52,4,5.62,5.62,0,0,0,1.52,4A5.13,5.13,0,0,0,235.17,206Z"/><path class="cls-2" d="M260.79,192.09h3.43v16.6h-3.43v-2.51a6.57,6.57,0,0,1-5.73,2.94,6.19,6.19,0,0,1-4.88-2,7.79,7.79,0,0,1-1.73-5.35v-9.73h3.46v9.11a5.2,5.2,0,0,0,1,3.44,3.77,3.77,0,0,0,3.06,1.25,4.38,4.38,0,0,0,3.46-1.52,5.91,5.91,0,0,0,1.32-4Z"/><path class="cls-2" d="M276.53,209.12a8.37,8.37,0,0,1-6.23-2.51,9.11,9.11,0,0,1,0-12.46,9.16,9.16,0,0,1,11.45-.89,6.73,6.73,0,0,1,2.66,3.65l-3.21.92a4,4,0,0,0-1.65-2.14,4.94,4.94,0,0,0-3-.92,5,5,0,0,0-3.85,1.62,5.68,5.68,0,0,0-1.5,4,5.77,5.77,0,0,0,1.5,4,5,5,0,0,0,3.85,1.66,5.24,5.24,0,0,0,3-.87,3.76,3.76,0,0,0,1.64-2.09l3.21.89a6.7,6.7,0,0,1-2.63,3.6A8.41,8.41,0,0,1,276.53,209.12Z"/><path class="cls-2" d="M295.16,209.12a7.78,7.78,0,0,1-5.89-2.49,9.43,9.43,0,0,1,0-12.48,7.78,7.78,0,0,1,5.89-2.49,6.87,6.87,0,0,1,6,3v-2.52h3.43v16.6h-3.43v-2.51A6.88,6.88,0,0,1,295.16,209.12Zm.56-3.11a5.27,5.27,0,0,0,3.9-1.6,5.92,5.92,0,0,0,0-8,5.3,5.3,0,0,0-3.9-1.59,5.15,5.15,0,0,0-3.89,1.58,5.56,5.56,0,0,0-1.52,4,5.66,5.66,0,0,0,1.52,4A5.13,5.13,0,0,0,295.72,206Z"/><path class="cls-2" d="M316.86,206a5.24,5.24,0,0,0,3-.87,3.83,3.83,0,0,0,1.65-2.09l3.2.89a6.52,6.52,0,0,1-2.16,3.23,8,8,0,0,1-4.23,1.84l-.47,1.56a3,3,0,0,1,1.93.84,2.36,2.36,0,0,1,.74,1.73,2.5,2.5,0,0,1-1,2.13,4.31,4.31,0,0,1-2.66.78A5.57,5.57,0,0,1,313.4,215l.45-1.61a4,4,0,0,0,2.73.77c.93-.1,1.4-.48,1.4-1.14s-.34-.9-1-1.11a3.84,3.84,0,0,0-2.1,0l.89-2.77a8.34,8.34,0,0,1-5.47-2.83,9.14,9.14,0,0,1,.33-12.08,9.16,9.16,0,0,1,11.45-.89,6.73,6.73,0,0,1,2.66,3.65l-3.2.92a4.11,4.11,0,0,0-1.66-2.14,4.94,4.94,0,0,0-3-.92,5,5,0,0,0-3.85,1.62,5.68,5.68,0,0,0-1.5,4,5.78,5.78,0,0,0,1.51,4A5,5,0,0,0,316.86,206Z"/><path class="cls-2" d="M335.49,209.12a7.8,7.8,0,0,1-5.89-2.49,9.43,9.43,0,0,1,0-12.48,7.8,7.8,0,0,1,5.89-2.49,6.87,6.87,0,0,1,6,3v-2.52h3.43v16.6h-3.43v-2.51A6.88,6.88,0,0,1,335.49,209.12Zm.57-3.11a5.27,5.27,0,0,0,3.89-1.6,5.89,5.89,0,0,0,0-8,5.3,5.3,0,0,0-3.89-1.59,5.13,5.13,0,0,0-3.89,1.58,5.53,5.53,0,0,0-1.53,4,5.63,5.63,0,0,0,1.53,4A5.11,5.11,0,0,0,336.06,206Zm2.46-16.37a4.63,4.63,0,0,1-2.43-.92,5,5,0,0,0-1.89-.91c-.54,0-.82.57-.82,1.7H331q0-4.27,2.94-4.28a4.74,4.74,0,0,1,2.44.91,4.88,4.88,0,0,0,1.88.91c.55,0,.82-.58.82-1.73h2.39Q341.43,189.64,338.52,189.64Z"/><path class="cls-2" d="M363.59,206.63a9.21,9.21,0,0,1-12.6,0,9,9,0,0,1,0-12.48,9.21,9.21,0,0,1,12.6,0,9,9,0,0,1,0,12.48Zm-10.21-2.25a5.58,5.58,0,0,0,7.82,0,5.49,5.49,0,0,0,1.54-4,5.56,5.56,0,0,0-1.54-4,5.6,5.6,0,0,0-7.82,0,5.6,5.6,0,0,0-1.53,4A5.53,5.53,0,0,0,353.38,204.38Z"/><path class="cls-2" d="M385.7,209.12a8.37,8.37,0,0,1-6.23-2.51,9.08,9.08,0,0,1,0-12.46,9.16,9.16,0,0,1,11.45-.89,6.78,6.78,0,0,1,2.66,3.65l-3.21.92a4.14,4.14,0,0,0-1.65-2.14,4.94,4.94,0,0,0-3-.92,5,5,0,0,0-3.86,1.62,6,6,0,0,0,0,8A4.94,4.94,0,0,0,385.7,206a5.24,5.24,0,0,0,3-.87,3.81,3.81,0,0,0,1.64-2.09l3.21.89a6.72,6.72,0,0,1-2.64,3.6A8.38,8.38,0,0,1,385.7,209.12Z"/><path class="cls-2" d="M400.56,194.73a5.07,5.07,0,0,1,2.23-2.32,5.61,5.61,0,0,1,3.46-.51v3.22a4.68,4.68,0,0,0-4.22,1.07c-1,1-1.47,2.65-1.47,5v7.49h-3.47v-16.6h3.47Z"/><path class="cls-2" d="M412.66,188.77a2.25,2.25,0,0,1-3.1,0,2.14,2.14,0,0,1,0-3,2.22,2.22,0,0,1,3.1,0,2.11,2.11,0,0,1,0,3Zm-3.3,19.92v-16.6h3.43v16.6Z"/><path class="cls-2" d="M424.73,209.12a7.77,7.77,0,0,1-5.89-2.49,9.43,9.43,0,0,1,0-12.48,7.77,7.77,0,0,1,5.89-2.49,6.87,6.87,0,0,1,6,3v-2.52h3.43v16.6h-3.43v-2.51A6.88,6.88,0,0,1,424.73,209.12Zm.56-3.11a5.25,5.25,0,0,0,3.89-1.6,5.89,5.89,0,0,0,0-8,5.28,5.28,0,0,0-3.89-1.59,5.13,5.13,0,0,0-3.89,1.58,5.52,5.52,0,0,0-1.52,4,5.62,5.62,0,0,0,1.52,4A5.11,5.11,0,0,0,425.29,206Z"/><path class="cls-2" d="M448,205.32l.86,2.84a9.59,9.59,0,0,1-3.66.79,4.86,4.86,0,0,1-3.9-1.5,6.15,6.15,0,0,1-1.29-4.14v-8.16h-3v-3.06h3v-5.54h3.43v5.54h5.29v3.06h-5.29v8.16c0,1.69.8,2.54,2.39,2.54A4.85,4.85,0,0,0,448,205.32Z"/><path class="cls-2" d="M455.65,188.77a2.25,2.25,0,0,1-3.1,0,2.14,2.14,0,0,1,0-3,2.22,2.22,0,0,1,3.1,0,2.11,2.11,0,0,1,0,3Zm-3.3,19.92v-16.6h3.43v16.6Z"/><path class="cls-2" d="M472.6,192.09h3.75l-7,16.6h-3.85l-7-16.6h3.77l5.17,12.85Z"/><path class="cls-2" d="M485.52,209.12a7.8,7.8,0,0,1-5.89-2.49,9.43,9.43,0,0,1,0-12.48,7.8,7.8,0,0,1,5.89-2.49,6.87,6.87,0,0,1,6,3v-2.52h3.43v16.6H491.5v-2.51A6.88,6.88,0,0,1,485.52,209.12Zm.57-3.11a5.27,5.27,0,0,0,3.89-1.6,5.92,5.92,0,0,0,0-8,5.3,5.3,0,0,0-3.89-1.59,5.17,5.17,0,0,0-3.9,1.58,5.56,5.56,0,0,0-1.52,4,5.66,5.66,0,0,0,1.52,4A5.15,5.15,0,0,0,486.09,206Z"/><path class="cls-2" d="M515.7,209.12a8.76,8.76,0,0,1-6.39-2.4,8.48,8.48,0,0,1-2.45-6.31,8.74,8.74,0,0,1,2.37-6.26,9,9,0,0,1,12.36-.1,8.42,8.42,0,0,1,2.27,6,8.78,8.78,0,0,1-.12,1.38H510.26a4.81,4.81,0,0,0,1.61,3.4,5.63,5.63,0,0,0,3.9,1.29,4.77,4.77,0,0,0,4.72-2.67l3.16.93a8.17,8.17,0,0,1-2.94,3.34A8.74,8.74,0,0,1,515.7,209.12Zm-5.44-10,10.2,0a4.8,4.8,0,0,0-1.5-3.23,5.58,5.58,0,0,0-7.11.06A4.93,4.93,0,0,0,510.26,199.15Z"/><path class="cls-2" d="M539.12,188.77a2.25,2.25,0,0,1-3.1,0,2.11,2.11,0,0,1,0-3,2.22,2.22,0,0,1,3.1,0,2.14,2.14,0,0,1,0,3Zm-3.31,19.92v-16.6h3.43v16.6Z"/><path class="cls-2" d="M553.13,191.66a6.16,6.16,0,0,1,4.89,2,7.88,7.88,0,0,1,1.7,5.35v9.73h-3.43v-9.1a5.15,5.15,0,0,0-1-3.45,3.74,3.74,0,0,0-3-1.24,4.36,4.36,0,0,0-3.48,1.51,6,6,0,0,0-1.31,4v8.25H544v-16.6h3.46v2.47A6.62,6.62,0,0,1,553.13,191.66Z"/><path class="cls-2" d="M573.48,205.32l.86,2.84a9.59,9.59,0,0,1-3.66.79,4.86,4.86,0,0,1-3.9-1.5,6.15,6.15,0,0,1-1.29-4.14v-8.16h-3v-3.06h3v-5.54h3.44v5.54h5.28v3.06h-5.28v8.16c0,1.69.79,2.54,2.38,2.54A4.85,4.85,0,0,0,573.48,205.32Z"/><path class="cls-2" d="M584.63,209.12a8.72,8.72,0,0,1-6.38-2.4,8.44,8.44,0,0,1-2.46-6.31,8.71,8.71,0,0,1,2.38-6.26,9,9,0,0,1,12.35-.1,8.42,8.42,0,0,1,2.27,6,10.06,10.06,0,0,1-.11,1.38H579.19a4.85,4.85,0,0,0,1.61,3.4,5.66,5.66,0,0,0,3.9,1.29,4.76,4.76,0,0,0,4.72-2.67l3.16.93a8.14,8.14,0,0,1-2.93,3.34A8.79,8.79,0,0,1,584.63,209.12Zm-5.44-10,10.2,0a4.8,4.8,0,0,0-1.5-3.23,5.21,5.21,0,0,0-8.7,3.26Z"/><path class="cls-2" d="M599.8,194.73a5.07,5.07,0,0,1,2.23-2.32,5.61,5.61,0,0,1,3.46-.51v3.22a4.68,4.68,0,0,0-4.22,1.07c-1,1-1.47,2.65-1.47,5v7.49h-3.47v-16.6h3.47Z"/><path class="cls-2" d="M614.78,209.12a7.8,7.8,0,0,1-5.89-2.49,9.43,9.43,0,0,1,0-12.48,7.8,7.8,0,0,1,5.89-2.49,6.87,6.87,0,0,1,6,3v-2.52h3.43v16.6h-3.43v-2.51A6.88,6.88,0,0,1,614.78,209.12Zm.57-3.11a5.27,5.27,0,0,0,3.89-1.6,5.92,5.92,0,0,0,0-8,5.3,5.3,0,0,0-3.89-1.59,5.17,5.17,0,0,0-3.9,1.58,5.56,5.56,0,0,0-1.52,4,5.66,5.66,0,0,0,1.52,4A5.15,5.15,0,0,0,615.35,206Z"/><path class="cls-2" d="M638.1,205.32l.85,2.84a9.5,9.5,0,0,1-3.65.79,4.87,4.87,0,0,1-3.91-1.5,6.19,6.19,0,0,1-1.28-4.14v-8.16h-3v-3.06h3v-5.54h3.43v5.54h5.28v3.06h-5.28v8.16c0,1.69.79,2.54,2.38,2.54A4.89,4.89,0,0,0,638.1,205.32Z"/><path class="cls-2" d="M645.7,188.77a2.24,2.24,0,0,1-3.09,0,2.11,2.11,0,0,1,0-3,2.21,2.21,0,0,1,3.09,0,2.11,2.11,0,0,1,0,3Zm-3.3,19.92v-16.6h3.43v16.6Z"/><path class="cls-2" d="M662.65,192.09h3.76l-7,16.6h-3.85l-7-16.6h3.77l5.17,12.85Z"/><path class="cls-2" d="M675.58,209.12a7.77,7.77,0,0,1-5.89-2.49,9.43,9.43,0,0,1,0-12.48,7.77,7.77,0,0,1,5.89-2.49,6.87,6.87,0,0,1,6,3v-2.52H685v16.6h-3.43v-2.51A6.88,6.88,0,0,1,675.58,209.12Zm.56-3.11a5.25,5.25,0,0,0,3.89-1.6,5.89,5.89,0,0,0,0-8,5.28,5.28,0,0,0-3.89-1.59,5.13,5.13,0,0,0-3.89,1.58,5.52,5.52,0,0,0-1.52,4,5.62,5.62,0,0,0,1.52,4A5.11,5.11,0,0,0,676.14,206Z"/><path class="cls-2" d="M692.82,208.27a2.37,2.37,0,0,1-3.24,0,2.14,2.14,0,0,1-.66-1.59,2.11,2.11,0,0,1,.66-1.57,2.37,2.37,0,0,1,3.24,0,2.11,2.11,0,0,1,.66,1.57A2.14,2.14,0,0,1,692.82,208.27Z"/><path class="cls-2" d="M112.58,392.94a11,11,0,0,1-6.64-2,10,10,0,0,1-3.76-5l3.39-1a7.24,7.24,0,0,0,2.69,3.46,7.6,7.6,0,0,0,4.51,1.36,6.23,6.23,0,0,0,3.78-1.09,3.11,3.11,0,0,0,1.47-2.51,2.58,2.58,0,0,0-.84-1.95,7.61,7.61,0,0,0-2.83-1.41l-5.8-1.86q-5.19-1.6-5.19-5.64a5.6,5.6,0,0,1,2.28-4.47,8.73,8.73,0,0,1,5.71-1.86,11,11,0,0,1,6.08,1.64,9.1,9.1,0,0,1,3.62,4.1l-3.33,1a6.34,6.34,0,0,0-2.49-2.6,7.56,7.56,0,0,0-3.88-1,5.19,5.19,0,0,0-3.16.91,2.67,2.67,0,0,0-1.24,2.17,2.13,2.13,0,0,0,.7,1.62A5.87,5.87,0,0,0,109.9,378l5.67,1.81a12.11,12.11,0,0,1,4.52,2.33,4.91,4.91,0,0,1,1.53,3.84,6.15,6.15,0,0,1-2.53,5A10.07,10.07,0,0,1,112.58,392.94Z"/><path class="cls-2" d="M133.18,392.94a8.69,8.69,0,0,1-6.38-2.41,8.43,8.43,0,0,1-2.46-6.31,8.7,8.7,0,0,1,2.38-6.25,9,9,0,0,1,12.35-.1,8.4,8.4,0,0,1,2.27,6,10.2,10.2,0,0,1-.11,1.39H127.74a4.85,4.85,0,0,0,1.61,3.4,5.66,5.66,0,0,0,3.9,1.29,4.76,4.76,0,0,0,4.72-2.68l3.16.94a8.05,8.05,0,0,1-2.93,3.33A8.72,8.72,0,0,1,133.18,392.94Zm-5.44-10,10.2,0a4.82,4.82,0,0,0-1.5-3.23,5.56,5.56,0,0,0-7.11.07A5,5,0,0,0,127.74,383Z"/><path class="cls-2" d="M148.35,378.55a5.09,5.09,0,0,1,2.23-2.33,5.54,5.54,0,0,1,3.46-.5v3.22a4.68,4.68,0,0,0-4.22,1.07q-1.47,1.47-1.47,5v7.5h-3.47v-16.6h3.47Z"/><path class="cls-2" d="M172.66,392.94a7.77,7.77,0,0,1-5.89-2.5,9.42,9.42,0,0,1,0-12.47,7.8,7.8,0,0,1,5.89-2.5,6.89,6.89,0,0,1,6,2.95v-2.51h3.43v16.6h-3.43V390A6.87,6.87,0,0,1,172.66,392.94Zm.57-3.11a5.27,5.27,0,0,0,3.89-1.6,5.51,5.51,0,0,0,1.59-4,5.44,5.44,0,0,0-1.59-4,5.27,5.27,0,0,0-3.89-1.6,5.17,5.17,0,0,0-3.89,1.58,5.56,5.56,0,0,0-1.53,4,5.64,5.64,0,0,0,1.53,4.05A5.11,5.11,0,0,0,173.23,389.83Z"/><path class="cls-2" d="M204.42,375.47a7.85,7.85,0,0,1,5.91,2.49,9.4,9.4,0,0,1,0,12.48,7.83,7.83,0,0,1-5.91,2.5,6.81,6.81,0,0,1-5.94-2.95v9.44H195V375.91h3.47v2.51A6.83,6.83,0,0,1,204.42,375.47Zm-.56,14.36a5.13,5.13,0,0,0,3.89-1.6,5.67,5.67,0,0,0,1.52-4.05,5.59,5.59,0,0,0-1.51-4,5.18,5.18,0,0,0-3.9-1.58,5.24,5.24,0,0,0-3.89,1.6,5.44,5.44,0,0,0-1.59,4,5.52,5.52,0,0,0,1.59,4.05A5.26,5.26,0,0,0,203.86,389.83Z"/><path class="cls-2" d="M219.71,378.55a5.14,5.14,0,0,1,2.23-2.33,5.56,5.56,0,0,1,3.46-.5v3.22a4.66,4.66,0,0,0-4.21,1.07q-1.49,1.47-1.48,5v7.5h-3.46v-16.6h3.46Z"/><path class="cls-2" d="M231.81,372.59a2.26,2.26,0,0,1-3.09,0,2.05,2.05,0,0,1-.63-1.53,2,2,0,0,1,.63-1.48,2.21,2.21,0,0,1,3.09,0,2,2,0,0,1,.63,1.48A2.05,2.05,0,0,1,231.81,372.59Zm-3.3,19.92v-16.6h3.43v16.6Z"/><path class="cls-2" d="M245.83,375.47a6.12,6.12,0,0,1,4.88,1.95,7.85,7.85,0,0,1,1.71,5.35v9.74H249V383.4a5.24,5.24,0,0,0-1-3.45,3.77,3.77,0,0,0-3-1.24,4.37,4.37,0,0,0-3.48,1.52,6,6,0,0,0-1.31,4v8.25h-3.46v-16.6h3.46v2.46A6.64,6.64,0,0,1,245.83,375.47Z"/><path class="cls-2" d="M264.57,392.94a8.4,8.4,0,0,1-6.23-2.51,9.09,9.09,0,0,1,0-12.47,9.14,9.14,0,0,1,11.45-.88,6.75,6.75,0,0,1,2.66,3.65l-3.21.92a4.05,4.05,0,0,0-1.65-2.15,5.36,5.36,0,0,0-6.85.71,6,6,0,0,0,0,8,5,5,0,0,0,3.85,1.67,5.24,5.24,0,0,0,3-.87,3.8,3.8,0,0,0,1.64-2.09l3.21.88a6.65,6.65,0,0,1-2.64,3.6A8.39,8.39,0,0,1,264.57,392.94Z"/><path class="cls-2" d="M279.33,372.59a2.26,2.26,0,0,1-3.09,0,2.05,2.05,0,0,1-.63-1.53,2,2,0,0,1,.63-1.48,2.21,2.21,0,0,1,3.09,0,2,2,0,0,1,.63,1.48A2.05,2.05,0,0,1,279.33,372.59ZM276,392.51v-16.6h3.43v16.6Z"/><path class="cls-2" d="M293.58,375.47a7.82,7.82,0,0,1,5.9,2.49,9.37,9.37,0,0,1,0,12.48,7.79,7.79,0,0,1-5.9,2.5,6.83,6.83,0,0,1-5.95-2.95v9.44h-3.46V375.91h3.46v2.51A6.85,6.85,0,0,1,293.58,375.47ZM293,389.83a5.11,5.11,0,0,0,3.89-1.6,6.1,6.1,0,0,0,0-8.07,5.18,5.18,0,0,0-3.9-1.58,5.25,5.25,0,0,0-3.89,1.6,5.44,5.44,0,0,0-1.59,4,5.52,5.52,0,0,0,1.59,4.05A5.28,5.28,0,0,0,293,389.83Z"/><path class="cls-2" d="M312.64,392.94a7.74,7.74,0,0,1-5.89-2.5,9.42,9.42,0,0,1,0-12.47,7.77,7.77,0,0,1,5.89-2.5,6.89,6.89,0,0,1,6,2.95v-2.51h3.43v16.6h-3.43V390A6.87,6.87,0,0,1,312.64,392.94Zm.56-3.11a5.25,5.25,0,0,0,3.89-1.6,5.51,5.51,0,0,0,1.59-4,5.44,5.44,0,0,0-1.59-4,5.25,5.25,0,0,0-3.89-1.6,5.17,5.17,0,0,0-3.89,1.58,5.56,5.56,0,0,0-1.52,4,5.63,5.63,0,0,0,1.52,4.05A5.11,5.11,0,0,0,313.2,389.83Z"/><path class="cls-2" d="M326.64,392.51V368.42h3.46v24.09Z"/><path class="cls-2" d="M346.52,378.55a5.14,5.14,0,0,1,2.23-2.33,5.56,5.56,0,0,1,3.46-.5v3.22A4.66,4.66,0,0,0,348,380q-1.49,1.47-1.48,5v7.5h-3.46v-16.6h3.46Z"/><path class="cls-2" d="M362.1,392.94a8.69,8.69,0,0,1-6.38-2.41,8.43,8.43,0,0,1-2.46-6.31,8.7,8.7,0,0,1,2.38-6.25,9,9,0,0,1,12.35-.1,8.4,8.4,0,0,1,2.27,6,10.2,10.2,0,0,1-.11,1.39H356.66a4.85,4.85,0,0,0,1.61,3.4,5.66,5.66,0,0,0,3.9,1.29,4.76,4.76,0,0,0,4.72-2.68l3.16.94a8.05,8.05,0,0,1-2.93,3.33A8.72,8.72,0,0,1,362.1,392.94Zm-5.44-10,10.2,0a4.82,4.82,0,0,0-1.5-3.23,5.56,5.56,0,0,0-7.11.07A5,5,0,0,0,356.66,383Z"/><path class="cls-2" d="M378.52,374.12v1.79H384V379h-5.48v13.54h-3.46V379h-3.3v-3.06h3.3v-1.85a6.51,6.51,0,0,1,1.42-4.48,5.23,5.23,0,0,1,4.12-1.6,8.29,8.29,0,0,1,3.53.69l-.82,2.81A5.31,5.31,0,0,0,381,371C379.36,371,378.52,372,378.52,374.12Z"/><path class="cls-2" d="M393.27,392.94a8.73,8.73,0,0,1-6.39-2.41,8.43,8.43,0,0,1-2.46-6.31A8.7,8.7,0,0,1,386.8,378a9,9,0,0,1,12.36-.1,8.39,8.39,0,0,1,2.26,6,10.2,10.2,0,0,1-.11,1.39H387.82a4.89,4.89,0,0,0,1.61,3.4,5.66,5.66,0,0,0,3.9,1.29,4.76,4.76,0,0,0,4.72-2.68l3.16.94a8.05,8.05,0,0,1-2.93,3.33A8.69,8.69,0,0,1,393.27,392.94Zm-5.45-10,10.2,0a4.82,4.82,0,0,0-1.5-3.23,5,5,0,0,0-3.56-1.25,5,5,0,0,0-5.14,4.52Z"/><path class="cls-2" d="M408.43,378.55a5.14,5.14,0,0,1,2.23-2.33,5.56,5.56,0,0,1,3.46-.5v3.22a4.66,4.66,0,0,0-4.21,1.07q-1.49,1.47-1.48,5v7.5H405v-16.6h3.46Z"/><path class="cls-2" d="M432.17,383.88a8.9,8.9,0,0,1-.12,1.39H418.57a4.81,4.81,0,0,0,1.61,3.4,5.63,5.63,0,0,0,3.9,1.29,4.76,4.76,0,0,0,4.72-2.68l3.16.94a8.08,8.08,0,0,1-2.94,3.33,9.7,9.7,0,0,1-11.4-1,8.42,8.42,0,0,1-2.45-6.31,8.73,8.73,0,0,1,2.37-6.25,9,9,0,0,1,12.36-.1A8.4,8.4,0,0,1,432.17,383.88Zm-8.4-13.26-2,2.81h-3.25l3.59-4.51h3.43l3.6,4.51h-3.27ZM418.57,383l10.19,0a4.76,4.76,0,0,0-1.49-3.23,5,5,0,0,0-3.56-1.25,5,5,0,0,0-3.55,1.32A4.9,4.9,0,0,0,418.57,383Z"/><path class="cls-2" d="M444.89,375.47a6.16,6.16,0,0,1,4.89,1.95,7.84,7.84,0,0,1,1.7,5.35v9.74h-3.43V383.4a5.19,5.19,0,0,0-1-3.45,3.77,3.77,0,0,0-3.05-1.24,4.37,4.37,0,0,0-3.48,1.52,6,6,0,0,0-1.31,4v8.25h-3.46v-16.6h3.46v2.46A6.65,6.65,0,0,1,444.89,375.47Z"/><path class="cls-2" d="M463.63,392.94a8.4,8.4,0,0,1-6.23-2.51,9.12,9.12,0,0,1,0-12.47,9.14,9.14,0,0,1,11.45-.88,6.7,6.7,0,0,1,2.66,3.65l-3.21.92a4.05,4.05,0,0,0-1.65-2.15,5.34,5.34,0,0,0-6.84.71,5.66,5.66,0,0,0-1.5,4,5.72,5.72,0,0,0,1.5,4,5,5,0,0,0,3.85,1.67,5.24,5.24,0,0,0,3-.87,3.8,3.8,0,0,0,1.64-2.09l3.21.88a6.63,6.63,0,0,1-2.63,3.6A8.4,8.4,0,0,1,463.63,392.94Z"/><path class="cls-2" d="M478.39,372.59a2.26,2.26,0,0,1-3.09,0,2.05,2.05,0,0,1-.63-1.53,2,2,0,0,1,.63-1.48,2.21,2.21,0,0,1,3.09,0,2,2,0,0,1,.63,1.48A2.05,2.05,0,0,1,478.39,372.59Zm-3.3,19.92v-16.6h3.43v16.6Z"/><path class="cls-2" d="M490.46,392.94a7.77,7.77,0,0,1-5.89-2.5,9.42,9.42,0,0,1,0-12.47,7.8,7.8,0,0,1,5.89-2.5,6.89,6.89,0,0,1,6,2.95v-2.51h3.43v16.6h-3.43V390A6.87,6.87,0,0,1,490.46,392.94Zm.57-3.11a5.27,5.27,0,0,0,3.89-1.6,5.51,5.51,0,0,0,1.59-4,5.44,5.44,0,0,0-1.59-4,5.27,5.27,0,0,0-3.89-1.6,5.21,5.21,0,0,0-3.9,1.58,5.6,5.6,0,0,0-1.52,4,5.67,5.67,0,0,0,1.52,4.05A5.15,5.15,0,0,0,491,389.83Z"/><path class="cls-2" d="M520.64,392.94a8.73,8.73,0,0,1-6.39-2.41,8.46,8.46,0,0,1-2.45-6.31,8.73,8.73,0,0,1,2.37-6.25,9,9,0,0,1,12.36-.1,8.4,8.4,0,0,1,2.27,6,8.9,8.9,0,0,1-.12,1.39H515.2a4.81,4.81,0,0,0,1.61,3.4,5.63,5.63,0,0,0,3.9,1.29,4.76,4.76,0,0,0,4.72-2.68l3.16.94a8,8,0,0,1-2.94,3.33A8.66,8.66,0,0,1,520.64,392.94Zm-5.44-10,10.2,0a4.82,4.82,0,0,0-1.5-3.23,5.56,5.56,0,0,0-7.11.07A5,5,0,0,0,515.2,383Z"/><path class="cls-2" d="M552,375.47a6.16,6.16,0,0,1,4.73,1.89,7.33,7.33,0,0,1,1.76,5.22v9.93H555v-9.27a5.33,5.33,0,0,0-.93-3.34,3.36,3.36,0,0,0-2.79-1.19,3.69,3.69,0,0,0-3,1.39,5.71,5.71,0,0,0-1.12,3.72v8.69h-3.43v-9.27a5.46,5.46,0,0,0-.91-3.34,3.18,3.18,0,0,0-2.68-1.19,3.78,3.78,0,0,0-3.13,1.45,6.27,6.27,0,0,0-1.15,4v8.38h-3.46v-16.6h3.46v2.3a6,6,0,0,1,5.23-2.74,5.28,5.28,0,0,1,5.1,2.84A6.51,6.51,0,0,1,552,375.47Z"/><path class="cls-2" d="M579.07,392.94a8.73,8.73,0,0,1-6.39-2.41,8.43,8.43,0,0,1-2.46-6.31A8.74,8.74,0,0,1,572.6,378a9,9,0,0,1,12.36-.1,8.39,8.39,0,0,1,2.26,6,8.82,8.82,0,0,1-.11,1.39H573.62a4.85,4.85,0,0,0,1.62,3.4,5.62,5.62,0,0,0,3.89,1.29,4.77,4.77,0,0,0,4.73-2.68l3.15.94a8,8,0,0,1-2.93,3.33A8.66,8.66,0,0,1,579.07,392.94Zm-5.45-10,10.2,0a4.76,4.76,0,0,0-1.49-3.23,5,5,0,0,0-3.57-1.25,5,5,0,0,0-5.14,4.52Z"/><path class="cls-2" d="M604,368.42h3.43v24.09H604V390a6.91,6.91,0,0,1-6,2.95,7.77,7.77,0,0,1-5.89-2.5,9.42,9.42,0,0,1,0-12.47,7.8,7.8,0,0,1,5.89-2.5,6.89,6.89,0,0,1,6,2.95Zm-5.41,21.41a5.27,5.27,0,0,0,3.89-1.6,5.51,5.51,0,0,0,1.59-4,5.44,5.44,0,0,0-1.59-4,5.27,5.27,0,0,0-3.89-1.6,5.17,5.17,0,0,0-3.89,1.58,5.56,5.56,0,0,0-1.53,4,5.64,5.64,0,0,0,1.53,4.05A5.11,5.11,0,0,0,598.57,389.83Z"/><path class="cls-2" d="M624.19,375.91h3.43v16.6h-3.43V390a6.59,6.59,0,0,1-5.74,2.95,6.16,6.16,0,0,1-4.87-1.95,7.74,7.74,0,0,1-1.74-5.35v-9.73h3.47V385a5.19,5.19,0,0,0,1,3.45,3.74,3.74,0,0,0,3,1.24,4.36,4.36,0,0,0,3.46-1.51,5.88,5.88,0,0,0,1.33-4Z"/><path class="cls-2" d="M639.93,392.94a8.44,8.44,0,0,1-6.24-2.51,9.1,9.1,0,0,1,0-12.47,8.36,8.36,0,0,1,6.21-2.49,8.47,8.47,0,0,1,5.24,1.61,6.75,6.75,0,0,1,2.66,3.65l-3.21.92a4.16,4.16,0,0,0-1.65-2.15,5.36,5.36,0,0,0-6.85.71,6,6,0,0,0,0,8,5,5,0,0,0,3.85,1.67,5.24,5.24,0,0,0,3-.87,3.84,3.84,0,0,0,1.64-2.09l3.21.88a6.7,6.7,0,0,1-2.64,3.6A8.39,8.39,0,0,1,639.93,392.94Z"/><path class="cls-2" d="M658.56,392.94a7.74,7.74,0,0,1-5.89-2.5,9.42,9.42,0,0,1,0-12.47,7.77,7.77,0,0,1,5.89-2.5,6.86,6.86,0,0,1,6,2.95v-2.51H668v16.6h-3.44V390A6.84,6.84,0,0,1,658.56,392.94Zm.56-3.11a5.25,5.25,0,0,0,3.89-1.6,5.51,5.51,0,0,0,1.59-4,5.44,5.44,0,0,0-1.59-4,5.25,5.25,0,0,0-3.89-1.6,5.17,5.17,0,0,0-3.89,1.58,5.56,5.56,0,0,0-1.52,4,5.63,5.63,0,0,0,1.52,4.05A5.11,5.11,0,0,0,659.12,389.83Z"/><path class="cls-2" d="M680.26,389.83a5.24,5.24,0,0,0,3-.87,3.8,3.8,0,0,0,1.64-2.09l3.21.88a6.61,6.61,0,0,1-2.17,3.24,8,8,0,0,1-4.23,1.84l-.47,1.56a2.94,2.94,0,0,1,1.94.84,2.37,2.37,0,0,1,.74,1.72,2.53,2.53,0,0,1-1,2.14,4.32,4.32,0,0,1-2.67.78,5.52,5.52,0,0,1-3.41-1.1l.45-1.61a4,4,0,0,0,2.72.78c.94-.1,1.4-.48,1.4-1.15s-.34-.89-1-1.1a3.74,3.74,0,0,0-2.1,0l.88-2.77a8.38,8.38,0,0,1-5.46-2.83A9.11,9.11,0,0,1,674,378a9.12,9.12,0,0,1,11.45-.89,6.75,6.75,0,0,1,2.66,3.65l-3.21.92a4.16,4.16,0,0,0-1.65-2.15,5.36,5.36,0,0,0-6.85.71,6,6,0,0,0,0,8A4.94,4.94,0,0,0,680.26,389.83Z"/><path class="cls-2" d="M698.89,392.94a7.75,7.75,0,0,1-5.89-2.5A9.42,9.42,0,0,1,693,378a7.79,7.79,0,0,1,5.89-2.5,6.89,6.89,0,0,1,6,2.95v-2.51h3.43v16.6h-3.43V390A6.87,6.87,0,0,1,698.89,392.94Zm.56-3.11a5.24,5.24,0,0,0,3.89-1.6,5.51,5.51,0,0,0,1.59-4,5.44,5.44,0,0,0-1.59-4,5.55,5.55,0,0,0-7.78,0,5.6,5.6,0,0,0-1.52,4,5.67,5.67,0,0,0,1.52,4.05A5.13,5.13,0,0,0,699.45,389.83Zm2.47-16.37a4.77,4.77,0,0,1-2.44-.92,5,5,0,0,0-1.88-.92c-.55,0-.82.57-.82,1.71h-2.42q0-4.29,2.95-4.29a4.78,4.78,0,0,1,2.43.91,5,5,0,0,0,1.89.91c.55,0,.82-.57.82-1.72h2.38Q704.82,373.46,701.92,373.46Z"/><path class="cls-2" d="M727,390.44a9.2,9.2,0,0,1-12.61,0,9,9,0,0,1,0-12.47A9.21,9.21,0,0,1,727,378a9,9,0,0,1,0,12.48Zm-10.22-2.25a5.57,5.57,0,0,0,7.83,0,5.94,5.94,0,0,0,0-8,5.61,5.61,0,0,0-7.83,0,6,6,0,0,0,0,8Z"/><path class="cls-2" d="M110.47,432.54a8.71,8.71,0,0,1-6.39-2.41,8.44,8.44,0,0,1-2.46-6.31,8.7,8.7,0,0,1,2.38-6.25,9,9,0,0,1,12.36-.1,8.39,8.39,0,0,1,2.26,6,10.2,10.2,0,0,1-.11,1.39H105a4.89,4.89,0,0,0,1.61,3.4,5.66,5.66,0,0,0,3.9,1.29,4.76,4.76,0,0,0,4.72-2.68l3.16.94a8.05,8.05,0,0,1-2.93,3.33A8.71,8.71,0,0,1,110.47,432.54Zm-5.45-10,10.2,0a4.82,4.82,0,0,0-1.5-3.23,5,5,0,0,0-3.56-1.25,5,5,0,0,0-5.14,4.52Z"/><path class="cls-2" d="M141.77,415.07A6.15,6.15,0,0,1,146.5,417a7.34,7.34,0,0,1,1.77,5.22v9.93H144.8v-9.27a5.33,5.33,0,0,0-.93-3.34,3.33,3.33,0,0,0-2.79-1.19,3.69,3.69,0,0,0-3,1.39,5.77,5.77,0,0,0-1.11,3.72v8.69h-3.44v-9.27a5.39,5.39,0,0,0-.91-3.34,3.18,3.18,0,0,0-2.68-1.19,3.8,3.8,0,0,0-3.13,1.45,6.27,6.27,0,0,0-1.14,4v8.38h-3.46v-16.6h3.46v2.3a6,6,0,0,1,5.22-2.74,5.29,5.29,0,0,1,5.11,2.84A6.48,6.48,0,0,1,141.77,415.07Z"/><path class="cls-2" d="M167.38,432.54a8.68,8.68,0,0,1-5-1.47,6.8,6.8,0,0,1-2.83-3.59l3.14-.92a4.45,4.45,0,0,0,1.76,2.24,5.26,5.26,0,0,0,3,.89A4.41,4.41,0,0,0,170,429a1.91,1.91,0,0,0,1-1.59,1.52,1.52,0,0,0-.5-1.2,4.24,4.24,0,0,0-1.64-.78l-4.47-1.32q-4-1.2-4-4.26a4.2,4.2,0,0,1,1.85-3.4,7.24,7.24,0,0,1,4.5-1.42,8.56,8.56,0,0,1,4.52,1.16,6.3,6.3,0,0,1,2.66,3l-3.06.91a4.17,4.17,0,0,0-1.58-1.66,4.89,4.89,0,0,0-2.57-.66,3.41,3.41,0,0,0-2.09.61,1.74,1.74,0,0,0-.83,1.4c0,.73.6,1.28,1.79,1.66l4.41,1.27a8.32,8.32,0,0,1,3.21,1.61,3.66,3.66,0,0,1,1.16,2.92,4.52,4.52,0,0,1-2,3.73A8,8,0,0,1,167.38,432.54Z"/><path class="cls-2" d="M185,432.54a7.77,7.77,0,0,1-5.89-2.5,9.42,9.42,0,0,1,0-12.47,7.8,7.8,0,0,1,5.89-2.5,6.89,6.89,0,0,1,6,2.95v-2.51h3.43v16.6H191v-2.52A6.87,6.87,0,0,1,185,432.54Zm.57-3.11a5.27,5.27,0,0,0,3.89-1.6,5.51,5.51,0,0,0,1.59-4,5.44,5.44,0,0,0-1.59-4,5.27,5.27,0,0,0-3.89-1.6,5.17,5.17,0,0,0-3.89,1.58,5.53,5.53,0,0,0-1.53,4,5.64,5.64,0,0,0,1.53,4.05A5.11,5.11,0,0,0,185.59,429.43Z"/><path class="cls-2" d="M211.21,415.51h3.43v16.6h-3.43v-2.52a6.59,6.59,0,0,1-5.74,3,6.17,6.17,0,0,1-4.87-2,7.74,7.74,0,0,1-1.74-5.35v-9.73h3.47v9.1a5.24,5.24,0,0,0,1,3.45,3.74,3.74,0,0,0,3,1.24,4.36,4.36,0,0,0,3.46-1.51,5.88,5.88,0,0,0,1.33-4Zm.22-7.17-3.35,4.56H205l2.58-4.56Z"/><path class="cls-2" d="M232.46,408h3.43v24.09h-3.43v-2.52a6.91,6.91,0,0,1-6,3,7.77,7.77,0,0,1-5.89-2.5,9.42,9.42,0,0,1,0-12.47,7.8,7.8,0,0,1,5.89-2.5,6.89,6.89,0,0,1,6,2.95Zm-5.41,21.41a5.27,5.27,0,0,0,3.89-1.6,5.5,5.5,0,0,0,1.58-4,5.43,5.43,0,0,0-1.58-4,5.27,5.27,0,0,0-3.89-1.6,5.21,5.21,0,0,0-3.9,1.58,5.56,5.56,0,0,0-1.52,4,5.67,5.67,0,0,0,1.52,4.05A5.15,5.15,0,0,0,227.05,429.43Z"/><path class="cls-2" d="M248.31,432.54a8.69,8.69,0,0,1-6.38-2.41,8.44,8.44,0,0,1-2.46-6.31,8.7,8.7,0,0,1,2.38-6.25,9,9,0,0,1,12.35-.1,8.4,8.4,0,0,1,2.27,6,10.2,10.2,0,0,1-.11,1.39H242.87a4.85,4.85,0,0,0,1.61,3.4,5.66,5.66,0,0,0,3.9,1.29,4.76,4.76,0,0,0,4.72-2.68l3.16.94a8.05,8.05,0,0,1-2.93,3.33A8.72,8.72,0,0,1,248.31,432.54Zm-5.44-10,10.2,0a4.82,4.82,0,0,0-1.5-3.23,5.56,5.56,0,0,0-7.11.07A5,5,0,0,0,242.87,422.57Z"/><path class="cls-2" d="M276.19,432.54a8.73,8.73,0,0,1-6.39-2.41,8.44,8.44,0,0,1-2.46-6.31,8.74,8.74,0,0,1,2.38-6.25,9,9,0,0,1,12.36-.1,8.39,8.39,0,0,1,2.26,6,8.82,8.82,0,0,1-.11,1.39H270.75a4.81,4.81,0,0,0,1.61,3.4,5.63,5.63,0,0,0,3.9,1.29,4.76,4.76,0,0,0,4.72-2.68l3.15.94a8,8,0,0,1-2.93,3.33A8.66,8.66,0,0,1,276.19,432.54Zm-5.44-10,10.19,0a4.76,4.76,0,0,0-1.49-3.23,5,5,0,0,0-3.57-1.25,5,5,0,0,0-3.54,1.32A4.9,4.9,0,0,0,270.75,422.57Z"/><path class="cls-2" d="M304.07,432.54a8.73,8.73,0,0,1-6.39-2.41,8.44,8.44,0,0,1-2.46-6.31,8.7,8.7,0,0,1,2.38-6.25,9,9,0,0,1,12.36-.1,8.39,8.39,0,0,1,2.26,6,10.2,10.2,0,0,1-.11,1.39H298.62a4.89,4.89,0,0,0,1.61,3.4,5.66,5.66,0,0,0,3.9,1.29,4.76,4.76,0,0,0,4.72-2.68l3.16.94a8.05,8.05,0,0,1-2.93,3.33A8.71,8.71,0,0,1,304.07,432.54Zm-5.45-10,10.2,0a4.82,4.82,0,0,0-1.5-3.23,5,5,0,0,0-3.56-1.25,5,5,0,0,0-5.14,4.52Z"/><path class="cls-2" d="M322.08,432.54a8.68,8.68,0,0,1-5-1.47,6.8,6.8,0,0,1-2.83-3.59l3.14-.92a4.42,4.42,0,0,0,1.77,2.24,5.22,5.22,0,0,0,3,.89,4.37,4.37,0,0,0,2.5-.65,1.91,1.91,0,0,0,1-1.59,1.49,1.49,0,0,0-.5-1.2,4.24,4.24,0,0,0-1.64-.78L319,424.15q-4-1.2-4-4.26a4.18,4.18,0,0,1,1.86-3.4,7.19,7.19,0,0,1,4.49-1.42,8.56,8.56,0,0,1,4.52,1.16,6.38,6.38,0,0,1,2.67,3l-3.06.91a4.27,4.27,0,0,0-1.59-1.66,4.87,4.87,0,0,0-2.57-.66,3.43,3.43,0,0,0-2.09.61,1.74,1.74,0,0,0-.83,1.4c0,.73.6,1.28,1.79,1.66l4.42,1.27a8.34,8.34,0,0,1,3.2,1.61,3.63,3.63,0,0,1,1.16,2.92,4.51,4.51,0,0,1-2,3.73A8.07,8.07,0,0,1,322.08,432.54Z"/><path class="cls-2" d="M341.74,428.74l.85,2.83a9.32,9.32,0,0,1-3.65.79,4.86,4.86,0,0,1-3.9-1.5,6.15,6.15,0,0,1-1.29-4.14v-8.15h-3v-3.06h3V410h3.43v5.54h5.29v3.06h-5.29v8.15c0,1.7.79,2.55,2.38,2.55A5,5,0,0,0,341.74,428.74Z"/><path class="cls-2" d="M352.29,432.54a7.77,7.77,0,0,1-5.89-2.5,9.42,9.42,0,0,1,0-12.47,7.8,7.8,0,0,1,5.89-2.5,6.88,6.88,0,0,1,6,2.95v-2.51h3.43v16.6h-3.43v-2.52A6.85,6.85,0,0,1,352.29,432.54Zm.57-3.11a5.27,5.27,0,0,0,3.89-1.6,5.51,5.51,0,0,0,1.59-4,5.44,5.44,0,0,0-1.59-4,5.27,5.27,0,0,0-3.89-1.6,5.17,5.17,0,0,0-3.89,1.58,5.53,5.53,0,0,0-1.53,4,5.64,5.64,0,0,0,1.53,4.05A5.11,5.11,0,0,0,352.86,429.43Z"/><path class="cls-2" d="M369.76,418.15a5.09,5.09,0,0,1,2.23-2.33,5.62,5.62,0,0,1,3.46-.51v3.23a4.69,4.69,0,0,0-4.22,1.07q-1.47,1.47-1.47,5v7.5H366.3v-16.6h3.46Z"/><path class="cls-2" d="M396.25,415.07a7.85,7.85,0,0,1,5.91,2.49,9.4,9.4,0,0,1,0,12.48,7.83,7.83,0,0,1-5.91,2.5,6.84,6.84,0,0,1-5.95-3V439h-3.46V415.51h3.46V418A6.86,6.86,0,0,1,396.25,415.07Zm-.56,14.36a5.13,5.13,0,0,0,3.89-1.6,5.67,5.67,0,0,0,1.52-4.05,5.56,5.56,0,0,0-1.51-4,5.18,5.18,0,0,0-3.9-1.58,5.24,5.24,0,0,0-3.89,1.6,5.44,5.44,0,0,0-1.59,4,5.52,5.52,0,0,0,1.59,4A5.26,5.26,0,0,0,395.69,429.43Z"/><path class="cls-2" d="M411.54,418.15a5.14,5.14,0,0,1,2.23-2.33,5.63,5.63,0,0,1,3.46-.51v3.23a4.66,4.66,0,0,0-4.21,1.07q-1.49,1.47-1.48,5v7.5h-3.46v-16.6h3.46Z"/><path class="cls-2" d="M427.12,432.54a8.73,8.73,0,0,1-6.39-2.41,8.48,8.48,0,0,1-2.45-6.31,8.73,8.73,0,0,1,2.37-6.25,9,9,0,0,1,12.36-.1,8.4,8.4,0,0,1,2.27,6,8.9,8.9,0,0,1-.12,1.39H421.68a4.81,4.81,0,0,0,1.61,3.4,5.65,5.65,0,0,0,3.9,1.29,4.76,4.76,0,0,0,4.72-2.68l3.16.94a8,8,0,0,1-2.94,3.33A8.66,8.66,0,0,1,427.12,432.54Zm-5.44-10,10.2,0a4.82,4.82,0,0,0-1.5-3.23,5.56,5.56,0,0,0-7.11.07A5,5,0,0,0,421.68,422.57Z"/><path class="cls-2" d="M445.14,432.54a8.73,8.73,0,0,1-5-1.47,6.82,6.82,0,0,1-2.82-3.59l3.14-.92a4.45,4.45,0,0,0,1.76,2.24,5.26,5.26,0,0,0,3,.89,4.41,4.41,0,0,0,2.51-.65,1.91,1.91,0,0,0,1-1.59,1.52,1.52,0,0,0-.5-1.2,4.24,4.24,0,0,0-1.64-.78l-4.47-1.32q-4-1.2-4-4.26a4.2,4.2,0,0,1,1.85-3.4,7.24,7.24,0,0,1,4.5-1.42,8.59,8.59,0,0,1,4.52,1.16,6.3,6.3,0,0,1,2.66,3l-3.06.91a4.17,4.17,0,0,0-1.58-1.66,4.89,4.89,0,0,0-2.57-.66,3.41,3.41,0,0,0-2.09.61,1.74,1.74,0,0,0-.83,1.4c0,.73.6,1.28,1.79,1.66l4.41,1.27a8.32,8.32,0,0,1,3.21,1.61,3.66,3.66,0,0,1,1.16,2.92,4.52,4.52,0,0,1-2,3.73A8,8,0,0,1,445.14,432.54Z"/><path class="cls-2" d="M463.38,432.54a8.73,8.73,0,0,1-6.39-2.41,8.44,8.44,0,0,1-2.46-6.31,8.7,8.7,0,0,1,2.38-6.25,9,9,0,0,1,12.36-.1,8.39,8.39,0,0,1,2.26,6,10.2,10.2,0,0,1-.11,1.39H457.93a4.89,4.89,0,0,0,1.61,3.4,5.66,5.66,0,0,0,3.9,1.29,4.76,4.76,0,0,0,4.72-2.68l3.16.94a8.05,8.05,0,0,1-2.93,3.33A8.69,8.69,0,0,1,463.38,432.54Zm-5.45-10,10.2,0a4.82,4.82,0,0,0-1.5-3.23,5,5,0,0,0-3.56-1.25,5,5,0,0,0-5.14,4.52Z"/><path class="cls-2" d="M484.26,415.07a6.12,6.12,0,0,1,4.88,1.95,7.85,7.85,0,0,1,1.71,5.35v9.74h-3.43V423a5.24,5.24,0,0,0-1-3.45,3.77,3.77,0,0,0-3.05-1.24,4.37,4.37,0,0,0-3.48,1.52,6,6,0,0,0-1.31,4v8.25h-3.46v-16.6h3.46V418A6.64,6.64,0,0,1,484.26,415.07Z"/><path class="cls-2" d="M504.61,428.74l.86,2.83a9.41,9.41,0,0,1-3.66.79,4.86,4.86,0,0,1-3.9-1.5,6.15,6.15,0,0,1-1.29-4.14v-8.15h-3v-3.06h3V410h3.43v5.54h5.29v3.06h-5.29v8.15c0,1.7.8,2.55,2.39,2.55A5,5,0,0,0,504.61,428.74Z"/><path class="cls-2" d="M515.76,432.54a8.73,8.73,0,0,1-6.39-2.41,8.44,8.44,0,0,1-2.45-6.31,8.73,8.73,0,0,1,2.37-6.25,9,9,0,0,1,12.36-.1,8.4,8.4,0,0,1,2.27,6,8.9,8.9,0,0,1-.12,1.39H510.32a4.81,4.81,0,0,0,1.61,3.4,5.63,5.63,0,0,0,3.9,1.29,4.76,4.76,0,0,0,4.72-2.68l3.16.94a8.08,8.08,0,0,1-2.94,3.33A8.66,8.66,0,0,1,515.76,432.54Zm-5.44-10,10.19,0A4.76,4.76,0,0,0,519,419.3a5,5,0,0,0-3.56-1.25,5,5,0,0,0-3.55,1.32A4.9,4.9,0,0,0,510.32,422.57Z"/><path class="cls-2" d="M543.64,432.54a8.73,8.73,0,0,1-6.39-2.41,8.44,8.44,0,0,1-2.46-6.31,8.7,8.7,0,0,1,2.38-6.25,9,9,0,0,1,12.36-.1,8.39,8.39,0,0,1,2.26,6,10.2,10.2,0,0,1-.11,1.39H538.19a4.89,4.89,0,0,0,1.61,3.4,5.66,5.66,0,0,0,3.9,1.29,4.76,4.76,0,0,0,4.72-2.68l3.16.94a8.05,8.05,0,0,1-2.93,3.33A8.69,8.69,0,0,1,543.64,432.54Zm-5.45-10,10.2,0a4.82,4.82,0,0,0-1.5-3.23,5,5,0,0,0-3.56-1.25,5,5,0,0,0-5.14,4.52Z"/><path class="cls-2" d="M575,415.07a6.18,6.18,0,0,1,4.73,1.89,7.38,7.38,0,0,1,1.76,5.22v9.93H578v-9.27a5.33,5.33,0,0,0-.94-3.34,3.33,3.33,0,0,0-2.79-1.19,3.66,3.66,0,0,0-3,1.39,5.71,5.71,0,0,0-1.12,3.72v8.69h-3.44v-9.27a5.39,5.39,0,0,0-.91-3.34,3.17,3.17,0,0,0-2.68-1.19,3.8,3.8,0,0,0-3.13,1.45,6.27,6.27,0,0,0-1.14,4v8.38h-3.46v-16.6h3.46v2.3a6,6,0,0,1,5.22-2.74,5.29,5.29,0,0,1,5.11,2.84A6.51,6.51,0,0,1,575,415.07Z"/><path class="cls-2" d="M603.55,428.74l.85,2.83a9.41,9.41,0,0,1-3.66.79,4.86,4.86,0,0,1-3.9-1.5,6.15,6.15,0,0,1-1.29-4.14v-8.15h-3v-3.06h3V410H599v5.54h5.28v3.06H599v8.15c0,1.7.79,2.55,2.38,2.55A5,5,0,0,0,603.55,428.74Z"/><path class="cls-2" d="M621,430a9.2,9.2,0,0,1-12.61,0,9,9,0,0,1,0-12.47,9.21,9.21,0,0,1,12.61,0A9,9,0,0,1,621,430Zm-10.22-2.25a5.55,5.55,0,0,0,7.82,0,5.94,5.94,0,0,0,0-8,5.6,5.6,0,0,0-7.82,0,6,6,0,0,0,0,8Z"/><path class="cls-2" d="M640.24,408h3.43v24.09h-3.43v-2.52a6.91,6.91,0,0,1-6,3,7.75,7.75,0,0,1-5.89-2.5,9.42,9.42,0,0,1,0-12.47,7.79,7.79,0,0,1,5.89-2.5,6.89,6.89,0,0,1,6,2.95Zm-5.42,21.41a5.24,5.24,0,0,0,3.89-1.6,5.51,5.51,0,0,0,1.59-4,5.44,5.44,0,0,0-1.59-4,5.55,5.55,0,0,0-7.78,0,5.56,5.56,0,0,0-1.52,4,5.67,5.67,0,0,0,1.52,4.05A5.13,5.13,0,0,0,634.82,429.43Z"/><path class="cls-2" d="M655.5,432.54a7.74,7.74,0,0,1-5.89-2.5,9.42,9.42,0,0,1,0-12.47,7.77,7.77,0,0,1,5.89-2.5,6.86,6.86,0,0,1,6,2.95v-2.51h3.44v16.6h-3.44v-2.52A6.84,6.84,0,0,1,655.5,432.54Zm.56-3.11a5.25,5.25,0,0,0,3.89-1.6,5.51,5.51,0,0,0,1.59-4,5.44,5.44,0,0,0-1.59-4,5.25,5.25,0,0,0-3.89-1.6,5.17,5.17,0,0,0-3.89,1.58,5.52,5.52,0,0,0-1.52,4,5.63,5.63,0,0,0,1.52,4.05A5.11,5.11,0,0,0,656.06,429.43Z"/><path class="cls-2" d="M675.82,432.54a8.71,8.71,0,0,1-5-1.47,6.85,6.85,0,0,1-2.83-3.59l3.15-.92a4.45,4.45,0,0,0,1.76,2.24,5.24,5.24,0,0,0,3,.89,4.43,4.43,0,0,0,2.51-.65,1.91,1.91,0,0,0,1-1.59,1.52,1.52,0,0,0-.5-1.2,4.29,4.29,0,0,0-1.65-.78l-4.46-1.32q-4-1.2-4-4.26a4.17,4.17,0,0,1,1.85-3.4,7.19,7.19,0,0,1,4.49-1.42,8.56,8.56,0,0,1,4.52,1.16,6.27,6.27,0,0,1,2.67,3l-3.06.91a4.13,4.13,0,0,0-1.59-1.66,4.84,4.84,0,0,0-2.57-.66,3.38,3.38,0,0,0-2.08.61,1.72,1.72,0,0,0-.83,1.4c0,.73.59,1.28,1.78,1.66l4.42,1.27a8.46,8.46,0,0,1,3.21,1.61,3.66,3.66,0,0,1,1.16,2.92,4.52,4.52,0,0,1-2,3.73A8.06,8.06,0,0,1,675.82,432.54Z"/><path class="cls-2" d="M702.06,432.54a7.77,7.77,0,0,1-5.89-2.5,9.42,9.42,0,0,1,0-12.47,7.8,7.8,0,0,1,5.89-2.5,6.88,6.88,0,0,1,6,2.95v-2.51h3.43v16.6H708v-2.52A6.85,6.85,0,0,1,702.06,432.54Zm.57-3.11a5.27,5.27,0,0,0,3.89-1.6,5.51,5.51,0,0,0,1.59-4,5.44,5.44,0,0,0-1.59-4,5.27,5.27,0,0,0-3.89-1.6,5.17,5.17,0,0,0-3.89,1.58,5.53,5.53,0,0,0-1.53,4,5.64,5.64,0,0,0,1.53,4.05A5.11,5.11,0,0,0,702.63,429.43Z"/><path class="cls-2" d="M722.38,432.54a8.68,8.68,0,0,1-5-1.47,6.8,6.8,0,0,1-2.83-3.59l3.14-.92a4.47,4.47,0,0,0,1.77,2.24,5.22,5.22,0,0,0,3,.89A4.37,4.37,0,0,0,725,429a1.91,1.91,0,0,0,1-1.59,1.49,1.49,0,0,0-.5-1.2,4.24,4.24,0,0,0-1.64-.78l-4.46-1.32q-4-1.2-4-4.26a4.18,4.18,0,0,1,1.86-3.4,7.19,7.19,0,0,1,4.49-1.42,8.56,8.56,0,0,1,4.52,1.16,6.38,6.38,0,0,1,2.67,3l-3.06.91a4.27,4.27,0,0,0-1.59-1.66,4.87,4.87,0,0,0-2.57-.66,3.43,3.43,0,0,0-2.09.61,1.74,1.74,0,0,0-.83,1.4c0,.73.6,1.28,1.79,1.66l4.42,1.27a8.34,8.34,0,0,1,3.2,1.61,3.63,3.63,0,0,1,1.16,2.92,4.51,4.51,0,0,1-2,3.73A8.07,8.07,0,0,1,722.38,432.54Z"/><path class="cls-2" d="M486.58,457.75a5.14,5.14,0,0,1,2.23-2.33,5.63,5.63,0,0,1,3.46-.51v3.23a4.66,4.66,0,0,0-4.21,1.07q-1.49,1.47-1.48,5v7.49h-3.46V455.11h3.46Z"/><path class="cls-2" d="M502.16,472.14a8.73,8.73,0,0,1-6.39-2.41,8.48,8.48,0,0,1-2.45-6.31,8.73,8.73,0,0,1,2.37-6.25,9,9,0,0,1,12.36-.1,8.4,8.4,0,0,1,2.27,6,8.9,8.9,0,0,1-.12,1.39H496.72a4.81,4.81,0,0,0,1.61,3.4,5.65,5.65,0,0,0,3.9,1.29,4.76,4.76,0,0,0,4.72-2.68l3.16.94a8.05,8.05,0,0,1-2.93,3.33A8.72,8.72,0,0,1,502.16,472.14Zm-5.44-10,10.2,0a4.8,4.8,0,0,0-1.5-3.23,5.56,5.56,0,0,0-7.11.07A5,5,0,0,0,496.72,462.17Z"/><path class="cls-2" d="M527,455.11h3.47v16a7.63,7.63,0,0,1-2.32,5.73,8.47,8.47,0,0,1-6.1,2.23q-5.5,0-7.91-4.34l3-1.11a5.28,5.28,0,0,0,5,2.53,4.57,4.57,0,0,0,3.58-1.4,5.26,5.26,0,0,0,1.3-3.61v-2.43a6.83,6.83,0,0,1-5.83,2.8,7.91,7.91,0,0,1-5.94-2.41,9,9,0,0,1,0-12.07,8,8,0,0,1,6-2.36,6.88,6.88,0,0,1,5.83,2.77Zm-5.3,13.29a5.31,5.31,0,0,0,3.86-1.51,5.08,5.08,0,0,0,1.56-3.8,5,5,0,0,0-1.56-3.78,5.77,5.77,0,0,0-7.75,0,5,5,0,0,0-1.52,3.79,5.1,5.1,0,0,0,1.52,3.81A5.3,5.3,0,0,0,521.66,468.4Z"/><path class="cls-2" d="M538.4,451.79a2.26,2.26,0,0,1-3.09,0,2.12,2.12,0,0,1,0-3,2.24,2.24,0,0,1,3.09,0,2.12,2.12,0,0,1,0,3Zm-3.3,19.91V455.11h3.43V471.7Z"/><path class="cls-2" d="M557.34,469.64a9.2,9.2,0,0,1-12.61,0,9,9,0,0,1,0-12.47,9.21,9.21,0,0,1,12.61,0,9,9,0,0,1,0,12.48Zm-10.22-2.25a5.55,5.55,0,0,0,7.82,0,5.94,5.94,0,0,0,0-8,5.58,5.58,0,0,0-7.82,0,6,6,0,0,0,0,8Zm6.25-14.73a4.8,4.8,0,0,1-2.44-.92,5.11,5.11,0,0,0-1.88-.92c-.54,0-.82.57-.82,1.71h-2.41c0-2.86,1-4.29,2.93-4.29a4.84,4.84,0,0,1,2.44.91,5,5,0,0,0,1.89.91c.55,0,.82-.57.82-1.72h2.37C556.27,451.22,555.31,452.66,553.37,452.66Z"/><path class="cls-2" d="M571.23,472.14a8.71,8.71,0,0,1-6.39-2.41,8.44,8.44,0,0,1-2.46-6.31,8.7,8.7,0,0,1,2.38-6.25,9,9,0,0,1,12.36-.1,8.39,8.39,0,0,1,2.26,6,10.2,10.2,0,0,1-.11,1.39H565.78a4.89,4.89,0,0,0,1.61,3.4,5.66,5.66,0,0,0,3.9,1.29,4.76,4.76,0,0,0,4.72-2.68l3.16.94a8.05,8.05,0,0,1-2.93,3.33A8.71,8.71,0,0,1,571.23,472.14Zm-5.45-10,10.2,0a4.8,4.8,0,0,0-1.5-3.23,5,5,0,0,0-3.56-1.25,5,5,0,0,0-5.14,4.52Z"/><path class="cls-2" d="M589.24,472.14a8.68,8.68,0,0,1-5-1.47,6.8,6.8,0,0,1-2.83-3.59l3.14-.92a4.42,4.42,0,0,0,1.77,2.24,5.22,5.22,0,0,0,3,.89,4.4,4.4,0,0,0,2.5-.65,1.91,1.91,0,0,0,1-1.59,1.52,1.52,0,0,0-.5-1.2,4.24,4.24,0,0,0-1.64-.78l-4.46-1.33q-4-1.19-4-4.25a4.18,4.18,0,0,1,1.86-3.4,7.19,7.19,0,0,1,4.49-1.42,8.56,8.56,0,0,1,4.52,1.16,6.38,6.38,0,0,1,2.67,3l-3.06.91a4.27,4.27,0,0,0-1.59-1.66,4.87,4.87,0,0,0-2.57-.67,3.41,3.41,0,0,0-2.09.62,1.74,1.74,0,0,0-.83,1.4c0,.73.6,1.28,1.79,1.66l4.42,1.27A8.48,8.48,0,0,1,595,464a3.66,3.66,0,0,1,1.16,2.93,4.51,4.51,0,0,1-2,3.73A8.07,8.07,0,0,1,589.24,472.14Z"/><path class="cls-2" d="M621.47,447.61h3.43V471.7h-3.43v-2.51a6.91,6.91,0,0,1-6,2.95,7.75,7.75,0,0,1-5.89-2.5,9.42,9.42,0,0,1,0-12.47,7.79,7.79,0,0,1,5.89-2.5,6.89,6.89,0,0,1,6,2.95ZM616.05,469a5.24,5.24,0,0,0,3.89-1.6,5.51,5.51,0,0,0,1.59-4,5.44,5.44,0,0,0-1.59-4,5.55,5.55,0,0,0-7.78,0,5.56,5.56,0,0,0-1.52,4,5.67,5.67,0,0,0,1.52,4.05A5.13,5.13,0,0,0,616.05,469Z"/><path class="cls-2" d="M643.59,469.64a9.2,9.2,0,0,1-12.61,0,9,9,0,0,1,0-12.47,9.21,9.21,0,0,1,12.61,0,9,9,0,0,1,0,12.48Zm-10.22-2.25a5.57,5.57,0,0,0,7.83,0,5.94,5.94,0,0,0,0-8,5.59,5.59,0,0,0-7.83,0,6,6,0,0,0,0,8Z"/><path class="cls-2" d="M667.41,454.67a7.82,7.82,0,0,1,5.9,2.49,9.37,9.37,0,0,1,0,12.48,7.79,7.79,0,0,1-5.9,2.5,6.83,6.83,0,0,1-5.95-2.95v9.44H658V455.11h3.46v2.51A6.85,6.85,0,0,1,667.41,454.67ZM666.84,469a5.11,5.11,0,0,0,3.89-1.6,5.64,5.64,0,0,0,1.53-4.05,5.56,5.56,0,0,0-1.52-4,5.18,5.18,0,0,0-3.9-1.58,5.25,5.25,0,0,0-3.89,1.6,5.44,5.44,0,0,0-1.59,4,5.52,5.52,0,0,0,1.59,4.05A5.28,5.28,0,0,0,666.84,469Z"/><path class="cls-2" d="M686.47,472.14a7.75,7.75,0,0,1-5.89-2.5,9.42,9.42,0,0,1,0-12.47,7.79,7.79,0,0,1,5.89-2.5,6.89,6.89,0,0,1,6,2.95v-2.51h3.43V471.7h-3.43v-2.51A6.87,6.87,0,0,1,686.47,472.14ZM687,469a5.24,5.24,0,0,0,3.89-1.6,5.51,5.51,0,0,0,1.59-4,5.44,5.44,0,0,0-1.59-4,5.55,5.55,0,0,0-7.78,0,5.56,5.56,0,0,0-1.52,4,5.67,5.67,0,0,0,1.52,4.05A5.13,5.13,0,0,0,687,469Z"/><path class="cls-2" d="M700.34,452.5l2.58-4.56h3.87l-3.37,4.56Zm.13,19.2V455.11h3.46V471.7Z"/><path class="cls-2" d="M714.86,472.14a8.68,8.68,0,0,1-5-1.47,6.8,6.8,0,0,1-2.83-3.59l3.14-.92a4.42,4.42,0,0,0,1.77,2.24,5.22,5.22,0,0,0,3,.89,4.4,4.4,0,0,0,2.5-.65,1.91,1.91,0,0,0,1-1.59,1.52,1.52,0,0,0-.5-1.2,4.24,4.24,0,0,0-1.64-.78l-4.47-1.33q-4-1.19-4-4.25a4.2,4.2,0,0,1,1.85-3.4,7.24,7.24,0,0,1,4.5-1.42,8.56,8.56,0,0,1,4.52,1.16,6.38,6.38,0,0,1,2.67,3l-3.07.91a4.17,4.17,0,0,0-1.58-1.66,4.87,4.87,0,0,0-2.57-.67,3.41,3.41,0,0,0-2.09.62,1.74,1.74,0,0,0-.83,1.4c0,.73.6,1.28,1.79,1.66l4.41,1.27a8.45,8.45,0,0,1,3.21,1.6,3.7,3.7,0,0,1,1.16,2.93,4.49,4.49,0,0,1-2,3.73A8,8,0,0,1,714.86,472.14Z"/><path class="cls-2" d="M728.44,471.29a2.37,2.37,0,0,1-3.24,0,2.16,2.16,0,0,1-.66-1.6,2.1,2.1,0,0,1,.66-1.56,2.34,2.34,0,0,1,3.24,0,2.1,2.1,0,0,1,.66,1.56A2.16,2.16,0,0,1,728.44,471.29Z"/><path class="cls-2" d="M191.32,59h6.57V94H191V71L179.87,86.43,168.74,71V94h-6.86V59h6.54l11.45,16.55Z"/><path class="cls-2" d="M204.36,94V59h7V94Z"/><path class="cls-2" d="M232.09,94.73a17.08,17.08,0,0,1-10.3-3.08,15.86,15.86,0,0,1-5.86-7.54l6.57-2a9.84,9.84,0,0,0,3.72,4.72,10.67,10.67,0,0,0,6.26,1.82,8.19,8.19,0,0,0,4.81-1.3,3.74,3.74,0,0,0,1.86-3.09,3.24,3.24,0,0,0-1.05-2.41,9.17,9.17,0,0,0-3.57-1.79l-8.93-2.81a13.24,13.24,0,0,1-5.81-3.41,7.44,7.44,0,0,1-2.1-5.5,8.7,8.7,0,0,1,3.55-7.09,13.76,13.76,0,0,1,9-2.94,17.27,17.27,0,0,1,9.49,2.57,13.53,13.53,0,0,1,5.57,6.41l-6.37,1.86a8.28,8.28,0,0,0-3.42-3.47,10.38,10.38,0,0,0-5.22-1.32,7,7,0,0,0-4.07,1.1,3.2,3.2,0,0,0-1.57,2.68q0,2.3,3.34,3.3l8.69,2.81a19,19,0,0,1,7,3.51,7.71,7.71,0,0,1,2.4,6.08,9.59,9.59,0,0,1-3.89,7.73A15.61,15.61,0,0,1,232.09,94.73Z"/><path class="cls-2" d="M264.83,94.73a17.08,17.08,0,0,1-10.3-3.08,15.86,15.86,0,0,1-5.86-7.54l6.57-2A9.84,9.84,0,0,0,259,86.85a10.67,10.67,0,0,0,6.26,1.82,8.19,8.19,0,0,0,4.81-1.3,3.74,3.74,0,0,0,1.86-3.09,3.24,3.24,0,0,0-1.05-2.41,9.17,9.17,0,0,0-3.57-1.79l-8.93-2.81a13.24,13.24,0,0,1-5.81-3.41,7.44,7.44,0,0,1-2.1-5.5A8.7,8.7,0,0,1,254,61.27a13.76,13.76,0,0,1,9-2.94,17.29,17.29,0,0,1,9.49,2.57A13.53,13.53,0,0,1,278,67.31l-6.37,1.86a8.33,8.33,0,0,0-3.42-3.47A10.4,10.4,0,0,0,263,64.38a7,7,0,0,0-4.06,1.1,3.21,3.21,0,0,0-1.58,2.68q0,2.3,3.35,3.3l8.69,2.81a19,19,0,0,1,7,3.51,7.71,7.71,0,0,1,2.4,6.08,9.59,9.59,0,0,1-3.89,7.73A15.61,15.61,0,0,1,264.83,94.73Z"/><path class="cls-2" d="M308,94l-2.85-7.59H289.44L286.54,94h-7.11l13.4-35h8.92L315.2,94ZM294.45,53.08c-.77,0-1.16.79-1.18,2.39h-4.34q0-7.2,4.81-7.2a7.52,7.52,0,0,1,3.7,1.3,8.72,8.72,0,0,0,2.69,1.31c.77,0,1.15-.81,1.15-2.42h4.35q0,7.15-4.84,7.16a7.56,7.56,0,0,1-3.66-1.27A8.17,8.17,0,0,0,294.45,53.08Zm-2.76,27.29h11.2l-5.61-14.79Z"/><path class="cls-2" d="M346.89,89.49a18.38,18.38,0,0,1-31.52-13,17.47,17.47,0,0,1,5.25-12.94,19.19,19.19,0,0,1,26.27,0,17.52,17.52,0,0,1,5.22,12.94A17.7,17.7,0,0,1,346.89,89.49ZM325.48,85A11.75,11.75,0,0,0,342,85a12,12,0,0,0,3.17-8.5,11.84,11.84,0,0,0-3.17-8.4,11.77,11.77,0,0,0-16.55,0,11.81,11.81,0,0,0-3.18,8.4A12,12,0,0,0,325.48,85Z"/><path class="cls-2" d="M503.63,288.29h7.55l-13.8,35h-7.52l-13.79-35h7.54l10,26.31Z"/><path class="cls-2" d="M514.67,323.3v-35h7v35Z"/><path class="cls-2" d="M542.4,324a17.1,17.1,0,0,1-10.3-3.07,16,16,0,0,1-5.86-7.55l6.57-2a9.89,9.89,0,0,0,3.72,4.72,10.74,10.74,0,0,0,6.26,1.82,8.17,8.17,0,0,0,4.81-1.31,3.74,3.74,0,0,0,1.86-3.09,3.22,3.22,0,0,0-1.05-2.4,9,9,0,0,0-3.57-1.79l-8.93-2.81a13.34,13.34,0,0,1-5.81-3.41,7.52,7.52,0,0,1-2.1-5.5,8.76,8.76,0,0,1,3.55-7.1,13.76,13.76,0,0,1,9-2.94,17.33,17.33,0,0,1,9.5,2.58,13.46,13.46,0,0,1,5.56,6.41l-6.37,1.85a8.25,8.25,0,0,0-3.42-3.46,10.36,10.36,0,0,0-5.22-1.32,6.91,6.91,0,0,0-4.07,1.1,3.19,3.19,0,0,0-1.57,2.68q0,2.3,3.34,3.3l8.69,2.8a18.8,18.8,0,0,1,7,3.52,7.69,7.69,0,0,1,2.4,6.08,9.6,9.6,0,0,1-3.89,7.73A15.61,15.61,0,0,1,542.4,324Z"/><path class="cls-2" d="M585.62,323.3l-2.86-7.6H567l-2.9,7.6H557l13.41-35h8.91l13.45,35ZM572,282.35q-1.15,0-1.17,2.4H566.5q0-7.22,4.81-7.21a7.52,7.52,0,0,1,3.7,1.31,8.62,8.62,0,0,0,2.7,1.31c.76,0,1.14-.81,1.14-2.42h4.35q0,7.15-4.83,7.15a7.45,7.45,0,0,1-3.67-1.27A8.41,8.41,0,0,0,572,282.35Zm-2.76,27.3h11.21l-5.62-14.8Z"/><path class="cls-2" d="M624.46,318.77a18.38,18.38,0,0,1-31.52-13,17.48,17.48,0,0,1,5.25-12.94,19.19,19.19,0,0,1,26.27,0,17.54,17.54,0,0,1,5.22,12.94A17.72,17.72,0,0,1,624.46,318.77Zm-21.41-4.52a11.75,11.75,0,0,0,16.55,0,12,12,0,0,0,3.17-8.51,11.83,11.83,0,0,0-3.17-8.4,11.79,11.79,0,0,0-16.55,0,11.84,11.84,0,0,0-3.18,8.4A12,12,0,0,0,603.05,314.25Z"/></g><g id="Lines"><polyline class="cls-3" points="71.02 73.1 1.5 73.1 1.5 1.5 1.5 1.5 775.26 1.54 775.26 1.54 775.26 305.2 718.02 305.2"/></g></g></g></svg>