<svg xmlns="http://www.w3.org/2000/svg" viewBox="0 0 806.26 713.34"><defs><style>.cls-1{fill:#fca311;}.cls-2{fill:#f2f2f2;}.cls-3{fill:none;stroke:#fca311;stroke-miterlimit:10;stroke-width:4px;}</style></defs><g id="Layer_2" data-name="Layer 2"><g id="Quem_Somos" data-name="Quem Somos"><g id="Icons"><path class="cls-1" d="M110.81,660.26a2.52,2.52,0,1,0-3.57-3.57l-9.63,9.63a2.53,2.53,0,0,0,1.78,4.31,2.55,2.55,0,0,0,1.79-.74Z"/><path class="cls-1" d="M174.33,592.68a11.85,11.85,0,1,0,16.76,0A11.78,11.78,0,0,0,174.33,592.68Zm13.19,13.19a6.8,6.8,0,0,1-9.62,0,6.72,6.72,0,0,1-2-4.81,6.8,6.8,0,1,1,13.6,0A6.72,6.72,0,0,1,187.52,605.87Z"/><path class="cls-1" d="M118.77,664.65a2.52,2.52,0,0,0-3.57,0l-13.51,13.51a2.53,2.53,0,0,0,1.78,4.31,2.55,2.55,0,0,0,1.79-.74l13.51-13.51A2.53,2.53,0,0,0,118.77,664.65Z"/><path class="cls-1" d="M206.8,578.73a2.51,2.51,0,0,0-1.75-1.76,47.22,47.22,0,0,0-28.82,1.44,56.06,56.06,0,0,0-19.95,12.44l-7.85,7.85L120,603.14a2.51,2.51,0,0,0-1.4.71L100.42,622a2.52,2.52,0,0,0,1.67,4.3l17.94.76-4.49,4.49a2.52,2.52,0,0,0,0,3.57l2.62,2.63-7.84,12a2.53,2.53,0,0,0,.33,3.16l20.16,20.16a2.53,2.53,0,0,0,3.17.33l12-7.84,2.62,2.63a2.53,2.53,0,0,0,3.57,0l4.5-4.5.75,17.94a2.56,2.56,0,0,0,1.61,2.25,2.66,2.66,0,0,0,.91.17,2.54,2.54,0,0,0,1.79-.74l18.19-18.19a2.53,2.53,0,0,0,.7-1.39l4.45-28.44,7.84-7.84a56.12,56.12,0,0,0,12.45-20A47.18,47.18,0,0,0,206.8,578.73ZM132.93,668.1l-17.26-17.26,6.14-9.41,8.48,8.48-1,1a2.52,2.52,0,0,0,3.57,3.57l1-1,8.48,8.49Zm56.42-44.17-8.43,8.43h0l-8.77,8.77a2.52,2.52,0,0,0,3.57,3.57l3.3-3.3-3.25,20.79-13.53,13.53-.71-16.83,7.05-7a2.52,2.52,0,0,0-3.57-3.57l-7.83,7.83h0l-6.77,6.77-2.25-2.25-.08-.08-10.64-10.64L168,619.39a2.52,2.52,0,1,0-3.57-3.57l-30.53,30.53-10.64-10.64-.08-.08-2.25-2.25,6.77-6.77v0l7.83-7.83a2.52,2.52,0,1,0-3.57-3.56l-7.05,7-16.83-.71L121.59,608l20.79-3.25-3.31,3.31,3.57,3.57,8.75-8.75.05-.06,8.41-8.4c7-7,23.7-17.43,42.45-12.95C206.78,600.23,196.38,616.9,189.35,623.93Z"/><path class="cls-1" d="M123.52,673l-9.63,9.63a2.52,2.52,0,1,0,3.56,3.57l9.64-9.63a2.52,2.52,0,1,0-3.57-3.57Z"/><path class="cls-1" d="M191.81,147.56a.61.61,0,0,0-.05-.12l0-.11-.06-.1-.07-.11a.47.47,0,0,1-.06-.09l-.08-.1-.08-.09-.08-.08-.09-.09-.08-.07-.1-.08-.09-.06-.11-.07-.1,0-.11-.06-.12-.05-.07,0h0l-.13,0-.11,0-.12,0-.11,0h-.72l-.1,0c-.05,0-.09,0-.13.06s0,0,0,0H159.8a9.18,9.18,0,0,0-18.17,0H112.49v0l-.13,0a.45.45,0,0,0-.11,0l-.12,0h-.59l-.11,0-.13,0-.1,0-.13,0h0l-.07,0-.13.05-.1.06-.1,0-.11.07-.09.06-.1.08-.09.08-.08.08-.09.09-.07.08-.08.1-.06.09-.07.11-.06.1-.06.11a.61.61,0,0,1,0,.12l0,.07L95.08,186.56a2.44,2.44,0,0,0-1.65,2.31A15.74,15.74,0,0,0,99,201.4a20,20,0,0,0,12.85,4.24c10.93,0,18.57-6.9,18.57-16.77a2.41,2.41,0,0,0-1.77-2.32l-13.25-35.47h26.84a9.59,9.59,0,0,0,5.73,5.18v48.62h-3.24a9.78,9.78,0,0,0-9.41,7.34h-.29a2.26,2.26,0,0,0-2.43,2.23v5a2.54,2.54,0,0,0,2.43,2.56h31.3a2.4,2.4,0,0,0,2.26-2.56v-5a2.13,2.13,0,0,0-2.26-2.23h-.29a9.78,9.78,0,0,0-9.4-7.34h-3.77V156.26a9.62,9.62,0,0,0,6.25-5.18H186l-13.24,35.47a2.43,2.43,0,0,0-1.78,2.34,15.74,15.74,0,0,0,5.6,12.52,20.09,20.09,0,0,0,12.86,4.24c10.93,0,18.57-6.9,18.57-16.78a2.45,2.45,0,0,0-1.64-2.31l-14.53-38.93A.11.11,0,0,0,191.81,147.56Zm-68.38,38.81H100.35l11.54-30.94Zm33.25,23.41a4.91,4.91,0,0,1,4.15,2.44H140.61a4.93,4.93,0,0,1,4.16-2.44ZM178,186.37l11.54-30.94,11.54,30.94Z"/><path class="cls-1" d="M200.77,412l-13.9-20.79a42.49,42.49,0,0,0-2.73-12.76,3.55,3.55,0,0,0-3.31-2.27H177.1V365.33a3.53,3.53,0,0,0-3.54-3.54H169c-.15-.39-.31-.78-.48-1.16l3.24-3.25a3.53,3.53,0,0,0,0-5l-10-10a3.55,3.55,0,0,0-5,0l-3.24,3.25c-.39-.17-.77-.33-1.16-.48v-4.59a3.55,3.55,0,0,0-3.55-3.55H134.58a3.54,3.54,0,0,0-3.54,3.55v4.59c-.39.15-.78.31-1.16.48l-3.25-3.25a3.55,3.55,0,0,0-5,0l-10,10a3.55,3.55,0,0,0,0,5l3.25,3.25c-.17.38-.33.77-.48,1.16h-4.59a3.54,3.54,0,0,0-3.55,3.54V376.2h-3a3.54,3.54,0,0,0-3.31,2.27,42.56,42.56,0,0,0,25.55,55.31v20.61a3.54,3.54,0,0,0,3.54,3.54h40.4a3.54,3.54,0,0,0,3.54-3.54V436.2h10.39a3.55,3.55,0,0,0,3.55-3.54V417.54h10.89a3.55,3.55,0,0,0,2.94-5.52Zm-87.45-43.15h3.59a3.52,3.52,0,0,0,3.4-2.57,22.52,22.52,0,0,1,1.94-4.65,3.54,3.54,0,0,0-.59-4.23l-2.54-2.54,5-5,2.54,2.54a3.54,3.54,0,0,0,4.23.59,22.52,22.52,0,0,1,4.65-1.94,3.52,3.52,0,0,0,2.57-3.4v-3.59h7.09v3.59a3.53,3.53,0,0,0,2.57,3.4,22.6,22.6,0,0,1,4.66,1.94,3.54,3.54,0,0,0,4.23-.59l2.54-2.54,5,5-2.54,2.54a3.54,3.54,0,0,0-.59,4.23A22,22,0,0,1,163,366.3a3.54,3.54,0,0,0,3.41,2.57H170v7.33H155.33a14.17,14.17,0,1,0-27.32,0H113.32v-7.33Zm22.35,7.33a7.09,7.09,0,1,1,12,0Zm47.73,34.25a3.55,3.55,0,0,0-3.55,3.54v15.12H169.46a3.55,3.55,0,0,0-3.55,3.55v18.18h-33.3V431.19a3.55,3.55,0,0,0-2.58-3.41,35.54,35.54,0,0,1-24.22-44.5H178.3a35,35,0,0,1,1.53,9.21c.06,1.79.33,1.13,11.37,18Z"/><path class="cls-1" d="M677.34,472.38a37.9,37.9,0,0,0-31.79-7.57,37.64,37.64,0,0,0-18,64,28.85,28.85,0,0,1,8.92,20.71v7.07a10.28,10.28,0,0,0,10.26,10.27h13.68a10.29,10.29,0,0,0,10.27-10.27v-9.1c0-6.63,3.08-13.19,8.68-18.46a37.64,37.64,0,0,0-2.06-56.62ZM660.45,560H646.77a3.42,3.42,0,0,1-3.42-3.42v-3.65h20.52v3.65A3.42,3.42,0,0,1,660.45,560Zm-6.84-37.18-9.28-13.92,2.44-2.44,4.42,4.42a3.43,3.43,0,0,0,4.84,0l4.42-4.42,2.44,2.44Zm21.1,1.22c-6.61,6.22-10.41,14-10.8,22.05H657V530L670,510.62l6.61-6.6a3.42,3.42,0,0,0-4.84-4.84l-4.42,4.42-4.43-4.42a3.42,3.42,0,0,0-4.84,0l-4.42,4.42-4.42-4.42a3.42,3.42,0,0,0-4.84,0l-4.42,4.42-4.43-4.42a3.42,3.42,0,1,0-4.84,4.84l6.61,6.6L650.19,530v16.07h-7a35.87,35.87,0,0,0-10.86-22.23A30.8,30.8,0,0,1,647,471.5,31.09,31.09,0,0,1,673,477.69,30.8,30.8,0,0,1,674.71,524Z"/><path class="cls-1" d="M608.91,501.6a3.42,3.42,0,0,0-3.42-3.42h-6.85a3.42,3.42,0,1,0,0,6.84h6.85A3.42,3.42,0,0,0,608.91,501.6Z"/><path class="cls-1" d="M708.58,498.18h-6.85a3.42,3.42,0,0,0,0,6.84h6.85a3.42,3.42,0,0,0,0-6.84Z"/><path class="cls-1" d="M613.84,474.69l-5.92-3.42a3.42,3.42,0,1,0-3.42,5.92l5.92,3.42a3.42,3.42,0,1,0,3.42-5.92Z"/><path class="cls-1" d="M702.73,526l-5.93-3.42a3.42,3.42,0,0,0-3.42,5.93l5.92,3.42a3.43,3.43,0,1,0,3.43-5.93Z"/><path class="cls-1" d="M626.7,461.11a3.42,3.42,0,0,0,5.93-3.42l-3.43-5.93a3.42,3.42,0,0,0-5.92,3.42Z"/><path class="cls-1" d="M610.42,522.58,604.5,526a3.42,3.42,0,1,0,3.42,5.93l5.92-3.42a3.42,3.42,0,0,0-3.42-5.93Z"/><path class="cls-1" d="M696.8,480.61l5.93-3.42a3.42,3.42,0,1,0-3.43-5.92l-5.92,3.42a3.42,3.42,0,0,0,3.42,5.92Z"/><path class="cls-1" d="M675.85,462.36a3.41,3.41,0,0,0,4.67-1.25l3.42-5.93a3.42,3.42,0,1,0-5.92-3.42l-3.42,5.93A3.41,3.41,0,0,0,675.85,462.36Z"/><path class="cls-1" d="M711.24,288.66l-12.27-35a2.57,2.57,0,0,0-2.91-1.66l-12.79,2.56-22.47-6.68c-3.24-1-6.79-1.54-10.8.77L646,251l-4-2.32c-4-2.31-7.56-1.74-10.81-.77l-22.39,6.66-11.62-3.07a2.56,2.56,0,0,0-3,1.57l-13.22,35a2.55,2.55,0,0,0,1.11,3.11l11,6.35a8.84,8.84,0,0,0,8.85,12.29,8.85,8.85,0,0,0,12.52,7.85,8.82,8.82,0,0,0,10.45,5.15,9,9,0,0,0,1.91-.75A8.84,8.84,0,0,0,640.56,325l7.76,4.48a8.85,8.85,0,0,0,13.24-6.94A8.84,8.84,0,0,0,674,314.44a8.84,8.84,0,0,0,9.88-8.18,8.85,8.85,0,0,0,10.6-3.92,8.75,8.75,0,0,0,1.15-5.16l14.09-5.28a2.56,2.56,0,0,0,1.51-3.24Zm-112,15.63a3.75,3.75,0,0,1-1.37-5.11l3.56-6.17a3.74,3.74,0,0,1,2.28-1.74,3.68,3.68,0,0,1,2.83.37,3.75,3.75,0,0,1,1.38,5.11l-3.57,6.18h0a3.75,3.75,0,0,1-5.11,1.36Zm14.67,7.25a3.74,3.74,0,1,1-6.48-3.75l1.33-2.31h0l3.57-6.18h0l3.15-5.45a3.74,3.74,0,0,1,6.48,3.74l-.94,1.63h0l-6.16,10.69h0Zm11.85,4.65a3.74,3.74,0,0,1-6.49-3.73h0l6.16-10.68h0a3.75,3.75,0,0,1,5.12-1.37,3.68,3.68,0,0,1,1.73,2.27,3.75,3.75,0,0,1-.36,2.84l-1.31,2.25h0l-3.56,6.17h0Zm7.09,5.41a3.75,3.75,0,0,1-1.37-5.11l3.56-6.17a3.74,3.74,0,1,1,6.48,3.74L638,320.23A3.74,3.74,0,0,1,632.88,321.6Zm23.1,2.11a3.74,3.74,0,0,1-5.11,1.37l-7.34-4.24,2.44-4.23a8.79,8.79,0,0,0,1-2.45l7.68,4.44h0a3.75,3.75,0,0,1,1.36,5.11Zm37.79-31.28a9,9,0,0,0-2.51-2.17c-.94-.54-4.33-2.58-10.37-6.23a2.55,2.55,0,0,0-2.64,4.37c6.07,3.67,9.49,5.72,10.46,6.28a3.74,3.74,0,1,1-3.75,6.48L679.5,298h0l-20.3-11.72a2.55,2.55,0,0,0-2.56,4.42l20.31,11.72h0a3.74,3.74,0,1,1-3.74,6.48l-3.6-2.07h0l-17.82-10.29a2.55,2.55,0,1,0-2.55,4.42L667,311.24h0a3.74,3.74,0,0,1-.9,6.85,3.7,3.7,0,0,1-2.84-.37l-6.12-3.53h0l-11.25-6.49a8.83,8.83,0,0,0-8.37-4.31,8.84,8.84,0,0,0-10-8.51,9.23,9.23,0,0,0-.27-1.45,8.76,8.76,0,0,0-4.11-5.37A8.86,8.86,0,0,0,612,290a8.84,8.84,0,0,0-15,.51l-1.53,2.66-9.06-5.24L598.09,257l10.09,2.67a2.49,2.49,0,0,0,1.38,0l23.08-6.86c2.68-.8,4.56-1,6.8.3l1.45.84L632,259.1a8.92,8.92,0,0,0-3.26,12.17,9,9,0,0,0,12,3.34c2.41-1.19,5.92-2.76,8.56-3.77l9.33,5.65a2.55,2.55,0,1,0,2.65-4.36l-7.42-4.49-2.18-1.32c-1.13-.68-1.4-.84-2.12-.84a2.64,2.64,0,0,0-.84.14A106,106,0,0,0,638.45,270a4,4,0,0,1-5.34-1.32,3.81,3.81,0,0,1,1.39-5.2l18-10.42c2.23-1.29,4.11-1.1,6.8-.3l23.07,6.86a2.57,2.57,0,0,0,1.23.06l11.23-2.25L705.6,288Z"/><path class="cls-1" d="M669.75,277.71h0a2.56,2.56,0,1,0,2.56,2.56A2.56,2.56,0,0,0,669.74,277.71Z"/></g><g id="Textos"><path class="cls-2" d="M259.32,167.1H243.26v6.74h13.9v5h-13.9v7.23h16v5.22H237.61V161.88h21.71Zm-4.5-14.42-4.54,5.9h-4.81l3.25-5.9Z"/><path class="cls-2" d="M276.1,186.16l1.35,4.5a13.35,13.35,0,0,1-5,1,6.75,6.75,0,0,1-5.32-2,8.11,8.11,0,0,1-1.78-5.58v-9.15H261.8v-4.86h3.58v-6.9H271v6.9h6.23v4.86H271v9.15c0,1.79.87,2.69,2.61,2.69A5.48,5.48,0,0,0,276.1,186.16Z"/><path class="cls-2" d="M286.43,166.12a3.41,3.41,0,0,1-4.71,0,3.12,3.12,0,0,1-1-2.32,3.05,3.05,0,0,1,1-2.28,3.47,3.47,0,0,1,4.71,0,3.05,3.05,0,0,1,1,2.28A3.11,3.11,0,0,1,286.43,166.12Zm-5.22,25.22V170.06h5.59v21.28Z"/><path class="cls-2" d="M302.37,191.93a11,11,0,0,1-11.32-11.28,10.83,10.83,0,0,1,3.21-8,11.91,11.91,0,0,1,14.94-1,9.07,9.07,0,0,1,3.5,4.84l-5.18,1.47a4.42,4.42,0,0,0-1.8-2.48,5.61,5.61,0,0,0-3.42-1.05,5.29,5.29,0,0,0-4.17,1.83,6.46,6.46,0,0,0-1.62,4.43,6.54,6.54,0,0,0,1.62,4.44A5.28,5.28,0,0,0,302.3,187a5.7,5.7,0,0,0,3.41-1,4.24,4.24,0,0,0,1.81-2.4L312.7,185a9,9,0,0,1-3.48,4.84A11,11,0,0,1,302.37,191.93Z"/><path class="cls-2" d="M326,191.93a9.85,9.85,0,0,1-7.49-3.22,12.16,12.16,0,0,1,0-16.06,9.93,9.93,0,0,1,7.49-3.19,8.22,8.22,0,0,1,6.84,3.16v-2.56h5.6v21.28h-5.6v-2.61A8.17,8.17,0,0,1,326,191.93Zm1-5a5.79,5.79,0,0,0,4.31-1.79,6.17,6.17,0,0,0,1.75-4.52,6.05,6.05,0,0,0-1.75-4.45,5.81,5.81,0,0,0-4.31-1.77,5.68,5.68,0,0,0-4.29,1.75,6.18,6.18,0,0,0-1.69,4.47,6.31,6.31,0,0,0,1.69,4.54A5.66,5.66,0,0,0,326.91,187Z"/><path class="cls-2" d="M301.9,274.29h5.82v29.45H301.9V291.38H288.45v12.36h-5.77V274.29h5.77v11.87H301.9Z"/><path class="cls-2" d="M328.17,282.46h5.57v21.28h-5.57v-2.69a8.08,8.08,0,0,1-6.82,3.29,7.72,7.72,0,0,1-6.26-2.53,10.43,10.43,0,0,1-2.14-6.94V282.46h5.55v11.36a6.08,6.08,0,0,0,1.16,3.92,4.1,4.1,0,0,0,3.38,1.42,4.62,4.62,0,0,0,3.75-1.68,7,7,0,0,0,1.38-4.54Z"/><path class="cls-2" d="M364.63,281.87a8.05,8.05,0,0,1,6.14,2.42,9.54,9.54,0,0,1,2.28,6.8v12.65h-5.56V292.26q0-5.22-4.07-5.22a3.94,3.94,0,0,0-3.34,1.53,7.08,7.08,0,0,0-1.16,4.33v10.84h-5.61V292.26q0-5.22-4-5.22a4,4,0,0,0-3.42,1.59,7.25,7.25,0,0,0-1.18,4.43v10.68h-5.55V282.46h5.55V285a7.6,7.6,0,0,1,6.32-3.12,7.06,7.06,0,0,1,6.39,3.2A8.64,8.64,0,0,1,364.63,281.87Z"/><path class="cls-2" d="M387.51,304.34a9.88,9.88,0,0,1-7.49-3.23,12.14,12.14,0,0,1,0-16.05,9.91,9.91,0,0,1,7.49-3.19,8.17,8.17,0,0,1,6.84,3.16v-2.57H400v21.28h-5.61v-2.61A8.13,8.13,0,0,1,387.51,304.34Zm1-5a5.79,5.79,0,0,0,4.31-1.79,6.22,6.22,0,0,0,1.75-4.52,6.08,6.08,0,0,0-1.75-4.45,5.81,5.81,0,0,0-4.31-1.77,5.74,5.74,0,0,0-4.3,1.74,6.21,6.21,0,0,0-1.68,4.48,6.32,6.32,0,0,0,1.68,4.54A5.69,5.69,0,0,0,388.48,299.37Z"/><path class="cls-2" d="M417.81,281.87A7.71,7.71,0,0,1,424,284.4a10.31,10.31,0,0,1,2.15,6.9v12.44h-5.57v-11.4a6,6,0,0,0-1.15-3.89,4.13,4.13,0,0,0-3.39-1.41,4.63,4.63,0,0,0-3.73,1.69,6.82,6.82,0,0,0-1.4,4.5v10.51H405.4V282.46H411v2.69A8.25,8.25,0,0,1,417.81,281.87Z"/><path class="cls-2" d="M436.6,278.53a3.27,3.27,0,0,1-2.35.94,3.22,3.22,0,0,1-2.35-1,3.1,3.1,0,0,1-1-2.32,3,3,0,0,1,1-2.28,3.46,3.46,0,0,1,4.7,0,3.06,3.06,0,0,1,1,2.28A3.12,3.12,0,0,1,436.6,278.53Zm-5.22,25.21V282.46H437v21.28Z"/><path class="cls-2" d="M448.86,299.12h11.63v4.62h-19v-3.53L452.74,287h-11v-4.58H460.1V286Z"/><path class="cls-2" d="M473.26,304.34a9.85,9.85,0,0,1-7.48-3.23,12.14,12.14,0,0,1,0-16.05,9.89,9.89,0,0,1,7.48-3.19A8.17,8.17,0,0,1,480.1,285v-2.57h5.61v21.28H480.1v-2.61A8.13,8.13,0,0,1,473.26,304.34Zm1-5a5.79,5.79,0,0,0,4.31-1.79,6.18,6.18,0,0,0,1.75-4.52,6,6,0,0,0-1.75-4.45,5.81,5.81,0,0,0-4.31-1.77,5.7,5.7,0,0,0-4.29,1.74,6.17,6.17,0,0,0-1.69,4.48,6.29,6.29,0,0,0,1.69,4.54A5.66,5.66,0,0,0,474.23,299.37Z"/><path class="cls-2" d="M501.11,299.37a5.77,5.77,0,0,0,3.41-1,4.24,4.24,0,0,0,1.81-2.4l5.18,1.44a8.7,8.7,0,0,1-2.75,4.25,10.35,10.35,0,0,1-5.37,2.46l-.59,1.95a3.56,3.56,0,0,1,2.24,1.11,3.07,3.07,0,0,1,.88,2.16,3.29,3.29,0,0,1-1.34,2.78,5.73,5.73,0,0,1-3.55,1,7.13,7.13,0,0,1-4.45-1.44l.67-2.28a4.74,4.74,0,0,0,3.1.91c1.14-.07,1.71-.5,1.71-1.28s-.42-1.08-1.24-1.32a4.5,4.5,0,0,0-2.52,0l1.11-3.49a10.76,10.76,0,0,1-6.88-3.71,11.08,11.08,0,0,1-2.67-7.45,10.84,10.84,0,0,1,3.21-8A11.92,11.92,0,0,1,508,284a9.14,9.14,0,0,1,3.5,4.84l-5.18,1.48a4.35,4.35,0,0,0-1.8-2.48,5.61,5.61,0,0,0-3.42-1.05,5.32,5.32,0,0,0-4.18,1.83,6.46,6.46,0,0,0-1.61,4.43,6.61,6.61,0,0,0,1.61,4.44A5.29,5.29,0,0,0,501.11,299.37Z"/><path class="cls-2" d="M524.76,304.34a9.86,9.86,0,0,1-7.49-3.23,12.14,12.14,0,0,1,0-16.05,9.9,9.9,0,0,1,7.49-3.19,8.17,8.17,0,0,1,6.83,3.16v-2.57h5.61v21.28h-5.61v-2.61A8.12,8.12,0,0,1,524.76,304.34Zm4.1-24.75a6.31,6.31,0,0,1-3.08-1.07,7,7,0,0,0-2.26-1.07c-.64,0-1,.67-1,2H518.9q0-6.06,4.05-6.06a6.22,6.22,0,0,1,3.1,1.1,6.87,6.87,0,0,0,2.28,1.09q1,0,1-2H533Q533,279.59,528.86,279.59Zm-3.14,19.78a5.79,5.79,0,0,0,4.31-1.79,6.18,6.18,0,0,0,1.75-4.52,6,6,0,0,0-1.75-4.45,5.81,5.81,0,0,0-4.31-1.77,5.7,5.7,0,0,0-4.29,1.74,6.17,6.17,0,0,0-1.69,4.48,6.29,6.29,0,0,0,1.69,4.54A5.66,5.66,0,0,0,525.72,299.37Z"/><path class="cls-2" d="M552.75,304.34a11.06,11.06,0,0,1-8.16-3.23,11.53,11.53,0,0,1,0-16,11.94,11.94,0,0,1,16.29,0,11.55,11.55,0,0,1,0,16A11,11,0,0,1,552.75,304.34Zm-4.31-6.8a6.17,6.17,0,0,0,8.61,0,6.75,6.75,0,0,0,0-8.87,6.17,6.17,0,0,0-8.61,0,6.72,6.72,0,0,0,0,8.87Z"/><path class="cls-2" d="M380.09,527V497.57H386V527Z"/><path class="cls-2" d="M403.8,505.15a7.71,7.71,0,0,1,6.23,2.53,10.31,10.31,0,0,1,2.15,6.9V527h-5.57v-11.4a5.94,5.94,0,0,0-1.15-3.89,4.13,4.13,0,0,0-3.39-1.41,4.62,4.62,0,0,0-3.73,1.68,6.81,6.81,0,0,0-1.41,4.5V527h-5.54V505.75h5.54v2.69A8.29,8.29,0,0,1,403.8,505.15Z"/><path class="cls-2" d="M427.52,527.62a11.09,11.09,0,0,1-8.17-3.22,11.56,11.56,0,0,1,0-16,11.92,11.92,0,0,1,16.3,0,11.55,11.55,0,0,1,0,16A11,11,0,0,1,427.52,527.62Zm-4.32-6.8a6.18,6.18,0,0,0,8.62,0,6.79,6.79,0,0,0,0-8.87,6.21,6.21,0,0,0-8.62,0,6.75,6.75,0,0,0,0,8.87Z"/><path class="cls-2" d="M457.24,505.75h6.06L454.51,527h-6.27l-8.79-21.28h6.1l5.85,15.14Z"/><path class="cls-2" d="M474.7,527.62a9.85,9.85,0,0,1-7.49-3.22,12.14,12.14,0,0,1,0-16,9.9,9.9,0,0,1,7.49-3.2,8.2,8.2,0,0,1,6.84,3.17v-2.57h5.6V527h-5.6v-2.61A8.17,8.17,0,0,1,474.7,527.62Zm1-5a5.75,5.75,0,0,0,4.31-1.79,6.16,6.16,0,0,0,1.75-4.51,6.06,6.06,0,0,0-1.75-4.46,5.81,5.81,0,0,0-4.31-1.77,5.71,5.71,0,0,0-4.29,1.75,6.2,6.2,0,0,0-1.69,4.48,6.33,6.33,0,0,0,1.69,4.54A5.68,5.68,0,0,0,475.66,522.65Z"/><path class="cls-2" d="M502.55,522.65a5.81,5.81,0,0,0,3.41-1,4.24,4.24,0,0,0,1.8-2.41l5.18,1.44a8.55,8.55,0,0,1-2.75,4.25,10.45,10.45,0,0,1-5.36,2.47l-.6,2a3.54,3.54,0,0,1,2.24,1.11,3.06,3.06,0,0,1,.88,2.15A3.3,3.3,0,0,1,506,535.4a5.78,5.78,0,0,1-3.54,1A7.19,7.19,0,0,1,498,535l.68-2.28a4.66,4.66,0,0,0,3.1.9c1.13-.07,1.7-.49,1.7-1.27s-.41-1.09-1.24-1.33a4.59,4.59,0,0,0-2.52,0l1.11-3.49a10.74,10.74,0,0,1-6.88-3.71,11,11,0,0,1-2.67-7.44,10.79,10.79,0,0,1,3.22-8,10.91,10.91,0,0,1,8-3.21,11,11,0,0,1,6.89,2.15,9,9,0,0,1,3.5,4.84l-5.18,1.47a4.44,4.44,0,0,0-1.79-2.48,5.61,5.61,0,0,0-3.42-1.05,5.31,5.31,0,0,0-4.18,1.83,6.91,6.91,0,0,0,0,8.87A5.25,5.25,0,0,0,502.55,522.65Z"/><path class="cls-2" d="M526.19,527.62a9.87,9.87,0,0,1-7.49-3.22,12.14,12.14,0,0,1,0-16,9.92,9.92,0,0,1,7.49-3.2,8.2,8.2,0,0,1,6.84,3.17v-2.57h5.6V527H533v-2.61A8.17,8.17,0,0,1,526.19,527.62Zm4.11-24.75a6.18,6.18,0,0,1-3.08-1.07,7,7,0,0,0-2.26-1.06c-.65,0-1,.67-1,2h-3.65c0-4,1.34-6.06,4-6.06a6.29,6.29,0,0,1,3.1,1.1,7.19,7.19,0,0,0,2.28,1.1c.65,0,1-.67,1-2h3.65Q534.38,502.87,530.3,502.87Zm-3.15,19.78a5.77,5.77,0,0,0,4.32-1.79,6.19,6.19,0,0,0,1.74-4.51,6.09,6.09,0,0,0-1.74-4.46,5.83,5.83,0,0,0-4.32-1.77,5.71,5.71,0,0,0-4.29,1.75,6.19,6.19,0,0,0-1.68,4.48,6.32,6.32,0,0,0,1.68,4.54A5.68,5.68,0,0,0,527.15,522.65Z"/><path class="cls-2" d="M554.18,527.62A11.09,11.09,0,0,1,546,524.4a11.53,11.53,0,0,1,0-16,11.92,11.92,0,0,1,16.3,0,11.57,11.57,0,0,1,0,16A11,11,0,0,1,554.18,527.62Zm-4.31-6.8a6.18,6.18,0,0,0,8.62,0,6.79,6.79,0,0,0,0-8.87,6.21,6.21,0,0,0-8.62,0,6.75,6.75,0,0,0,0,8.87Z"/><path class="cls-2" d="M259.32,391.66H243.26v6.74h13.9v5.05h-13.9v7.23h16v5.22H237.61V386.45h21.71Z"/><path class="cls-2" d="M284.05,415.9H277.7l-5-6.78-5,6.78h-6.31l7.95-10.76-7.6-10.52H268l4.66,6.43,4.7-6.43h6.29l-7.58,10.52Z"/><path class="cls-2" d="M299.35,394a9.83,9.83,0,0,1,7.46,3.2,12.17,12.17,0,0,1,0,16,9.81,9.81,0,0,1-7.44,3.22,8.37,8.37,0,0,1-6.9-3.2v11.44H286.9V394.62h5.55v2.57A8.35,8.35,0,0,1,299.35,394Zm-1,17.5a5.72,5.72,0,0,0,4.3-1.76,6.32,6.32,0,0,0,1.68-4.54,6.19,6.19,0,0,0-1.68-4.48,6.15,6.15,0,0,0-8.61,0,6.1,6.1,0,0,0-1.75,4.46,6.24,6.24,0,0,0,1.75,4.52A5.78,5.78,0,0,0,298.38,411.52Z"/><path class="cls-2" d="M324.28,416.49a11.56,11.56,0,0,1-8.35-3.09,10.78,10.78,0,0,1-3.21-8.14,11.1,11.1,0,0,1,3.09-8,10.69,10.69,0,0,1,8-3.2,10.51,10.51,0,0,1,8,3.12,10.9,10.9,0,0,1,2.95,7.83,12.12,12.12,0,0,1-.12,2H318.18a5.37,5.37,0,0,0,1.85,3.51,6.52,6.52,0,0,0,4.34,1.32,5.35,5.35,0,0,0,5.17-2.81l5,1.47a10.05,10.05,0,0,1-3.73,4.24A11.36,11.36,0,0,1,324.28,416.49Zm-6.1-13h11.24a5.13,5.13,0,0,0-1.71-3.37,5.61,5.61,0,0,0-3.9-1.35,5.49,5.49,0,0,0-3.85,1.39A5.37,5.37,0,0,0,318.18,403.45Z"/><path class="cls-2" d="M344.58,397.76q2.09-4.12,7-3.45v5.22q-3.5-.55-5.26,1.18c-1.18,1.16-1.76,3.13-1.76,5.92v9.27H339V394.62h5.55Z"/><path class="cls-2" d="M360.39,390.69a3.26,3.26,0,0,1-2.35.93,3.21,3.21,0,0,1-2.35-.94,3.11,3.11,0,0,1-1-2.32,3,3,0,0,1,1-2.29,3.46,3.46,0,0,1,4.7,0,3.07,3.07,0,0,1,1,2.29A3.14,3.14,0,0,1,360.39,390.69Zm-5.22,25.21V394.62h5.59V415.9Z"/><path class="cls-2" d="M387.13,405a12.12,12.12,0,0,1-.12,2H370.47a5.41,5.41,0,0,0,1.85,3.51,6.52,6.52,0,0,0,4.34,1.32,5.34,5.34,0,0,0,5.17-2.81l5,1.47a10,10,0,0,1-3.72,4.24,12.76,12.76,0,0,1-14.89-1.27,10.75,10.75,0,0,1-3.22-8.14,11.1,11.1,0,0,1,3.09-8,10.69,10.69,0,0,1,8-3.2,10.49,10.49,0,0,1,8,3.13A10.93,10.93,0,0,1,387.13,405Zm-10.95-16.72L374,391.54H369l4.59-6.06h5.34l4.6,6.06h-5.06Zm-5.71,15.2h11.24a5.16,5.16,0,0,0-1.7-3.37,5.63,5.63,0,0,0-3.91-1.35,5.49,5.49,0,0,0-3.85,1.39A5.37,5.37,0,0,0,370.47,403.45Z"/><path class="cls-2" d="M403.73,394a7.74,7.74,0,0,1,6.23,2.53,10.31,10.31,0,0,1,2.15,6.9V415.9h-5.57V404.5a5.94,5.94,0,0,0-1.15-3.89A4.13,4.13,0,0,0,402,399.2a4.62,4.62,0,0,0-3.73,1.68,6.86,6.86,0,0,0-1.4,4.5V415.9h-5.55V394.62h5.55v2.69A8.27,8.27,0,0,1,403.73,394Z"/><path class="cls-2" d="M427.37,416.49a11,11,0,0,1-11.32-11.28,10.78,10.78,0,0,1,3.22-8,11.88,11.88,0,0,1,14.93-1.05,9,9,0,0,1,3.5,4.84l-5.18,1.48a4.43,4.43,0,0,0-1.79-2.49,5.65,5.65,0,0,0-3.42-1.05,5.29,5.29,0,0,0-4.18,1.83,6.46,6.46,0,0,0-1.62,4.44,6.54,6.54,0,0,0,1.63,4.43,5.25,5.25,0,0,0,4.17,1.87,5.81,5.81,0,0,0,3.41-1,4.24,4.24,0,0,0,1.8-2.41l5.18,1.44a9,9,0,0,1-3.48,4.84A11,11,0,0,1,427.37,416.49Z"/><path class="cls-2" d="M446.9,390.69a3.42,3.42,0,0,1-4.7,0,3.11,3.11,0,0,1-1-2.32,3,3,0,0,1,1-2.29,3.46,3.46,0,0,1,4.7,0,3.07,3.07,0,0,1,1,2.29A3.14,3.14,0,0,1,446.9,390.69Zm-5.22,25.21V394.62h5.59V415.9Z"/><path class="cls-2" d="M462,416.49a9.87,9.87,0,0,1-7.49-3.22,12.14,12.14,0,0,1,0-16A9.92,9.92,0,0,1,462,394a8.2,8.2,0,0,1,6.84,3.17v-2.57h5.6V415.9h-5.6v-2.61A8.15,8.15,0,0,1,462,416.49Zm1-5a5.8,5.8,0,0,0,4.32-1.78,6.23,6.23,0,0,0,1.74-4.52,6.09,6.09,0,0,0-1.74-4.46A5.83,5.83,0,0,0,463,399a5.71,5.71,0,0,0-4.29,1.75,6.19,6.19,0,0,0-1.68,4.48,6.32,6.32,0,0,0,1.68,4.54A5.68,5.68,0,0,0,463,411.52Z"/><path class="cls-2" d="M260.9,611v5.22H251v24.23h-5.77V616.23h-9.88V611Z"/><path class="cls-2" d="M266.72,622.33q2.08-4.14,7-3.45v5.21c-2.33-.37-4.08,0-5.26,1.18s-1.76,3.14-1.76,5.93v9.26h-5.55V619.18h5.55Z"/><path class="cls-2" d="M285.41,641.06a9.86,9.86,0,0,1-7.49-3.23,12.14,12.14,0,0,1,0-16.05,9.9,9.9,0,0,1,7.49-3.19,8.2,8.2,0,0,1,6.84,3.16v-2.57h5.6v21.28h-5.6v-2.61A8.16,8.16,0,0,1,285.41,641.06Zm1-5a5.79,5.79,0,0,0,4.31-1.79,6.18,6.18,0,0,0,1.75-4.52,6.08,6.08,0,0,0-1.75-4.46,5.84,5.84,0,0,0-4.31-1.76,5.7,5.7,0,0,0-4.29,1.74,6.22,6.22,0,0,0-1.69,4.48,6.33,6.33,0,0,0,1.69,4.54A5.66,5.66,0,0,0,286.37,636.09Z"/><path class="cls-2" d="M315.7,618.59a7.72,7.72,0,0,1,6.23,2.52,10.3,10.3,0,0,1,2.15,6.91v12.44h-5.57v-11.4a6,6,0,0,0-1.15-3.89,4.09,4.09,0,0,0-3.38-1.41,4.63,4.63,0,0,0-3.73,1.69,6.77,6.77,0,0,0-1.41,4.5v10.51H303.3V619.18h5.54v2.69A8.26,8.26,0,0,1,315.7,618.59Z"/><path class="cls-2" d="M337.7,641.06a11.63,11.63,0,0,1-6.65-1.94,8.83,8.83,0,0,1-3.7-4.63l5-1.46a5,5,0,0,0,2,2.54,6.17,6.17,0,0,0,3.52,1,4.59,4.59,0,0,0,2.55-.64,1.83,1.83,0,0,0,1-1.56c0-.93-.79-1.63-2.36-2.09l-5.43-1.6c-3.5-1-5.26-2.91-5.26-5.69a5.5,5.5,0,0,1,2.51-4.52,9.78,9.78,0,0,1,6-1.87,11.43,11.43,0,0,1,5.88,1.47,8.16,8.16,0,0,1,3.55,3.91l-4.93,1.44a4.81,4.81,0,0,0-4.54-2.49,3.84,3.84,0,0,0-2.15.59,1.65,1.65,0,0,0-.89,1.34c0,.78.59,1.35,1.76,1.69l5.3,1.52a12.22,12.22,0,0,1,4.42,2.14,4.82,4.82,0,0,1,1.56,3.92,6,6,0,0,1-2.58,5A10.67,10.67,0,0,1,337.7,641.06Z"/><path class="cls-2" d="M358.28,617.25v1.93h6.43v4.87h-6.43v16.41h-5.55V624.05h-4.08v-4.87h4.08v-1.93a8.63,8.63,0,0,1,1.91-5.93,7.05,7.05,0,0,1,5.57-2.16,11.46,11.46,0,0,1,4.81.92l-1.36,4.46A6.16,6.16,0,0,0,361,614a2.49,2.49,0,0,0-2,.86A3.62,3.62,0,0,0,358.28,617.25Z"/><path class="cls-2" d="M376.66,641.06a11.08,11.08,0,0,1-8.16-3.23,11.53,11.53,0,0,1,0-16,12,12,0,0,1,16.3,0,11.26,11.26,0,0,1-8.14,19.26Zm-4.31-6.8a6.17,6.17,0,0,0,8.61,0,6.75,6.75,0,0,0,0-8.87,6.17,6.17,0,0,0-8.61,0,6.72,6.72,0,0,0,0,8.87Z"/><path class="cls-2" d="M397.76,622.33q2.08-4.14,7-3.45v5.21c-2.33-.37-4.08,0-5.26,1.18s-1.76,3.14-1.76,5.93v9.26h-5.55V619.18h5.55Z"/><path class="cls-2" d="M433.84,618.59A8,8,0,0,1,440,621a9.54,9.54,0,0,1,2.28,6.8v12.65H436.7V629q0-5.22-4.07-5.22a4,4,0,0,0-3.34,1.53,7.08,7.08,0,0,0-1.16,4.33v10.84h-5.6V629q0-5.22-4-5.22a4,4,0,0,0-3.42,1.59,7.25,7.25,0,0,0-1.18,4.43v10.68h-5.55V619.18h5.55v2.53a7.6,7.6,0,0,1,6.33-3.12,7.05,7.05,0,0,1,6.38,3.2A8.64,8.64,0,0,1,433.84,618.59Z"/><path class="cls-2" d="M456.72,641.06a9.85,9.85,0,0,1-7.48-3.23,12.14,12.14,0,0,1,0-16.05,9.89,9.89,0,0,1,7.48-3.19,8.17,8.17,0,0,1,6.84,3.16v-2.57h5.61v21.28h-5.61v-2.61A8.13,8.13,0,0,1,456.72,641.06Zm1-5A5.79,5.79,0,0,0,462,634.3a6.18,6.18,0,0,0,1.75-4.52,6.08,6.08,0,0,0-1.75-4.46,5.84,5.84,0,0,0-4.31-1.76,5.7,5.7,0,0,0-4.29,1.74,6.17,6.17,0,0,0-1.69,4.48,6.29,6.29,0,0,0,1.69,4.54A5.66,5.66,0,0,0,457.69,636.09Z"/><path class="cls-2" d="M484.57,636.09a5.77,5.77,0,0,0,3.41-1,4.24,4.24,0,0,0,1.81-2.4l5.18,1.44a8.7,8.7,0,0,1-2.75,4.25,10.43,10.43,0,0,1-5.37,2.46l-.59,1.95a3.56,3.56,0,0,1,2.24,1.11,3.07,3.07,0,0,1,.88,2.16,3.31,3.31,0,0,1-1.34,2.78,5.73,5.73,0,0,1-3.55,1,7.13,7.13,0,0,1-4.45-1.44l.67-2.28a4.68,4.68,0,0,0,3.1.9c1.14-.06,1.71-.49,1.71-1.27s-.42-1.08-1.24-1.32a4.5,4.5,0,0,0-2.52,0l1.11-3.49a10.76,10.76,0,0,1-6.88-3.71,11.08,11.08,0,0,1-2.67-7.45,10.84,10.84,0,0,1,3.21-8,11.92,11.92,0,0,1,14.94-1.06,9.14,9.14,0,0,1,3.5,4.84l-5.18,1.48a4.35,4.35,0,0,0-1.8-2.48,5.61,5.61,0,0,0-3.42-1.05,5.32,5.32,0,0,0-4.18,1.83,6.46,6.46,0,0,0-1.61,4.43,6.61,6.61,0,0,0,1.61,4.44A5.29,5.29,0,0,0,484.57,636.09Z"/><path class="cls-2" d="M508.22,641.06a9.86,9.86,0,0,1-7.49-3.23,12.14,12.14,0,0,1,0-16.05,9.9,9.9,0,0,1,7.49-3.19,8.17,8.17,0,0,1,6.83,3.16v-2.57h5.61v21.28h-5.61v-2.61A8.12,8.12,0,0,1,508.22,641.06Zm4.1-24.75a6.31,6.31,0,0,1-3.08-1.07,7,7,0,0,0-2.26-1.07c-.64,0-1,.67-1,2h-3.66q0-6.06,4.05-6.06a6.22,6.22,0,0,1,3.1,1.1,6.87,6.87,0,0,0,2.28,1.09q1,0,1-2h3.66Q516.41,616.31,512.32,616.31Zm-3.14,19.78a5.79,5.79,0,0,0,4.31-1.79,6.18,6.18,0,0,0,1.75-4.52,6.08,6.08,0,0,0-1.75-4.46,5.84,5.84,0,0,0-4.31-1.76,5.7,5.7,0,0,0-4.29,1.74,6.17,6.17,0,0,0-1.69,4.48,6.29,6.29,0,0,0,1.69,4.54A5.66,5.66,0,0,0,509.18,636.09Z"/><path class="cls-2" d="M536.21,641.06a11.06,11.06,0,0,1-8.16-3.23,11.53,11.53,0,0,1,0-16,11.94,11.94,0,0,1,16.29,0,11.55,11.55,0,0,1,0,16A11,11,0,0,1,536.21,641.06Zm-4.31-6.8a6.17,6.17,0,0,0,8.61,0,6.75,6.75,0,0,0,0-8.87,6.17,6.17,0,0,0-8.61,0,6.72,6.72,0,0,0,0,8.87Z"/><path class="cls-2" d="M311.86,19.09h7.54l-13.79,35h-7.52l-13.79-35h7.54l10,26.32Z"/><path class="cls-2" d="M344.55,54.1l-2.86-7.6H326L323,54.1h-7.1l13.4-35h8.91l13.45,35ZM328.19,40.45H339.4l-5.62-14.8Z"/><path class="cls-2" d="M361.93,47.8h17.43v6.3H355.07v-35h6.86Z"/><path class="cls-2" d="M412.35,49.57a18.38,18.38,0,0,1-31.52-13,17.48,17.48,0,0,1,5.25-12.94,19.19,19.19,0,0,1,26.27,0,17.54,17.54,0,0,1,5.22,12.94A17.71,17.71,0,0,1,412.35,49.57Zm-21.41-4.52a11.75,11.75,0,0,0,16.55,0,12,12,0,0,0,3.17-8.51,11.79,11.79,0,0,0-3.17-8.39,11.77,11.77,0,0,0-16.55,0,11.8,11.8,0,0,0-3.18,8.39A12,12,0,0,0,390.94,45.05Z"/><path class="cls-2" d="M444.79,54.1l-7.93-12.26h-7.45V54.1H422.6v-35h17a11.47,11.47,0,0,1,8.71,3.48A11.22,11.22,0,0,1,444,41.16L452.7,54.1ZM429.41,25.24v10.6h9.79a5.84,5.84,0,0,0,4.2-1.54,5.23,5.23,0,0,0,0-7.51,5.47,5.47,0,0,0-4-1.55Z"/><path class="cls-2" d="M483.15,25.29H464.06v8h16.53v6H464.06v8.6h19v6.2H457.34v-35h25.81Z"/><path class="cls-2" d="M501.9,54.81a17.08,17.08,0,0,1-10.3-3.08,15.85,15.85,0,0,1-5.86-7.54l6.56-2A9.92,9.92,0,0,0,496,46.93a10.72,10.72,0,0,0,6.26,1.82,8.19,8.19,0,0,0,4.81-1.3A3.76,3.76,0,0,0,509,44.36a3.27,3.27,0,0,0-1-2.41,9.25,9.25,0,0,0-3.57-1.79l-8.93-2.81a13.38,13.38,0,0,1-5.82-3.41,7.47,7.47,0,0,1-2.09-5.5,8.7,8.7,0,0,1,3.55-7.09,13.7,13.7,0,0,1,9-3,17.31,17.31,0,0,1,9.5,2.58,13.48,13.48,0,0,1,5.57,6.41l-6.37,1.85a8.43,8.43,0,0,0-3.42-3.46,10.4,10.4,0,0,0-5.23-1.32,6.88,6.88,0,0,0-4.06,1.1,3.21,3.21,0,0,0-1.58,2.68q0,2.3,3.35,3.3l8.69,2.81a18.66,18.66,0,0,1,7,3.51,7.67,7.67,0,0,1,2.41,6.08,9.57,9.57,0,0,1-3.9,7.73A15.58,15.58,0,0,1,501.9,54.81Z"/></g><g id="Lines"><polyline class="cls-3" points="544.42 36.82 626.42 36.82 804.26 36.82 804.26 713.34"/><polyline class="cls-3" points="261.84 36.82 179.84 36.82 2 36.82 2 713.34"/><rect class="cls-3" x="261.84" y="2" width="282.58" height="69.64"/></g></g></g></svg>